<svg width="32" height="32" viewBox="0 0 32 32" fill="none" xmlns="http://www.w3.org/2000/svg">
<path fill-rule="evenodd" clip-rule="evenodd" d="M16.0001 12.5C16.5524 12.5 17.0001 12.9477 17.0001 13.5L17.0001 27C17.0001 27.5523 16.5524 28 16.0001 28C15.4479 28 15.0001 27.5523 15.0001 27L15.0001 13.5C15.0001 12.9477 15.4478 12.5 16.0001 12.5Z" fill="black"/>
<path fill-rule="evenodd" clip-rule="evenodd" d="M16.0001 4C16.5524 4 17.0001 4.44772 17.0001 5L17.0001 8.5C17.0001 9.05229 16.5524 9.5 16.0001 9.5C15.4478 9.5 15.0001 9.05228 15.0001 8.5L15.0001 5C15.0001 4.44771 15.4479 4 16.0001 4Z" fill="black"/>
<path fill-rule="evenodd" clip-rule="evenodd" d="M16.0001 9.5C15.1717 9.5 14.5001 10.1716 14.5001 11C14.5001 11.8284 15.1717 12.5 16.0001 12.5C16.8285 12.5 17.5001 11.8284 17.5001 11C17.5001 10.1716 16.8285 9.5 16.0001 9.5ZM12.5001 11C12.5001 9.067 14.0671 7.5 16.0001 7.5C17.9331 7.5 19.5001 9.067 19.5001 11C19.5001 12.933 17.9331 14.5 16.0001 14.5C14.0671 14.5 12.5001 12.933 12.5001 11Z" fill="black"/>
<path fill-rule="evenodd" clip-rule="evenodd" d="M25.0001 22.5C25.5524 22.5 26.0001 22.9477 26.0001 23.5L26.0002 27C26.0002 27.5523 25.5525 28 25.0003 28C24.448 28 24.0002 27.5523 24.0002 27L24.0001 23.5C24.0001 22.9477 24.4478 22.5 25.0001 22.5Z" fill="black"/>
<path fill-rule="evenodd" clip-rule="evenodd" d="M25.0002 4C25.5525 4 26.0002 4.44772 26.0002 5.00001L26.0001 18.5C26.0001 19.0523 25.5524 19.5 25.0001 19.5C24.4478 19.5 24.0001 19.0523 24.0001 18.5L24.0002 4.99999C24.0002 4.44771 24.448 4 25.0002 4Z" fill="black"/>
<path fill-rule="evenodd" clip-rule="evenodd" d="M25.0001 19.5C24.1717 19.5 23.5001 20.1716 23.5001 21C23.5001 21.8284 24.1717 22.5 25.0001 22.5C25.8285 22.5 26.5001 21.8284 26.5001 21C26.5001 20.1716 25.8285 19.5 25.0001 19.5ZM21.5001 21C21.5001 19.067 23.0671 17.5 25.0001 17.5C26.9331 17.5 28.5001 19.067 28.5001 21C28.5001 22.933 26.9331 24.5 25.0001 24.5C23.0671 24.5 21.5001 22.933 21.5001 21Z" fill="black"/>
<path fill-rule="evenodd" clip-rule="evenodd" d="M7.00014 18.5C7.55243 18.5 8.00014 18.9477 8.00013 19.5L8.00006 27C8.00006 27.5523 7.55234 28 7.00005 28C6.44777 28 6.00006 27.5523 6.00006 27L6.00013 19.5C6.00014 18.9477 6.44786 18.5 7.00014 18.5Z" fill="black"/>
<path fill-rule="evenodd" clip-rule="evenodd" d="M7.00005 4C7.55234 4 8.00006 4.44771 8.00006 4.99999L8.00013 14.5C8.00014 15.0523 7.55243 15.5 7.00014 15.5C6.44786 15.5 6.00014 15.0523 6.00013 14.5L6.00006 5.00001C6.00006 4.44772 6.44777 4 7.00005 4Z" fill="black"/>
<path fill-rule="evenodd" clip-rule="evenodd" d="M7.00012 15.5C6.1717 15.5 5.50012 16.1716 5.50012 17C5.50012 17.8284 6.1717 18.5 7.00012 18.5C7.82855 18.5 8.50012 17.8284 8.50012 17C8.50012 16.1716 7.82855 15.5 7.00012 15.5ZM3.50012 17C3.50012 15.067 5.06713 13.5 7.00012 13.5C8.93312 13.5 10.5001 15.067 10.5001 17C10.5001 18.933 8.93312 20.5 7.00012 20.5C5.06713 20.5 3.50012 18.933 3.50012 17Z" fill="black"/>
</svg>
