<svg width="80" height="36" viewBox="0 0 80 36" fill="none" xmlns="http://www.w3.org/2000/svg">
<path d="M0 18C0 8.05888 8.05887 0 18 0H62C71.9411 0 80 8.05888 80 18C80 27.9411 71.9411 36 62 36H18C8.05888 36 0 27.9411 0 18Z" fill="white"/>
<path d="M53.5 28.5H26.5L25.5 25.5H54.5L53.5 28.5Z" fill="#EDEBFD"/>
<path d="M54.5 25.5L53.5 28.5H50.5L51.5 25.5H54.5Z" fill="#D2D2FC"/>
<path d="M54.5 25V25.5H25.5V25C25.5 17.4981 31.1969 11.3275 38.5 10.5769C47.0627 9.69781 54.5 16.3988 54.5 25Z" fill="#FDA92B"/>
<path d="M54.5002 25V25.5H51.5002V25C51.5002 17.425 45.7315 11.3237 38.5059 10.5762C47.0659 9.70121 54.5002 16.4006 54.5002 25Z" fill="#FDA92B"/>
<path d="M41.5 8.99996V10.5768C40.5366 10.478 39.5328 10.4708 38.5 10.5768V8.99996C38.5 7.66809 40.1179 6.99877 41.0606 7.93934C41.3319 8.21121 41.5 8.58621 41.5 8.99996Z" fill="#FDA92B"/>
<path d="M39.25 7.70135C39.7211 7.97398 40.0001 8.46992 40.0001 8.99998V10.5C40.5064 10.5 41.007 10.5262 41.5001 10.5769V8.99998C41.5001 7.85279 40.2522 7.12092 39.25 7.70135Z" fill="#FDA92B"/>
<path d="M55.5 25H55C55 17.2758 49.2228 11.0889 42 10.1324V9C42 7.89719 41.1028 7 40 7C38.8972 7 38 7.89719 38 9V10.1324C30.7791 11.0886 25 17.2752 25 25H24.5C24.2239 25 24 25.2239 24 25.5C24 25.7761 24.2239 26 24.5 26H25.1396L26.0257 28.6581C26.0938 28.8622 26.2848 29 26.5 29H53.5C53.7152 29 53.9062 28.8622 53.9743 28.6581L54.8604 26H55.5C55.7761 26 56 25.7761 56 25.5C56 25.2239 55.7761 25 55.5 25ZM39 9C39 8.44863 39.4486 8 40 8C40.5514 8 41 8.44863 41 9V10.0336C40.3165 9.98888 39.6846 9.98881 39 10.0336V9ZM40 11C47.7196 11 54 17.2804 54 25H26C26 17.2804 32.2804 11 40 11ZM53.1396 28H26.8604L26.1937 26H53.8062L53.1396 28Z" fill="#212121"/>
</svg>
