<svg width="48" height="48" viewBox="0 0 48 48" fill="none" xmlns="http://www.w3.org/2000/svg">
<g clip-path="url(#clip0_203_2814)">
<path d="M8.24716 26.0348C8.74738 26.0685 9.0125 26.348 9.06002 26.8578C9.07002 26.9549 9.08753 27.0506 9.09253 27.1477C9.1288 27.906 9.32013 28.5711 9.87038 29.1431C10.4694 29.7707 10.7157 30.6015 10.7157 31.4905C10.7157 35.2432 10.7258 38.996 10.7095 42.7487C10.7095 43.1149 10.7808 43.2288 11.1359 43.199C11.5411 43.1712 11.9476 43.1712 12.3527 43.199C12.6028 43.2107 12.6779 43.1266 12.6704 42.8716C12.6541 42.323 12.6704 41.773 12.6704 41.223C12.6704 37.5686 12.6704 33.9147 12.6704 30.2612C12.6704 28.4663 13.4482 27.3237 15.0864 26.7012C16.0944 26.313 17.1023 25.9313 18.1115 25.5521C18.2143 25.5257 18.3095 25.474 18.3889 25.4015C18.4684 25.3289 18.5298 25.2377 18.568 25.1355C18.7255 24.7188 19.097 24.601 19.4959 24.7744C20.0511 25.0151 20.345 24.8223 20.345 24.2141C20.345 23.5347 20.3338 22.8553 20.3513 22.1773C20.367 22.0524 20.3459 21.9256 20.2908 21.8134C20.2356 21.7012 20.1491 21.6088 20.0424 21.5484C18.7818 20.7228 17.8639 19.6202 17.5738 18.0544C17.5225 17.7827 17.3875 17.7762 17.1874 17.7736C16.6871 17.7646 16.1869 17.8189 15.6867 17.7102C14.7025 17.4954 14.0222 16.8976 13.7083 15.9218C13.3944 14.9461 13.5645 14.0248 14.2536 13.2665C14.3574 13.163 14.4346 13.0344 14.4783 12.8923C14.522 12.7502 14.5307 12.599 14.5037 12.4525C14.2873 10.5981 14.2248 8.76189 14.7951 6.93858C16.9685 -0.0285554 25.4498 -2.30996 30.6146 2.69412C31.1148 3.1755 31.1435 3.38125 30.8246 3.99851C30.4207 4.1745 30.0531 4.18097 29.7054 3.83935C27.7158 1.88404 25.341 1.12185 22.6548 1.59288C19.6047 2.12862 17.4887 3.95452 16.3045 6.90882C15.7105 8.3918 15.6592 9.93818 15.8243 11.5208C15.9206 12.4447 15.768 12.349 16.6996 12.3555C16.7305 12.3535 16.7614 12.3535 16.7922 12.3555C17.0498 12.3865 17.1561 12.2804 17.1548 12.0022C17.166 11.1805 17.2637 10.3626 17.4462 9.56291C17.7076 8.31157 18.0327 7.08093 18.9669 6.14663C19.5484 5.56431 20.26 5.56431 20.7602 6.2178C22.1996 8.09546 25.875 8.05793 27.2343 6.2178C27.3446 6.06025 27.4917 5.93417 27.6618 5.85135C27.832 5.76853 28.0196 5.73166 28.2072 5.74418C28.9051 5.76747 29.2477 6.29544 29.5628 6.804C30.4657 8.2611 30.6808 9.92912 30.8359 11.6023C30.9059 12.3529 30.8697 12.3568 31.62 12.3516C31.6975 12.3516 31.7763 12.3516 31.8539 12.3516C32.0489 12.3516 32.1315 12.2519 32.1502 12.0604C32.3228 10.2656 32.3778 8.48109 31.66 6.78071C31.4649 6.31615 31.5175 5.94346 31.8764 5.6096C32.5392 5.51384 32.738 5.6303 32.9856 6.26439C33.6109 7.87159 33.7847 9.54091 33.6196 11.2555C33.6021 11.4328 33.5971 11.6114 33.5671 11.7861C33.4483 12.468 33.5671 13.0115 33.9961 13.6288C35.1778 15.3331 33.9523 17.652 31.8851 17.7697C31.5262 17.7892 31.1661 17.7853 30.8071 17.7697C30.5883 17.762 30.4795 17.8163 30.432 18.0661C30.1368 19.628 29.2102 20.7228 27.9521 21.5497C27.8518 21.6058 27.77 21.6918 27.7174 21.7965C27.6648 21.9013 27.6438 22.0199 27.657 22.1371C27.6733 22.8644 27.657 23.5917 27.6632 24.3202C27.6604 24.4126 27.6804 24.5042 27.7214 24.5863C27.7623 24.6684 27.8229 24.7383 27.8973 24.7894C27.9718 24.8405 28.0576 24.871 28.1466 24.8781C28.2356 24.8852 28.325 24.8687 28.4061 24.8301C28.9838 24.5829 29.2327 24.6592 29.4803 25.2351C29.5678 25.4395 29.7192 25.4719 29.8692 25.5301C30.8897 25.9183 31.9151 26.3066 32.9381 26.6948C34.5638 27.3107 35.3367 28.465 35.3379 30.2676C35.3379 34.4086 35.3379 38.5495 35.3291 42.6905C35.3291 43.0864 35.4092 43.2236 35.8094 43.1964C36.4009 43.1576 36.9961 43.1731 37.5901 43.1964C37.8603 43.2068 37.9265 43.1033 37.9428 42.8406C38.0679 40.8206 37.9353 38.8407 37.1925 36.9371C36.9424 36.3095 36.751 35.6625 36.5409 35.022C36.2658 34.1808 36.6585 33.5985 37.5151 33.5985C39.7503 33.5933 41.9846 33.5933 44.2181 33.5985C45.101 33.5985 45.4924 34.1808 45.1998 35.0491C44.7646 36.3432 44.2944 37.6256 43.9742 38.9571C43.6603 40.2628 43.8104 41.5944 43.8167 42.9169C43.8167 43.1757 43.9517 43.1913 44.148 43.19C44.9134 43.1822 45.68 43.2184 46.4441 43.1783C47.2082 43.1382 47.7221 43.4371 47.9998 44.1747V47.085C47.6446 47.8019 47.0706 48.0012 46.3115 47.9999C31.4374 47.9844 16.5629 47.9844 1.688 47.9999C0.928917 47.9999 0.354913 47.8019 -0.000244141 47.085V44.0764C0.343658 43.4177 0.860137 43.0852 1.59671 43.1874C1.88559 43.2275 1.95062 43.1214 1.94937 42.816C1.93561 39.1823 1.95812 35.5486 1.93061 31.9137C1.92186 30.7037 2.21949 29.6387 3.06611 28.8002C3.49505 28.3744 3.47629 27.8439 3.54382 27.3314C3.8177 25.27 4.06656 23.2047 4.33042 21.1407C4.42797 20.3734 4.7356 20.0951 5.46843 20.09C6.07745 20.09 6.68647 20.0822 7.29549 20.09C7.87574 20.099 8.19839 20.3656 8.29593 20.9622C8.42098 21.7386 8.51978 22.5267 8.60106 23.3121C8.64108 23.712 8.44224 23.9902 8.05832 24.1041C7.45556 24.0937 7.29549 23.9592 7.19794 23.3367C7.12666 22.876 7.07289 22.4115 7.02161 21.9469C6.99285 21.6545 6.88155 21.5057 6.57767 21.5458C6.42249 21.5678 6.26514 21.5678 6.10996 21.5458C5.77981 21.4966 5.67852 21.6752 5.64225 21.9728C5.45342 23.5257 5.24458 25.0785 5.06325 26.6249C4.90943 27.9345 4.87817 29.2816 3.75267 30.2081C3.7188 30.2418 3.69198 30.2823 3.67388 30.3272C3.52507 30.6131 3.37125 30.8991 3.41252 31.286L4.30541 30.7684C4.36691 30.7738 4.42883 30.7698 4.48924 30.7568C5.77731 30.2922 7.05913 30.3453 8.33595 30.8047L9.23259 31.2511C9.25389 31.2034 9.26492 31.1516 9.26492 31.0991C9.26492 31.0465 9.25389 30.9947 9.23259 30.947C9.08628 30.2845 8.60732 29.8471 8.21339 29.3592C8.05207 29.1612 7.89325 28.971 7.86449 28.6967C7.80946 28.1713 7.73193 27.6472 7.6719 27.1205C7.60437 26.458 7.68191 26.3169 8.24716 26.0348ZM32.7155 43.1654C32.9806 43.1731 33.247 43.1563 33.5071 43.1913C33.8748 43.2404 33.9423 43.0787 33.9373 42.7306C33.9185 41.377 33.9298 40.0247 33.9298 38.6712C33.9298 37.4354 33.9298 37.4354 32.7167 37.5065C32.4664 37.5121 32.2159 37.5039 31.9664 37.4819C31.6062 37.4328 31.5225 37.5803 31.5275 37.9374C31.5462 39.3091 31.535 40.6821 31.535 42.0538C31.5387 43.2521 31.5387 43.2521 32.7155 43.1654ZM8.25466 41.3628C6.9866 41.7316 5.71854 41.795 4.45048 41.355C4.41046 41.3421 4.35919 41.3667 4.31291 41.3731C4.14784 41.1376 3.86397 41.1053 3.64762 40.959C3.43127 40.8128 3.34624 40.8853 3.34999 41.1415C3.35624 41.6423 3.35874 42.1418 3.34999 42.6413C3.34999 42.882 3.41502 42.9907 3.66638 42.9894C5.44216 42.9834 7.21795 42.9834 8.99374 42.9894C9.20383 42.9894 9.31013 42.9247 9.30638 42.6866C9.29637 42.169 9.30638 41.6514 9.30638 41.1337C9.30638 40.9435 9.28387 40.7999 9.04501 40.937C8.78615 41.0897 8.52103 41.223 8.25466 41.3628ZM26.07 26.7219C26.1498 26.6475 26.2249 26.5679 26.2951 26.4838C26.5453 26.1616 26.7716 25.8511 26.3752 25.4486C26.2351 25.3076 26.2501 25.0604 26.2501 24.8456C26.2501 24.0886 26.2501 23.3303 26.2501 22.4839C24.7407 23.2604 23.2488 23.2436 21.7594 22.4995V23.8958C21.7531 23.9592 21.7481 24.0252 21.7431 24.0873C21.7081 24.6657 21.8882 25.2881 21.3992 25.7695C21.2879 25.8808 21.4205 26.0115 21.4755 26.1189C22.3859 27.8853 24.762 28.1933 26.07 26.7219ZM29.5403 27.9733C29.5341 28.522 29.5341 29.0706 29.5191 29.6193C29.5191 29.8173 29.5828 29.8781 29.7692 29.9312C30.9272 30.2676 31.52 31.0894 31.5375 32.3433C31.5462 33.1999 31.5375 34.0566 31.5375 34.9133C31.5375 36.096 31.5375 36.096 32.7167 36.0171C33.0281 36.0235 33.342 36.0171 33.6509 36.0404C33.8873 36.0572 33.9323 35.9485 33.931 35.7285C33.9235 33.8069 33.9373 31.8852 33.9198 29.9648C33.9123 29.2376 33.6059 28.5996 32.9606 28.3059C31.8551 27.8038 30.7096 27.4 29.5378 26.9432L29.5403 27.9733ZM28.0972 27.3923C28.1362 27.0432 28.1265 26.6903 28.0684 26.3441C27.8108 26.634 27.7033 26.9264 27.5682 27.1969C27.5333 27.2274 27.5006 27.2607 27.4707 27.2965C25.411 29.9842 21.7344 29.6607 20.1612 26.6495C20.1137 26.5589 20.1099 26.4217 19.9661 26.4127C19.9436 26.4347 19.9036 26.4554 19.9036 26.4748C19.8973 27.5256 19.9036 28.575 19.8873 29.6258C19.8873 29.8755 20.0299 29.8665 20.1924 29.8665C22.7377 29.8665 25.283 29.8665 27.8283 29.8665C28.0459 29.8665 28.1322 29.8044 28.126 29.565C28.1022 28.8455 28.1034 28.1195 28.0972 27.3923ZM25.6861 43.8939C25.4785 44.541 25.3272 44.6484 24.6182 44.6484H2.59716C1.40788 44.6484 1.40413 44.6484 1.40913 45.8725C1.40913 46.5972 1.32784 46.5196 2.03441 46.5196H45.9801C46.6767 46.5196 46.5854 46.592 46.5929 45.8609C46.5929 45.6681 46.5929 45.4727 46.5929 45.2799C46.5841 44.5798 46.6767 44.6497 46.0014 44.6497C40.1788 44.6462 34.3537 44.6445 28.5261 44.6445C27.8621 44.6445 27.662 44.4905 27.5257 43.8888C27.6032 43.3918 27.8808 43.1654 28.3698 43.1848C28.79 43.2003 29.2139 43.1602 29.6329 43.1951C30.0305 43.2288 30.1331 43.0787 30.1331 42.6775C30.1168 40.2861 30.1243 37.8896 30.1243 35.5033C30.1243 34.437 30.1243 33.3703 30.1243 32.3032C30.1243 31.8865 30.0068 31.5526 29.5528 31.3973C29.5441 31.5397 29.5341 31.6484 29.5316 31.7571C29.5191 32.4287 29.2952 32.7418 28.8238 32.7431C28.3523 32.7444 28.1135 32.4572 28.1335 31.7674C28.146 31.3676 27.9746 31.3313 27.6595 31.3326C25.3022 31.3417 22.9449 31.3326 20.5864 31.3326C19.9261 31.3326 19.9261 31.3326 19.8886 32.0055C19.8623 32.461 19.6384 32.7147 19.2358 32.7367C18.8331 32.7587 18.5292 32.4869 18.4854 32.0418C18.4667 31.8386 18.4854 31.6316 18.4854 31.3727C17.9665 31.572 17.8864 31.9486 17.8864 32.395C17.8914 35.8208 17.8914 39.2466 17.8864 42.6724C17.8864 43.0709 17.984 43.19 18.3791 43.19C20.5051 43.1706 22.631 43.19 24.7495 43.1731C25.2622 43.1783 25.5786 43.3595 25.6861 43.8939ZM19.8185 7.34362C19.4734 7.74866 19.2458 8.19769 19.0444 8.97412C18.3941 11.4781 18.4442 14.0054 18.693 16.5676C18.9131 18.8412 20.1549 20.1767 22.0433 21.0566C22.1996 21.1291 22.3584 21.1964 22.5147 21.2675C22.9763 21.488 23.4782 21.6032 23.9865 21.6055C24.4948 21.6077 24.9977 21.4969 25.461 21.2805C26.3106 20.9144 27.1069 20.4279 27.8271 19.835C28.3904 19.3919 28.7934 18.7657 28.9713 18.057C29.6855 15.1329 29.694 12.072 28.9963 9.14364C28.8438 8.48885 28.6287 7.84959 28.1872 7.32421C26.1913 9.61338 21.9245 9.70525 19.8185 7.34362ZM3.34999 36.0223C3.34999 36.8608 3.35999 37.7045 3.34999 38.5392C3.34262 38.6582 3.36296 38.7773 3.40932 38.8865C3.45567 38.9958 3.52667 39.0919 3.61636 39.1668C5.13078 40.5553 7.5506 40.5514 9.06127 39.1577C9.14575 39.0893 9.21329 39.001 9.2583 38.9002C9.30332 38.7994 9.32451 38.6889 9.32013 38.578C9.31013 36.8983 9.31013 35.2195 9.32013 33.5416C9.32502 33.4225 9.30185 33.3039 9.25261 33.1962C9.20338 33.0884 9.12955 32.9947 9.03751 32.923C8.28637 32.2666 7.33603 31.9046 6.35291 31.9004C5.36978 31.8961 4.41654 32.2499 3.66013 32.8997C3.55493 32.9797 3.47107 33.086 3.41639 33.2087C3.36171 33.3313 3.33801 33.4664 3.34749 33.6011C3.365 34.4073 3.34999 35.2148 3.34999 36.0223ZM18.4817 26.9393C17.3012 27.3987 16.1669 27.796 15.0714 28.2852C14.4236 28.575 14.0935 29.1988 14.0847 29.926C14.061 31.8671 14.0847 33.8017 14.0697 35.7402C14.0697 35.9744 14.1373 36.0468 14.3599 36.0417C14.9226 36.0274 15.4854 36.0093 16.0456 36.0417C16.4208 36.0662 16.477 35.9123 16.4708 35.5732C16.452 34.4914 16.4558 33.4096 16.4708 32.3278C16.4833 31.0764 17.0798 30.2676 18.2466 29.9221C18.4029 29.8755 18.4904 29.8458 18.4892 29.6543C18.4742 28.7769 18.4792 27.8944 18.4792 26.9393H18.4817ZM38.0566 35.0685C38.4793 36.3626 38.9232 37.6036 39.2021 38.8924C39.2037 38.9282 39.2125 38.9633 39.2279 38.9954C39.2433 39.0275 39.2649 39.056 39.2915 39.079C39.3181 39.102 39.349 39.119 39.3822 39.129C39.4155 39.139 39.4504 39.1417 39.4847 39.137C40.4039 39.1293 41.3243 39.137 42.2447 39.137C42.406 39.137 42.5073 39.0982 42.5461 38.917C42.82 37.6113 43.2814 36.3639 43.6891 35.0698L38.0566 35.0685ZM16.4633 40.3664C16.4633 39.5278 16.4558 38.6841 16.4633 37.8507C16.4633 37.5919 16.412 37.4742 16.1294 37.4845C15.5541 37.5052 14.9764 37.5039 14.3999 37.4845C14.1298 37.4755 14.0597 37.5699 14.061 37.8417C14.0727 39.5032 14.0727 41.1644 14.061 42.8251C14.061 43.0839 14.106 43.2042 14.3899 43.1939C14.966 43.1731 15.5425 43.1731 16.1194 43.1939C16.3908 43.2029 16.467 43.1046 16.462 42.8354C16.4545 42.0124 16.4633 41.1894 16.4633 40.3664ZM40.8779 43.1887C41.268 43.1887 41.6595 43.177 42.0484 43.1887C42.2985 43.199 42.4148 43.1227 42.4048 42.8354C42.3823 42.2048 42.376 41.5746 42.386 40.9448C42.386 40.6769 42.3172 40.576 42.0446 40.5812C41.2643 40.5976 40.4839 40.5976 39.7036 40.5812C39.4247 40.5812 39.3622 40.6873 39.3659 40.95C39.3759 41.5634 39.3772 42.178 39.3472 42.7901C39.3297 43.1292 39.4622 43.2055 39.7536 43.19C40.1275 43.1744 40.5027 43.1887 40.8779 43.1887ZM16.5521 16.3191C16.6299 16.3133 16.7081 16.3133 16.7859 16.3191C17.1774 16.3773 17.3062 16.2479 17.2111 15.8196C17.1323 15.4625 17.1523 15.0833 17.1298 14.7132C17.0673 13.7142 17.0673 13.7142 16.0844 13.8151C15.7689 13.8403 15.4759 13.9939 15.2698 14.2424C15.0637 14.4908 14.9613 14.8137 14.9851 15.1402C15.0214 15.9076 15.5654 16.3178 16.5521 16.3191ZM31.3811 16.3191V16.3049C31.5519 16.314 31.7231 16.314 31.8939 16.3049C32.5867 16.2259 33.0381 15.7006 33.0194 15.0108C33.0006 14.3211 32.4954 13.8462 31.7988 13.8151C31.5962 13.8087 31.3924 13.8294 31.1923 13.8151C30.9585 13.7944 30.9109 13.9031 30.8997 14.1205C30.8684 14.7676 30.8221 15.4055 30.7646 16.0461C30.7459 16.257 30.7971 16.3476 31.0085 16.3269C31.131 16.3049 31.2573 16.3191 31.3811 16.3191Z" fill="#030202"/>
<path d="M31.8738 5.61231C31.5148 5.94617 31.4623 6.31886 31.6574 6.78342C32.3752 8.48379 32.3202 10.2683 32.1476 12.0631C32.1289 12.2546 32.0463 12.3595 31.8512 12.3543C31.7737 12.3543 31.6949 12.3543 31.6174 12.3543C30.8671 12.3543 30.9033 12.3543 30.8333 11.605C30.6782 9.93183 30.4581 8.2638 29.5602 6.80671C29.2451 6.29815 28.9024 5.77147 28.2046 5.74689C28.017 5.73437 27.8294 5.77124 27.6592 5.85406C27.4891 5.93688 27.342 6.06295 27.2317 6.22051C25.8723 8.05676 22.197 8.09429 20.7576 6.22051C20.2574 5.56572 19.5483 5.57349 18.9668 6.14934C18.0326 7.08364 17.7075 8.31427 17.4461 9.56561C17.2644 10.3658 17.1675 11.1842 17.1572 12.0062C17.1572 12.2844 17.0522 12.3944 16.7946 12.3595C16.7638 12.3575 16.7329 12.3575 16.702 12.3595C15.7679 12.3595 15.9205 12.4487 15.8267 11.5248C15.6616 9.94218 15.7129 8.3958 16.3069 6.91282C17.4911 3.95852 19.6071 2.13262 22.6572 1.59688C25.3434 1.12585 27.7182 1.88804 29.7078 3.84335C30.0554 4.18497 30.4231 4.1785 30.827 4.00251C31.2566 4.47796 31.61 5.02142 31.8738 5.61231Z" fill="#20386A"/>
<path d="M4.3079 30.775L3.41501 31.2926C3.37374 30.9044 3.52756 30.6197 3.67637 30.3337C3.69447 30.2889 3.72129 30.2483 3.75516 30.2147C4.88066 29.2881 4.90942 27.941 5.06199 26.6328C5.24332 25.0799 5.45216 23.527 5.64099 21.9807C5.67726 21.6779 5.77855 21.5045 6.1087 21.5536C6.26388 21.5756 6.42123 21.5756 6.57641 21.5536C6.88029 21.5135 6.99159 21.6623 7.02035 21.9548C7.06662 22.4193 7.1254 22.8839 7.19668 23.3446C7.29422 23.967 7.45429 24.1016 8.05706 24.112C8.00954 24.7667 8.18212 25.3982 8.24715 26.0414C7.6819 26.3235 7.60436 26.4645 7.67939 27.1335C7.73942 27.6602 7.81695 28.1843 7.87198 28.7097C7.90074 28.9879 8.05956 29.1743 8.22088 29.3722C8.61981 29.8601 9.09627 30.2975 9.24008 30.96C9.26138 31.0077 9.27241 31.0596 9.27241 31.1121C9.27241 31.1646 9.26138 31.2165 9.24008 31.2641L8.34344 30.8177C8.31804 30.7624 8.28474 30.7113 8.24464 30.6663C7.66859 30.233 6.97034 30.0087 6.25842 30.0284C5.54651 30.048 4.86081 30.3105 4.3079 30.775Z" fill="#734B9C"/>
<path d="M25.6861 43.8938C25.5785 43.3593 25.2559 43.1782 24.7382 43.1821C22.6122 43.2015 20.4863 43.1821 18.3678 43.1989C17.9727 43.1989 17.8676 43.0811 17.8751 42.6813C17.8885 39.2564 17.8885 35.8306 17.8751 32.404C17.8751 31.9575 17.9552 31.581 18.4741 31.3817C18.4741 31.6405 18.4579 31.8475 18.4741 32.0507C18.5154 32.4958 18.8155 32.7663 19.2245 32.7456C19.6334 32.7249 19.8497 32.47 19.8773 32.0145C19.9148 31.3416 19.9148 31.3416 20.5751 31.3416C22.9336 31.3416 25.2909 31.3416 27.6482 31.3416C27.9633 31.3416 28.1347 31.3765 28.1222 31.7764C28.1021 32.4661 28.3322 32.7534 28.8125 32.7521C29.2927 32.7508 29.5078 32.4376 29.5203 31.766C29.5203 31.6573 29.5328 31.5486 29.5415 31.4063C29.9955 31.5615 30.113 31.8954 30.113 32.3121C30.113 33.3784 30.113 34.4451 30.113 35.5123C30.113 37.9037 30.1055 40.3002 30.1218 42.6864C30.1218 43.085 30.0255 43.2351 29.6216 43.2041C29.2026 43.1691 28.7787 43.2041 28.3585 43.1937C27.8695 43.1743 27.5919 43.4008 27.5144 43.8977L25.6861 43.8938ZM24.0241 34.2117H23.2738C22.7598 34.2117 22.2446 34.1949 21.7318 34.2208C21.2854 34.2441 20.999 34.5443 21.0015 34.9442C21.0015 35.3906 21.2616 35.6132 21.6631 35.6792C21.8172 35.701 21.9727 35.7105 22.1283 35.7077H24.9795C25.3547 35.7077 25.7298 35.7141 26.105 35.7077C26.3901 35.6999 26.6715 35.6533 26.8553 35.3971C26.9347 35.2961 26.9845 35.1737 26.9989 35.0444C27.0133 34.9151 26.9917 34.7843 26.9366 34.6672C26.7991 34.3476 26.5327 34.2234 26.2201 34.2195C25.4885 34.2053 24.7619 34.213 24.0241 34.2117Z" fill="#30559E"/>
<path d="M19.8185 7.34363C21.9245 9.70397 26.1964 9.61339 28.1872 7.32422C28.6287 7.85478 28.8438 8.48886 28.9964 9.14365C29.6941 12.072 29.6855 15.1329 28.9713 18.057C28.7934 18.7657 28.3904 19.3919 27.8271 19.8351C27.1069 20.428 26.3106 20.9144 25.461 21.2805C24.9977 21.4969 24.4949 21.6077 23.9865 21.6055C23.4782 21.6033 22.9763 21.488 22.5147 21.2676C22.3584 21.1964 22.1996 21.1291 22.0433 21.0566C20.1549 20.1767 18.9169 18.8412 18.693 16.5676C18.4429 14.0054 18.3942 11.4781 19.0444 8.97413C19.2458 8.1977 19.4734 7.74867 19.8185 7.34363ZM24.0642 17.8254C24.5482 17.8193 25.0259 17.7101 25.4673 17.5045C25.8787 17.3117 26.0563 16.9545 25.93 16.5792C25.9011 16.4821 25.8523 16.3925 25.787 16.3166C25.7216 16.2407 25.6413 16.1802 25.5513 16.1393C25.4614 16.0984 25.364 16.0781 25.2658 16.0796C25.1675 16.0812 25.0708 16.1046 24.9821 16.1483C24.6732 16.2825 24.3416 16.3516 24.0066 16.3516C23.6717 16.3516 23.3401 16.2825 23.0312 16.1483C22.5998 15.9697 22.2184 16.1626 22.0745 16.5637C21.942 16.9403 22.1133 17.3026 22.5222 17.4954C23.0062 17.7227 23.5328 17.8363 24.0642 17.828V17.8254ZM21.9382 13.7039C21.9382 13.2057 21.6468 12.8627 21.2329 12.8627C20.819 12.8627 20.5188 13.2251 20.5301 13.753C20.5401 14.2448 20.844 14.5851 21.2579 14.5683C21.6719 14.5515 21.9432 14.2111 21.9395 13.7065L21.9382 13.7039ZM27.4694 13.6961C27.4694 13.1979 27.1705 12.8576 26.7566 12.864C26.3427 12.8705 26.0475 13.2315 26.0613 13.7621C26.0726 14.2331 26.3514 14.5592 26.7504 14.5683C27.1805 14.5825 27.4769 14.2215 27.4707 13.6987L27.4694 13.6961Z" fill="#FCCBBC"/>
<path d="M25.6861 43.894H27.5257C27.662 44.4957 27.8621 44.6497 28.5261 44.6497C34.3512 44.6497 40.1763 44.6497 46.0014 44.6497C46.6767 44.6497 46.5841 44.5798 46.5929 45.2799C46.5929 45.474 46.5929 45.6681 46.5929 45.8609C46.5854 46.5921 46.6767 46.5196 45.9801 46.5196H2.03317C1.32785 46.5196 1.40789 46.5972 1.40789 45.8726C1.40789 44.6484 1.40789 44.6484 2.59592 44.6484H24.6182C25.3272 44.6445 25.4785 44.5384 25.6861 43.894Z" fill="#924C35"/>
<path d="M3.34997 36.0222C3.34997 35.2148 3.36497 34.4073 3.34371 33.6011C3.33423 33.4664 3.35794 33.3313 3.41262 33.2087C3.4673 33.086 3.55116 32.9797 3.65635 32.8997C4.41277 32.2499 5.36601 31.8961 6.34913 31.9004C7.33225 31.9046 8.2826 32.2666 9.03373 32.923C9.12578 32.9947 9.1996 33.0884 9.24884 33.1962C9.29807 33.3039 9.32125 33.4225 9.31636 33.5416C9.30552 35.2204 9.30552 36.8992 9.31636 38.578C9.32073 38.6889 9.29954 38.7994 9.25453 38.9002C9.20952 39.001 9.14198 39.0893 9.05749 39.1577C7.54682 40.5514 5.127 40.5553 3.61258 39.1668C3.52289 39.0919 3.45189 38.9957 3.40554 38.8865C3.35919 38.7773 3.33884 38.6582 3.34621 38.5392C3.35997 37.7006 3.34997 36.8608 3.34997 36.0222Z" fill="#E9B24B"/>
<path d="M18.4792 26.9394C18.4792 27.8944 18.4792 28.7769 18.4792 29.6569C18.4792 29.8484 18.3929 29.8782 18.2366 29.9248C17.0698 30.2703 16.4733 31.079 16.4608 32.3304C16.4508 33.4122 16.447 34.494 16.4608 35.5759C16.4608 35.9175 16.412 36.0689 16.0356 36.0443C15.4753 36.0068 14.9101 36.0249 14.3498 36.0443C14.1272 36.0443 14.0585 35.977 14.0597 35.7428C14.0685 33.8017 14.051 31.8606 14.0747 29.9286C14.0835 29.2014 14.4136 28.5777 15.0614 28.2878C16.1644 27.7961 17.2986 27.3988 18.4792 26.9394Z" fill="#D9E7F8"/>
<path d="M38.0565 35.0686H43.684C43.2763 36.3626 42.8086 37.6101 42.541 38.9158C42.5022 39.097 42.4009 39.1371 42.2396 39.1358C41.3192 39.1358 40.3988 39.1293 39.4796 39.1358C39.4453 39.1405 39.4104 39.1378 39.3771 39.1278C39.3439 39.1178 39.313 39.1007 39.2864 39.0777C39.2598 39.0548 39.2382 39.0263 39.2228 38.9942C39.2074 38.9621 39.1986 38.927 39.197 38.8912C38.9231 37.6062 38.4792 36.3691 38.0565 35.0686Z" fill="#74CDF6"/>
<path d="M16.4634 40.3664C16.4634 41.1894 16.4546 42.0124 16.4634 42.8354C16.4634 43.1045 16.3921 43.2029 16.1207 43.1938C15.5438 43.1731 14.9673 43.1731 14.3912 43.1938C14.1073 43.2042 14.061 43.0826 14.0623 42.825C14.0715 41.1635 14.0715 39.5024 14.0623 37.8417C14.0623 37.5699 14.1311 37.4755 14.4012 37.4845C14.9777 37.5039 15.5554 37.5052 16.1307 37.4845C16.4133 37.4742 16.4684 37.5919 16.4646 37.8507C16.4558 38.6919 16.4634 39.5278 16.4634 40.3664Z" fill="#F6C6B7"/>
<path d="M28.0972 27.3922C28.1034 28.1194 28.0972 28.8454 28.1209 29.5727C28.1209 29.8121 28.0409 29.8742 27.8233 29.8742C25.278 29.869 22.7327 29.869 20.1874 29.8742C20.0248 29.8742 19.8785 29.8832 19.8823 29.6335C19.8935 28.5827 19.8923 27.5332 19.8985 26.4825C19.8985 26.4631 19.9385 26.4423 19.9611 26.4203C20.1049 26.4294 20.1086 26.5666 20.1561 26.6572C21.7293 29.6632 25.4085 29.9867 27.4656 27.3042C27.4956 27.2684 27.5282 27.2351 27.5632 27.2045L28.0972 27.3922Z" fill="#D9E7F8"/>
<path d="M29.5404 27.9732V26.938C30.7084 27.3961 31.8577 27.7985 32.9632 28.3006C33.6085 28.5944 33.9149 29.2323 33.9224 29.9596C33.9399 31.88 33.9224 33.8016 33.9336 35.7233C33.9336 35.9433 33.8899 36.052 33.6535 36.0351C33.3421 36.0131 33.0282 36.0183 32.7193 36.0118C32.7193 34.3063 32.7193 32.5999 32.7193 30.8926C32.7193 30.265 32.463 29.7577 32.0803 29.2867C31.4137 28.4688 30.4195 28.3459 29.5404 27.9732Z" fill="#BBD6F9"/>
<path d="M29.5404 27.9733C30.4157 28.346 31.4162 28.4702 32.0815 29.292C32.4642 29.763 32.7218 30.2703 32.7205 30.8979C32.7205 32.6043 32.7205 34.3107 32.7205 36.0171C31.5412 36.096 31.5412 36.096 31.5412 34.9133C31.5412 34.0566 31.5487 33.2 31.5412 32.3433C31.5275 31.0894 30.931 30.2728 29.773 29.9312C29.5854 29.8756 29.5166 29.8173 29.5228 29.6194C29.5341 29.0707 29.5341 28.522 29.5404 27.9733Z" fill="#D9E7F8"/>
<path d="M26.0701 26.7219C24.7658 28.1932 22.381 27.8865 21.4793 26.1279C21.4243 26.0205 21.2918 25.8898 21.4031 25.7785C21.892 25.2919 21.7119 24.6695 21.747 24.0962C21.747 24.0328 21.757 23.9668 21.7632 23.9047C22.5573 24.1635 23.3202 24.5414 24.1918 24.4974C24.4569 24.4845 24.7796 24.2075 24.9771 24.4845C25.146 24.72 25.0284 25.0784 25.0322 25.3812C25.0397 26.2275 25.0322 26.225 25.805 26.5459C25.8988 26.5952 25.9877 26.6542 26.0701 26.7219Z" fill="#FCCBBC"/>
<path d="M26.07 26.722C25.9878 26.6521 25.899 26.591 25.8048 26.5396C25.0358 26.2199 25.0395 26.2225 25.032 25.3749C25.032 25.0721 25.1458 24.7137 24.977 24.4782C24.7794 24.2012 24.4568 24.4782 24.1916 24.4911C23.3162 24.5351 22.5572 24.1585 21.7631 23.8984V22.5034C23.2562 23.2475 24.7444 23.2682 26.2538 22.4879C26.2538 23.3342 26.2538 24.0925 26.2538 24.8495C26.2538 25.0644 26.2363 25.3115 26.3789 25.4526C26.7753 25.8511 26.5439 26.1617 26.2988 26.4878C26.2273 26.5707 26.1508 26.6489 26.07 26.722Z" fill="#E8AC9B"/>
<path d="M8.25464 41.3627C8.51726 41.2229 8.78237 41.0896 9.03999 40.9408C9.27884 40.8036 9.30135 40.9473 9.30135 41.1375C9.30135 41.6551 9.29385 42.1727 9.30135 42.6904C9.30135 42.9285 9.19881 42.9945 8.98872 42.9932C7.21293 42.9932 5.43714 42.9932 3.66136 42.9932C3.41125 42.9932 3.33997 42.8858 3.34497 42.6451C3.35622 42.1456 3.35372 41.6461 3.34497 41.1453C3.34497 40.8864 3.4225 40.814 3.6426 40.9628C3.8627 41.1116 4.14282 41.1414 4.30789 41.3769C4.57198 41.5983 4.8759 41.7632 5.20204 41.8622C6.29878 42.2051 7.34049 42.174 8.25464 41.3627Z" fill="#714A98"/>
<path d="M40.8778 43.1886C40.5027 43.1886 40.1275 43.1744 39.7523 43.1886C39.4609 43.2042 39.3284 43.1278 39.3459 42.7888C39.3759 42.1767 39.3747 41.562 39.3646 40.9486C39.3646 40.6898 39.4234 40.5746 39.7023 40.5798C40.4826 40.5962 41.263 40.5962 42.0433 40.5798C42.316 40.5798 42.3885 40.6756 42.3847 40.9434C42.3747 41.5741 42.381 42.2043 42.4035 42.8341C42.4135 43.1213 42.3022 43.1977 42.0471 43.1873C41.6594 43.177 41.2692 43.1886 40.8778 43.1886Z" fill="#734B9C"/>
<path d="M32.7167 37.5104C33.9297 37.4353 33.9297 37.4353 33.9297 38.675C33.9297 40.0286 33.9185 41.3808 33.9372 42.7344C33.9372 43.0825 33.8747 43.2443 33.507 43.1951C33.2469 43.1602 32.9806 43.177 32.7155 43.1692C32.7171 41.2825 32.7175 39.3962 32.7167 37.5104Z" fill="#E8AC9B"/>
<path d="M32.7168 37.5103C32.7168 39.3961 32.7168 41.2811 32.7168 43.1653C31.54 43.252 31.54 43.252 31.54 42.0576C31.54 40.6859 31.5512 39.3129 31.5325 37.9412C31.5325 37.584 31.6113 37.4365 31.9714 37.4857C32.2193 37.5075 32.4681 37.5157 32.7168 37.5103Z" fill="#F6C6B7"/>
<path d="M16.5521 16.3191C15.5654 16.3191 15.0214 15.9076 14.9852 15.1338C14.9638 14.8088 15.0673 14.4882 15.2731 14.2417C15.479 13.9953 15.7706 13.8429 16.0844 13.8177C17.0674 13.7168 17.0674 13.7168 17.1299 14.7158C17.1524 15.0859 17.1299 15.465 17.2112 15.8222C17.3062 16.2505 17.1774 16.3799 16.786 16.3217C16.7082 16.315 16.63 16.3142 16.5521 16.3191Z" fill="#F6C6B7"/>
<path d="M31.3811 16.3191C31.2561 16.3191 31.131 16.31 31.006 16.3191C30.7946 16.3398 30.7434 16.2492 30.7621 16.0383C30.8196 15.3977 30.8659 14.7559 30.8972 14.1128C30.9084 13.8954 30.956 13.7867 31.1898 13.8074C31.3899 13.8268 31.5937 13.8074 31.7963 13.8074C32.4929 13.832 32.9981 14.325 33.0169 15.0031C33.0356 15.6811 32.5842 16.2208 31.8914 16.2971C31.7206 16.3062 31.5494 16.3062 31.3786 16.2971L31.3811 16.3191Z" fill="#F6C6B7"/>
<path d="M4.30786 30.7749C4.85965 30.3107 5.544 30.0479 6.25485 30.027C6.96569 30.0062 7.66332 30.2286 8.2396 30.6598C8.27969 30.7048 8.313 30.7558 8.33839 30.8112C7.06158 30.3518 5.77976 30.2935 4.49169 30.7633C4.43128 30.7763 4.36936 30.7802 4.30786 30.7749Z" fill="#E9B24B"/>
<path d="M8.25473 41.3629C7.33682 42.1742 6.29511 42.2053 5.20713 41.8585C4.881 41.7595 4.57708 41.5946 4.31299 41.3732C4.35926 41.3667 4.41053 41.3421 4.45055 41.3551C5.72236 41.7977 6.99042 41.7317 8.25473 41.3629Z" fill="#E9B24B"/>
<path d="M28.0972 27.3923L27.5632 27.1969C27.7033 26.9264 27.8133 26.634 28.0635 26.3441C28.1232 26.69 28.1346 27.043 28.0972 27.3923Z" fill="#BBD6F9"/>
<path d="M24.0241 34.212C24.7557 34.212 25.4885 34.2055 26.2201 34.212C26.5327 34.212 26.7991 34.3414 26.9366 34.6597C26.9917 34.7767 27.0132 34.9076 26.9988 35.0369C26.9844 35.1662 26.9347 35.2885 26.8553 35.3896C26.669 35.6484 26.3876 35.6924 26.105 35.7001C25.7298 35.7105 25.3547 35.7001 24.9795 35.7001H22.1358C21.9802 35.703 21.8247 35.6935 21.6705 35.6716C21.2604 35.6134 21.0103 35.3908 21.0103 34.9392C21.0103 34.5394 21.2941 34.2392 21.7406 34.2159C22.2533 34.19 22.7685 34.2081 23.2825 34.2068L24.0241 34.212Z" fill="#030202"/>
<path d="M24.0641 17.828C23.5331 17.8379 23.0065 17.7261 22.5222 17.5006C22.1132 17.3078 21.9419 16.9454 22.0745 16.5689C22.2183 16.1677 22.5997 15.9749 23.0311 16.1535C23.34 16.2877 23.6716 16.3568 24.0066 16.3568C24.3415 16.3568 24.6732 16.2877 24.982 16.1535C25.0707 16.1098 25.1675 16.0864 25.2657 16.0848C25.3639 16.0832 25.4613 16.1036 25.5513 16.1445C25.6412 16.1854 25.7216 16.2458 25.7869 16.3217C25.8523 16.3977 25.901 16.4872 25.9299 16.5844C26.055 16.9597 25.8787 17.3168 25.4672 17.5096C25.0256 17.7143 24.548 17.8227 24.0641 17.828Z" fill="#060505"/>
<path d="M21.9394 13.7064C21.9394 14.2111 21.6718 14.554 21.2591 14.5709C20.8465 14.5877 20.5413 14.2473 20.5313 13.7556C20.5201 13.2276 20.8064 12.8666 21.2341 12.8653C21.6618 12.864 21.9357 13.2082 21.9394 13.7064Z" fill="#060505"/>
<path d="M27.4706 13.6988C27.4769 14.2164 27.1805 14.5826 26.7516 14.571C26.3526 14.5619 26.0738 14.2358 26.0625 13.7648C26.0487 13.2342 26.3289 12.8732 26.7578 12.8667C27.1868 12.8603 27.4644 13.1993 27.4706 13.6988Z" fill="#060505"/>
</g>
<defs>
<clipPath id="clip0_203_2814">
<rect width="48" height="48" fill="white"/>
</clipPath>
</defs>
</svg>
