<svg width="48" height="49" viewBox="0 0 48 49" fill="none" xmlns="http://www.w3.org/2000/svg">
<g clip-path="url(#clip0_209_3243)">
<path d="M19.59 45.4449C19.4947 45.9425 19.1864 46.1378 18.69 46.1366C13.3959 46.1307 8.11351 46.146 2.82527 46.126C1.09233 46.119 -0.0476685 44.9425 -0.0476685 43.2155C-0.0476685 32.4837 -0.0476685 21.7511 -0.0476685 11.0178C-0.0476685 9.28369 1.1288 8.11663 2.8688 8.08839C3.5888 8.07781 4.3088 8.06486 5.02763 8.09545C5.40174 8.11192 5.53351 8.03545 5.52174 7.62486C5.48998 6.42016 5.50645 5.21545 5.51233 4.01075C5.52057 2.67075 6.23586 1.95075 7.56763 1.93898C8.2088 1.93898 8.85115 1.92722 9.49233 1.93898C10.6853 1.96722 11.4076 2.69898 11.4147 3.89192C11.4229 5.14369 11.4347 6.39545 11.4064 7.64604C11.397 8.03545 11.5241 8.09781 11.877 8.09428C13.6284 8.07781 15.3806 8.07781 17.1335 8.09428C17.477 8.09428 17.5864 8.02369 17.5794 7.66016C17.5547 6.44016 17.5653 5.22016 17.5712 3.99898C17.5782 2.64839 18.277 1.94839 19.6217 1.93781C20.2629 1.93781 20.9041 1.92604 21.5453 1.93781C22.7217 1.96604 23.4382 2.67781 23.4535 3.85075C23.47 5.1331 23.4664 6.41663 23.4535 7.69898C23.4535 8.00722 23.5335 8.0931 23.8441 8.09075C25.6441 8.07584 27.4437 8.07584 29.2429 8.09075C29.5535 8.09075 29.6312 8.00369 29.6276 7.70016C29.6112 6.44839 29.617 5.19663 29.6217 3.94604C29.6217 2.66604 30.3406 1.94604 31.6217 1.93663C32.2492 1.92957 32.8766 1.92957 33.5041 1.93663C34.7794 1.95075 35.5041 2.6731 35.5206 3.94957C35.5312 5.20134 35.5323 6.4531 35.5206 7.70369C35.5206 8.01075 35.5994 8.09075 35.9053 8.09192C36.8582 8.09192 37.8159 8.00839 38.7653 8.14604C39.8429 8.30134 40.7829 9.15192 41.0006 10.2155C42.0323 15.3425 43.1935 20.4402 44.2947 25.5531C45.5017 31.1845 46.7198 36.8139 47.9488 42.4413C47.9641 42.5131 47.9429 42.6013 48.0476 42.6237V43.8437C47.8853 43.9613 47.8888 44.1672 47.8123 44.3307C47.3417 45.3602 46.5606 45.9778 45.4182 46.0955C45.2004 46.1164 44.9817 46.1262 44.7629 46.1249C37.3574 46.1249 29.9508 46.1249 22.5429 46.1249C21.7794 46.1249 21.6453 46.039 21.4594 45.4366C21.63 44.8331 21.7982 44.7155 22.5241 44.7155C27.7006 44.7155 32.8731 44.7155 38.0417 44.7155C39.1935 44.7155 39.6888 44.2155 39.6888 43.0555C39.6888 39.6966 39.6947 36.3366 39.6888 32.9766C39.6888 32.4766 39.8276 32.1213 40.3535 32.0037C40.9664 32.1425 41.1029 32.3166 41.1041 32.9849C41.1041 36.1425 41.1041 39.2994 41.1041 42.4555C41.1041 43.2025 41.1217 43.9531 40.7994 44.6966H41.8582C42.9359 44.7025 44.0135 44.7296 45.0912 44.7096C46.1959 44.6884 46.8159 43.8719 46.5806 42.7743C45.9186 39.6794 45.2519 36.5853 44.5806 33.4919C43.8464 30.1107 43.108 26.73 42.3653 23.3496C41.9786 21.5276 41.5919 19.7045 41.2053 17.8802L41.1088 17.8919V18.3778C41.1088 21.9715 41.1088 25.5664 41.1088 29.1625C41.1088 29.8296 40.9641 30.0119 40.357 30.1402C39.8253 30.0284 39.6935 29.6696 39.6947 29.1672C39.7029 25.5084 39.6947 21.8496 39.7112 18.1896C39.7112 17.7437 39.6182 17.6319 39.1606 17.6331C27.1339 17.6472 15.1076 17.6511 3.08174 17.6449C2.92527 17.6449 2.7688 17.6543 2.61116 17.659C2.32998 17.659 2.04763 17.6684 1.7688 17.6402C1.46292 17.6084 1.38292 17.7131 1.38292 18.0202C1.39155 26.4123 1.39429 34.8045 1.39115 43.1966C1.39115 44.2107 1.97939 44.7555 2.98527 44.6872C3.17233 44.6966 3.35821 44.7143 3.54527 44.7143H18.5229C19.2464 44.7237 19.4088 44.8343 19.59 45.4449ZM20.2359 3.37428C20.1429 3.36604 20.05 3.35192 19.957 3.35075C18.9888 3.33663 18.9817 3.34486 18.9817 4.29192V11.0331C18.9817 12.2096 19.0488 12.2696 20.2417 12.1378C20.6629 12.1484 21.0841 12.1625 21.5041 12.166C21.8653 12.166 22.0488 11.999 22.0476 11.6213C22.0476 9.04016 22.0476 6.45898 22.0476 3.87781C22.0476 3.53428 21.9017 3.34369 21.5464 3.34722C21.11 3.35663 20.6723 3.36604 20.2359 3.37428ZM8.12527 3.37428C6.97233 3.26839 6.92292 3.31192 6.92292 4.45192V11.206C6.92292 12.1296 6.99233 12.199 7.90174 12.1731C7.9809 12.1668 8.05952 12.155 8.13704 12.1378C8.60763 12.1484 9.07821 12.1731 9.53939 12.1649C9.85468 12.1649 10.01 11.9743 10.01 11.6484C10.01 9.05153 10.01 6.45467 10.01 3.85781C10.01 3.53428 9.85939 3.3531 9.53233 3.3531C9.06174 3.3531 8.59351 3.36839 8.12527 3.37663V3.37428ZM32.2606 12.1437C32.6335 12.1543 33.0064 12.1731 33.3794 12.1731C33.9947 12.1731 34.1076 12.0555 34.1088 11.4272C34.1088 9.88212 34.1088 8.33781 34.1088 6.79428C34.1088 5.8531 34.1088 4.92134 34.1088 3.98604C34.1088 3.47192 33.9841 3.3531 33.47 3.35075C33.0653 3.35075 32.6606 3.36486 32.2559 3.3731C32.1476 3.36604 32.0394 3.35192 31.9312 3.35075C31.0476 3.34134 31.0276 3.36134 31.0276 4.22369V11.059C31.0264 12.2084 31.0935 12.2672 32.2606 12.1437ZM2.58645 16.2307C2.77351 16.2307 2.96174 16.2413 3.1488 16.2413H19.9088C26.3402 16.2413 32.7715 16.2437 39.2029 16.2484C39.5464 16.2484 39.6864 16.1966 39.6806 15.8013C39.6547 14.2049 39.6735 12.6096 39.6676 11.0131C39.6676 10.0802 39.1123 9.51192 38.1912 9.49781C37.4253 9.48604 36.6617 9.50604 35.8912 9.48957C35.6088 9.48251 35.5041 9.56133 35.5147 9.85545C35.5335 10.45 35.5335 11.0445 35.5147 11.639C35.4817 12.7566 34.8347 13.4919 33.7417 13.5637C32.9459 13.6196 32.147 13.6196 31.3512 13.5637C30.2664 13.4813 29.6335 12.7519 29.6182 11.666C29.6112 11.0719 29.6064 10.4766 29.6182 9.88251C29.6253 9.61663 29.5759 9.4931 29.2653 9.49545C27.4496 9.50879 25.6343 9.50879 23.8194 9.49545C23.5312 9.49545 23.4406 9.58369 23.4464 9.86957C23.4594 10.5413 23.4653 11.2155 23.4335 11.8872C23.4206 12.2983 23.2601 12.6909 22.9814 12.9934C22.7027 13.2958 22.3245 13.4878 21.9159 13.5343C20.983 13.6437 20.0405 13.6437 19.1076 13.5343C18.707 13.4901 18.3352 13.3046 18.0588 13.0113C17.7825 12.7179 17.6196 12.3357 17.5994 11.9331C17.5523 11.2484 17.5594 10.5578 17.5664 9.87075C17.5664 9.58486 17.4794 9.4931 17.1912 9.49545C15.3923 9.50604 13.5923 9.50839 11.7935 9.49545C11.47 9.49545 11.4006 9.60604 11.4112 9.90134C11.4312 10.4896 11.4229 11.0907 11.4112 11.6849C11.3959 12.7437 10.7617 13.4766 9.70527 13.559C8.8944 13.6211 8.08007 13.6239 7.2688 13.5672C6.19704 13.4872 5.5488 12.7566 5.51704 11.6696C5.49821 11.059 5.50763 10.4484 5.51704 9.83898C5.51704 9.62369 5.49586 9.48604 5.21939 9.48604C4.46998 9.50957 3.71939 9.51075 2.96998 9.52016C2.0288 9.43898 1.37233 10.019 1.36645 10.9696C1.35821 12.3296 1.36645 13.6884 1.36645 15.0484C1.3641 16.2778 1.3641 16.2778 2.58645 16.2307Z" fill="#050504"/>
<path d="M40.3288 32.0109C39.8029 32.1285 39.6629 32.4814 39.6641 32.9838C39.6747 36.3438 39.67 39.7038 39.6641 43.0626C39.6641 44.2226 39.1723 44.7226 38.017 44.7226C32.8452 44.7226 27.6727 44.7226 22.4994 44.7226C21.7735 44.7226 21.6053 44.8403 21.4347 45.4438H19.59C19.4088 44.8332 19.25 44.7226 18.5229 44.7226H3.51819C3.33113 44.7226 3.14525 44.705 2.95819 44.6956C2.80643 44.2944 2.57349 43.9367 2.57349 43.4685C2.58604 34.8669 2.58956 26.2661 2.58407 17.6661C2.73937 17.6661 2.89584 17.652 3.05466 17.652C15.0805 17.652 27.1068 17.6481 39.1335 17.6403C39.5911 17.6403 39.6864 17.7508 39.6841 18.1967C39.6629 21.8567 39.6758 25.5156 39.6676 29.1744C39.6676 29.672 39.7982 30.0356 40.33 30.1473C40.3284 30.7685 40.328 31.3897 40.3288 32.0109ZM20.4135 40.7697C21.0714 40.7588 21.7275 40.6967 22.3758 40.5838C27.9688 39.5426 31.5994 33.6014 29.7017 28.0509C29.5429 27.5803 29.5711 27.2791 29.8829 26.8826C30.697 25.8497 30.6029 24.485 29.7253 23.4897C29.3261 23.0322 28.78 22.7282 28.1808 22.6301C27.5817 22.532 26.9671 22.6458 26.4429 22.952C26.1653 23.1109 25.9982 23.0909 25.737 22.9285C23.6017 21.5709 21.2747 21.0979 18.7864 21.5485C13.6347 22.4803 10.2347 27.2273 10.9323 32.4791C11.5582 37.1897 15.7947 40.8379 20.4135 40.7697Z" fill="#EEEEEE"/>
<path d="M2.96874 9.52596C3.71815 9.51654 4.46874 9.51537 5.21815 9.49184C5.49462 9.48243 5.51815 9.6236 5.5158 9.84478C5.50756 10.4542 5.49815 11.0648 5.5158 11.6754C5.54756 12.7624 6.1958 13.493 7.27109 13.566C8.08236 13.6226 8.89669 13.6199 9.70756 13.5577C10.7664 13.4754 11.3981 12.7342 11.4134 11.6836C11.4217 11.0954 11.4299 10.4942 11.4134 9.90007C11.4029 9.60478 11.4723 9.49184 11.7958 9.49419C13.5946 9.50948 15.3946 9.50713 17.1934 9.49419C17.4817 9.49419 17.5723 9.5836 17.5687 9.86948C17.5617 10.5565 17.5546 11.2471 17.6017 11.9318C17.6219 12.3346 17.785 12.7169 18.0616 13.0103C18.3382 13.3038 18.7103 13.4891 19.1111 13.533C20.044 13.6424 20.9864 13.6424 21.9193 13.533C22.328 13.4866 22.7062 13.2946 22.9849 12.9921C23.2636 12.6897 23.4241 12.297 23.437 11.886C23.4687 11.2142 23.4629 10.5401 23.4499 9.86831C23.4499 9.58243 23.5346 9.49184 23.8229 9.49419C25.6385 9.50517 27.4538 9.50517 29.2687 9.49419C29.5793 9.49419 29.6287 9.61184 29.6217 9.88125C29.6064 10.4695 29.6111 11.0707 29.6217 11.6648C29.637 12.7507 30.2699 13.4801 31.3546 13.5624C32.1505 13.6183 32.9493 13.6183 33.7452 13.5624C34.8346 13.4918 35.4817 12.7565 35.5158 11.6401C35.5346 11.0456 35.5346 10.4511 35.5158 9.85654C35.5052 9.56243 35.6099 9.4836 35.8923 9.49066C36.6593 9.50713 37.4217 9.49066 38.1923 9.4989C39.1134 9.51301 39.6652 10.0871 39.6687 11.0142C39.6746 12.6107 39.6558 14.206 39.6817 15.8024C39.6876 16.1977 39.5476 16.2495 39.204 16.2495C32.7727 16.2401 26.3413 16.2377 19.9099 16.2424H3.14874C2.96168 16.2424 2.77344 16.2354 2.58638 16.2318C2.58638 14.6248 2.59815 13.0189 2.57109 11.4083C2.55933 10.7436 2.6205 10.1095 2.96874 9.52596Z" fill="#FD4A4A"/>
<path d="M42.3359 23.3566C43.0747 26.7378 43.8132 30.1186 44.5512 33.499C45.2234 36.5923 45.89 39.6864 46.5512 42.7813C46.7865 43.879 46.1665 44.6954 45.0618 44.7166C43.9842 44.7366 42.9065 44.7096 41.8289 44.7037C42.263 44.0531 42.2159 43.319 42.2147 42.586C42.21 36.3656 42.21 30.1453 42.2147 23.9249C42.2171 23.7319 42.1359 23.5119 42.3359 23.3566Z" fill="#DFDFDF"/>
<path d="M2.58407 17.666C2.58407 26.2675 2.58054 34.8683 2.57348 43.4683C2.57348 43.9389 2.80878 44.2919 2.95819 44.6954C1.95231 44.7636 1.36407 44.2189 1.36407 43.2048C1.36407 34.8126 1.36133 26.4205 1.35583 18.0283C1.35583 17.7213 1.43583 17.6166 1.74172 17.6483C2.02054 17.6754 2.30525 17.6613 2.58407 17.666Z" fill="#E1E1E1"/>
<path d="M42.3359 23.3566C42.1359 23.5119 42.2183 23.7319 42.2183 23.9237C42.2136 30.1449 42.2136 36.3653 42.2183 42.5849C42.2183 43.319 42.2665 44.0531 41.8324 44.7025H40.7736C41.0959 43.959 41.0783 43.2084 41.0783 42.4613C41.0783 39.3045 41.0783 36.1476 41.0783 32.9908C41.0783 32.3225 40.9406 32.1484 40.3277 32.0096C40.3277 31.3884 40.3277 30.7672 40.3277 30.146C40.9348 30.0178 41.0783 29.8355 41.0795 29.1684C41.0795 25.5731 41.0795 21.9782 41.0795 18.3837V17.8978L41.1759 17.886C41.5634 19.7104 41.9501 21.5339 42.3359 23.3566Z" fill="#B9B9B9"/>
<path d="M32.2547 3.37317C32.6594 3.36493 33.0641 3.34846 33.4688 3.35081C33.9829 3.35081 34.1041 3.46846 34.1076 3.98611C34.1135 4.92728 34.1076 5.85787 34.1076 6.79434C34.1076 8.33944 34.1076 9.88376 34.1076 11.4273C34.1076 12.0555 33.99 12.1732 33.3782 12.1732C33.0052 12.1732 32.6323 12.1543 32.2594 12.1438C32.1252 11.6085 32.1617 11.0626 32.1605 10.5191C32.1605 8.6163 32.1605 6.71395 32.1605 4.81199C32.1617 4.32964 32.1394 3.84728 32.2547 3.37317Z" fill="#FACA63"/>
<path d="M8.12531 3.37668C8.59589 3.36844 9.06648 3.35315 9.53001 3.35315C9.85707 3.35315 10.0077 3.53433 10.0077 3.85786C10.0077 6.4555 10.0077 9.05237 10.0077 11.6484C10.0077 11.9743 9.84883 12.159 9.53707 12.1649C9.06648 12.1732 8.59589 12.1484 8.13472 12.1379C8.13001 9.21785 8.12687 6.29746 8.12531 3.37668Z" fill="#FECE64"/>
<path d="M20.2359 3.3743C20.6723 3.36606 21.11 3.35665 21.5465 3.35077C21.8994 3.35077 22.0476 3.53783 22.0476 3.88136C22.0476 6.46253 22.0476 9.04371 22.0476 11.6249C22.0476 12.0025 21.8653 12.1719 21.5041 12.1696C21.0841 12.1696 20.6629 12.1519 20.2417 12.1414C20.1604 11.8575 20.1262 11.5622 20.1406 11.2672C20.1406 8.89626 20.1406 6.52606 20.1406 4.15665C20.1332 3.89258 20.1653 3.62888 20.2359 3.3743Z" fill="#FECE64"/>
<path d="M8.12525 3.37673C8.12525 6.29673 8.12525 9.21712 8.12525 12.1379C8.04773 12.1551 7.96911 12.1669 7.88996 12.1732C6.98054 12.1991 6.91113 12.1297 6.91113 11.2061V4.45438C6.9229 3.31438 6.97231 3.27085 8.12525 3.37673Z" fill="#FCB24F"/>
<path d="M20.2359 3.37438C20.1649 3.6289 20.1324 3.8926 20.1394 4.15673C20.1441 6.52771 20.1441 8.89791 20.1394 11.2673C20.1251 11.5623 20.1593 11.8576 20.2406 12.1414C19.0476 12.2732 18.9806 12.2144 18.9806 11.0367V4.29555C18.9806 3.34496 18.9876 3.33673 19.9559 3.35438C20.05 3.35202 20.1429 3.36614 20.2359 3.37438Z" fill="#FCB24F"/>
<path d="M32.2546 3.37306C32.137 3.84365 32.1617 4.32953 32.1617 4.81188C32.1617 6.71462 32.1617 8.61698 32.1617 10.5189C32.1617 11.0625 32.1264 11.6083 32.2605 12.1436C31.0934 12.2613 31.0264 12.2083 31.0264 11.0589V4.22365C31.0264 3.36129 31.0464 3.34129 31.9299 3.35071C32.0381 3.35188 32.1464 3.366 32.2546 3.37306Z" fill="#FCB24F"/>
<path d="M2.96879 9.52598C2.61585 10.1142 2.55938 10.7436 2.57114 11.4083C2.5982 13.0142 2.58408 14.6201 2.58643 16.2319C1.3629 16.2789 1.3629 16.2789 1.3629 15.0554C1.3629 13.6954 1.35702 12.3366 1.3629 10.9766C1.37114 10.0248 2.02173 9.4448 2.96879 9.52598Z" fill="#C83741"/>
<path d="M20.4134 40.7696C15.7946 40.8379 11.5581 37.1896 10.9322 32.479C10.2346 27.2261 13.6381 22.479 18.7911 21.5484C21.2793 21.0979 23.6064 21.5708 25.7417 22.9284C25.9981 23.0908 26.1652 23.1108 26.4475 22.952C26.9718 22.6458 27.5864 22.5319 28.1855 22.6301C28.7846 22.7282 29.3308 23.0322 29.7299 23.4896C30.6075 24.4849 30.7017 25.8496 29.8875 26.8826C29.5758 27.279 29.5475 27.5884 29.7064 28.0508C31.604 33.6014 27.9734 39.5426 22.3805 40.5837C21.7306 40.6968 21.0729 40.759 20.4134 40.7696ZM17.5899 23.3696H17.597C17.4773 23.3969 17.3594 23.4315 17.244 23.4732C12.4946 25.5202 10.7487 31.3837 13.6264 35.679C14.5887 37.1143 15.8617 38.1896 17.5158 38.7732L17.5428 38.7943H17.577C17.6012 38.8278 17.6348 38.8534 17.6734 38.8681C17.7121 38.8827 17.7542 38.8857 17.7946 38.8767C19.0758 39.4014 20.404 39.4649 21.7522 39.2661C26.1052 38.6226 29.2205 34.619 28.7617 30.2484C28.7251 29.7061 28.6061 29.1725 28.4087 28.6661C28.2499 28.8496 28.1287 28.9884 28.0087 29.1284C26.2793 31.1473 24.5558 33.1732 22.8193 35.1861C21.6146 36.5826 19.7805 36.6567 18.6205 35.2884C17.6111 34.0979 16.6652 32.8473 15.7687 31.5673C14.9652 30.419 15.2805 28.8402 16.377 28.0026C16.9071 27.5895 17.5743 27.3932 18.2437 27.4532C18.9131 27.5133 19.5347 27.8253 19.9828 28.3261C20.257 28.6214 20.4981 28.9461 20.7522 29.2555C20.7862 29.2434 20.8179 29.2259 20.8464 29.2037C22.2228 27.6037 23.5997 26.0037 24.977 24.4037C25.1358 24.2202 25.0546 24.1614 24.897 24.0637C24.0234 23.5122 23.0514 23.1347 22.0346 22.952C20.5958 22.7061 19.1722 22.7379 17.7993 23.2967C17.7625 23.2871 17.7236 23.2889 17.6879 23.3019C17.6522 23.315 17.6213 23.3386 17.5993 23.3696H17.5899ZM28.5993 24.3896C27.9887 23.8437 27.2828 23.8837 26.717 24.5343C24.9522 26.5673 23.2122 28.6132 21.4581 30.652C20.9017 31.2967 20.517 31.279 19.9887 30.6014C19.6417 30.1579 19.3205 29.692 18.944 29.2767C18.3722 28.6473 17.5322 28.7084 17.0122 29.3802C16.6193 29.9284 16.624 30.412 17.0699 31.0026C17.8699 32.0614 18.684 33.1108 19.4958 34.1602C20.2017 35.0673 21.0475 35.0802 21.7981 34.2026C23.2193 32.5406 24.6413 30.879 26.064 29.2179C26.917 28.2202 27.7758 27.2273 28.6193 26.2226C29.1593 25.5873 29.1405 24.9414 28.604 24.3896H28.5993Z" fill="#050505"/>
<path d="M17.7958 23.2895C19.1723 22.7307 20.5958 22.7013 22.0311 22.9448C23.048 23.1275 24.0199 23.505 24.8935 24.0566C25.0511 24.1542 25.1288 24.213 24.9735 24.3966C23.5923 25.9927 22.2154 27.5927 20.8429 29.1966C20.8145 29.2187 20.7827 29.2362 20.7488 29.2483C20.4946 28.9389 20.2535 28.6142 19.9793 28.3189C19.5312 27.8181 18.9096 27.5061 18.2402 27.4461C17.5708 27.386 16.9036 27.5823 16.3735 27.9954C15.277 28.833 14.9617 30.4119 15.7652 31.5601C16.6617 32.8401 17.6076 34.0907 18.617 35.2813C19.777 36.6495 21.6111 36.5754 22.8158 35.1789C24.5523 33.166 26.2758 31.1401 28.0052 29.1213C28.1229 28.9813 28.2464 28.8425 28.4052 28.6589C28.6026 29.1654 28.7216 29.699 28.7582 30.2413C29.217 34.6119 26.1052 38.6154 21.7488 39.2589C20.4005 39.4589 19.0723 39.3942 17.7911 38.8695C17.7686 38.8341 17.7352 38.8069 17.696 38.7921C17.6568 38.7773 17.6138 38.7755 17.5735 38.7872H17.5393L17.5123 38.766C17.5123 38.5307 17.2899 38.4777 17.1464 38.3777C16.0311 37.599 15.1203 36.5626 14.4911 35.3566C13.5076 33.4989 13.1546 31.5377 13.557 29.4507C13.921 27.4281 14.9755 25.5944 16.5405 24.2625C16.8935 23.9601 17.3346 23.7683 17.5993 23.366H17.5923C17.6299 23.3772 17.6702 23.3758 17.7069 23.362C17.7436 23.3481 17.7749 23.3227 17.7958 23.2895Z" fill="#84C0ED"/>
<path d="M28.6042 24.3896C29.1407 24.9414 29.1595 25.5872 28.6277 26.2213C27.7842 27.2261 26.9254 28.2213 26.0724 29.2166C24.6513 30.8778 23.2293 32.5394 21.8066 34.2013C21.056 35.079 20.2066 35.066 19.5042 34.159C18.6924 33.1096 17.8783 32.0602 17.0783 31.0013C16.6324 30.4131 16.6277 29.9272 17.0207 29.379C17.0822 29.3843 17.1416 29.404 17.1941 29.4365C17.2467 29.469 17.2908 29.5134 17.323 29.566C17.8571 30.2719 18.4089 30.9684 18.9383 31.6837C19.7301 32.7425 21.056 32.9707 21.9371 32.1402C22.3877 31.7131 22.7971 31.2366 23.2042 30.7649C24.2505 29.5515 25.2897 28.3319 26.3218 27.1061C27.0842 26.2002 27.8971 25.3449 28.6042 24.3896Z" fill="#EF941D"/>
<path d="M28.604 24.3896C27.8982 25.339 27.084 26.2002 26.3217 27.1026C25.2911 28.3277 24.2519 29.5457 23.204 30.7567C22.797 31.2273 22.3876 31.7049 21.937 32.132C21.0593 32.9626 19.7299 32.7402 18.9382 31.6755C18.4087 30.9696 17.857 30.2696 17.3229 29.5579C17.2906 29.5052 17.2465 29.4608 17.194 29.4283C17.1415 29.3958 17.082 29.3761 17.0205 29.3708C17.5429 28.699 18.3805 28.6379 18.9523 29.2673C19.3287 29.6826 19.6499 30.1485 19.997 30.592C20.5276 31.2696 20.9099 31.2873 21.4664 30.6426C23.2205 28.6049 24.9652 26.559 26.7252 24.5249C27.2876 23.8837 27.9935 23.8437 28.604 24.3896Z" fill="#FCA72B"/>
<path d="M17.5993 23.366C17.337 23.7683 16.8935 23.9542 16.5405 24.2624C14.9748 25.5953 13.9202 27.4303 13.557 29.4542C13.1546 31.5413 13.5076 33.5024 14.4911 35.3601C15.1203 36.5661 16.0311 37.6025 17.1464 38.3813C17.2899 38.4813 17.5076 38.5307 17.5123 38.7695C15.8593 38.1813 14.5852 37.1107 13.6229 35.6754C10.7499 31.3801 12.4958 25.5166 17.2464 23.4695C17.3618 23.4279 17.4797 23.3933 17.5993 23.366Z" fill="#68ACE7"/>
<path d="M17.7959 23.2895C17.7756 23.3229 17.745 23.3487 17.7087 23.3632C17.6724 23.3776 17.6324 23.3798 17.5947 23.3695C17.6158 23.337 17.6465 23.3118 17.6826 23.2975C17.7186 23.2831 17.7582 23.2804 17.7959 23.2895Z" fill="#68ACE7"/>
<path d="M17.5782 38.7873C17.6185 38.7756 17.6615 38.7774 17.7007 38.7922C17.74 38.8071 17.7733 38.8342 17.7958 38.8696C17.7555 38.8786 17.7134 38.8756 17.6747 38.861C17.636 38.8464 17.6025 38.8207 17.5782 38.7873Z" fill="#68ACE7"/>
</g>
<defs>
<clipPath id="clip0_209_3243">
<rect width="48" height="48" fill="white" transform="translate(0 0.0341797)"/>
</clipPath>
</defs>
</svg>
