<svg width="48" height="48" viewBox="0 0 48 48" fill="none" xmlns="http://www.w3.org/2000/svg">
<path d="M10.9444 15.6078C10.4983 15.5387 10.3032 15.2654 10.2768 14.8284C10.2555 14.492 10.1904 14.1577 10.1691 13.8214C10.1579 13.6456 10.104 13.5561 9.9252 13.5165C7.72719 13.0592 6.38176 11.6071 5.54443 9.63672C4.80769 7.90615 4.67559 6.0567 4.71115 4.1981C4.72233 3.6331 5.09121 3.23272 5.643 3.20833C7.65301 3.11789 9.63762 3.2317 11.5308 4.01518C12.3401 4.36035 13.0696 4.86849 13.6739 5.50796C13.8883 5.72847 13.993 5.74778 14.1566 5.43682C14.7094 4.38304 15.8262 3.84548 16.8871 4.06904C17.1858 4.13204 17.384 4.29057 17.4287 4.58933C17.4498 4.71177 17.4301 4.83775 17.3727 4.9479C17.3152 5.05806 17.2231 5.14629 17.1106 5.19904C16.9226 5.30066 16.7143 5.24985 16.5141 5.24375C16.291 5.23095 16.0682 5.27373 15.8656 5.36826C15.6631 5.46279 15.4872 5.60611 15.3537 5.78538C15.2378 5.93069 15.2348 6.0191 15.4248 6.11767C16.1397 6.48771 16.6805 7.12382 16.9308 7.88888C17.006 8.10329 17.1096 8.17341 17.3373 8.17138C19.0648 8.16122 20.7923 8.1663 22.5259 8.16528C22.7566 8.16528 23.1265 7.80962 23.1356 7.58097C23.1356 7.42143 22.9872 7.40416 22.8937 7.34928C21.8346 6.7276 20.8114 6.04669 19.8289 5.3098C19.4225 5.00495 19.016 4.67875 18.6146 4.36373C18.3026 4.12188 18.1065 3.83328 18.2488 3.42071C18.391 3.00814 18.6959 2.88823 19.0983 2.86689C20.9732 2.76527 22.848 2.65756 24.7229 2.54984C24.796 2.54984 24.8906 2.58135 24.9261 2.47058H26.3854C26.7766 2.61996 27.0296 2.90043 27.2339 3.26524C28.3232 5.21428 29.4329 7.15316 30.5304 9.09915C30.884 9.72512 30.6523 10.2983 30.0223 10.4019C29.8251 10.4344 29.6514 10.3562 29.4725 10.3003C27.9005 9.78498 26.3661 9.16124 24.8804 8.43355C24.8194 8.38681 24.7595 8.35836 24.6985 8.43355L24.8215 8.49961C25.1141 8.90608 25.1263 9.32475 24.9546 9.79829C24.1528 11.9541 23.7529 14.2386 23.7748 16.5386C23.7941 18.2042 24.228 19.7904 24.6416 21.3858C25.0369 22.9101 25.4484 24.4344 25.6049 26.0135C25.8153 28.1475 25.2676 29.9848 23.7463 31.5264C22.5401 32.7458 21.15 33.6705 19.522 34.2203C19.265 34.3077 19.1796 34.4235 19.1562 34.6999C19.0129 36.3685 18.8148 38.033 18.7416 39.7077C18.7243 40.105 18.8595 40.3346 19.2162 40.4972C20.5128 41.0856 21.8044 41.6953 23.099 42.305C23.2482 42.368 23.3891 42.4488 23.5187 42.5459C23.6283 42.6356 23.7125 42.7524 23.7631 42.8848C23.8136 43.0171 23.8287 43.1604 23.8068 43.3003C23.785 43.4403 23.7269 43.5721 23.6384 43.6827C23.5499 43.7933 23.434 43.8789 23.3023 43.9309C23.1487 43.9844 22.986 44.0072 22.8236 43.998H11.3031C10.6416 43.998 10.2738 43.6616 10.3083 43.1027C10.3327 42.7156 10.5796 42.5103 10.9058 42.3589C12.2136 41.7492 13.5103 41.1212 14.8263 40.5298C15.2561 40.3387 15.3902 40.0816 15.3689 39.6233C15.2907 37.9354 15.0803 36.2587 14.9502 34.5759C14.9279 34.2853 14.7328 34.2711 14.5539 34.205C12.638 33.5481 10.9548 32.3475 9.70977 30.75C8.63464 29.3913 8.35824 27.8112 8.49035 26.1304C8.66615 23.9639 9.36427 21.9092 9.86423 19.8128C10.0232 19.1991 10.145 18.5764 10.229 17.9481C10.2819 17.502 10.4668 17.2144 10.9333 17.1555C11.419 17.3922 11.5186 17.5619 11.4413 18.07C11.3865 18.4298 11.3265 18.7895 11.2523 19.1452C10.8509 21.0759 10.2362 22.9477 9.87439 24.8836C9.61628 26.2757 9.48722 27.674 10.0776 29.0235C10.5745 30.1596 11.4515 30.9837 12.4149 31.7143C13.431 32.4877 14.5621 33.0506 15.8313 33.2986C16.4538 33.482 17.1102 33.5202 17.7498 33.4104C19.7222 33.0984 21.3654 32.1513 22.7871 30.7683C24.1538 29.435 24.5928 27.8285 24.3865 25.9699C24.2178 24.4456 23.788 22.9843 23.414 21.5088C22.9974 19.8595 22.5686 18.2174 22.5574 16.498C22.5497 15.2162 22.663 13.9366 22.8958 12.6761C22.9283 12.5013 22.9893 12.3347 22.6854 12.3398C21.4833 12.3581 20.2822 12.357 19.08 12.3642C17.4629 12.3574 15.8458 12.3496 14.2287 12.3408C14.0947 12.3463 13.9663 12.3964 13.8639 12.4831C13.3908 12.8177 12.879 13.0941 12.3397 13.3062C12.0226 13.4322 11.5389 13.3417 11.4078 13.6445C11.2859 13.927 11.4352 14.3274 11.4698 14.676C11.5308 15.2511 11.4586 15.3812 10.9444 15.6078ZM19.4042 11.1193L20.898 11.1376C20.9935 11.1376 21.0809 11.1376 21.1398 11.036C21.4498 10.4934 21.7648 9.95377 22.094 9.38673H19.8919C19.0465 9.38673 18.201 9.37962 17.3515 9.37149C17.2153 9.37149 17.1239 9.38775 17.1025 9.55034C17.0304 10.1072 16.7489 10.5797 16.4776 11.0553L16.4267 11.1031L16.4887 11.1173L19.4042 11.1193ZM23.6345 6.36155C25.293 7.37774 27.055 8.15715 28.936 8.83698C28.9203 8.76073 28.8982 8.68594 28.8699 8.61342C27.9767 7.04341 27.0855 5.46934 26.2014 3.89324C26.0947 3.70321 25.9535 3.67984 25.7665 3.69C24.9729 3.74793 24.1782 3.79975 23.3846 3.85259L20.1033 4.00908C21.3014 4.90942 22.4161 5.71018 23.6345 6.36155ZM12.8843 42.7704H21.2404C20.336 42.3467 19.5424 41.9646 18.7406 41.6018C17.8972 41.2197 17.4887 40.5989 17.5334 39.6538C17.6055 38.1021 17.7569 36.5575 17.9236 35.0139C17.9561 34.7141 17.9236 34.6074 17.5872 34.6542C17.2386 34.7019 16.8851 34.7019 16.5365 34.6542C16.1646 34.6013 16.1595 34.7507 16.191 35.0444C16.3516 36.5473 16.4857 38.0533 16.5771 39.5634C16.6391 40.5928 16.2073 41.2543 15.2754 41.6547C14.5041 41.987 13.7501 42.364 12.8843 42.7704ZM15.9329 9.0331C15.9379 8.75592 15.8875 8.48053 15.7847 8.22309C15.6818 7.96564 15.5286 7.73132 15.334 7.53388C15.1394 7.33644 14.9073 7.17984 14.6514 7.07329C14.3955 6.96673 14.1208 6.91235 13.8436 6.91334C13.2838 6.91199 12.7463 7.13265 12.349 7.52697C11.9516 7.92128 11.7268 8.45705 11.7238 9.01684C11.73 9.56954 11.9504 10.0983 12.3385 10.4918C12.7267 10.8853 13.2524 11.1128 13.805 11.1264C14.0821 11.1294 14.357 11.0776 14.614 10.9739C14.871 10.8703 15.105 10.7169 15.3025 10.5226C15.5001 10.3283 15.6573 10.0968 15.7651 9.84156C15.8729 9.58629 15.9293 9.31223 15.9309 9.03513L15.9329 9.0331ZM8.92121 8.20593C8.52591 7.65617 8.10826 7.25173 7.41116 7.62365C7.38655 7.6349 7.35995 7.64112 7.33291 7.64195C7.21127 7.66169 7.0865 7.64134 6.97744 7.58397C6.86837 7.52659 6.78092 7.43531 6.72828 7.32388C6.66272 7.212 6.63802 7.08083 6.65841 6.95277C6.6788 6.82471 6.743 6.70769 6.84006 6.6217C6.91628 6.55056 7.0057 6.49366 7.08903 6.42964L6.96404 6.53126C6.6226 6.1512 6.28116 5.77115 5.94785 5.39516C5.94785 5.96422 6.03626 6.53735 6.11654 7.1115C6.3462 8.80141 6.94168 10.3064 8.29219 11.4465C9.48214 12.4505 11.0765 12.6822 12.2665 11.9902C11.3834 11.1468 11.3834 11.1468 10.29 11.4354C10.1992 11.4606 10.1069 11.4803 10.0136 11.4943C9.64676 11.54 9.37036 11.3724 9.2911 11.0614C9.21184 10.7505 9.39272 10.4588 9.73009 10.3409C9.97194 10.2576 10.225 10.2078 10.4699 10.1377C10.5502 10.1143 10.6569 10.1164 10.6558 9.97206C10.6558 9.71801 10.0177 9.17842 9.76667 9.2404C9.3602 9.34202 8.96084 9.4599 8.55335 9.54526C8.19972 9.62351 7.90604 9.44974 7.82271 9.13879C7.77928 8.98693 7.79763 8.82406 7.87377 8.68567C7.94991 8.54729 8.07767 8.44461 8.22919 8.40002C8.44259 8.32584 8.66919 8.27808 8.91714 8.20796L8.92121 8.20593ZM6.81974 4.38406C7.16423 4.74277 7.44469 5.03035 7.72008 5.322C7.86539 5.47544 7.97209 5.58417 8.12655 5.30574C8.26679 5.05372 8.53303 5.00088 8.8013 5.1025C8.93246 5.14347 9.04398 5.23124 9.11462 5.3491C9.18527 5.46697 9.2101 5.60669 9.1844 5.74168C9.16001 5.94492 9.09802 6.13494 9.05535 6.33208C9.03197 6.4337 8.98929 6.54447 9.08685 6.63694C9.31955 6.85034 9.50856 7.11455 9.79818 7.27205C9.9882 6.8229 9.8815 6.15425 10.5959 6.15425C11.0877 6.15425 11.1731 6.56987 11.1528 7.05357C11.4999 6.61139 11.9397 6.25065 12.4413 5.99674C10.8032 4.61575 8.85516 4.48364 6.81974 4.38406ZM22.4995 11.101C23.2352 11.1864 23.2332 11.1854 23.4252 10.5574C23.5197 10.2525 23.6285 9.94767 23.7169 9.63672C23.7412 9.55339 23.8713 9.43348 23.6955 9.37962C23.6446 9.36064 23.5883 9.36173 23.5381 9.38267C23.4879 9.40362 23.4476 9.44284 23.4252 9.49242C23.1234 10.0249 22.8155 10.5543 22.4995 11.101Z" fill="#030302"/>
<path d="M15.8354 33.3047C14.5632 33.0578 13.4393 32.4938 12.419 31.7205C11.4557 30.9898 10.5787 30.1657 10.0818 29.0296C9.4914 27.6801 9.62045 26.2859 9.87857 24.8897C10.2373 22.9538 10.8551 21.078 11.2565 19.1513C11.3307 18.7956 11.3906 18.4399 11.4455 18.0761C11.5228 17.5681 11.4232 17.3994 10.9374 17.1616C10.9374 16.6433 10.9398 16.1251 10.9445 15.6068C11.4587 15.3802 11.5309 15.2501 11.475 14.675C11.4404 14.3264 11.2911 13.926 11.413 13.6435C11.5441 13.3387 12.0227 13.4312 12.3448 13.3052C12.8842 13.0931 13.396 12.8167 13.8691 12.482C13.9715 12.3954 14.0999 12.3453 14.2339 12.3398C15.8503 12.3506 17.4674 12.3584 19.0852 12.3632C18.9602 13.2381 18.8088 14.1069 18.7346 14.992C18.6381 16.0101 18.6561 17.0357 18.7885 18.0497C18.9805 19.3911 19.3565 20.6979 19.6919 22.0128C20.1329 23.7404 20.64 25.4628 20.5465 27.2797C20.5007 28.1669 20.3097 29.0245 19.8504 29.7806C19.2143 30.8283 18.3454 31.6768 17.3404 32.3739C16.8547 32.7082 16.3374 32.9958 15.8354 33.3047Z" fill="#FDD030"/>
<path d="M15.8352 33.3049C16.3372 33 16.8514 32.7084 17.3392 32.373C18.3442 31.6759 19.213 30.8274 19.8491 29.7797C20.3085 29.0237 20.4995 28.166 20.5452 27.2789C20.6387 25.462 20.1316 23.7426 19.6906 22.012C19.3553 20.6991 18.9793 19.3923 18.7872 18.0489C18.6549 17.0349 18.6368 16.0092 18.7334 14.9912C18.8075 14.1061 18.959 13.2373 19.0839 12.3623C20.2861 12.3552 21.4872 12.3562 22.6894 12.3379C22.9942 12.3329 22.9322 12.4995 22.8997 12.6743C22.6667 13.9361 22.5534 15.2171 22.5613 16.5002C22.5725 18.2196 23.0013 19.8618 23.418 21.511C23.7919 22.9865 24.2218 24.4478 24.3905 25.9721C24.5937 27.8307 24.1578 29.4373 22.791 30.7705C21.3683 32.1556 19.7262 33.1026 17.7538 33.4126C17.1144 33.5237 16.4581 33.4869 15.8352 33.3049Z" fill="#EBB918"/>
<path d="M12.8842 42.7706C13.752 42.3641 14.504 41.9871 15.2752 41.6528C16.2071 41.2524 16.639 40.5909 16.577 39.5615C16.4855 38.0514 16.3514 36.5454 16.1908 35.0425C16.1593 34.7488 16.1644 34.5994 16.5363 34.6523C16.8849 34.7 17.2384 34.7 17.5871 34.6523C17.9214 34.6086 17.9559 34.7122 17.9234 35.012C17.7568 36.5556 17.6054 38.1002 17.5332 39.6519C17.4885 40.597 17.897 41.2179 18.7404 41.5999C19.5422 41.9627 20.3358 42.3448 21.2402 42.7686L12.8842 42.7706Z" fill="#D2E1DE"/>
<path d="M23.3848 3.85459C24.1784 3.80175 24.9731 3.75297 25.7667 3.692C25.9537 3.67879 26.095 3.70216 26.2017 3.89524C27.0858 5.47236 27.98 7.04541 28.8702 8.61643C28.8985 8.68896 28.9206 8.76374 28.9362 8.84C27.0553 8.16118 25.2932 7.37466 23.6348 6.36152C23.65 6.15828 23.5017 6.01805 23.4112 5.85952C23.0322 5.1929 22.9976 4.52832 23.3848 3.85459Z" fill="#E22D15"/>
<path d="M15.9309 9.03525C15.9293 9.31235 15.873 9.58641 15.7651 9.84168C15.6573 10.0969 15.5001 10.3284 15.3026 10.5227C15.105 10.717 14.871 10.8704 14.614 10.9741C14.357 11.0777 14.0821 11.1295 13.805 11.1266C13.2525 11.1129 12.7267 10.8854 12.3386 10.4919C11.9504 10.0984 11.73 9.56966 11.7239 9.01696C11.7268 8.45717 11.9516 7.92139 12.349 7.52708C12.7463 7.13277 13.2838 6.91211 13.8436 6.91346C14.1209 6.91273 14.3954 6.96737 14.6513 7.07418C14.9071 7.18099 15.139 7.33781 15.3334 7.53544C15.5279 7.73307 15.6808 7.96754 15.7834 8.22509C15.886 8.48263 15.9362 8.75808 15.9309 9.03525Z" fill="#F84F29"/>
<path d="M8.91707 8.2081C8.66811 8.27822 8.44252 8.32598 8.2281 8.40524C8.07658 8.44983 7.94883 8.55251 7.87269 8.6909C7.79655 8.82928 7.7782 8.99215 7.82163 9.14401C7.90496 9.44886 8.19863 9.62466 8.55226 9.55048C8.95874 9.46004 9.36521 9.34013 9.76559 9.24563C10.0166 9.18364 10.6527 9.72323 10.6547 9.97728C10.6547 10.1216 10.5531 10.1195 10.4688 10.1429C10.2239 10.2171 9.97086 10.2669 9.72901 10.3462C9.38757 10.464 9.21482 10.7648 9.29001 11.0666C9.36521 11.3684 9.64568 11.5453 10.0125 11.4995C10.1079 11.4841 10.2023 11.4627 10.295 11.4355C11.3884 11.1469 11.3884 11.1469 12.2715 11.9903C11.0765 12.6824 9.48207 12.4507 8.29212 11.4467C6.94161 10.3065 6.34613 8.80155 6.11139 7.10757C6.02705 6.53546 5.93966 5.9603 5.9427 5.39124C6.27906 5.76722 6.6205 6.14728 6.95889 6.52733L7.08388 6.42571C7.00055 6.48973 6.91113 6.54664 6.83491 6.61777C6.73703 6.70361 6.67212 6.82088 6.65135 6.94941C6.63057 7.07793 6.65524 7.20968 6.7211 7.32199C6.77374 7.43341 6.86119 7.5247 6.97026 7.58207C7.07932 7.63945 7.20409 7.6598 7.32573 7.64005C7.35277 7.63922 7.37937 7.63301 7.40398 7.62176C8.10819 7.2539 8.52178 7.65834 8.91707 8.2081Z" fill="#74CB55"/>
<path d="M6.8197 4.38403C8.85207 4.48565 10.7981 4.61572 12.4412 5.99672C11.9401 6.24945 11.5003 6.60877 11.1527 7.04949C11.173 6.56578 11.0877 6.15321 10.5958 6.15016C9.88452 6.15016 9.98614 6.81576 9.79814 7.26797C9.50853 7.11046 9.31952 6.84625 9.08681 6.63285C8.98519 6.54241 9.03194 6.42961 9.05531 6.328C9.09799 6.13086 9.15693 5.93676 9.18437 5.73759C9.21007 5.6026 9.18523 5.46288 9.11459 5.34501C9.04395 5.22715 8.93243 5.13938 8.80127 5.09841C8.53604 4.99679 8.26675 5.05472 8.12652 5.30165C7.97206 5.58008 7.86536 5.47135 7.72004 5.31791C7.44974 5.03033 7.16419 4.74275 6.8197 4.38403Z" fill="#74CA55"/>
<path d="M16.4816 11.0562C16.7529 10.5807 17.0344 10.1081 17.1065 9.55126C17.1279 9.38867 17.2193 9.3714 17.3555 9.37242C18.201 9.38054 19.0464 9.38258 19.896 9.38766C19.8269 9.99127 19.5545 10.537 19.4082 11.1152H16.4938C16.4969 11.1051 16.4974 11.0944 16.4953 11.0841C16.4932 11.0738 16.4884 11.0642 16.4816 11.0562Z" fill="#E3F7F4"/>
<path d="M23.3844 3.85449C22.9983 4.52822 23.0318 5.19281 23.4108 5.85942C23.5013 6.01795 23.6496 6.15513 23.6344 6.36142C22.415 5.71004 21.2972 4.90421 20.1031 4.01098L23.3844 3.85449Z" fill="#F96148"/>
<path d="M19.4042 11.1194C19.5505 10.5371 19.8228 9.9914 19.8919 9.39185H22.094C21.7648 9.95888 21.4497 10.4985 21.1398 11.0411C21.0809 11.1427 20.9935 11.1427 20.898 11.1427L19.4042 11.1194Z" fill="#CDD7D3"/>
<path d="M22.4994 11.1012C22.8154 10.5545 23.1233 10.0251 23.4251 9.4926C23.4477 9.44321 23.4881 9.40421 23.5383 9.38346C23.5884 9.36272 23.6446 9.36177 23.6954 9.38082C23.8712 9.43976 23.7412 9.55459 23.7168 9.63791C23.6253 9.94277 23.5196 10.2476 23.4251 10.5586C23.2331 11.1856 23.2351 11.1866 22.4994 11.1012Z" fill="#CAD3CF"/>
<path d="M24.8194 8.4988L24.6964 8.43275C24.7574 8.35755 24.8173 8.386 24.8783 8.43275C24.859 8.4551 24.8397 8.47746 24.8194 8.4988Z" fill="#FEFEFE"/>
<path d="M16.4818 11.0563C16.4891 11.0647 16.4939 11.0749 16.4959 11.0858C16.4978 11.0967 16.4969 11.1079 16.493 11.1183L16.431 11.1041L16.4818 11.0563Z" fill="#CDD7D3"/>
<path d="M21.6494 13.4117C21.1804 13.6787 21.1744 14.0448 21.639 14.3557C22.7744 15.1183 23.911 15.8759 25.0489 16.6285C25.1153 16.669 25.173 16.7224 25.2184 16.7855C25.2639 16.8487 25.2963 16.9203 25.3136 16.9961C25.5186 17.8022 25.7259 18.6075 25.9534 19.4076C26.013 19.6171 25.9534 19.6447 25.7729 19.6357C25.5948 19.6263 25.4162 19.6318 25.239 19.6521C24.6313 19.7267 24.2451 20.1935 24.2965 20.8079C24.5167 23.4386 24.7404 26.0693 24.9676 28.7C25.1555 30.9369 25.3414 33.1722 25.5253 35.4056C25.7212 37.75 25.92 40.0938 26.1219 42.4372C26.1897 43.2149 26.6699 43.7242 27.4529 43.8979C27.4655 43.8979 27.4737 43.927 27.4834 43.9419H38.3126C38.3208 43.895 38.3581 43.8868 38.3961 43.8733C39.1299 43.6265 39.4855 43.0889 39.5497 42.3432C39.7982 39.4571 40.045 36.5704 40.2901 33.6832C40.3177 33.3663 40.2379 33.1366 39.9173 33.0292C39.531 33.0695 39.4095 33.1843 39.3744 33.5594C39.3168 34.1619 39.2618 34.7649 39.2097 35.3684C39.0135 37.6232 38.8227 39.8781 38.6228 42.1322C38.5602 42.8607 38.3827 43.0143 37.6505 43.0143H27.9868C27.8876 43.0143 27.7884 43.0143 27.6885 43.0054C27.3224 42.9681 27.1091 42.775 27.0577 42.4089C27.0189 42.1337 27.0032 41.8556 26.9794 41.5789L26.4656 35.5227C26.3165 33.7525 26.1674 31.9821 26.0182 30.2114C25.9302 29.1638 25.849 28.1146 25.7647 27.0662C25.6439 25.6838 25.5229 24.3011 25.4016 22.9181C25.3419 22.2366 25.292 21.5543 25.2234 20.8735C25.2002 20.6379 25.2718 20.5425 25.5127 20.5633C25.6902 20.5801 25.869 20.5801 26.0466 20.5633C26.2233 20.5454 26.2792 20.6208 26.321 20.7811C26.6192 21.9398 26.9272 23.0966 27.2448 24.2514C27.3037 24.4631 27.2948 24.5377 27.0405 24.534C26.6185 24.5287 26.4529 24.7293 26.4731 25.1469C26.4776 25.2356 26.491 25.3244 26.4977 25.4131C26.5663 26.2825 26.6344 27.1525 26.702 28.0229C26.8027 29.1593 26.9056 30.2942 27.004 31.4305C27.1576 33.2201 27.3127 35.0097 27.4559 36.7993C27.482 37.1236 27.6206 37.316 27.9323 37.3876C28.3439 37.2385 28.4103 37.1535 28.3752 36.7083C28.2701 35.3766 28.1516 34.0456 28.0434 32.7138C27.9569 31.6699 27.8719 30.6245 27.7884 29.5776C27.731 28.9557 27.6713 28.3338 27.6169 27.7134C27.5558 27.0222 27.4998 26.331 27.4439 25.639C27.4387 25.5786 27.3917 25.4862 27.5006 25.4735C27.5752 25.4645 27.5841 25.5406 27.599 25.5988C27.6378 25.7479 27.6781 25.9052 27.7198 26.0581C28.112 27.5091 28.5045 28.9607 28.8972 30.4127C28.9937 30.5218 29.1225 30.5973 29.2648 30.6282C29.7077 30.5208 29.8151 30.3441 29.6973 29.896C29.3312 28.5076 28.9703 27.1184 28.5907 25.7337C28.5244 25.4914 28.5788 25.4571 28.807 25.4593C29.9359 25.4698 31.0648 25.4593 32.1945 25.4668C32.2646 25.4668 32.3503 25.4258 32.4078 25.5063C32.0834 26.0708 32.1043 26.1662 32.6382 26.5465L34.3987 27.8022C33.4987 28.4181 32.6262 29.0146 31.7553 29.6119C31.3243 29.9102 31.29 30.1055 31.5846 30.5455C31.9658 31.1131 32.3459 31.6806 32.7247 32.2478L33.908 33.9568C34.2018 34.3811 34.3994 34.4221 34.8177 34.1365C35.6693 33.5549 36.5186 32.9711 37.3709 32.3924C37.4559 32.335 37.5274 32.2374 37.6766 32.2582C37.6639 32.4469 37.655 32.6311 37.6385 32.819C37.5685 33.6198 37.4939 34.4199 37.4238 35.2207C37.2471 37.2385 37.0689 39.2555 36.9018 41.2732C36.8847 41.4835 36.8139 41.5275 36.617 41.526C35.4374 41.5171 34.2577 41.5156 33.0781 41.526C32.8596 41.526 32.7739 41.4596 32.7187 41.2509C32.0461 38.6928 31.3681 36.1356 30.6846 33.5795C30.5518 33.0814 30.4228 32.5826 30.2782 32.0882C30.1939 31.7997 29.971 31.6677 29.7182 31.7273C29.4654 31.787 29.3401 32.0174 29.3864 32.3089C29.3989 32.3671 29.4143 32.4246 29.4326 32.4812C30.2091 35.3887 30.9848 38.2976 31.7598 41.2076C31.8224 41.4403 31.8179 41.5297 31.5309 41.523C30.6987 41.5021 29.8658 41.5103 29.0329 41.523C28.8472 41.523 28.7801 41.4775 28.766 41.2822C28.7078 40.4903 28.6325 39.6999 28.5594 38.9087C28.5221 38.5024 28.4192 38.3987 28.0166 38.3391C27.7705 38.4323 27.6154 38.5948 27.6378 38.8737C27.7124 39.8326 27.7869 40.793 27.8839 41.7504C27.9301 42.212 28.2187 42.4521 28.6877 42.4529C31.4332 42.4563 34.1785 42.4563 36.9235 42.4529C37.394 42.4529 37.7303 42.1546 37.7877 41.6833C37.8451 41.2121 37.8734 40.7542 37.9137 40.2897C38.0862 38.3132 38.2587 36.336 38.4312 34.358C38.5058 33.5184 38.5885 32.6795 38.6683 31.8407C38.6683 31.7311 38.6683 31.6214 38.675 31.5133C38.857 29.4056 39.0399 27.2981 39.2238 25.1909C39.2641 24.736 39.0993 24.5377 38.6474 24.5295C38.2408 24.522 37.8342 24.522 37.4275 24.5295C37.2797 24.5335 37.135 24.486 37.0182 24.3953C36.3351 23.9021 35.6481 23.4142 34.9572 22.9315C34.6134 22.6907 34.3979 22.7295 34.1533 23.0695C33.8551 23.4796 33.5568 23.8897 33.2794 24.3103C33.1661 24.481 33.0378 24.534 32.8402 24.534C31.4126 24.526 29.9844 24.526 28.5557 24.534C28.3417 24.534 28.244 24.4795 28.1941 24.264C28.0747 23.7525 27.9271 23.2485 27.7929 22.7407C27.6042 22.0256 27.4163 21.3097 27.2254 20.5783C27.3037 20.5738 27.3522 20.5686 27.4014 20.5686C31.6656 20.5686 35.9302 20.5671 40.1954 20.5641C40.4474 20.5641 40.4937 20.6536 40.4706 20.884C40.396 21.6445 40.3386 22.4074 40.273 23.1694C40.1238 24.8911 39.9643 26.6121 39.8256 28.3346C39.7353 29.4426 39.6019 30.5469 39.5609 31.6595C39.6585 31.8213 39.7801 31.9525 39.9799 31.9808C40.3527 31.9145 40.4556 31.8175 40.4929 31.4104C40.6055 30.1823 40.7077 28.9557 40.8121 27.7284C40.8777 26.9566 40.9508 26.1856 41.0059 25.4168C41.0231 25.167 41.1081 25.0768 41.3676 25.0544C42.9916 24.9128 44.2615 24.1455 45.1406 22.7765C46.9712 19.9146 45.453 16.1051 42.1572 15.2677C39.3312 14.5504 36.4425 16.4846 36.0481 19.3688C36.019 19.5798 35.9459 19.6387 35.7312 19.638C32.9051 19.63 30.0791 19.63 27.253 19.638C27.0383 19.638 26.9466 19.5813 26.8929 19.3666C26.6602 18.4345 26.4037 17.5084 26.1659 16.5778C26.1375 16.4532 26.0847 16.3354 26.0106 16.2312C25.9365 16.127 25.8426 16.0385 25.7341 15.9708C24.5508 15.1924 23.3764 14.3997 22.1982 13.6131C22.0961 13.5422 21.9917 13.4781 21.8873 13.4117H21.6494ZM34.5269 33.206C33.8737 32.2478 33.2287 31.2986 32.5785 30.3516C32.5114 30.2539 32.5271 30.2025 32.621 30.1376C33.4554 29.5709 34.2823 28.9908 35.1272 28.439C35.2935 28.3294 35.5321 28.2816 35.6931 28.5173C36.2613 29.3524 36.828 30.1883 37.4022 31.0197C37.4827 31.136 37.4767 31.1919 37.3589 31.2732C36.4164 31.9108 35.4791 32.555 34.5269 33.206ZM33.3339 25.8404C33.3451 25.824 33.3555 25.8068 33.3667 25.7911C33.7952 25.1847 34.2232 24.5782 34.6507 23.9717C34.7111 23.8852 34.7596 23.921 34.82 23.9635C35.4075 24.3831 35.9956 24.8017 36.5842 25.2192C36.664 25.2759 36.6804 25.3214 36.6185 25.4079C36.2203 25.9619 35.8296 26.5219 35.4299 27.0759C35.3322 27.2109 35.2181 27.2452 35.0571 27.1251C34.5351 26.7366 33.9953 26.3668 33.4644 25.9865C33.4099 25.9492 33.3346 25.9254 33.3324 25.8404H33.3339ZM37.8742 30.0682C37.309 29.2391 36.7863 28.4718 36.2613 27.7052C36.2376 27.6736 36.2261 27.6345 36.2289 27.5951C36.2316 27.5557 36.2484 27.5186 36.2762 27.4905C36.7356 26.844 37.1904 26.1938 37.655 25.5518C37.7914 25.3631 38.0106 25.4519 38.1769 25.4735C38.3432 25.4951 38.2515 25.6726 38.2418 25.7718C38.1299 27.1751 38.0047 28.5784 37.8742 30.0682ZM41.4138 19.0042C41.4138 18.0773 41.4138 17.1587 41.4138 16.24C41.4138 16.0499 41.5212 16.0909 41.6263 16.1118C42.3037 16.2245 42.9404 16.511 43.4741 16.9432L41.4138 19.0042ZM42.117 20.6707L42.1349 20.5701C43.0297 20.5701 43.9244 20.5701 44.8252 20.5701C44.9475 20.5701 44.9646 20.6029 44.9445 20.7244C44.8333 21.4104 44.5512 22.0574 44.1243 22.6057C44.0348 22.7228 43.9878 22.6996 43.9006 22.6057C43.3123 21.9585 42.7135 21.3157 42.117 20.6707ZM41.3713 21.2374C42.0327 21.951 42.6486 22.6169 43.266 23.2813C43.3637 23.3864 43.266 23.4125 43.2041 23.4543C42.7478 23.772 42.2272 23.9858 41.6793 24.0806C41.1364 24.1768 41.1252 24.1634 41.1677 23.6071C41.2296 22.8398 41.3042 22.074 41.3743 21.2411L41.3713 21.2374ZM38.4483 16.9312C38.9827 16.5051 39.6159 16.2207 40.2894 16.1043C40.484 16.0678 40.4981 16.1528 40.4974 16.3079C40.4922 17.1505 40.4974 17.9923 40.4974 18.8342C40.4974 18.8782 40.5168 18.9371 40.4542 18.9475L38.4483 16.9312ZM42.1565 19.6439C42.8015 18.9975 43.4241 18.3763 44.0437 17.7515C44.1399 17.6538 44.1854 17.6665 44.26 17.7753C44.6104 18.2809 44.8433 18.8585 44.9415 19.4657C44.9631 19.6 44.9415 19.6454 44.8073 19.6447C43.9394 19.6425 43.0722 19.6439 42.1565 19.6439ZM39.7972 19.6305H37.1285C37.0286 19.6305 36.9302 19.6492 36.9593 19.4814C37.0637 18.8554 37.3076 18.2608 37.6729 17.7418C37.7347 17.6538 37.7772 17.615 37.8734 17.7112C38.4908 18.3331 39.1142 18.9505 39.7972 19.6305Z" fill="#040403"/>
<path d="M39.9823 31.9787C39.7825 31.9503 39.6609 31.8191 39.5632 31.6573C39.265 31.7028 38.9876 31.872 38.6684 31.837C38.5887 32.6758 38.5051 33.5147 38.4313 34.3543C38.2559 36.3318 38.0834 38.309 37.9138 40.286C37.8736 40.7506 37.8438 41.2166 37.7878 41.6796C37.7319 42.1427 37.3941 42.4484 36.9236 42.4492C34.1781 42.4521 31.4328 42.4521 28.6878 42.4492C28.2188 42.4492 27.9302 42.2083 27.884 41.7467C27.7871 40.7893 27.7155 39.8289 27.6379 38.87C27.6156 38.5911 27.7707 38.4286 28.0167 38.3354C27.9884 38.0177 27.9598 37.7001 27.931 37.3824C27.6193 37.3079 27.4836 37.1185 27.4545 36.7941C27.3113 35.0045 27.1562 33.215 27.0026 31.4254C26.9042 30.289 26.8013 29.1541 26.7006 28.0177C26.5045 27.8902 26.3763 27.6964 26.2182 27.5316C26.0601 27.3668 26.0049 27.1304 25.7634 27.0633C25.8476 28.1117 25.9289 29.1608 26.0169 30.2085C26.166 31.9797 26.3151 33.7501 26.4643 35.5198L26.9765 41.573C27.0004 41.8497 27.0161 42.1278 27.0548 42.4029C27.1063 42.7683 27.3195 42.9614 27.6857 42.9994C27.7841 43.0091 27.8833 43.0084 27.9839 43.0084H37.6506C38.3821 43.0084 38.5596 42.8593 38.6245 42.1263C38.8243 39.8722 39.0152 37.6173 39.2113 35.3624C39.2645 34.7605 39.3197 34.1582 39.3768 33.5557C39.4119 33.1829 39.5334 33.0658 39.9197 33.0256C39.8794 32.6729 39.983 32.3291 39.9823 31.9787Z" fill="#C9E9E9"/>
<path d="M27.9337 37.3833C27.962 37.7009 27.9906 38.0186 28.0195 38.3362C28.4221 38.3959 28.525 38.4995 28.5623 38.9059C28.6369 39.697 28.7114 40.4874 28.7688 41.2793C28.783 41.4747 28.8501 41.5217 29.0358 41.5202C29.8687 41.5105 30.7016 41.5023 31.5337 41.5202C31.8208 41.5269 31.8253 41.4374 31.7627 41.2047C30.9817 38.2952 30.2057 35.3846 29.4347 32.4731C29.4164 32.4165 29.401 32.359 29.3885 32.3009C29.3423 32.0093 29.4765 31.7789 29.7203 31.7192C29.9641 31.6596 30.196 31.7938 30.2803 32.0801C30.425 32.5753 30.554 33.0741 30.6867 33.5715C31.3667 36.1276 32.0448 38.6847 32.7208 41.2428C32.776 41.4516 32.8618 41.5202 33.0802 41.5179C34.2599 41.506 35.4395 41.5075 36.6191 41.5179C36.816 41.5179 36.8868 41.4754 36.904 41.2651C37.0703 39.2474 37.2485 37.2304 37.4259 35.2126C37.496 34.4118 37.5706 33.6117 37.6407 32.8109C37.6571 32.6252 37.666 32.4381 37.6787 32.2502C37.5296 32.2293 37.455 32.3247 37.373 32.3844C36.5207 32.963 35.6714 33.5468 34.8199 34.1285C34.4015 34.414 34.2039 34.373 33.9102 33.9488L32.729 32.2419C32.6895 32.3091 32.6381 32.2927 32.5754 32.2762C31.4361 31.9677 30.3546 31.4756 29.3736 30.8192C29.3393 30.7995 29.311 30.7707 29.292 30.7359C29.2729 30.7012 29.2637 30.6619 29.2655 30.6224C29.1231 30.5915 28.9943 30.516 28.8978 30.4069C28.8539 30.4087 28.81 30.4011 28.7692 30.3845C28.7284 30.3679 28.6917 30.3427 28.6615 30.3107C28.3736 30.0616 28.0806 29.8186 27.7891 29.5732C27.8741 30.6172 27.9591 31.6626 28.0441 32.7095C28.1544 34.0412 28.2678 35.3722 28.3759 36.704C28.4117 37.1491 28.3453 37.2334 27.9337 37.3833Z" fill="#FD8854"/>
<path d="M38.6714 31.8378C38.9875 31.8728 39.2634 31.7036 39.5662 31.6581C39.6012 30.5456 39.7384 29.4435 39.8279 28.3332C39.9673 26.6107 40.1261 24.8897 40.2753 23.168C40.3409 22.406 40.3968 21.6431 40.4729 20.8826C40.4952 20.6522 40.4498 20.5619 40.1977 20.5627C35.9331 20.5687 31.6684 20.5701 27.4037 20.5672C27.3545 20.5672 27.3061 20.5724 27.2278 20.5769C27.4187 21.3061 27.6066 22.0219 27.7952 22.7393C27.9294 23.2471 28.0771 23.7511 28.1964 24.2626C28.2463 24.4781 28.3455 24.5341 28.558 24.5326C29.9862 24.5226 31.4144 24.5226 32.8426 24.5326C33.0402 24.5326 33.1684 24.4826 33.2818 24.3089C33.5606 23.8868 33.8596 23.4782 34.1557 23.0681C34.4002 22.7281 34.6157 22.6893 34.9595 22.9302C35.649 23.4138 36.336 23.9017 37.0205 24.3939C37.1373 24.4847 37.282 24.5321 37.4298 24.5281C37.836 24.5196 38.2426 24.5196 38.6497 24.5281C39.1016 24.5363 39.2664 24.7346 39.2261 25.1895C39.0422 27.2967 38.8593 29.4042 38.6773 31.5119C38.6691 31.6186 38.6736 31.7282 38.6714 31.8378Z" fill="#D7F2F2"/>
<path d="M29.2664 30.6222C29.2647 30.6618 29.2739 30.701 29.2929 30.7358C29.312 30.7705 29.3402 30.7993 29.3745 30.819C30.3544 31.4753 31.4346 31.9677 32.5727 32.2768C32.6353 32.2932 32.6867 32.3096 32.7263 32.2425C32.346 31.6748 31.9659 31.1074 31.5862 30.5402C31.2916 30.1002 31.3259 29.9019 31.7569 29.6066C32.6278 29.0101 33.5003 28.4136 34.4003 27.7969L32.6398 26.5412C32.1059 26.1609 32.085 26.0655 32.4094 25.501C32.3519 25.4205 32.2662 25.4615 32.1961 25.4615C31.0664 25.4578 29.9375 25.4615 28.8086 25.454C28.5804 25.454 28.526 25.4861 28.5923 25.7284C28.9719 27.1131 29.3328 28.5023 29.6989 29.8907C29.8167 30.3381 29.7093 30.5148 29.2664 30.6222Z" fill="#FD955B"/>
<path d="M34.5268 33.2059C35.479 32.5549 36.4162 31.9107 37.3603 31.2732C37.481 31.1919 37.484 31.136 37.4035 31.0196C36.8293 30.1882 36.2626 29.3523 35.6945 28.5172C35.5334 28.2816 35.2948 28.3293 35.1285 28.4389C34.2837 28.9907 33.4567 29.5708 32.6223 30.1375C32.5284 30.2009 32.5127 30.2538 32.5798 30.3515C33.2286 31.2985 33.8736 32.2477 34.5268 33.2059Z" fill="#FBEACF"/>
<path d="M25.7664 27.0663C26.008 27.1334 26.0707 27.3772 26.2213 27.5345C26.3719 27.6919 26.5076 27.8932 26.7037 28.0207C26.6356 27.1513 26.5675 26.2813 26.4994 25.4109C26.4927 25.3222 26.4793 25.2334 26.4748 25.1447C26.4547 24.7271 26.6202 24.5266 27.0422 24.5318C27.2965 24.5318 27.3055 24.4572 27.2466 24.2492C26.9304 23.0949 26.6224 21.9381 26.3227 20.7789C26.2809 20.6186 26.225 20.5432 26.0483 20.5611C25.8707 20.5779 25.692 20.5779 25.5144 20.5611C25.2735 20.5403 25.202 20.6357 25.2251 20.8713C25.2937 21.5521 25.3436 22.2344 25.4033 22.9159C25.5236 24.3009 25.6446 25.6843 25.7664 27.0663Z" fill="#D5F0F0"/>
<path d="M33.3315 25.8403C33.3315 25.9253 33.4061 25.9492 33.462 25.9895C33.9929 26.3698 34.5305 26.7396 35.0547 27.1281C35.2165 27.2481 35.3306 27.2138 35.4276 27.0789C35.8272 26.5249 36.218 25.9649 36.6161 25.4108C36.678 25.3243 36.6616 25.2789 36.5818 25.2222C35.9933 24.8051 35.4049 24.3856 34.8169 23.9635C34.7565 23.921 34.708 23.889 34.6476 23.9717C34.2221 24.5797 33.7941 25.1862 33.3636 25.7911C33.3539 25.8068 33.3434 25.8239 33.3315 25.8403Z" fill="#FAE9CE"/>
<path d="M37.8741 30.0681C38.0046 28.5768 38.1299 27.175 38.247 25.7701C38.2552 25.6717 38.3454 25.4935 38.1821 25.4719C38.0188 25.4503 37.7929 25.3615 37.6601 25.5502C37.1956 26.1929 36.7407 26.8431 36.2814 27.4889C36.2536 27.517 36.2368 27.5541 36.234 27.5935C36.2313 27.6329 36.2428 27.672 36.2665 27.7036C36.7862 28.4739 37.3089 29.239 37.8741 30.0681Z" fill="#FA935A"/>
<path d="M41.4138 19.0041L43.474 16.9431C42.9399 16.5098 42.3024 16.2226 41.624 16.1095C41.5189 16.0908 41.41 16.0476 41.4115 16.2377C41.4167 17.1564 41.4138 18.075 41.4138 19.0041Z" fill="#F6DDBB"/>
<path d="M42.117 20.6708C42.7135 21.315 43.31 21.9585 43.9065 22.6095C43.9915 22.7012 44.0385 22.7243 44.1302 22.6095C44.5572 22.0612 44.8392 21.4142 44.9505 20.7282C44.9706 20.6067 44.9505 20.5731 44.8312 20.5739C43.9364 20.5739 43.0416 20.5739 42.1408 20.5739L42.117 20.6708Z" fill="#F8DFBD"/>
<path d="M41.3745 21.2411C41.2999 22.0777 41.2291 22.8435 41.1709 23.6108C41.1284 24.167 41.1396 24.1805 41.6824 24.0843C42.2304 23.9895 42.7509 23.7757 43.2073 23.4579C43.2677 23.4162 43.3669 23.3901 43.2692 23.2849C42.6518 22.6168 42.0359 21.951 41.3745 21.2411Z" fill="#FAE0BE"/>
<path d="M38.4515 16.9313L40.4514 18.9446C40.514 18.9341 40.4946 18.8752 40.4946 18.8312C40.4946 17.9894 40.4946 17.1475 40.4946 16.3049C40.4946 16.1498 40.4812 16.0648 40.2866 16.1014C39.6149 16.2196 38.9838 16.505 38.4515 16.9313Z" fill="#F6DDBB"/>
<path d="M42.1566 19.6439C43.0722 19.6439 43.9394 19.6439 44.8074 19.6439C44.9438 19.6439 44.9632 19.5991 44.9416 19.4649C44.8434 18.8577 44.6105 18.2801 44.2601 17.7745C44.1855 17.6656 44.14 17.653 44.0438 17.7506C43.4249 18.377 42.8016 18.9974 42.1566 19.6439Z" fill="#FAE0BE"/>
<path d="M39.7971 19.6305C39.1141 18.9504 38.4907 18.333 37.8741 17.7111C37.7779 17.6149 37.7354 17.6537 37.6735 17.7417C37.3082 18.2608 37.0644 18.8553 36.9599 19.4813C36.9308 19.6491 37.0292 19.6305 37.1291 19.6305H39.7971Z" fill="#FBE1BF"/>
<path d="M27.7899 29.5731C28.0814 29.8184 28.3745 30.0615 28.6623 30.3106C28.6925 30.3426 28.7292 30.3678 28.77 30.3844C28.8108 30.401 28.8547 30.4086 28.8987 30.4068C28.506 28.9547 28.1135 27.5032 27.7213 26.0521C27.6795 25.8993 27.6392 25.7457 27.6005 25.5928C27.5856 25.5346 27.5759 25.4586 27.502 25.4675C27.3932 25.4802 27.4401 25.5727 27.4454 25.6331C27.5013 26.325 27.5572 27.0163 27.6184 27.7075C27.6728 28.3294 27.7332 28.9512 27.7899 29.5731Z" fill="#F79159"/>
</svg>
