<svg width="48" height="48" viewBox="0 0 48 48" fill="none" xmlns="http://www.w3.org/2000/svg">
<g clip-path="url(#clip0_203_2720)">
<path d="M45.5701 7.50706C46.2677 7.50706 46.4513 7.65176 46.5901 8.33059C47.6136 13.3353 46.1254 17.4882 42.2571 20.7682C40.6607 22.1212 38.7571 22.9165 36.6877 23.2682C36.5662 23.2844 36.4497 23.3269 36.3463 23.3928C36.2428 23.4586 36.155 23.5462 36.0889 23.6494C35.5145 24.4487 34.8545 25.1829 34.1207 25.8388C33.6501 26.2647 33.4148 26.2776 32.8854 25.9153C32.6442 25.4612 32.743 25.0918 33.1207 24.7529C33.9282 24.0371 34.6379 23.2179 35.2313 22.3165C35.9218 21.2963 36.4526 20.1768 36.8054 18.9965H31.3677C31.2583 18.9906 31.1489 18.98 31.0395 18.98C25.2811 18.98 19.5222 18.98 13.763 18.98C13.6383 18.98 13.5136 18.9929 13.3889 19C13.1395 18.9929 12.8889 19 12.6407 18.9753C12.2583 18.9329 12.2524 19.0729 12.3654 19.3894C13.5042 22.5741 15.5713 24.9635 18.5371 26.5588C20.0852 27.4144 21.8101 27.9008 23.5771 27.98C24.0415 28.0419 24.5104 28.0616 24.9783 28.0388C26.9345 27.966 28.8491 27.4529 30.5795 26.5376C31.1454 26.2388 31.363 26.2729 31.7901 26.6788C31.9513 27.3094 31.856 27.5153 31.2948 27.8165C29.9604 28.5372 28.5164 29.0329 27.0207 29.2835C26.7007 29.3365 26.5842 29.4282 26.5854 29.7776C26.5995 33.94 26.5913 38.1035 26.596 42.2659C26.596 43.9424 27.5513 44.98 29.2254 45.1518C30.1595 45.2482 30.7548 45.8576 30.7089 46.6882C30.663 47.5188 30.016 48.0776 29.0795 48.0776C26.0426 48.0776 23.0065 48.0776 19.9713 48.0776C19.0195 48.0776 18.3548 47.4894 18.3336 46.6412C18.3148 45.8447 18.9218 45.2412 19.8242 45.1529C21.5077 44.9894 22.4524 43.9612 22.4583 42.28C22.4583 41.3259 22.4583 40.3706 22.4583 39.4165C22.4583 38.7718 22.5913 38.5929 23.2007 38.4012C23.8042 38.5976 23.9418 38.7812 23.943 39.4165C23.943 40.3871 23.9501 41.3565 23.943 42.3259C23.9348 43.4071 23.6277 44.3871 22.9065 45.2118C22.3183 45.8835 21.5677 46.2953 20.7277 46.5718H28.2301C27.5785 46.3226 26.9726 45.9672 26.4371 45.52L26.3195 45.4224L26.303 45.4435L26.3218 45.4259C25.423 44.4353 25.1101 43.2647 25.1195 41.9412C25.1489 37.9882 25.1301 34.0341 25.1301 30.08C25.1301 29.4765 25.1301 29.4765 24.5042 29.54C24.0583 29.4153 23.9254 29.5741 23.9313 30.04C23.956 32.0071 23.9442 33.9741 23.9407 35.9412C23.9407 36.5871 23.7818 36.7929 23.196 36.9388C22.6207 36.7941 22.4583 36.5929 22.4571 35.9824C22.4571 33.9165 22.4465 31.8506 22.4642 29.7859C22.4642 29.4459 22.3642 29.3424 22.0371 29.2882C16.4607 28.3671 11.723 23.8824 10.5383 18.4106C10.2812 17.1859 10.1554 15.9373 10.163 14.6859C10.163 13.7518 10.5301 13.3918 11.4701 13.38C12.2018 13.3729 12.203 13.3718 11.9195 12.6824C11.7407 12.2494 11.5383 11.8259 11.3865 11.3882C11.2689 11.0576 11.1654 10.98 10.8089 11.1412C8.22066 12.3094 5.62302 13.4482 3.0289 14.5965C2.9289 14.64 2.83243 14.6929 2.73008 14.7318C2.21478 14.9259 1.75008 14.84 1.43596 14.4965C1.12184 14.1529 1.09008 13.6847 1.35714 13.1765C2.12067 11.7471 2.88772 10.32 3.65008 8.88941L7.49361 1.71294C7.83361 1.08 8.05361 0.978823 8.73949 1.15059C12.876 2.18745 17.0089 3.22157 21.1383 4.25294C21.6948 4.39294 22.1971 4.58471 22.2724 5.25529C22.3371 5.82706 22.0783 6.15529 21.3383 6.48353C18.5446 7.72118 15.7501 8.95725 12.9548 10.1918C12.6595 10.3212 12.5548 10.4271 12.7077 10.7553C13.0513 11.5059 13.3524 12.2765 13.6571 13.0447C13.7465 13.2718 13.8501 13.3871 14.1277 13.3871C20.2909 13.3776 26.4552 13.3776 32.6207 13.3871C32.9736 13.3871 33.0277 13.1918 33.116 12.9565C34.4995 9.29412 35.9018 5.64706 37.2571 1.97529C37.5913 1.07176 38.0242 0.328235 38.9771 0H39.823C42.1842 1.05882 43.9571 2.74941 45.263 4.96C45.616 5.54824 45.5689 5.8 45.0665 6.25412C44.5277 6.39294 44.2207 6.11529 43.9701 5.68C43.0116 3.99972 41.609 2.6158 39.916 1.68C39.4054 1.39412 39.1136 1.44471 38.8924 1.86588C38.5701 2.47294 38.5865 2.52353 39.1948 2.84706C42.6254 4.67176 44.676 8.93412 43.9183 12.7294C43.2654 16 41.4289 18.3624 38.3807 19.7647C38.256 19.8224 38.1018 19.8447 38.0407 19.9941C37.8254 20.5153 37.6124 21.0376 37.3865 21.5882C39.0889 21.2035 41.1289 20.0306 42.3277 18.7459C45.0136 15.8612 45.9948 12.4918 45.1513 8.62823C45.0383 8.11765 45.1442 7.77059 45.5701 7.50706ZM11.2689 3.38941V3.32118L11.2101 3.34118L11.2795 3.38118C11.2913 3.40824 11.2948 3.44471 11.3148 3.46235C12.7395 4.70588 14.1689 5.94588 15.5865 7.19882C15.7607 7.35176 15.8889 7.28941 16.0477 7.21882C16.8595 6.85569 17.6716 6.49373 18.4842 6.13294L19.9489 5.48235C17.4489 4.85647 15.0618 4.25059 12.6642 3.66353C12.2054 3.55176 11.7677 3.32941 11.2689 3.38706V3.38941ZM32.3065 17.4847C33.8512 17.5647 35.396 17.4953 36.9407 17.5235C37.1501 17.5235 37.1936 17.4353 37.2265 17.2541C37.3427 16.5451 37.4009 15.8279 37.4007 15.1094C37.4007 14.9071 37.3348 14.8388 37.1313 14.8412C35.5854 14.8541 34.0395 14.8576 32.4924 14.8647C31.1477 14.8647 29.803 14.8494 28.4583 14.8494C23.9524 14.8494 19.4465 14.8494 14.9407 14.8494C14.4018 14.8494 14.4007 14.8494 14.5971 15.32C14.8324 15.8965 15.0971 16.4647 15.303 17.0529C15.4207 17.4059 15.5983 17.5176 15.9771 17.5165C21.2713 17.5012 26.5536 17.5071 31.8418 17.5059C31.996 17.5106 32.1513 17.4929 32.3065 17.4847ZM38.5913 17.9871C39.1423 17.6945 39.6483 17.324 40.0936 16.8871C43.9901 13.2294 43.1524 6.65176 38.4771 4.13059C38.2771 4.02235 38.116 3.84824 37.9689 4.24824C36.8826 7.17608 35.7803 10.098 34.6618 13.0141C34.5442 13.3188 34.6171 13.3835 34.9242 13.3788C35.8465 13.3639 36.7697 13.3639 37.6936 13.3788C38.5418 13.3918 38.8701 13.7424 38.8795 14.5941C38.8876 15.7315 38.7911 16.8673 38.5913 17.9871ZM14.2383 8.01765C13.7383 7.48118 9.3489 3.68471 8.99361 3.48471C8.94655 5.72 8.89949 7.93647 8.85125 10.1506C8.85125 10.3941 8.97714 10.3518 9.12067 10.2882L14.2383 8.01765ZM7.38184 5.04235L3.26419 12.7353C3.52537 12.8271 3.66419 12.6941 3.81361 12.6282C4.71478 12.2376 5.59596 11.7941 6.51949 11.4518C7.16419 11.2165 7.42067 10.8812 7.39831 10.1729C7.34537 8.48353 7.38184 6.78588 7.38184 5.04235ZM12.8383 17.5129H13.3524C13.9113 17.5129 13.9113 17.5129 13.6901 16.9765C13.4889 16.4882 13.2324 16.0165 13.0948 15.5118C12.9383 14.9341 12.6242 14.7718 12.0583 14.8282C11.7548 14.8588 11.6042 14.8894 11.6454 15.2365C11.696 15.6682 11.6913 16.1059 11.736 16.5388C11.8371 17.5165 11.8442 17.5165 12.8383 17.5165V17.5129Z" fill="#030303"/>
<path d="M45.57 7.50708C45.1441 7.77061 45.0382 8.1212 45.1476 8.62356C45.99 12.4906 45.0088 15.86 42.3241 18.7412C41.13 20.0259 39.09 21.1988 37.3829 21.5836C37.6088 21.033 37.8218 20.5106 38.0371 19.9894C38.0982 19.84 38.2523 19.8177 38.377 19.76C41.4253 18.3589 43.2618 15.9953 43.9147 12.72C44.6723 8.92473 42.6206 4.66238 39.1912 2.83767C38.5829 2.51414 38.5665 2.46356 38.8888 1.8565C39.11 1.43767 39.4018 1.38591 39.9123 1.67061C41.6061 2.60802 43.0088 3.99405 43.9665 5.6765C44.2171 6.11179 44.5241 6.38944 45.0629 6.25061C45.3017 6.63778 45.4732 7.06262 45.57 7.50708Z" fill="#93BD30"/>
<path d="M23.1993 36.9413C23.7876 36.7954 23.9441 36.5883 23.9441 35.9436C23.9441 33.9766 23.9593 32.0095 23.9346 30.0425C23.9346 29.5719 24.0617 29.4178 24.5076 29.5425C24.5123 33.9048 24.5143 38.2668 24.5135 42.6284C24.5 43.0035 24.5691 43.377 24.7158 43.7225C25.0605 44.466 25.4958 45.1342 26.3252 45.4284L26.3064 45.446L26.3229 45.4248C26.3237 45.4391 26.3275 45.4531 26.334 45.4659C26.3405 45.4787 26.3495 45.49 26.3605 45.4992C26.3716 45.5083 26.3843 45.5151 26.3981 45.5191C26.4119 45.5231 26.4263 45.5243 26.4405 45.5225C26.976 45.9697 27.5818 46.325 28.2335 46.5742H20.7288C21.5688 46.2978 22.3205 45.886 22.9076 45.2142C23.6288 44.3907 23.9358 43.4095 23.9441 42.3284C23.9511 41.3589 23.9441 40.3895 23.9441 39.4189C23.9441 38.7836 23.8052 38.5954 23.2017 38.4036C23.2009 37.915 23.2001 37.4276 23.1993 36.9413Z" fill="#D6F1F1"/>
<path d="M31.7901 26.6789C31.363 26.273 31.1454 26.2389 30.5795 26.5377C28.8491 27.4529 26.9345 27.966 24.9783 28.0389C24.5104 28.0617 24.0415 28.042 23.5771 27.98C24.0607 27.7083 24.6148 27.5812 25.0748 27.26C25.914 27.2249 26.7464 27.0942 27.556 26.8706C31.6419 25.6671 34.3419 23.0295 35.6889 18.9965H36.803C36.4503 20.1768 35.9195 21.2964 35.2289 22.3165C34.6356 23.2179 33.9259 24.0371 33.1183 24.753C32.7371 25.0895 32.6383 25.4589 32.883 25.9153L31.7901 26.6789Z" fill="#B2E0E3"/>
<path d="M13.3889 18.9999C13.5136 18.9929 13.6383 18.9799 13.763 18.9799C19.5222 18.9799 25.2811 18.9799 31.0395 18.9799C31.1489 18.9799 31.2583 18.9905 31.3677 18.9964C31.0946 20.2702 30.5278 21.4627 29.7124 22.4787C29.5219 22.1258 29.2583 21.9234 28.8372 22.0329C28.6889 22.0629 28.5553 22.1423 28.4581 22.2581C28.3608 22.374 28.3058 22.5193 28.3019 22.6705C28.2819 23.0929 28.5266 23.3587 28.9301 23.4764C28.6468 23.9862 28.2283 24.408 27.7207 24.6952C27.6989 24.5884 27.6556 24.4872 27.5935 24.3976C27.5314 24.308 27.4518 24.232 27.3595 24.174C27.1981 24.0776 27.0054 24.0483 26.8227 24.0923C26.6399 24.1363 26.4817 24.2501 26.3819 24.4093C26.1595 24.7623 26.2772 25.1446 26.7148 25.4682C26.6936 25.6776 26.5407 25.774 26.3854 25.8858C25.6301 26.4317 24.7795 26.7987 23.9548 27.2176C23.6407 27.2482 23.3336 27.1799 23.0242 27.1435C18.5619 26.6282 14.6148 23.294 13.3889 18.9999ZM26.7689 22.2352C26.7669 22.14 26.7462 22.0462 26.7079 21.959C26.6696 21.8719 26.6146 21.7931 26.5458 21.7272C26.4771 21.6614 26.3961 21.6097 26.3074 21.5751C26.2187 21.5406 26.1241 21.5238 26.0289 21.5258C25.9337 21.5278 25.8399 21.5485 25.7527 21.5868C25.6656 21.6251 25.5868 21.6802 25.521 21.7489C25.4551 21.8176 25.4034 21.8986 25.3688 21.9873C25.3343 22.076 25.3175 22.1706 25.3195 22.2658C25.328 22.455 25.4097 22.6335 25.5473 22.7637C25.685 22.8939 25.8677 22.9655 26.0572 22.9634C26.2461 22.9551 26.4248 22.8752 26.557 22.74C26.6891 22.6048 26.7649 22.4243 26.7689 22.2352Z" fill="#E53535"/>
<path d="M38.5912 17.9871C38.7918 16.8655 38.8887 15.7277 38.8806 14.5883C38.8724 13.7365 38.543 13.3859 37.6947 13.373C36.7708 13.3597 35.8477 13.3597 34.9253 13.373C34.6183 13.373 34.5465 13.313 34.663 13.0083C35.7759 10.0891 36.8783 7.16711 37.97 4.2424C38.1171 3.84593 38.2783 4.02005 38.4783 4.12476C43.1583 6.65064 43.9912 13.2236 40.0947 16.8812C39.6494 17.3204 39.143 17.6928 38.5912 17.9871ZM39.2641 6.05299C39.0751 6.05862 38.8953 6.13632 38.7617 6.27018C38.628 6.40403 38.5506 6.58392 38.5453 6.77299C38.5439 6.91743 38.5856 7.05901 38.665 7.17968C38.7444 7.30034 38.8579 7.39462 38.9911 7.45048C39.1244 7.50635 39.2712 7.52127 39.4129 7.49335C39.5546 7.46542 39.6848 7.39591 39.7869 7.29369C39.8889 7.19147 39.9582 7.06116 39.9859 6.9194C40.0136 6.77763 39.9984 6.63083 39.9424 6.49771C39.8863 6.3646 39.7918 6.25121 39.671 6.172C39.5502 6.09279 39.4086 6.05136 39.2641 6.05299ZM37.95 10.5883C37.9547 10.4921 37.9399 10.3959 37.9065 10.3056C37.8731 10.2152 37.8218 10.1326 37.7557 10.0625C37.6896 9.9925 37.61 9.93654 37.5218 9.898C37.4335 9.85946 37.3384 9.83915 37.242 9.83828C37.1457 9.83741 37.0502 9.85599 36.9613 9.89293C36.8723 9.92986 36.7918 9.98437 36.7244 10.0532C36.657 10.122 36.6042 10.2038 36.5692 10.2935C36.5342 10.3832 36.5177 10.4791 36.5206 10.5753C36.5185 10.6686 36.5354 10.7613 36.5701 10.8479C36.6048 10.9345 36.6567 11.0132 36.7227 11.0791C36.7887 11.1451 36.8673 11.197 36.9539 11.2318C37.0405 11.2665 37.1332 11.2833 37.2265 11.2812C37.3196 11.2836 37.4122 11.2675 37.4991 11.2339C37.5859 11.2002 37.6652 11.1498 37.7325 11.0854C37.7998 11.021 37.8536 10.9439 37.8909 10.8586C37.9283 10.7732 37.9483 10.6814 37.95 10.5883ZM41.4477 13.02C41.4499 12.9268 41.4335 12.834 41.3996 12.747C41.3657 12.6601 41.3149 12.5807 41.2501 12.5136C41.1854 12.4464 41.1079 12.3927 41.0223 12.3557C40.9366 12.3186 40.8445 12.2989 40.7512 12.2977C40.6539 12.2964 40.5573 12.3147 40.4672 12.3514C40.377 12.3881 40.2951 12.4425 40.2264 12.5113C40.1576 12.5802 40.1033 12.6622 40.0668 12.7524C40.0302 12.8426 40.0121 12.9392 40.0136 13.0365C40.0188 13.2249 40.0985 13.4035 40.2353 13.5332C40.372 13.6629 40.5546 13.733 40.743 13.7283C40.8362 13.7309 40.929 13.7144 41.0157 13.6799C41.1024 13.6454 41.1811 13.5936 41.247 13.5277C41.313 13.4617 41.3648 13.383 41.3993 13.2963C41.4338 13.2096 41.4503 13.1168 41.4477 13.0236V13.02Z" fill="#E33434"/>
<path d="M32.3063 17.4847C32.151 17.493 31.9957 17.5106 31.8357 17.5106C26.5416 17.5106 21.2593 17.5106 15.971 17.5212C15.5922 17.5212 15.4193 17.4036 15.2969 17.0577C15.0922 16.4694 14.8263 15.9012 14.591 15.3247C14.3946 14.8541 14.3957 14.8541 14.9346 14.8541C19.4404 14.8541 23.9463 14.8541 28.4522 14.8541C29.7969 14.8541 31.1416 14.8635 32.4863 14.8694C32.4291 15.7392 32.3691 16.611 32.3063 17.4847Z" fill="#D8F3F3"/>
<path d="M29.7124 22.4789C30.5277 21.4628 31.0946 20.2704 31.3677 18.9965H35.6888C34.3418 23.0295 31.6418 25.6671 27.5559 26.8706C26.7463 27.0942 25.9139 27.2249 25.0747 27.2601C24.7018 27.2495 24.3253 27.3165 23.9547 27.2259C24.7782 26.8071 25.63 26.4401 26.3853 25.8942C26.5406 25.7824 26.6935 25.6859 26.7147 25.4765C27.3582 25.5871 27.6465 25.3589 27.7206 24.6953C28.2282 24.4081 28.6467 23.9864 28.93 23.4765C29.6041 23.3412 29.7947 23.0977 29.7124 22.4789Z" fill="#C73131"/>
<path d="M14.2381 8.01756L9.12049 10.2881C8.97696 10.3517 8.84637 10.394 8.85108 10.1505C8.89931 7.93638 8.94637 5.72227 8.99343 3.48462C9.34519 3.68462 13.7346 7.48109 14.2381 8.01756Z" fill="#F1B156"/>
<path d="M23.9548 27.2258C24.3254 27.3164 24.7019 27.2493 25.0748 27.2599C24.6148 27.5811 24.0607 27.7081 23.5772 27.9799C21.8101 27.9007 20.0853 27.4143 18.5372 26.5587C15.5713 24.9634 13.5042 22.574 12.3654 19.3893C12.2478 19.0729 12.2584 18.9329 12.6407 18.9752C12.8889 19.0023 13.1395 18.9929 13.3889 18.9999C14.6148 23.2905 18.5654 26.6281 23.0242 27.1517C23.3336 27.1881 23.6407 27.2564 23.9548 27.2258Z" fill="#D5EDED"/>
<path d="M32.3063 17.4848C32.369 16.6118 32.431 15.7385 32.4922 14.8648C34.0392 14.8577 35.5851 14.8542 37.131 14.8412C37.3345 14.8412 37.4039 14.9071 37.4004 15.1095C37.4006 15.8279 37.3424 16.5452 37.2263 17.2542C37.1933 17.4354 37.1498 17.5271 36.9404 17.5236C35.3957 17.4954 33.851 17.5648 32.3063 17.4848Z" fill="#A9D3D6"/>
<path d="M11.2689 3.38713C11.763 3.32948 12.2101 3.55183 12.6642 3.6636C15.0595 4.25183 17.4489 4.85654 19.9489 5.48242L18.4842 6.13301C17.6725 6.4938 16.8603 6.85576 16.0477 7.2189C15.8889 7.28948 15.7607 7.35184 15.5866 7.1989C14.1748 5.94595 12.7395 4.70595 11.3148 3.46007C11.2948 3.44242 11.2913 3.40595 11.2795 3.37889L11.2689 3.38713Z" fill="#F4CA63"/>
<path d="M7.38193 5.04224C7.38193 6.78577 7.34546 8.48341 7.3984 10.1787C7.42076 10.8846 7.16311 11.2222 6.51958 11.4575C5.59958 11.794 4.7184 12.2375 3.81369 12.634C3.66428 12.6999 3.52546 12.8328 3.26428 12.7411L7.38193 5.04224Z" fill="#F4CA63"/>
<path d="M26.3252 45.4258C25.4958 45.134 25.0605 44.4634 24.7158 43.7199C24.5691 43.3744 24.5 43.0009 24.5135 42.6258C24.5189 38.265 24.517 33.903 24.5076 29.5399C25.1334 29.4764 25.1335 29.4764 25.1335 30.0799C25.1335 34.034 25.1523 37.9881 25.1229 41.9411C25.1135 43.2646 25.4264 44.4352 26.3252 45.4258Z" fill="#A8D6DA"/>
<path d="M12.8385 17.5164C11.8444 17.5164 11.8374 17.5164 11.7362 16.5423C11.6915 16.1094 11.6962 15.6717 11.6456 15.2399C11.6044 14.8929 11.755 14.8623 12.0585 14.8317C12.6232 14.7752 12.9385 14.9376 13.095 15.5152C13.2327 16.0199 13.4891 16.4917 13.6903 16.9799C13.9115 17.5152 13.9115 17.5152 13.3527 17.5164H12.8385Z" fill="#D0E9E9"/>
<path d="M11.2796 3.37884L11.2102 3.33885L11.269 3.31885V3.38708L11.2796 3.37884Z" fill="#F4CA63"/>
<path d="M26.4384 45.5199C26.4242 45.5217 26.4098 45.5205 26.396 45.5165C26.3823 45.5125 26.3695 45.5057 26.3584 45.4966C26.3474 45.4874 26.3384 45.4761 26.3319 45.4633C26.3254 45.4505 26.3217 45.4365 26.3208 45.4222L26.4384 45.5199Z" fill="#A8D6DA"/>
<path d="M29.7123 22.4788C29.7946 23.0977 29.604 23.3412 28.9299 23.4765C28.5264 23.3588 28.2817 23.0929 28.3017 22.6706C28.3056 22.5194 28.3607 22.374 28.4579 22.2582C28.5551 22.1424 28.6888 22.063 28.837 22.0329C29.2582 21.9235 29.5217 22.1306 29.7123 22.4788Z" fill="#060101"/>
<path d="M27.7208 24.6952C27.6467 25.3623 27.3585 25.587 26.7149 25.4764C26.2773 25.1481 26.1596 24.7705 26.382 24.4176C26.4818 24.2583 26.6401 24.1445 26.8228 24.1005C27.0056 24.0565 27.1983 24.0859 27.3596 24.1823C27.4511 24.2393 27.5301 24.3141 27.5922 24.4022C27.6542 24.4903 27.698 24.5899 27.7208 24.6952Z" fill="#060101"/>
<path d="M26.769 22.2352C26.7651 22.4233 26.6901 22.603 26.5592 22.7381C26.4283 22.8732 26.251 22.9537 26.0631 22.9634C25.8737 22.9655 25.6909 22.8938 25.5533 22.7637C25.4157 22.6335 25.334 22.455 25.3255 22.2658C25.3235 22.1706 25.3402 22.076 25.3748 21.9873C25.4094 21.8986 25.4611 21.8176 25.5269 21.7489C25.5928 21.6802 25.6716 21.6251 25.7587 21.5868C25.8459 21.5485 25.9397 21.5278 26.0349 21.5258C26.1301 21.5238 26.2247 21.5405 26.3134 21.5751C26.4021 21.6097 26.4831 21.6614 26.5518 21.7272C26.6205 21.7931 26.6756 21.8719 26.7139 21.959C26.7522 22.0462 26.7729 22.14 26.7749 22.2352H26.769Z" fill="#060101"/>
<path d="M39.2654 6.05295C39.4095 6.05155 39.5507 6.09309 39.6711 6.17225C39.7916 6.25142 39.8857 6.36464 39.9415 6.4975C39.9974 6.63035 40.0124 6.77682 39.9847 6.91825C39.9571 7.05968 39.8879 7.18967 39.7861 7.29166C39.6843 7.39364 39.5544 7.46302 39.413 7.49093C39.2716 7.51885 39.1251 7.50405 38.9922 7.44842C38.8592 7.39279 38.7459 7.29884 38.6665 7.17855C38.5871 7.05826 38.5454 6.91706 38.5465 6.77295C38.5519 6.58388 38.6293 6.40399 38.7629 6.27014C38.8965 6.13628 39.0763 6.05858 39.2654 6.05295Z" fill="#060101"/>
<path d="M37.95 10.5881C37.9486 10.6813 37.9288 10.7734 37.8916 10.8589C37.8545 10.9444 37.8008 11.0217 37.7337 11.0863C37.6665 11.151 37.5872 11.2017 37.5003 11.2355C37.4135 11.2693 37.3208 11.2856 37.2276 11.2834C37.1343 11.2855 37.0416 11.2687 36.955 11.234C36.8684 11.1992 36.7898 11.1473 36.7238 11.0813C36.6578 11.0154 36.6059 10.9367 36.5712 10.8501C36.5364 10.7635 36.5196 10.6708 36.5217 10.5775C36.5188 10.4813 36.5353 10.3854 36.5703 10.2957C36.6053 10.206 36.6581 10.1242 36.7255 10.0554C36.7929 9.98658 36.8734 9.93206 36.9624 9.89513C37.0513 9.8582 37.1468 9.83961 37.2431 9.84048C37.3395 9.84136 37.4346 9.86167 37.5229 9.9002C37.6111 9.93874 37.6907 9.99471 37.7568 10.0647C37.8229 10.1348 37.8742 10.2175 37.9076 10.3078C37.941 10.3981 37.9558 10.4943 37.9511 10.5905L37.95 10.5881Z" fill="#060101"/>
<path d="M41.4478 13.0235C41.4506 13.1169 41.4342 13.2099 41.3997 13.2968C41.3653 13.3837 41.3134 13.4627 41.2472 13.5288C41.1811 13.5949 41.1022 13.6468 41.0153 13.6813C40.9284 13.7157 40.8354 13.7321 40.7419 13.7293C40.5536 13.7341 40.371 13.6639 40.2342 13.5343C40.0975 13.4046 40.0178 13.226 40.0125 13.0376C40.0111 12.9403 40.0292 12.8437 40.0658 12.7535C40.1023 12.6632 40.1566 12.5813 40.2253 12.5124C40.2941 12.4435 40.376 12.3891 40.4661 12.3524C40.5563 12.3158 40.6529 12.2975 40.7502 12.2988C40.8438 12.2998 40.9363 12.3195 41.0222 12.3566C41.1081 12.3938 41.1858 12.4476 41.2507 12.5151C41.3157 12.5825 41.3665 12.6622 41.4004 12.7495C41.4342 12.8367 41.4503 12.9299 41.4478 13.0235Z" fill="#060101"/>
</g>
<defs>
<clipPath id="clip0_203_2720">
<rect width="48" height="48" fill="white"/>
</clipPath>
</defs>
</svg>
