<svg width="48" height="49" viewBox="0 0 48 49" fill="none" xmlns="http://www.w3.org/2000/svg">
<path d="M39.5723 30.1885C39.8 30.5444 39.7825 30.6832 39.4797 30.9746C39.0394 31.406 38.5064 31.7312 37.9214 31.9255C37.7218 31.9907 37.6824 32.0924 37.7173 32.2753C37.9617 33.5517 38.6083 34.5056 39.8592 34.9844C40.6531 35.288 41.1206 36.0006 41.085 36.8345C41.0599 37.4242 40.7123 37.7672 40.2136 38.0001H30.8415C30.2722 37.7512 29.9216 37.3415 29.961 36.6949C30.0096 35.8905 30.3845 35.2857 31.1587 34.9966C32.2972 34.5701 32.9583 33.7323 33.2634 32.5857C33.4039 32.0545 33.3947 32.0545 32.8946 31.8413C31.2916 31.1537 30.4878 29.8682 30.2198 28.2071C30.0354 27.0582 30.0392 25.8895 29.9367 24.7323C29.9117 24.4515 30.0574 24.2891 30.3238 24.2253C30.6874 24.3012 30.764 24.3847 30.7891 24.7482C30.8066 24.9933 30.8202 25.2392 30.843 25.4835C30.9265 26.3676 30.9189 27.2615 31.0707 28.1395C31.3553 29.746 32.2335 30.8434 33.8509 31.266C34.7706 31.4999 35.7293 31.5374 36.6645 31.3761C37.3127 31.2706 37.9366 31.0968 38.4679 30.684C38.6308 30.6068 38.7744 30.4943 38.8884 30.3546C39.0865 30.1369 39.3021 30.0686 39.5723 30.1885ZM31.9777 37.1381L39.8842 37.148C40.1233 37.148 40.2167 37.0007 40.2288 36.786C40.2433 36.5766 40.1906 36.368 40.0784 36.1906C39.9662 36.0132 39.8003 35.8761 39.6049 35.7995C38.2706 35.3176 37.4471 34.3652 37.0106 33.044C36.958 32.844 36.9159 32.6414 36.8846 32.437C36.8657 32.2594 36.8247 32.2093 36.6289 32.2419C35.8992 32.351 35.1574 32.351 34.4277 32.2419C34.2433 32.2146 34.1917 32.2457 34.1598 32.4271C33.8767 34.048 33.0213 35.2083 31.4456 35.7972C31.2555 35.8734 31.0931 36.0055 30.9799 36.1762C30.8667 36.3468 30.8081 36.5479 30.8119 36.7526C30.8119 37.0045 30.9394 37.1419 31.1914 37.1449C31.4494 37.1502 31.7136 37.1411 31.9777 37.1381Z" fill="#030303"/>
<path d="M33.2445 11.1056C33.6058 10.969 33.7492 11.0161 33.9458 11.3492C34.1959 11.7614 34.3781 12.211 34.4855 12.681C34.5189 12.8366 34.5856 12.8912 34.7526 12.8874C35.3295 12.8753 35.9071 12.8737 36.4839 12.8874C36.6752 12.8919 36.7435 12.8176 36.7875 12.6484C37.0509 11.6945 37.3241 10.7421 37.5936 9.78974C37.797 9.07186 38.2721 8.82371 38.9924 8.99369C40.055 9.24412 40.3146 9.79277 39.9882 10.7535C39.778 11.378 39.6239 12.0223 39.4372 12.6552C39.3886 12.8214 39.4008 12.8988 39.6042 12.8882C39.8873 12.8737 40.1719 12.8775 40.4558 12.8882C41.3005 12.9162 41.8637 13.5264 41.8159 14.3664C41.781 14.9735 41.7438 15.5745 41.6891 16.177C41.6671 16.4138 41.7096 16.4897 41.9745 16.4905C43.2891 16.4958 44.3745 17.0095 45.2109 18.0294C45.4386 18.3041 45.428 18.4384 45.198 18.7268C44.9217 18.8733 44.7198 18.7761 44.5339 18.5492C43.9206 17.7987 43.1206 17.3882 42.1559 17.3464C41.5153 17.3184 41.6444 17.2061 41.5723 17.8776C41.5449 18.1349 41.6132 18.1994 41.8759 18.1964C43.217 18.1812 44.2128 19.0266 44.3927 20.3212C44.4625 20.8235 44.3365 21.3198 44.2948 21.8176C44.2332 22.5529 43.9488 23.2519 43.4796 23.8213C43.0104 24.3908 42.3786 24.8037 41.6686 25.0048C41.4721 25.0602 41.1965 25.0003 41.0956 25.1703C40.9947 25.3403 41.0592 25.577 41.0265 25.7774C40.9939 25.9777 41.0842 25.9754 41.2315 25.9534C42.7176 25.7258 43.847 24.979 44.5984 23.6708C45.1874 22.6463 45.2132 21.5065 45.2504 20.3743C45.2595 20.111 45.305 19.9129 45.554 19.7983C45.9137 19.8059 46.0944 19.919 46.0959 20.2339C46.1012 21.87 45.954 23.4704 44.8671 24.8151C43.9236 25.9822 42.7024 26.6516 41.211 26.8041C40.9757 26.8284 40.9491 26.9134 40.9392 27.1076C40.9201 27.6747 40.8423 28.2382 40.707 28.7893C40.6091 29.1687 40.5028 29.2446 40.1127 29.2552C39.9412 29.1277 39.7719 28.9858 39.8379 28.7453C40.0353 28.0289 40.0656 27.2936 40.1195 26.5582C40.2572 24.5306 40.4011 22.5039 40.5514 20.4783C40.5689 20.2354 40.496 20.1823 40.2622 20.1831C37.5473 20.1914 34.8331 20.1884 32.1189 20.1891C32.0339 20.1891 31.9489 20.1967 31.8639 20.2005C31.4958 20.196 31.1269 20.2005 30.7588 20.1831C30.55 20.1732 30.4749 20.2263 30.4939 20.4494C30.5516 21.1271 30.5842 21.807 30.6373 22.4854C30.6662 22.8504 30.5933 22.984 30.2578 23.1024C29.9542 23.0773 29.8138 22.9043 29.7941 22.6023C29.7182 21.4329 29.6256 20.2635 29.5527 19.0941C29.5413 18.9158 29.4897 18.871 29.3129 18.8513C26.9858 18.5902 25.3046 17.0588 24.8461 14.7921C24.2997 12.0739 26.2898 9.31849 29.0419 8.97396C30.0699 8.83706 31.1149 9.02576 32.0301 9.51351C32.3549 9.68426 32.4096 9.8254 32.3056 10.1805C32.1007 10.4037 31.8783 10.4021 31.6225 10.264C30.8134 9.83223 29.9527 9.66984 29.0457 9.83982C27.5725 10.116 26.5213 10.9326 25.9475 12.3312C25.9346 12.3448 25.9171 12.3562 25.9103 12.3721C24.9084 14.7246 26.5076 17.5787 29.0381 17.9535C29.5216 18.0294 29.5216 18.0294 29.4222 17.502C29.4222 17.4451 29.4222 17.3889 29.4267 17.3328C29.4495 17.0839 29.3964 16.923 29.0905 16.9154C28.9182 16.9109 28.7451 16.8236 28.5789 16.7576C27.2985 16.2484 26.5342 15.0031 26.6412 13.6076C26.7406 12.3129 27.7152 11.1876 29.0055 10.8787C30.2958 10.5698 31.7014 11.1276 32.3223 12.3145C32.5857 12.8176 32.8855 12.9595 33.3849 12.8844C33.4038 12.8817 33.423 12.8817 33.4418 12.8844C33.6445 12.9086 33.6589 12.8161 33.602 12.6514C33.5057 12.3451 33.3732 12.0513 33.2073 11.7764C33.0525 11.5381 33.0517 11.3181 33.2445 11.1056ZM38.8512 9.85955C38.4975 9.74724 38.4937 9.74724 38.3958 10.0872C38.1552 10.9303 37.9222 11.7757 37.6755 12.6172C37.6125 12.832 37.6588 12.9208 37.8881 12.8919C37.9442 12.8844 38.0004 12.8798 38.0566 12.8737C38.4801 12.9124 38.4801 12.9124 38.5924 12.5163C38.7905 11.8182 38.9901 11.1193 39.1867 10.4203C39.315 9.96731 39.3127 9.96655 38.8512 9.85955ZM37.7127 13.7548C37.4501 13.6872 37.337 13.7935 37.2649 14.0583C36.8148 15.6937 36.3465 17.3252 35.8858 18.9575C35.7773 19.3369 35.7796 19.3415 36.1796 19.3187C36.657 19.3491 36.657 19.3491 36.7868 18.8975C37.2285 17.3373 37.6702 15.7771 38.112 14.2169C38.2539 13.713 38.2509 13.7085 37.7135 13.7548H37.7127ZM31.75 19.3157C32.7436 19.3202 33.7371 19.3225 34.7299 19.3309C34.8604 19.3309 34.9044 19.2815 34.9386 19.1601C35.4284 17.4163 35.923 15.6739 36.4224 13.9331C36.4763 13.7457 36.4186 13.7312 36.2623 13.7335C35.7416 13.7396 35.2217 13.7335 34.701 13.7335C33.6414 13.7381 32.5821 13.7434 31.5231 13.7495C31.2309 13.7441 30.9379 13.7305 30.6457 13.7366C30.2351 13.7441 30.0537 13.9581 30.0817 14.371C30.1296 15.0684 30.1743 15.7657 30.2214 16.4631C30.2806 17.3399 30.3406 18.2161 30.4013 19.0918C30.4096 19.2117 30.3937 19.3377 30.5895 19.3301C30.9789 19.3164 31.3637 19.3202 31.75 19.3157ZM37.5473 19.3286C38.5044 19.3286 39.4288 19.3202 40.3556 19.3354C40.5833 19.3354 40.6379 19.2595 40.6508 19.0562C40.751 17.4815 40.8626 15.9069 40.9651 14.3323C40.9893 13.9528 40.8026 13.7487 40.4163 13.7388C40.0672 13.729 39.7165 13.7479 39.3674 13.7312C39.1753 13.7221 39.1146 13.798 39.0638 13.9726C38.77 15.0448 38.4626 16.1133 38.159 17.1833C37.9617 17.8868 37.7568 18.594 37.5473 19.3286ZM41.318 21.6894H41.3127C41.2618 22.4619 41.2216 23.2352 41.1525 24.0062C41.1305 24.2475 41.2284 24.2338 41.3878 24.1868C42.4572 23.8741 43.1411 23.1828 43.387 22.0923C43.469 21.7266 43.4773 21.3441 43.5252 20.97C43.677 19.7847 42.9939 19.0273 41.7977 19.0273C41.548 19.0273 41.4797 19.1078 41.4683 19.3438C41.4296 20.1261 41.3696 20.9078 41.318 21.6894ZM27.4875 13.9225C27.4852 14.2321 27.5521 14.5382 27.6833 14.8187C27.7281 14.9204 27.7668 14.975 27.8814 14.8756C28.2078 14.5903 28.54 14.312 28.878 14.0409C28.9971 13.9445 28.947 13.9012 28.8529 13.8405C28.6541 13.7138 28.4635 13.5734 28.2617 13.4535C28.0598 13.3336 27.8108 13.0202 27.6613 13.1219C27.4609 13.2532 27.4814 13.6106 27.4875 13.9225ZM29.8745 11.6641C29.5817 11.6403 29.2871 11.6756 29.0082 11.7679C28.7293 11.8602 28.4718 12.0076 28.251 12.2014C28.1827 12.2591 28.0833 12.3129 28.2283 12.407C28.629 12.6673 29.0252 12.9382 29.4465 13.2152C29.5929 12.6817 29.7296 12.1855 29.8745 11.6641ZM31.6863 12.8874C31.4978 12.4998 31.1988 12.1767 30.8271 11.9586C30.7337 11.9009 30.6821 11.913 30.6533 12.0344C30.5994 12.2712 30.5235 12.5072 30.459 12.7432C30.4369 12.8191 30.4248 12.8904 30.5493 12.8889C30.9136 12.8851 31.2779 12.8874 31.6863 12.8874ZM29.2575 14.8308C28.9539 15.0866 28.6935 15.3066 28.4294 15.5184C28.3246 15.6033 28.3338 15.658 28.44 15.7293C28.6682 15.8815 28.919 15.9967 29.1831 16.0708C29.3106 16.108 29.3478 16.0632 29.3349 15.9304C29.3015 15.5829 29.2833 15.2307 29.2552 14.8308H29.2575Z" fill="#040303"/>
<path d="M31.8652 20.1929C31.9502 20.1929 32.0353 20.1815 32.1203 20.1815C34.8344 20.1815 37.5486 20.1815 40.2636 20.1755C40.4974 20.1755 40.5672 20.2278 40.5528 20.4707C40.401 22.4943 40.257 24.521 40.1209 26.5507C40.0708 27.286 40.0366 28.0213 39.8393 28.7377C39.7733 28.9782 39.9425 29.1171 40.1141 29.2476C40.0055 29.6028 39.8515 29.9306 39.5721 30.1879C39.3019 30.0687 39.0864 30.137 38.889 30.3541C38.7751 30.4937 38.6314 30.6062 38.4686 30.6834C37.6777 30.732 36.8883 30.7836 36.0974 30.6766C35.4964 30.6071 34.9142 30.4234 34.3821 30.1355C33.1335 29.4313 32.5157 28.2938 32.3328 26.9202C32.1878 25.8495 32.1514 24.7651 32.0861 23.6852C32.0679 23.3756 32.0542 23.0652 32.0292 22.7556C31.9556 21.9026 31.866 21.0504 31.8652 20.1929Z" fill="#AD3232"/>
<path d="M31.8655 20.1929C31.8655 21.0504 31.9558 21.9026 32.0256 22.7556C32.0507 23.0652 32.0643 23.3756 32.0826 23.6852C32.1478 24.7651 32.1843 25.8495 32.3292 26.9202C32.5159 28.2937 33.1338 29.4313 34.3823 30.1355C34.9144 30.4234 35.4966 30.6071 36.0977 30.6766C36.8885 30.7835 37.6779 30.7319 38.4688 30.6834C37.9375 31.0962 37.3136 31.27 36.6654 31.3755C35.7302 31.5368 34.7715 31.4993 33.8518 31.2654C32.2344 30.8427 31.3562 29.7477 31.0716 28.1389C30.9198 27.2625 30.9281 26.3685 30.8439 25.4829C30.8211 25.2386 30.8074 24.9927 30.79 24.7476C30.7649 24.3841 30.6883 24.2968 30.3247 24.2247C30.3009 23.8473 30.2777 23.4702 30.2549 23.0933C30.5942 22.9749 30.667 22.8413 30.6344 22.4763C30.5813 21.7979 30.5486 21.118 30.4909 20.4403C30.472 20.2172 30.5471 20.1641 30.7558 20.174C31.1308 20.1945 31.4974 20.1884 31.8655 20.1929Z" fill="#972828"/>
<path d="M25.9474 12.3311C26.5213 10.9325 27.5725 10.116 29.0426 9.84278C29.9459 9.6728 30.8104 9.83519 31.6195 10.267C31.8783 10.4051 32.1007 10.4066 32.3026 10.1835C32.6395 10.4673 32.9758 10.7519 33.2414 11.1086C33.0486 11.321 33.0494 11.5411 33.2004 11.7794C33.3671 12.053 33.5006 12.3454 33.5982 12.6506C33.6551 12.8152 33.6407 12.9078 33.438 12.8835C33.4191 12.8809 33.4 12.8809 33.3811 12.8835C32.8847 12.9594 32.5849 12.8168 32.3185 12.3136C31.7007 11.1275 30.2958 10.5698 29.0055 10.8786C27.7152 11.1875 26.7414 12.3129 26.6419 13.6105C26.5342 15.003 27.2985 16.2483 28.5789 16.7575C28.7451 16.8235 28.9182 16.9093 29.0905 16.9153C29.3941 16.9229 29.4495 17.0838 29.4267 17.3327C29.4214 17.3889 29.4267 17.445 29.4221 17.5019C28.7052 17.3587 28.043 17.0169 27.511 16.5154C26.3307 15.4325 25.801 14.0871 26.0082 12.4768C26.0148 12.4492 26.0126 12.4202 26.0016 12.394C25.9907 12.3678 25.9717 12.3458 25.9474 12.3311Z" fill="#FABF4F"/>
<path d="M45.5554 19.7906C45.3064 19.9052 45.2609 20.1032 45.2518 20.3666C45.2146 21.4988 45.1888 22.6386 44.5998 23.663C43.8484 24.9713 42.719 25.7203 41.2329 25.9457C41.0856 25.9677 40.9968 25.9639 41.0279 25.7696C41.059 25.5754 41.0014 25.3189 41.097 25.1625C41.1926 25.0062 41.4765 25.0525 41.67 24.9971C42.38 24.7959 43.0118 24.3831 43.481 23.8136C43.9502 23.2441 44.2346 22.5452 44.2962 21.8099C44.3379 21.3121 44.4639 20.8158 44.3941 20.3134C44.2142 19.0234 43.2184 18.1742 41.8772 18.1886C41.6131 18.1886 41.5448 18.1272 41.5736 17.8699C41.6495 17.2021 41.5167 17.3144 42.1573 17.3387C43.122 17.3805 43.922 17.794 44.5353 18.5415C44.7212 18.7692 44.9231 18.8655 45.1994 18.7191C45.3064 19.0833 45.5516 19.396 45.5554 19.7906Z" fill="#E4E8EC"/>
<path d="M37.0108 33.0458C37.4472 34.367 38.2707 35.3224 39.605 35.8012C39.8005 35.8779 39.9664 36.0149 40.0786 36.1923C40.1908 36.3698 40.2435 36.5783 40.2289 36.7877C40.2168 37.0025 40.1234 37.1497 39.8844 37.1497L31.9778 37.1399C31.8761 36.5662 32.1175 36.249 32.6738 36.0775C33.1361 35.9356 33.5087 35.6146 33.8662 35.286C34.286 34.8967 34.5251 34.3981 34.6951 33.8608C34.8082 33.5027 34.9987 33.2538 35.4161 33.2082C35.9474 33.1513 36.4909 33.209 37.0108 33.0458Z" fill="#F6F8F9"/>
<path d="M37.0107 33.0457C36.4908 33.2089 35.9481 33.1512 35.4168 33.2074C35.0032 33.2506 34.8096 33.5018 34.6958 33.86C34.5258 34.3973 34.2867 34.8958 33.867 35.2851C33.5133 35.6137 33.1368 35.9347 32.6746 36.0766C32.1182 36.2474 31.8769 36.5646 31.9786 37.139C31.7144 37.139 31.4473 37.1512 31.1862 37.1474C30.938 37.1474 30.812 37.007 30.8067 36.755C30.8024 36.5493 30.8611 36.3472 30.9749 36.1757C31.0887 36.0043 31.2522 35.8718 31.4435 35.7958C33.0161 35.207 33.8723 34.0467 34.1577 32.4257C34.1895 32.2444 34.2412 32.2133 34.4256 32.2406C35.1552 32.3496 35.897 32.3496 36.6267 32.2406C36.8225 32.211 36.8635 32.258 36.8825 32.4356C36.9144 32.6411 36.9572 32.8448 37.0107 33.0457Z" fill="#E6EAEE"/>
<path d="M31.5233 13.7517C32.5818 13.7466 33.6412 13.7413 34.7012 13.7357C35.2219 13.7357 35.7418 13.7395 36.2625 13.7357C36.4188 13.7357 36.4765 13.7479 36.4226 13.9353C35.9202 15.6751 35.4256 17.4174 34.9388 19.1623C34.9046 19.2837 34.8629 19.3346 34.7301 19.333C33.7373 19.3247 32.7438 19.3224 31.7502 19.3179C31.7502 18.2555 31.6113 17.2052 31.562 16.1474C31.5476 15.8438 31.5096 15.5297 31.4922 15.2269C31.4648 14.7374 31.3335 14.2373 31.5233 13.7517Z" fill="#F6F8F9"/>
<path d="M37.5474 19.3285C37.7569 18.594 37.9596 17.8867 38.1599 17.1832C38.4635 16.1132 38.7671 15.0448 39.0647 13.9725C39.1125 13.798 39.1732 13.7221 39.3683 13.7312C39.7174 13.7479 40.0681 13.7312 40.4172 13.7388C40.8036 13.7487 40.9903 13.949 40.966 14.3322C40.8635 15.9068 40.7519 17.4815 40.6518 19.0561C40.6389 19.261 40.5834 19.3391 40.3565 19.3354C39.429 19.3202 38.5045 19.3285 37.5474 19.3285Z" fill="#F5F7F8"/>
<path d="M41.318 21.6894C41.3696 20.9078 41.4296 20.1262 41.4698 19.3438C41.4812 19.1078 41.5495 19.0273 41.7992 19.0273C42.9977 19.0273 43.68 19.7862 43.5267 20.97C43.4789 21.3441 43.4706 21.7289 43.3886 22.0924C43.1427 23.1828 42.4588 23.8742 41.3894 24.1868C41.233 24.2323 41.1321 24.2475 41.1541 24.0062C41.2231 23.2352 41.2634 22.4619 41.3142 21.6894H41.318Z" fill="#FCFCFC"/>
<path d="M31.5232 13.7517C31.3335 14.2374 31.4648 14.7382 31.4921 15.2247C31.5095 15.5282 31.5475 15.8431 31.5619 16.1452C31.6113 17.203 31.7532 18.2556 31.7502 19.3157C31.3638 19.3202 30.976 19.3157 30.5896 19.3324C30.3938 19.34 30.4098 19.214 30.4014 19.0941C30.3407 18.2179 30.2802 17.3416 30.22 16.4654C30.1729 15.768 30.1282 15.0706 30.0804 14.3732C30.0523 13.9604 30.2322 13.7464 30.6443 13.7388C30.938 13.7328 31.231 13.7464 31.5232 13.7517Z" fill="#E7EBEF"/>
<path d="M25.9475 12.3311C25.972 12.3458 25.991 12.368 26.002 12.3944C26.0129 12.4207 26.0151 12.4499 26.0082 12.4776C25.801 14.0871 26.3308 15.4371 27.5111 16.5162C28.043 17.0177 28.7053 17.3595 29.4222 17.5027C29.5216 18.0263 29.5216 18.0263 29.0382 17.9543C26.5077 17.5786 24.9069 14.7238 25.9103 12.3721C25.9172 12.3562 25.9346 12.3471 25.9475 12.3311Z" fill="#E6AC43"/>
<path d="M37.7135 13.7549C38.2509 13.7086 38.2539 13.7094 38.1112 14.2148C37.671 15.775 37.2292 17.3352 36.786 18.8954C36.6577 19.3507 36.6577 19.3507 36.1788 19.3166C36.5886 17.8907 37.0091 16.4678 37.4 15.0366C37.5177 14.614 37.6968 14.2027 37.7135 13.7549Z" fill="#A87862"/>
<path d="M37.7134 13.7547C37.6967 14.2025 37.5176 14.6138 37.4015 15.0365C37.0106 16.4677 36.5901 17.8905 36.1802 19.3164C35.7802 19.3392 35.778 19.3384 35.8865 18.9552C36.3472 17.3229 36.8155 15.6921 37.2656 14.056C37.3377 13.7934 37.4508 13.6872 37.7134 13.7547Z" fill="#976851"/>
<path d="M27.4874 13.9225C27.4874 13.6106 27.4639 13.2531 27.6613 13.1196C27.8131 13.0179 28.0559 13.329 28.2616 13.4512C28.4673 13.5734 28.651 13.713 28.8536 13.8382C28.9478 13.8989 28.9978 13.9422 28.8787 14.0386C28.5407 14.3107 28.2085 14.589 27.8821 14.8733C27.7675 14.9727 27.7303 14.9181 27.684 14.8164C27.5529 14.5367 27.4858 14.2313 27.4874 13.9225Z" fill="#F8CA61"/>
<path d="M29.8746 11.6642C29.7296 12.1878 29.593 12.6841 29.4465 13.2153C29.0253 12.9323 28.626 12.6652 28.2283 12.4049C28.0834 12.3108 28.1828 12.2569 28.2511 12.1992C28.472 12.0058 28.7296 11.8588 29.0085 11.7669C29.2874 11.675 29.5819 11.6401 29.8746 11.6642Z" fill="#F8CA61"/>
<path d="M38.852 9.8595C39.3127 9.9665 39.315 9.96725 39.189 10.4173C38.9924 11.1162 38.7966 11.8158 38.5947 12.5132C38.4824 12.9093 38.4824 12.9093 38.0588 12.8706C38.0523 12.7772 38.0626 12.6834 38.0892 12.5937C38.3465 11.683 38.5985 10.7709 38.852 9.8595Z" fill="#A87862"/>
<path d="M38.852 9.85952C38.5984 10.7702 38.3465 11.6808 38.093 12.5914C38.0664 12.6812 38.0561 12.775 38.0626 12.8684C38.0064 12.8745 37.9503 12.879 37.8941 12.8866C37.6664 12.917 37.6186 12.8267 37.6816 12.6119C37.9283 11.7703 38.1613 10.925 38.4019 10.0819C38.4929 9.74721 38.4975 9.74721 38.852 9.85952Z" fill="#976851"/>
<path d="M31.6861 12.8876C31.2778 12.8876 30.9135 12.8876 30.5476 12.8876C30.4231 12.8876 30.4353 12.8208 30.4573 12.7419C30.5233 12.5074 30.5992 12.2714 30.6554 12.0354C30.6842 11.9132 30.7358 11.901 30.8292 11.9595C31.2 12.1777 31.4981 12.5006 31.6861 12.8876Z" fill="#F8CA61"/>
<path d="M29.2553 14.8307C29.2834 15.2337 29.3016 15.5828 29.3312 15.9303C29.3434 16.0631 29.3062 16.1079 29.1794 16.0707C28.9153 15.9966 28.6646 15.8814 28.4364 15.7292C28.3301 15.6579 28.321 15.6033 28.4257 15.5183C28.6914 15.3065 28.9487 15.0865 29.2553 14.8307Z" fill="#F8CA61"/>
<path d="M20.434 23.2321C20.4515 23.5358 20.3742 23.6337 20.0601 23.7111C18.8617 24.0082 17.6299 24.1679 16.3913 24.1865C16.2001 24.19 16.1201 24.2282 16.1344 24.4305C16.1562 24.7363 16.1344 25.0441 16.1424 25.3513C16.1482 25.5723 16.0677 25.7339 15.8495 25.8248H15.6377C15.4439 25.7028 15.3777 25.5316 15.3867 25.3137C15.3989 25.0124 15.3745 24.7112 15.3952 24.4125C15.4084 24.2247 15.3316 24.1941 15.1606 24.191C14.0065 24.1751 12.858 24.0369 11.7364 23.7788C10.8673 23.575 10.0221 23.3079 9.27439 22.8224C8.8592 22.5543 8.50598 22.233 8.3344 21.7721C8.27378 21.5938 8.24531 21.407 8.2502 21.2198C8.2502 20.5852 8.27191 19.95 8.24331 19.3164C8.21101 18.603 8.54199 18.0828 9.12505 17.6862C9.30034 17.5672 9.34111 17.4402 9.36018 17.2449C9.39778 16.8593 9.28127 16.6002 8.93652 16.3637C8.4562 16.0364 8.2412 15.5554 8.24437 14.9745C8.25285 13.9277 8.58012 12.9662 9.07368 12.0489C9.83997 10.6275 10.9547 9.5305 12.4968 8.85471C13.3432 8.488 14.2559 8.27854 15.1855 8.23766C15.3443 8.22912 15.3973 8.19448 15.3973 8.03683C15.3872 7.29527 15.393 6.55421 15.3925 5.81264C15.3871 5.72602 15.3969 5.63914 15.4216 5.55558C15.4418 5.48381 15.4871 5.42069 15.5502 5.37661C15.6132 5.33253 15.6902 5.31012 15.7685 5.31308C15.8471 5.30934 15.9246 5.33215 15.9872 5.37748C16.0497 5.4228 16.0933 5.48769 16.1101 5.5606C16.1302 5.63812 16.1398 5.71776 16.1387 5.79758C16.1387 6.55069 16.1434 7.30681 16.1387 8.06143C16.1387 8.19097 16.1742 8.22862 16.3124 8.23515C17.3474 8.27852 18.3613 8.52794 19.288 8.96717C19.5751 9.10424 19.6307 9.21319 19.5608 9.51042C19.3346 9.71727 19.2388 9.73334 18.9438 9.59225C18.2025 9.23951 17.3957 9.02735 16.5687 8.96767C16.4923 8.96486 16.4164 8.95612 16.3415 8.94157C16.1641 8.89136 16.1074 8.95311 16.1487 9.11629C16.1487 9.18256 16.1408 9.24884 16.1408 9.31712C16.1408 9.51142 16.0836 9.6756 15.8681 9.73986C15.67 9.79911 15.5323 9.70472 15.4243 9.55661C15.3713 9.38691 15.3909 9.21269 15.3904 9.03997C15.3904 8.95462 15.366 8.92851 15.2681 8.93504C14.8539 8.95816 14.4426 9.01425 14.0384 9.10273C12.0504 9.5546 10.6364 10.6918 9.71976 12.4014C9.28657 13.2092 8.98577 14.0552 8.99213 14.982C8.99477 15.35 9.1457 15.6212 9.42584 15.8501C9.92099 16.2518 10.5146 16.4772 11.1173 16.685C11.3858 16.7779 11.4515 16.8793 11.435 17.1525C11.2608 17.3985 11.1459 17.4372 10.8499 17.3382C10.6513 17.272 10.4516 17.2062 10.2589 17.1264C10.1312 17.0737 10.0889 17.0857 10.0926 17.2268C10.1016 17.5531 10.1063 17.8795 10.0926 18.2068C10.0856 18.3304 10.1098 18.4537 10.1634 18.5666C10.2169 18.6794 10.2981 18.7785 10.4003 18.8555C10.9118 19.2762 11.5224 19.5027 12.168 19.6588C12.1916 19.6723 12.2166 19.6834 12.2426 19.692C14.4425 20.2212 16.6524 20.2342 18.867 19.7889C19.5978 19.6423 20.3043 19.4224 20.9276 19.0117C21.2665 18.7887 21.4863 18.5096 21.4317 18.0914C21.4215 17.9577 21.4185 17.8236 21.4227 17.6897C21.4254 17.5496 21.4227 17.4095 21.4312 17.27C21.4434 17.1133 21.4174 17.0521 21.2321 17.1324C20.7626 17.3278 20.2737 17.478 19.7726 17.5807C17.2492 18.137 14.7173 18.133 12.1796 17.6756C11.9095 17.6254 11.8253 17.525 11.8026 17.2484C11.936 16.9858 12.0456 16.9351 12.356 16.9918C12.4317 17.0054 12.5074 17.0169 12.5831 17.03C13.5088 17.1896 14.4398 17.2926 15.3825 17.2835C17.04 17.3337 18.6716 17.1831 20.264 16.7257C20.8789 16.5495 21.472 16.321 21.9872 15.946C22.2478 15.7562 22.4877 15.5398 22.52 15.2079C22.5517 14.9286 22.5444 14.6465 22.4983 14.369C22.2245 12.8683 21.5133 11.585 20.3519 10.5316C20.1602 10.3574 20.0453 10.1847 20.1846 9.93718C20.4695 9.76446 20.5887 9.773 20.8333 9.99241C22.1387 11.1642 22.9251 12.5997 23.2333 14.2721C23.2856 14.5755 23.2993 14.8838 23.2741 15.1904C23.2307 15.8054 22.8436 16.2161 22.3516 16.556C22.2245 16.6439 22.188 16.7327 22.171 16.8788C22.1207 17.3081 22.2414 17.6149 22.636 17.883C23.0951 18.1968 23.2974 18.6743 23.2826 19.2296C23.2662 19.832 23.2503 20.4345 23.2858 21.0315C23.3355 21.875 22.8939 22.4303 22.198 22.8626C21.9319 23.0237 21.6535 23.1657 21.365 23.2873C21.0902 23.4073 20.9461 23.3692 20.7756 23.1317C20.7391 22.8741 20.7978 22.7722 21.0462 22.6552C21.2353 22.5663 21.4259 22.481 21.6102 22.3851C22.2351 22.0602 22.655 21.6214 22.5343 20.8789C22.5073 20.7147 22.5587 20.543 22.5057 20.3627C21.7971 20.8799 21.0001 21.1661 20.1714 21.392C19.1273 21.6655 18.0546 21.8286 16.9727 21.8785C15.8208 21.9457 14.6648 21.9162 13.5184 21.7901C12.9528 21.7254 12.3951 21.6199 11.8359 21.522C10.8419 21.2635 9.85903 20.9808 8.99848 20.3452C8.99848 20.658 9.01066 20.9241 8.9953 21.1891C8.97465 21.5406 9.12505 21.8097 9.39619 22.0286C10.1016 22.598 10.9499 22.8661 11.8322 23.0654C11.8487 23.0765 11.8664 23.0858 11.8852 23.093C12.9375 23.3324 14.0135 23.4659 15.0954 23.4912C16.7027 23.5353 18.2956 23.4234 19.8584 23.0333C20.1565 22.9605 20.2661 23.0051 20.434 23.2321ZM22.1689 18.4483C22.1484 18.5662 22.1163 18.682 22.073 18.7943C21.8882 19.2075 21.5509 19.4851 21.1611 19.709C20.1846 20.2688 19.0958 20.4998 17.9837 20.6554C16.7283 20.825 15.4559 20.8503 14.1941 20.7308C13.1196 20.6359 12.0599 20.4521 11.0633 20.0449C10.2869 19.7271 9.5487 19.348 9.35329 18.4559C8.96883 18.7205 8.89257 19.1316 9.16159 19.4896C9.41684 19.832 9.78225 20.0459 10.1704 20.2247C11.5298 20.8513 12.9925 21.0646 14.4779 21.1721C15.4895 21.2434 16.5057 21.2313 17.515 21.1359C18.7161 21.0245 19.8981 20.8236 21.016 20.3768C21.5244 20.176 22.0143 19.9375 22.3579 19.5062C22.6455 19.1482 22.5698 18.727 22.1689 18.4483Z" fill="#040202"/>
<path d="M20.1868 9.9382C20.0475 10.1857 20.1624 10.3584 20.3541 10.5327C21.5154 11.587 22.2267 12.8693 22.5004 14.37C22.5466 14.6475 22.5539 14.9296 22.5222 15.209C22.4899 15.5408 22.25 15.7572 21.9894 15.947C21.4741 16.3221 20.881 16.5495 20.2662 16.7267C18.6738 17.1826 17.0422 17.3363 15.3846 17.2845C15.2448 17.2464 15.105 17.2072 14.9652 17.1696C14.0824 16.9341 13.2176 16.6625 12.5249 16.0545C12.2882 15.8476 12.078 15.6096 12.0536 15.3014C12.0036 14.7768 12.0485 14.2481 12.1865 13.7379C12.6319 12.1815 13.493 10.8796 14.8291 9.87193C15.0038 9.73988 15.177 9.57571 15.4243 9.55261C15.5302 9.70323 15.67 9.79511 15.8681 9.73587C16.0836 9.6716 16.1408 9.50742 16.1408 9.31312C16.1408 9.24685 16.1461 9.18057 16.1488 9.11229C16.2966 9.08435 16.4384 9.03346 16.5687 8.96167C17.3962 9.02323 18.203 9.23744 18.9439 9.59227C19.2388 9.73336 19.3347 9.71729 19.5608 9.51044C19.7726 9.64951 19.9977 9.77101 20.1868 9.9382ZM20.3843 12.5646C20.7306 12.5646 20.9504 12.3431 20.8667 12.0389C20.6549 11.2637 20.1253 10.744 19.331 10.4965C18.8326 10.3414 18.5451 10.6351 18.6738 11.1126C18.7919 11.5519 19.0847 11.8868 19.4406 12.1634C19.7107 12.3728 20.0104 12.558 20.3843 12.5646Z" fill="#F84848"/>
<path d="M11.8359 21.5236C12.3952 21.6215 12.9528 21.7269 13.5184 21.7917C14.6648 21.9182 15.8208 21.9483 16.9728 21.8815C18.0546 21.8317 19.1274 21.6685 20.1714 21.395C21.0002 21.1711 21.7972 20.8829 22.5057 20.3658C22.5587 20.546 22.5057 20.7172 22.5343 20.8819C22.6551 21.6225 22.2351 22.0613 21.6102 22.3881C21.4259 22.484 21.2353 22.5694 21.0462 22.6583C20.7979 22.7752 20.7391 22.8772 20.7756 23.1347L20.434 23.2351C20.2662 23.0082 20.1576 22.9635 19.8589 23.0378C18.2962 23.4279 16.7032 23.5399 15.096 23.4957C14.0141 23.4704 12.9381 23.337 11.8857 23.0976C11.867 23.0904 11.8492 23.0811 11.8328 23.07L11.8359 21.5236Z" fill="#F64747"/>
<path d="M15.4243 9.55463C15.177 9.57773 15.0038 9.7419 14.829 9.87395C13.4929 10.8781 12.6319 12.1835 12.1865 13.7399C12.0485 14.2504 12.0038 14.7795 12.0541 15.3044C12.0785 15.6121 12.2887 15.8501 12.5254 16.0575C13.2191 16.6625 14.0823 16.9341 14.9667 17.1696C15.1065 17.2072 15.2463 17.2464 15.3861 17.2846C14.4435 17.2936 13.5125 17.1907 12.5868 17.031C12.5111 17.018 12.4354 17.0064 12.3597 16.9929C12.0493 16.9361 11.9397 16.9868 11.8063 17.2494L11.4387 17.149C11.453 16.8759 11.3858 16.7744 11.121 16.6816C10.5183 16.4737 9.92469 16.2508 9.42954 15.8466C9.1494 15.6177 8.99847 15.3445 8.99583 14.9785C8.98947 14.0517 9.29027 13.2057 9.72346 12.3979C10.6401 10.6908 12.0536 9.55262 14.0421 9.09925C14.4463 9.01077 14.8576 8.95467 15.2718 8.93156C15.3697 8.92503 15.3941 8.95114 15.3941 9.03649C15.3904 9.21071 15.3713 9.38493 15.4243 9.55463Z" fill="#DB2C2C"/>
<path d="M21.4275 17.6907C21.4233 17.8247 21.4263 17.9587 21.4365 18.0924C21.4895 18.5111 21.2713 18.7898 20.9324 19.0127C20.309 19.4234 19.6026 19.6433 18.8718 19.7899C16.6571 20.2352 14.4472 20.2222 12.2474 19.693C12.2214 19.6844 12.1963 19.6733 12.1727 19.6599C12.1727 19.2863 12.1727 18.9126 12.1727 18.5387C12.1727 18.2877 12.1727 18.2852 12.4375 18.3434C13.1466 18.4982 13.8703 18.5848 14.5976 18.602C15.1489 18.6161 15.6986 18.6733 16.2568 18.6271C16.869 18.5769 17.4859 18.5724 18.0991 18.4986C19.09 18.3796 20.0586 18.1788 20.9901 17.8373C21.1346 17.7831 21.2686 17.7043 21.4275 17.6907Z" fill="#FDD21D"/>
<path d="M21.4275 17.6907C21.2686 17.7042 21.1373 17.7831 20.9943 17.8353C20.0612 18.1767 19.0942 18.3775 18.1034 18.4965C17.4901 18.5703 16.8732 18.5738 16.261 18.625C15.7028 18.6712 15.1531 18.614 14.6019 18.5999C13.8745 18.5827 13.1508 18.4961 12.4417 18.3414C12.1769 18.2831 12.1769 18.2861 12.1769 18.5367C12.1769 18.9102 12.1769 19.2839 12.1769 19.6578C11.5314 19.5027 10.9208 19.2762 10.4092 18.8545C10.306 18.7783 10.2235 18.6797 10.1688 18.567C10.1141 18.4543 10.0887 18.3308 10.0947 18.2068C10.1084 17.8805 10.1037 17.5541 10.0947 17.2268C10.091 17.0837 10.1333 17.0716 10.261 17.1264C10.4537 17.2062 10.6534 17.272 10.852 17.3382C11.148 17.4386 11.2629 17.3985 11.4371 17.1525L11.8047 17.2529C11.8274 17.5275 11.9106 17.6314 12.1817 17.6801C14.7194 18.138 17.2513 18.1416 19.7747 17.5853C20.2758 17.4825 20.7647 17.3323 21.2342 17.1369C21.4195 17.0566 21.446 17.1178 21.4333 17.2745C21.4227 17.413 21.4275 17.5506 21.4275 17.6907Z" fill="#E0B814"/>
<path d="M22.1689 18.4484C22.5703 18.727 22.6455 19.1483 22.3585 19.5062C22.0148 19.9375 21.525 20.174 21.0166 20.3768C19.8971 20.8237 18.7167 21.0245 17.5156 21.136C16.5063 21.2313 15.4901 21.2434 14.4785 21.1721C12.9957 21.0647 11.5304 20.8513 10.171 20.2247C9.78282 20.046 9.41742 19.8321 9.16058 19.4897C8.89102 19.1317 8.96728 18.7185 9.35334 18.4559C9.55034 19.3481 10.2886 19.7271 11.066 20.045C12.0626 20.4521 13.1223 20.6359 14.1968 20.7308C15.4586 20.8504 16.731 20.8251 17.9864 20.6555C19.0985 20.4998 20.1857 20.2689 21.1638 19.7091C21.5536 19.4851 21.8909 19.207 22.0757 18.7943C22.1181 18.682 22.1493 18.5662 22.1689 18.4484Z" fill="#F26868"/>
<path d="M11.8369 21.5239L11.8321 23.0678C10.9506 22.8669 10.1019 22.6002 9.39526 22.0307C9.12403 21.8117 8.97146 21.542 8.99424 21.1909C9.0096 20.9258 8.99742 20.6596 8.99742 20.3467C9.85932 20.9825 10.8425 21.2653 11.8369 21.5239Z" fill="#DB2C2C"/>
<path d="M16.5688 8.96767C16.4385 9.03948 16.2965 9.09039 16.1487 9.11835C16.1074 8.95512 16.1641 8.89535 16.3416 8.94357C16.4165 8.95745 16.4925 8.96552 16.5688 8.96767Z" fill="#CA2A2A"/>
<path d="M20.3848 12.5653C20.0108 12.5588 19.711 12.3734 19.4408 12.1635C19.0848 11.8868 18.7919 11.5518 18.6737 11.1123C18.545 10.6327 18.8326 10.3409 19.3322 10.496C20.1268 10.7436 20.6566 11.2635 20.8685 12.0389C20.9516 12.3428 20.7313 12.5643 20.3848 12.5653Z" fill="#FB8080"/>
<path d="M10.4373 30.737C10.448 30.9317 10.401 30.9945 10.2101 31.0441C9.4818 31.2346 8.73322 31.3369 7.98048 31.3488C7.8643 31.3511 7.8157 31.3755 7.82439 31.5052C7.83759 31.7012 7.82439 31.8985 7.82922 32.0955C7.83276 32.2371 7.78384 32.3407 7.65125 32.399H7.52252C7.40473 32.3208 7.3645 32.211 7.36997 32.0713C7.37737 31.8782 7.36257 31.6851 7.37512 31.4937C7.38316 31.3733 7.3365 31.3537 7.23255 31.3517C6.53121 31.3415 5.83321 31.2529 5.15158 31.0875C4.62346 30.9568 4.10981 30.7856 3.65539 30.4744C3.40307 30.3026 3.18841 30.0966 3.08414 29.8011C3.0473 29.6869 3.03 29.5672 3.03296 29.4471C3.03296 29.0403 3.04616 28.6332 3.02878 28.2271C3.00915 27.7697 3.21029 27.4363 3.56463 27.1821C3.67116 27.1058 3.69594 27.0244 3.70752 26.8992C3.73037 26.652 3.65957 26.486 3.45006 26.3344C3.15816 26.1245 3.02749 25.8162 3.02942 25.4439C3.03457 24.7729 3.23347 24.1565 3.53341 23.5686C3.9991 22.6575 4.67656 21.9543 5.61373 21.5211C6.12809 21.286 6.68275 21.1517 7.24767 21.1255C7.34422 21.1201 7.3764 21.0979 7.3764 20.9968C7.37029 20.5215 7.37383 20.0464 7.37351 19.5711C7.3702 19.5156 7.37618 19.4599 7.39121 19.4063C7.40346 19.3603 7.43101 19.3198 7.46932 19.2916C7.50764 19.2633 7.55444 19.249 7.60201 19.2509C7.64979 19.2485 7.69687 19.2631 7.73488 19.2921C7.77289 19.3212 7.79937 19.3628 7.80959 19.4095C7.82182 19.4592 7.82766 19.5103 7.82697 19.5614C7.82697 20.0442 7.82986 20.5289 7.82697 21.0126C7.82697 21.0956 7.84853 21.1197 7.93253 21.1239C8.56156 21.1517 9.17771 21.3116 9.7409 21.5932C9.91533 21.681 9.94913 21.7509 9.90664 21.9414C9.76922 22.074 9.71097 22.0843 9.53171 21.9938C9.08121 21.7677 8.5909 21.6317 8.0883 21.5935C8.04189 21.5917 7.99572 21.5861 7.95023 21.5767C7.84242 21.5446 7.80798 21.5841 7.83308 21.6887C7.83308 21.7312 7.82826 21.7737 7.82826 21.8175C7.82826 21.942 7.7935 22.0473 7.66251 22.0885C7.54215 22.1264 7.45847 22.0659 7.39282 21.971C7.36063 21.8622 7.37254 21.7505 7.37222 21.6398C7.37222 21.5851 7.35742 21.5684 7.29788 21.5726C7.04621 21.5874 6.79623 21.6233 6.55058 21.68C5.34243 21.9697 4.48314 22.6986 3.92605 23.7945C3.66279 24.3123 3.47999 24.8546 3.48385 25.4487C3.48546 25.6846 3.57718 25.8584 3.74743 26.0051C4.04834 26.2626 4.40912 26.4071 4.77536 26.5403C4.93853 26.5999 4.97844 26.6649 4.96846 26.84C4.86258 26.9977 4.79274 27.0225 4.61284 26.9591C4.49215 26.9166 4.37082 26.8744 4.25367 26.8232C4.17611 26.7894 4.15036 26.7972 4.15262 26.8876C4.15809 27.0968 4.16098 27.306 4.15262 27.5158C4.14836 27.595 4.16312 27.6741 4.19564 27.7464C4.22817 27.8188 4.27753 27.8823 4.3396 27.9316C4.65049 28.2013 5.02156 28.3465 5.41388 28.4466C5.42822 28.4552 5.44343 28.4623 5.45925 28.4678C6.79614 28.807 8.13914 28.8154 9.48504 28.5299C9.92917 28.4359 10.3585 28.295 10.7373 28.0317C10.9433 27.8888 11.0768 27.7099 11.0437 27.4418C11.0375 27.3561 11.0356 27.2702 11.0382 27.1843C11.0398 27.0945 11.0382 27.0048 11.0434 26.9153C11.0508 26.8149 11.035 26.7756 10.9223 26.8271C10.637 26.9523 10.3399 27.0486 10.0354 27.1145C8.50185 27.4711 6.96317 27.4685 5.42096 27.1753C5.25682 27.1431 5.20565 27.0788 5.19181 26.9014C5.27291 26.7331 5.33953 26.7006 5.52813 26.737C5.57415 26.7457 5.62017 26.7531 5.66619 26.7614C6.22875 26.8638 6.79453 26.9298 7.36739 26.924C8.37473 26.9562 9.36629 26.8596 10.334 26.5664C10.7077 26.4535 11.0681 26.307 11.3813 26.0666C11.5396 25.945 11.6854 25.8063 11.705 25.5935C11.7243 25.4145 11.7199 25.2336 11.6918 25.0557C11.5255 24.0938 11.0932 23.2712 10.3875 22.596C10.271 22.4843 10.2011 22.3736 10.2858 22.2149C10.4589 22.1042 10.5313 22.1097 10.68 22.2503C11.4733 23.0015 11.9512 23.9216 12.1385 24.9936C12.1703 25.1881 12.1786 25.3858 12.1633 25.5823C12.1369 25.9765 11.9017 26.2398 11.6027 26.4576C11.5255 26.514 11.5033 26.5709 11.493 26.6646C11.4624 26.9397 11.5358 27.1364 11.7755 27.3082C12.0545 27.5094 12.1775 27.8154 12.1685 28.1714C12.1585 28.5576 12.1488 28.9438 12.1704 29.3264C12.2007 29.8671 11.9323 30.2231 11.5094 30.5002C11.3477 30.6035 11.1784 30.6945 11.0031 30.7724C10.8361 30.8494 10.7486 30.8249 10.6449 30.6727C10.6227 30.5076 10.6584 30.4422 10.8094 30.3672C10.9243 30.3103 11.0401 30.2556 11.1521 30.1941C11.5319 29.9859 11.7871 29.7046 11.7137 29.2286C11.6973 29.1234 11.7285 29.0133 11.6963 28.8978C11.2657 29.2293 10.7814 29.4127 10.2777 29.5575C9.64324 29.7328 8.99132 29.8374 8.33385 29.8694C7.63378 29.9125 6.93127 29.8935 6.23455 29.8127C5.89083 29.7712 5.55194 29.7036 5.21209 29.6409C4.60801 29.4751 4.01069 29.2939 3.48771 28.8865C3.48771 29.087 3.49512 29.2576 3.48578 29.4275C3.47323 29.6528 3.56463 29.8253 3.72941 29.9656C4.15809 30.3306 4.67366 30.5024 5.20983 30.6302C5.21983 30.6373 5.23063 30.6433 5.24202 30.6479C5.88154 30.8013 6.53548 30.8869 7.19296 30.9031C8.16972 30.9314 9.13779 30.8597 10.0875 30.6096C10.2687 30.5629 10.3353 30.5916 10.4373 30.737ZM11.4917 27.6706C11.4792 27.7462 11.4597 27.8204 11.4334 27.8924C11.3211 28.1572 11.1161 28.3352 10.8792 28.4787C10.2858 28.8376 9.62408 28.9856 8.94823 29.0854C8.18529 29.1941 7.41202 29.2103 6.6452 29.1337C5.99221 29.0728 5.34822 28.9551 4.74253 28.694C4.27073 28.4903 3.8221 28.2473 3.70334 27.6754C3.46969 27.8451 3.42335 28.1086 3.58684 28.3381C3.74196 28.5576 3.96402 28.6947 4.19993 28.8093C5.02607 29.2109 5.91497 29.3477 6.8177 29.4166C7.43245 29.4623 8.05 29.4545 8.66341 29.3934C9.39332 29.3219 10.1117 29.1932 10.791 28.9068C11.1 28.778 11.3977 28.6252 11.6066 28.3487C11.7813 28.1193 11.7353 27.8492 11.4917 27.6706Z" fill="#040202"/>
<path d="M10.2871 22.2156C10.2024 22.3742 10.2723 22.4849 10.3888 22.5966C11.0945 23.2725 11.5268 24.0944 11.6931 25.0564C11.7212 25.2343 11.7256 25.4151 11.7063 25.5942C11.6867 25.8069 11.5409 25.9456 11.3826 26.0672C11.0694 26.3077 10.709 26.4534 10.3353 26.567C9.36759 26.8593 8.37602 26.9578 7.36869 26.9246C7.28373 26.9001 7.19876 26.875 7.1138 26.8509C6.57731 26.7 6.05175 26.5259 5.6308 26.1361C5.48694 26.0035 5.35917 25.851 5.34437 25.6534C5.31396 25.3171 5.34128 24.9782 5.42515 24.6512C5.69581 23.6535 6.21911 22.819 7.03109 22.1731C7.13729 22.0884 7.24253 21.9832 7.39283 21.9684C7.45719 22.0649 7.54216 22.1238 7.66252 22.0859C7.79351 22.0447 7.82826 21.9394 7.82826 21.8149C7.82826 21.7724 7.83148 21.7299 7.83309 21.6861C7.9229 21.6682 8.00913 21.6356 8.0883 21.5896C8.59118 21.6291 9.0815 21.7664 9.53172 21.9938C9.71098 22.0843 9.76923 22.074 9.90665 21.9414C10.0354 22.0305 10.1722 22.1084 10.2871 22.2156ZM10.4071 23.8991C10.6176 23.8991 10.7511 23.7571 10.7003 23.5621C10.5716 23.0652 10.2497 22.7321 9.76698 22.5734C9.46413 22.474 9.28938 22.6623 9.36759 22.9683C9.43935 23.2499 9.61733 23.4646 9.8336 23.6419C9.99773 23.7761 10.1799 23.8949 10.4071 23.8991Z" fill="#F84848"/>
<path d="M5.21214 29.6419C5.55199 29.7046 5.89088 29.7722 6.2346 29.8137C6.93129 29.8948 7.6338 29.9141 8.3339 29.8713C8.99137 29.8394 9.64329 29.7348 10.2778 29.5595C10.7814 29.4159 11.2658 29.2312 11.6964 28.8997C11.7286 29.0153 11.6964 29.125 11.7138 29.2306C11.7872 29.7053 11.5319 29.9865 11.1522 30.1961C11.0402 30.2575 10.9243 30.3122 10.8094 30.3692C10.6585 30.4442 10.6228 30.5095 10.645 30.6746L10.4374 30.739C10.3354 30.5935 10.2694 30.5649 10.0879 30.6125C9.13816 30.8626 8.17009 30.9343 7.19333 30.906C6.53585 30.8898 5.88191 30.8043 5.24239 30.6508C5.23101 30.6462 5.2202 30.6402 5.21021 30.6331L5.21214 29.6419Z" fill="#F64747"/>
<path d="M7.39286 21.9697C7.24256 21.9845 7.13732 22.0897 7.03112 22.1744C6.21914 22.8181 5.69584 23.6548 5.42518 24.6525C5.34135 24.9797 5.31414 25.3189 5.34472 25.6553C5.35953 25.8526 5.48729 26.0052 5.63115 26.1381C6.05275 26.5259 6.57734 26.7 7.11479 26.8509C7.19976 26.8751 7.28472 26.9002 7.36969 26.9246C6.79683 26.9304 6.23105 26.8644 5.66848 26.7621C5.62246 26.7537 5.57644 26.7463 5.53042 26.7376C5.34182 26.7013 5.27521 26.7338 5.1941 26.9021L4.97075 26.8377C4.97944 26.6627 4.93857 26.5976 4.77765 26.5381C4.41141 26.4049 4.05064 26.262 3.74972 26.0029C3.57948 25.8561 3.48775 25.6811 3.48614 25.4465C3.48228 24.8524 3.66508 24.3101 3.92834 23.7922C4.48543 22.698 5.3444 21.9684 6.55288 21.6778C6.79852 21.6211 7.0485 21.5851 7.30017 21.5703C7.35971 21.5661 7.37451 21.5829 7.37451 21.6376C7.37226 21.7493 7.36067 21.8609 7.39286 21.9697Z" fill="#DB2C2C"/>
<path d="M11.0411 27.185C11.0386 27.2709 11.0404 27.3568 11.0466 27.4425C11.0788 27.7109 10.9462 27.8895 10.7402 28.0324C10.3614 28.2956 9.93211 28.4366 9.48798 28.5306C8.14208 28.816 6.79908 28.8077 5.46219 28.4685C5.44636 28.463 5.43116 28.4559 5.41681 28.4472C5.41681 28.2078 5.41681 27.9682 5.41681 27.7286C5.41681 27.5677 5.41681 27.566 5.57772 27.6034C6.00863 27.7026 6.44844 27.7581 6.89048 27.7691C7.2255 27.7781 7.55956 27.8148 7.89877 27.7852C8.27081 27.753 8.64575 27.7501 9.01843 27.7028C9.62057 27.6266 10.2092 27.4978 10.7753 27.279C10.8632 27.2442 10.9446 27.1937 11.0411 27.185Z" fill="#FDD21D"/>
<path d="M11.0411 27.185C10.9446 27.1937 10.8647 27.2442 10.7778 27.2777C10.2108 27.4965 9.62311 27.6252 9.02097 27.7015C8.64829 27.7488 8.27335 27.7511 7.90132 27.7839C7.5621 27.8135 7.22804 27.7768 6.89302 27.7678C6.45098 27.7568 6.01117 27.7012 5.58027 27.6021C5.41935 27.5647 5.41935 27.5667 5.41935 27.7273C5.41935 27.9667 5.41935 28.2062 5.41935 28.4459C5.02704 28.3465 4.65597 28.2013 4.34508 27.931C4.28233 27.8821 4.23223 27.8189 4.19896 27.7467C4.1657 27.6744 4.15025 27.5953 4.15391 27.5158C4.16228 27.3066 4.15938 27.0974 4.15391 26.8876C4.15166 26.7959 4.1774 26.7882 4.25496 26.8232C4.37211 26.8744 4.49344 26.9166 4.61413 26.959C4.79403 27.0234 4.86387 26.9977 4.96975 26.84L5.1931 26.9043C5.20694 27.0804 5.25747 27.147 5.42225 27.1782C6.96446 27.4717 8.50314 27.474 10.0367 27.1174C10.3412 27.0515 10.6383 26.9552 10.9236 26.83C11.0363 26.7785 11.0524 26.8178 11.0446 26.9182C11.0382 27.007 11.0411 27.0952 11.0411 27.185Z" fill="#E0B814"/>
<path d="M11.4917 27.6706C11.7357 27.8492 11.7814 28.1192 11.6069 28.3487C11.3981 28.6251 11.1004 28.7767 10.7914 28.9067C10.1111 29.1932 9.39369 29.3219 8.66378 29.3934C8.05037 29.4545 7.43282 29.4622 6.81807 29.4165C5.91694 29.3477 5.02643 29.2109 4.20029 28.8092C3.96439 28.6947 3.74233 28.5576 3.58624 28.3381C3.42243 28.1086 3.46877 27.8437 3.70339 27.6754C3.82311 28.2473 4.27174 28.4903 4.74419 28.694C5.34988 28.955 5.99386 29.0728 6.64686 29.1336C7.41368 29.2103 8.18695 29.1941 8.94988 29.0854C9.62573 28.9856 10.2864 28.8376 10.8809 28.4787C11.1177 28.3352 11.3227 28.1569 11.4351 27.8923C11.4608 27.8203 11.4798 27.7461 11.4917 27.6706Z" fill="#F26868"/>
<path d="M5.21213 29.6418L5.20924 30.6311C4.67371 30.5024 4.15813 30.3315 3.72881 29.9666C3.56403 29.8262 3.47134 29.6534 3.48518 29.4284C3.49452 29.2585 3.48711 29.088 3.48711 28.8875C4.01073 29.2949 4.60805 29.4761 5.21213 29.6418Z" fill="#DB2C2C"/>
<path d="M8.08834 21.5935C8.00917 21.6395 7.92294 21.6721 7.83313 21.69C7.80803 21.5854 7.84246 21.5471 7.95028 21.578C7.9958 21.5869 8.04198 21.5921 8.08834 21.5935Z" fill="#CA2A2A"/>
<path d="M10.4071 23.8991C10.1799 23.8949 9.99777 23.7762 9.83363 23.6416C9.61736 23.4643 9.43939 23.2497 9.36762 22.968C9.28941 22.6607 9.46417 22.4737 9.76766 22.5732C10.2504 22.7318 10.5722 23.0649 10.701 23.5618C10.7515 23.7565 10.6176 23.8985 10.4071 23.8991Z" fill="#FB8080"/>
<path d="M26.9676 32.562C26.9795 32.7808 26.9267 32.8513 26.7123 32.907C25.8941 33.121 25.0531 33.2359 24.2075 33.2494C24.0769 33.2519 24.0223 33.2794 24.0321 33.4251C24.0469 33.6453 24.0321 33.8669 24.0375 34.0882C24.0415 34.2473 23.9866 34.3637 23.8376 34.4291H23.693C23.5606 34.3413 23.5154 34.218 23.5216 34.0611C23.5299 33.8441 23.5133 33.6272 23.5274 33.4121C23.5364 33.2768 23.484 33.2548 23.3672 33.2526C22.5793 33.2411 21.7951 33.1416 21.0294 32.9558C20.4361 32.809 19.859 32.6166 19.3485 32.267C19.065 32.0739 18.8239 31.8425 18.7067 31.5106C18.6653 31.3822 18.6459 31.2478 18.6492 31.1129C18.6492 30.6559 18.6641 30.1985 18.6445 29.7423C18.6225 29.2285 18.8485 28.8539 19.2465 28.5683C19.3662 28.4826 19.3941 28.3911 19.4071 28.2505C19.4327 27.9728 19.3532 27.7862 19.1178 27.6159C18.7899 27.3802 18.6431 27.0338 18.6453 26.6155C18.6511 25.8617 18.8745 25.1693 19.2115 24.5087C19.7346 23.4851 20.4957 22.6951 21.5486 22.2085C22.1264 21.9444 22.7495 21.7936 23.3842 21.7641C23.4927 21.758 23.5288 21.733 23.5288 21.6195C23.522 21.0855 23.5259 20.5518 23.5256 20.0178C23.5218 19.9554 23.5286 19.8929 23.5455 19.8327C23.5592 19.781 23.5902 19.7356 23.6332 19.7038C23.6763 19.6721 23.7288 19.6559 23.7823 19.6581C23.836 19.6554 23.8888 19.6718 23.9316 19.7044C23.9743 19.7371 24.004 19.7838 24.0155 19.8363C24.0292 19.8921 24.0358 19.9495 24.035 20.007C24.035 20.5493 24.0383 21.0938 24.035 21.6372C24.035 21.7305 24.0592 21.7576 24.1536 21.7623C24.8603 21.7936 25.5525 21.9732 26.1852 22.2895C26.3811 22.3882 26.4191 22.4666 26.3714 22.6807C26.217 22.8296 26.1516 22.8412 25.9502 22.7396C25.4441 22.4856 24.8932 22.3328 24.3286 22.2898C24.2765 22.2878 24.2246 22.2815 24.1735 22.271C24.0524 22.2349 24.0137 22.2794 24.0419 22.3969C24.0419 22.4446 24.0364 22.4923 24.0364 22.5415C24.0364 22.6814 23.9974 22.7996 23.8502 22.8459C23.715 22.8886 23.621 22.8206 23.5473 22.7139C23.5111 22.5917 23.5245 22.4663 23.5241 22.3419C23.5241 22.2804 23.5075 22.2616 23.4406 22.2663C23.1579 22.283 22.877 22.3234 22.6011 22.3871C21.2438 22.7125 20.2784 23.5314 19.6526 24.7625C19.3568 25.3443 19.1514 25.9535 19.1558 26.6209C19.1576 26.886 19.2606 27.0812 19.4519 27.2461C19.79 27.5353 20.1953 27.6976 20.6067 27.8473C20.79 27.9142 20.8349 27.9873 20.8236 28.1839C20.7047 28.3611 20.6262 28.3889 20.4241 28.3177C20.2885 28.27 20.1522 28.2226 20.0206 28.1651C19.9335 28.1272 19.9046 28.1359 19.9071 28.2375C19.9132 28.4725 19.9165 28.7075 19.9071 28.9432C19.9023 29.0322 19.9189 29.121 19.9554 29.2023C19.992 29.2835 20.0474 29.3549 20.1172 29.4103C20.4664 29.7133 20.8833 29.8764 21.324 29.9888C21.3402 29.9985 21.3572 30.0065 21.375 30.0127C22.8769 30.3938 24.3857 30.4032 25.8977 30.0825C26.3967 29.9769 26.879 29.8185 27.3046 29.5228C27.536 29.3623 27.686 29.1612 27.6488 28.8601C27.6418 28.7638 27.6397 28.6673 27.6426 28.5708C27.6444 28.4699 27.6426 28.3691 27.6484 28.2685C27.6567 28.1557 27.639 28.1116 27.5125 28.1695C27.1919 28.3102 26.8581 28.4183 26.516 28.4924C24.7932 28.893 23.0646 28.8901 21.332 28.5607C21.1476 28.5245 21.0901 28.4522 21.0746 28.253C21.1657 28.0639 21.2405 28.0274 21.4524 28.0682C21.5041 28.078 21.5558 28.0863 21.6075 28.0957C22.2395 28.2107 22.8751 28.2848 23.5187 28.2783C24.6504 28.3145 25.7643 28.206 26.8515 27.8766C27.2713 27.7497 27.6762 27.5852 28.028 27.3151C28.2059 27.1785 28.3697 27.0226 28.3918 26.7836C28.4134 26.5825 28.4084 26.3793 28.3769 26.1795C28.19 25.0988 27.7044 24.1746 26.9116 23.4161C26.7807 23.2906 26.7022 23.1663 26.7973 22.988C26.9918 22.8636 27.0732 22.8698 27.2402 23.0278C28.1314 23.8717 28.6684 24.9053 28.8788 26.1097C28.9145 26.3282 28.9238 26.5502 28.9066 26.771C28.877 27.2139 28.6127 27.5096 28.2768 27.7544C28.19 27.8177 28.1651 27.8817 28.1535 27.9869C28.1192 28.296 28.2016 28.5169 28.4709 28.71C28.7844 28.936 28.9225 29.2798 28.9124 29.6797C28.9012 30.1136 28.8904 30.5474 28.9146 30.9773C28.9486 31.5848 28.647 31.9846 28.1719 32.2959C27.9903 32.412 27.8002 32.5142 27.6032 32.6018C27.4156 32.6882 27.3172 32.6607 27.2008 32.4897C27.1758 32.3042 27.216 32.2309 27.3856 32.1466C27.5146 32.0826 27.6448 32.0212 27.7706 31.9521C28.1972 31.7182 28.484 31.4022 28.4015 30.8674C28.3831 30.7492 28.4182 30.6255 28.382 30.4957C27.8982 30.8681 27.3541 31.0742 26.7883 31.2369C26.0755 31.4339 25.3431 31.5514 24.6045 31.5873C23.818 31.6357 23.0287 31.6144 22.246 31.5236C21.8599 31.477 21.4792 31.4011 21.0973 31.3306C20.4187 31.1444 19.7477 30.9408 19.1601 30.4831C19.1601 30.7083 19.1684 30.9 19.158 31.0909C19.1439 31.344 19.2465 31.5377 19.4317 31.6954C19.9132 32.1054 20.4925 32.2985 21.0948 32.442C21.1061 32.45 21.1182 32.4567 21.131 32.4619C21.8494 32.6343 22.5841 32.7304 23.3227 32.7486C24.4201 32.7804 25.5076 32.6998 26.5746 32.4189C26.7781 32.3664 26.853 32.3986 26.9676 32.562ZM28.1521 29.1171C28.138 29.202 28.1161 29.2854 28.0866 29.3662C27.9604 29.6638 27.7301 29.8637 27.464 30.025C26.7973 30.4281 26.0539 30.5944 25.2947 30.7065C24.4376 30.8287 23.5688 30.8469 22.7074 30.7608C21.9738 30.6924 21.2503 30.5601 20.5698 30.2669C20.0398 30.038 19.5358 29.765 19.4024 29.1225C19.1399 29.3131 19.0878 29.6092 19.2715 29.867C19.4458 30.1136 19.6952 30.2676 19.9603 30.3963C20.8884 30.8475 21.887 31.0012 22.9012 31.0786C23.5918 31.1299 24.2856 31.1212 24.9747 31.0525C25.7947 30.9723 26.6017 30.8277 27.3649 30.5059C27.712 30.3612 28.0465 30.1895 28.2811 29.8789C28.4775 29.6211 28.4258 29.3178 28.1521 29.1171Z" fill="#040202"/>
<path d="M26.7987 22.9887C26.7036 23.1669 26.7821 23.2913 26.913 23.4168C27.7059 24.176 28.1915 25.0995 28.3784 26.1802C28.4099 26.38 28.4149 26.5832 28.3932 26.7843C28.3711 27.0233 28.2074 27.1791 28.0295 27.3158C27.6777 27.5859 27.2727 27.7497 26.853 27.8773C25.7658 28.2056 24.6518 28.3162 23.5201 28.279C23.4247 28.2515 23.3292 28.2233 23.2338 28.1962C22.6311 28.0266 22.0406 27.831 21.5677 27.3932C21.4061 27.2442 21.2626 27.0728 21.2459 26.8508C21.2118 26.4731 21.2425 26.0923 21.3367 25.725C21.6408 24.6041 22.2287 23.6666 23.1409 22.941C23.2602 22.8459 23.3784 22.7276 23.5473 22.711C23.6196 22.8195 23.715 22.8856 23.8502 22.843C23.9974 22.7967 24.0364 22.6785 24.0364 22.5386C24.0364 22.4908 24.0401 22.4431 24.0419 22.3939C24.1428 22.3738 24.2396 22.3372 24.3286 22.2855C24.8935 22.3298 25.4444 22.4841 25.9502 22.7396C26.1515 22.8412 26.217 22.8296 26.3714 22.6806C26.516 22.7808 26.6697 22.8683 26.7987 22.9887ZM26.9336 24.88C27.1701 24.88 27.3201 24.7205 27.263 24.5014C27.1184 23.9432 26.7568 23.569 26.2145 23.3907C25.8742 23.279 25.6779 23.4905 25.7658 23.8344C25.8464 24.1507 26.0463 24.3919 26.2893 24.5911C26.4737 24.7419 26.6783 24.8753 26.9336 24.88Z" fill="#F84848"/>
<path d="M21.0974 31.3317C21.4792 31.4022 21.8599 31.4781 22.2461 31.5247C23.0287 31.6159 23.818 31.6375 24.6045 31.5895C25.3431 31.5536 26.0755 31.4361 26.7883 31.2391C27.3541 31.0779 27.8983 30.8703 28.382 30.4979C28.4182 30.6277 28.382 30.751 28.4016 30.8696C28.484 31.4029 28.1973 31.7189 27.7706 31.9543C27.6448 32.0233 27.5147 32.0848 27.3856 32.1488C27.216 32.233 27.1759 32.3064 27.2008 32.4919L26.9676 32.5642C26.853 32.4008 26.7789 32.3686 26.575 32.4221C25.508 32.7031 24.4205 32.7837 23.3231 32.7519C22.5845 32.7337 21.8498 32.6376 21.1314 32.4652C21.1186 32.46 21.1064 32.4533 21.0952 32.4453L21.0974 31.3317Z" fill="#F64747"/>
<path d="M23.5473 22.7125C23.3784 22.7291 23.2602 22.8474 23.1409 22.9425C22.2287 23.6656 21.6408 24.6056 21.3367 25.7264C21.2425 26.0941 21.212 26.4751 21.2463 26.8531C21.263 27.0747 21.4065 27.2461 21.5681 27.3954C22.0418 27.8311 22.6311 28.0267 23.2349 28.1962C23.3303 28.2234 23.4258 28.2516 23.5212 28.279C22.8777 28.2855 22.2421 28.2114 21.6101 28.0965C21.5583 28.0871 21.5066 28.0787 21.4549 28.069C21.2431 28.0281 21.1682 28.0646 21.0771 28.2537L20.8262 28.1814C20.836 27.9847 20.79 27.9117 20.6093 27.8448C20.1978 27.6951 19.7925 27.5346 19.4544 27.2435C19.2632 27.0787 19.1601 26.882 19.1583 26.6184C19.154 25.951 19.3594 25.3417 19.6551 24.76C20.281 23.5307 21.246 22.7111 22.6036 22.3846C22.8796 22.3209 23.1604 22.2805 23.4431 22.2638C23.51 22.2591 23.5267 22.2779 23.5267 22.3394C23.5241 22.4648 23.5111 22.5903 23.5473 22.7125Z" fill="#DB2C2C"/>
<path d="M27.6458 28.5715C27.643 28.668 27.645 28.7645 27.652 28.8608C27.6881 29.1623 27.5392 29.363 27.3078 29.5235C26.8822 29.8193 26.3999 29.9776 25.901 30.0832C24.3889 30.4039 22.8802 30.3945 21.3783 30.0134C21.3605 30.0073 21.3434 29.9993 21.3273 29.9896C21.3273 29.7206 21.3273 29.4514 21.3273 29.1822C21.3273 29.0014 21.3273 28.9996 21.508 29.0416C21.9921 29.153 22.4862 29.2154 22.9828 29.2278C23.3592 29.2379 23.7345 29.2791 24.1156 29.2458C24.5336 29.2097 24.9548 29.2064 25.3735 29.1533C26.0499 29.0676 26.7112 28.923 27.3472 28.6771C27.4459 28.6381 27.5374 28.5813 27.6458 28.5715Z" fill="#FDD21D"/>
<path d="M27.6459 28.5715C27.5374 28.5813 27.4477 28.6381 27.3501 28.6757C26.7131 28.9215 26.0529 29.0662 25.3764 29.1518C24.9577 29.205 24.5365 29.2075 24.1185 29.2444C23.7374 29.2777 23.3621 29.2365 22.9858 29.2263C22.4892 29.2139 21.9951 29.1516 21.511 29.0401C21.3302 28.9982 21.3302 29.0004 21.3302 29.1808C21.3302 29.4498 21.3302 29.7189 21.3302 29.9881C20.8895 29.8764 20.4726 29.7133 20.1233 29.4096C20.0528 29.3547 19.9965 29.2837 19.9592 29.2026C19.9218 29.1214 19.9044 29.0325 19.9086 28.9432C19.918 28.7082 19.9147 28.4732 19.9086 28.2375C19.906 28.1344 19.9349 28.1257 20.0221 28.1652C20.1537 28.2226 20.29 28.27 20.4256 28.3177C20.6277 28.39 20.7061 28.3611 20.8251 28.184L21.076 28.2563C21.0916 28.454 21.1483 28.5289 21.3334 28.564C23.066 28.8937 24.7946 28.8962 26.5175 28.4956C26.8596 28.4216 27.1934 28.3134 27.5139 28.1727C27.6405 28.1149 27.6585 28.159 27.6499 28.2718C27.6426 28.3716 27.6459 28.4707 27.6459 28.5715Z" fill="#E0B814"/>
<path d="M28.1521 29.1171C28.4261 29.3178 28.4775 29.6211 28.2815 29.8789C28.0469 30.1895 27.7124 30.3598 27.3653 30.5059C26.601 30.8277 25.7951 30.9723 24.9751 31.0525C24.2859 31.1212 23.5922 31.1299 22.9015 31.0786C21.8892 31.0012 20.8887 30.8475 19.9606 30.3963C19.6956 30.2676 19.4461 30.1136 19.2708 29.867C19.0867 29.6092 19.1388 29.3116 19.4024 29.1225C19.5369 29.765 20.0409 30.038 20.5717 30.2669C21.2521 30.5601 21.9756 30.6924 22.7092 30.7608C23.5707 30.8469 24.4394 30.8287 25.2965 30.7065C26.0558 30.5944 26.798 30.4281 27.4658 30.025C27.7319 29.8637 27.9622 29.6634 28.0884 29.3662C28.1173 29.2854 28.1386 29.202 28.1521 29.1171Z" fill="#F26868"/>
<path d="M21.0973 31.3316L21.0941 32.443C20.4925 32.2984 19.9132 32.1064 19.4309 31.6964C19.2458 31.5388 19.1417 31.3446 19.1572 31.0919C19.1677 30.901 19.1594 30.7094 19.1594 30.4841C19.7476 30.9419 20.4187 31.1454 21.0973 31.3316Z" fill="#DB2C2C"/>
<path d="M24.3286 22.2898C24.2396 22.3415 24.1428 22.3782 24.0419 22.3983C24.0137 22.2808 24.0523 22.2378 24.1735 22.2725C24.2246 22.2825 24.2765 22.2883 24.3286 22.2898Z" fill="#CA2A2A"/>
<path d="M26.9336 24.8801C26.6784 24.8754 26.4737 24.7419 26.2893 24.5908C26.0464 24.3916 25.8464 24.1504 25.7658 23.8341C25.6779 23.4888 25.8743 23.2787 26.2152 23.3904C26.7575 23.5687 27.1191 23.9429 27.2637 24.5011C27.3205 24.7199 27.1701 24.8793 26.9336 24.8801Z" fill="#FB8080"/>
<path d="M18.4184 39.5515C18.4303 39.7703 18.3775 39.8408 18.1631 39.8965C17.3449 40.1105 16.5039 40.2254 15.6583 40.2389C15.5277 40.2414 15.4732 40.2689 15.4829 40.4146C15.4977 40.6348 15.4829 40.8564 15.4883 41.0777C15.4923 41.2368 15.4374 41.3532 15.2884 41.4186H15.1438C15.0114 41.3308 14.9662 41.2075 14.9724 41.0506C14.9807 40.8336 14.9641 40.6167 14.9782 40.4016C14.9872 40.2663 14.9348 40.2443 14.818 40.2421C14.0301 40.2307 13.246 40.1311 12.4802 39.9453C11.8869 39.7985 11.3098 39.6061 10.7993 39.2565C10.5158 39.0634 10.2747 38.832 10.1575 38.5001C10.1161 38.3717 10.0967 38.2373 10.1 38.1024C10.1 37.6454 10.1149 37.188 10.0953 36.7318C10.0733 36.218 10.2993 35.8434 10.6973 35.5578C10.817 35.4721 10.8449 35.3806 10.8579 35.24C10.8835 34.9623 10.804 34.7757 10.5686 34.6054C10.2407 34.3697 10.0939 34.0233 10.0961 33.605C10.1019 32.8512 10.3253 32.1588 10.6623 31.4982C11.1854 30.4746 11.9465 29.6846 12.9994 29.198C13.5772 28.9339 14.2004 28.7831 14.835 28.7536C14.9435 28.7475 14.9796 28.7225 14.9796 28.609C14.9728 28.075 14.9767 27.5413 14.9764 27.0073C14.9727 26.9449 14.9794 26.8824 14.9963 26.8222C15.01 26.7705 15.041 26.7251 15.084 26.6933C15.1271 26.6616 15.1796 26.6454 15.2331 26.6476C15.2868 26.6449 15.3397 26.6613 15.3824 26.6939C15.4251 26.7266 15.4548 26.7733 15.4663 26.8258C15.48 26.8816 15.4866 26.939 15.4858 26.9965C15.4858 27.5388 15.4891 28.0833 15.4858 28.6267C15.4858 28.72 15.51 28.7471 15.6044 28.7518C16.3111 28.7831 17.0033 28.9627 17.636 29.279C17.832 29.3777 17.8699 29.4561 17.8222 29.6702C17.6678 29.8191 17.6024 29.8307 17.401 29.7291C16.8949 29.4751 16.344 29.3223 15.7794 29.2793C15.7273 29.2773 15.6754 29.271 15.6243 29.2605C15.5032 29.2244 15.4645 29.2689 15.4927 29.3864C15.4927 29.4341 15.4873 29.4818 15.4873 29.531C15.4873 29.6709 15.4482 29.7891 15.3011 29.8354C15.1658 29.8781 15.0718 29.8101 14.9981 29.7034C14.9619 29.5812 14.9753 29.4558 14.9749 29.3314C14.9749 29.2699 14.9583 29.2511 14.8914 29.2558C14.6087 29.2725 14.3278 29.3129 14.0519 29.3766C12.6946 29.702 11.7292 30.5209 11.1034 31.752C10.8076 32.3338 10.6023 32.943 10.6066 33.6104C10.6084 33.8755 10.7114 34.0707 10.9027 34.2356C11.2408 34.5248 11.6461 34.6872 12.0575 34.8368C12.2408 34.9037 12.2857 34.9768 12.2745 35.1734C12.1555 35.3506 12.077 35.3784 11.8749 35.3072C11.7394 35.2595 11.603 35.2121 11.4714 35.1546C11.3843 35.1167 11.3554 35.1254 11.3579 35.227C11.3641 35.462 11.3673 35.697 11.3579 35.9327C11.3531 36.0217 11.3697 36.1105 11.4062 36.1918C11.4428 36.273 11.4982 36.3444 11.568 36.3998C11.9172 36.7028 12.3341 36.8659 12.7749 36.9783C12.791 36.988 12.8081 36.996 12.8258 37.0022C14.3277 37.3833 15.8365 37.3927 17.3485 37.072C17.8475 36.9664 18.3298 36.808 18.7554 36.5123C18.9868 36.3518 19.1368 36.1507 19.0996 35.8496C19.0926 35.7533 19.0905 35.6568 19.0934 35.5603C19.0952 35.4594 19.0934 35.3586 19.0992 35.258C19.1075 35.1452 19.0898 35.1011 18.9633 35.159C18.6428 35.2997 18.3089 35.4078 17.9668 35.4819C16.244 35.8825 14.5154 35.8796 12.7828 35.5502C12.5984 35.514 12.5409 35.4417 12.5254 35.2425C12.6165 35.0534 12.6913 35.0169 12.9032 35.0577C12.9549 35.0675 13.0066 35.0758 13.0583 35.0852C13.6903 35.2002 14.3259 35.2743 14.9695 35.2678C16.1012 35.304 17.2151 35.1955 18.3023 34.8661C18.7221 34.7392 19.1271 34.5747 19.4788 34.3046C19.6567 34.168 19.8205 34.0121 19.8426 33.7731C19.8642 33.572 19.8592 33.3688 19.8277 33.169C19.6408 32.0883 19.1553 31.1641 18.3624 30.4056C18.2315 30.2801 18.153 30.1558 18.2481 29.9775C18.4426 29.8531 18.524 29.8593 18.691 30.0173C19.5823 30.8612 20.1192 31.8948 20.3296 33.0992C20.3653 33.3177 20.3746 33.5397 20.3574 33.7605C20.3278 34.2034 20.0635 34.4991 19.7276 34.7439C19.6408 34.8072 19.6159 34.8712 19.6043 34.9764C19.57 35.2855 19.6524 35.5064 19.9218 35.6995C20.2352 35.9255 20.3733 36.2693 20.3632 36.6692C20.352 37.1031 20.3412 37.5369 20.3654 37.9668C20.3994 38.5743 20.0978 38.9741 19.6227 39.2854C19.4411 39.4015 19.251 39.5037 19.054 39.5913C18.8664 39.6777 18.768 39.6502 18.6516 39.4792C18.6267 39.2938 18.6668 39.2204 18.8364 39.1361C18.9654 39.0721 19.0956 39.0107 19.2214 38.9416C19.6481 38.7077 19.9348 38.3917 19.8523 37.8569C19.8339 37.7387 19.869 37.615 19.8328 37.4852C19.349 37.8576 18.8049 38.0637 18.2391 38.2264C17.5263 38.4234 16.7939 38.5409 16.0553 38.5768C15.2688 38.6252 14.4796 38.6039 13.6968 38.5132C13.3107 38.4665 12.93 38.3906 12.5482 38.3201C11.8695 38.1339 11.1985 37.9303 10.6109 37.4726C10.6109 37.6978 10.6192 37.8895 10.6088 38.0804C10.5947 38.3335 10.6973 38.5273 10.8825 38.6849C11.3641 39.0949 11.9433 39.288 12.5456 39.4315C12.5569 39.4395 12.569 39.4462 12.5818 39.4514C13.3002 39.6238 14.0349 39.7199 14.7735 39.7381C15.8709 39.7699 16.9584 39.6893 18.0254 39.4084C18.2289 39.3559 18.3038 39.3881 18.4184 39.5515ZM19.6029 36.1066C19.5889 36.1915 19.5669 36.2749 19.5374 36.3557C19.4112 36.6533 19.1809 36.8532 18.9148 37.0145C18.2481 37.4176 17.5047 37.5839 16.7455 37.696C15.8884 37.8182 15.0196 37.8364 14.1582 37.7503C13.4246 37.6819 12.7011 37.5496 12.0206 37.2564C11.4906 37.0275 10.9866 36.7545 10.8532 36.112C10.5907 36.3026 10.5386 36.5987 10.7223 36.8565C10.8966 37.1031 11.146 37.2571 11.4111 37.3858C12.3392 37.837 13.3378 37.9907 14.352 38.0681C15.0426 38.1194 15.7364 38.1107 16.4255 38.042C17.2455 37.9618 18.0525 37.8172 18.8157 37.4954C19.1628 37.3507 19.4973 37.179 19.7319 36.8684C19.9283 36.6106 19.8766 36.3073 19.6029 36.1066Z" fill="#040202"/>
<path d="M18.2495 29.9782C18.1545 30.1564 18.2329 30.2808 18.3638 30.4063C19.1567 31.1655 19.6423 32.089 19.8292 33.1697C19.8607 33.3695 19.8657 33.5727 19.844 33.7738C19.822 34.0128 19.6582 34.1686 19.4803 34.3053C19.1285 34.5754 18.7235 34.7392 18.3038 34.8668C17.2166 35.1951 16.1026 35.3057 14.9709 35.2685C14.8755 35.241 14.78 35.2128 14.6846 35.1857C14.0819 35.0161 13.4914 34.8205 13.0185 34.3827C12.8569 34.2337 12.7134 34.0623 12.6967 33.8403C12.6626 33.4626 12.6933 33.0818 12.7875 32.7145C13.0916 31.5936 13.6795 30.6561 14.5917 29.9305C14.711 29.8354 14.8292 29.7171 14.9981 29.7005C15.0704 29.809 15.1658 29.8751 15.301 29.8325C15.4482 29.7862 15.4872 29.668 15.4872 29.5281C15.4872 29.4803 15.4909 29.4326 15.4927 29.3834C15.5936 29.3633 15.6904 29.3267 15.7794 29.275C16.3443 29.3193 16.8952 29.4736 17.401 29.7291C17.6024 29.8307 17.6678 29.8191 17.8222 29.6701C17.9668 29.7703 18.1205 29.8578 18.2495 29.9782ZM18.3844 31.8695C18.6209 31.8695 18.7709 31.7101 18.7138 31.4909C18.5692 30.9327 18.2076 30.5585 17.6653 30.3802C17.325 30.2685 17.1287 30.48 17.2166 30.8239C17.2972 31.1402 17.4971 31.3814 17.7401 31.5806C17.9245 31.7314 18.1291 31.8648 18.3844 31.8695Z" fill="#F84848"/>
<path d="M12.5482 38.3212C12.93 38.3917 13.3107 38.4676 13.6969 38.5142C14.4796 38.6054 15.2688 38.627 16.0553 38.579C16.7939 38.5431 17.5263 38.4256 18.2391 38.2286C18.8049 38.0674 19.3491 37.8598 19.8328 37.4874C19.869 37.6172 19.8328 37.7405 19.8524 37.8591C19.9348 38.3924 19.6481 38.7084 19.2215 38.9438C19.0956 39.0128 18.9655 39.0743 18.8364 39.1383C18.6668 39.2225 18.6267 39.2959 18.6516 39.4814L18.4184 39.5537C18.3038 39.3903 18.2297 39.3581 18.0258 39.4116C16.9588 39.6926 15.8713 39.7732 14.7739 39.7414C14.0353 39.7232 13.3006 39.6271 12.5822 39.4547C12.5694 39.4495 12.5573 39.4428 12.546 39.4348L12.5482 38.3212Z" fill="#F64747"/>
<path d="M14.9981 29.702C14.8292 29.7186 14.711 29.8369 14.5917 29.932C13.6795 30.6551 13.0916 31.5951 12.7875 32.7159C12.6933 33.0836 12.6628 33.4646 12.6971 33.8426C12.7138 34.0642 12.8573 34.2356 13.0189 34.3849C13.4926 34.8206 14.0819 35.0162 14.6857 35.1857C14.7811 35.2129 14.8766 35.2411 14.972 35.2685C14.3285 35.275 13.6929 35.2009 13.0609 35.086C13.0092 35.0766 12.9575 35.0682 12.9057 35.0585C12.6939 35.0176 12.619 35.0541 12.5279 35.2432L12.277 35.1709C12.2868 34.9742 12.2408 34.9012 12.0601 34.8343C11.6486 34.6846 11.2433 34.5241 10.9053 34.233C10.714 34.0682 10.6109 33.8715 10.6091 33.6079C10.6048 32.9405 10.8102 32.3312 11.1059 31.7495C11.7318 30.5202 12.6968 29.7006 14.0544 29.3741C14.3304 29.3104 14.6112 29.27 14.894 29.2533C14.9608 29.2486 14.9775 29.2674 14.9775 29.3289C14.9749 29.4543 14.9619 29.5798 14.9981 29.702Z" fill="#DB2C2C"/>
<path d="M19.0967 35.561C19.0938 35.6575 19.0958 35.754 19.1028 35.8503C19.139 36.1518 18.99 36.3525 18.7586 36.513C18.333 36.8088 17.8507 36.9671 17.3518 37.0727C15.8397 37.3934 14.331 37.384 12.8291 37.0029C12.8113 36.9968 12.7942 36.9888 12.7781 36.9791C12.7781 36.7101 12.7781 36.4409 12.7781 36.1717C12.7781 35.9909 12.7781 35.9891 12.9589 36.0311C13.443 36.1425 13.937 36.2049 14.4336 36.2173C14.81 36.2274 15.1853 36.2686 15.5664 36.2353C15.9844 36.1992 16.4056 36.1959 16.8243 36.1428C17.5007 36.0571 18.162 35.9125 18.798 35.6666C18.8967 35.6276 18.9882 35.5708 19.0967 35.561Z" fill="#FDD21D"/>
<path d="M19.0967 35.561C18.9882 35.5708 18.8986 35.6276 18.8009 35.6652C18.1639 35.911 17.5037 36.0557 16.8272 36.1413C16.4085 36.1945 15.9873 36.197 15.5693 36.2339C15.1882 36.2672 14.813 36.226 14.4366 36.2158C13.94 36.2034 13.4459 36.1411 12.9618 36.0296C12.781 35.9877 12.781 35.9899 12.781 36.1703C12.781 36.4393 12.781 36.7084 12.781 36.9776C12.3403 36.8659 11.9234 36.7028 11.5741 36.3991C11.5036 36.3442 11.4473 36.2732 11.41 36.1921C11.3726 36.1109 11.3552 36.022 11.3594 35.9327C11.3688 35.6977 11.3655 35.4627 11.3594 35.227C11.3568 35.1239 11.3858 35.1152 11.4729 35.1547C11.6045 35.2121 11.7408 35.2595 11.8764 35.3072C12.0785 35.3795 12.157 35.3506 12.2759 35.1735L12.5268 35.2458C12.5424 35.4435 12.5991 35.5184 12.7843 35.5535C14.5168 35.8832 16.2454 35.8857 17.9683 35.4851C18.3104 35.4111 18.6442 35.3029 18.9647 35.1623C19.0913 35.1044 19.1093 35.1485 19.1007 35.2613C19.0934 35.3611 19.0967 35.4602 19.0967 35.561Z" fill="#E0B814"/>
<path d="M19.6029 36.1066C19.8769 36.3073 19.9283 36.6106 19.7323 36.8684C19.4977 37.179 19.1632 37.3493 18.8161 37.4954C18.0518 37.8172 17.2459 37.9618 16.4259 38.042C15.7367 38.1107 15.043 38.1194 14.3523 38.0681C13.34 37.9907 12.3395 37.837 11.4114 37.3858C11.1464 37.2571 10.8969 37.1031 10.7216 36.8565C10.5375 36.5987 10.5896 36.3011 10.8532 36.1121C10.9877 36.7545 11.4917 37.0275 12.0225 37.2564C12.7029 37.5496 13.4264 37.6819 14.16 37.7503C15.0215 37.8364 15.8902 37.8182 16.7473 37.696C17.5066 37.584 18.2488 37.4176 18.9166 37.0145C19.1827 36.8532 19.4131 36.6529 19.5392 36.3557C19.5681 36.2749 19.5894 36.1915 19.6029 36.1066Z" fill="#F26868"/>
<path d="M12.5481 38.3211L12.5449 39.4325C11.9433 39.2879 11.364 39.0959 10.8817 38.6859C10.6966 38.5283 10.5925 38.3341 10.608 38.0814C10.6185 37.8905 10.6102 37.6989 10.6102 37.4736C11.1985 37.9314 11.8695 38.1349 12.5481 38.3211Z" fill="#DB2C2C"/>
<path d="M15.7794 29.2793C15.6904 29.331 15.5936 29.3677 15.4927 29.3878C15.4645 29.2703 15.5031 29.2273 15.6243 29.262C15.6754 29.272 15.7273 29.2778 15.7794 29.2793Z" fill="#CA2A2A"/>
<path d="M18.3844 31.8696C18.1292 31.8649 17.9245 31.7314 17.7401 31.5803C17.4972 31.3811 17.2972 31.1399 17.2166 30.8236C17.1287 30.4783 17.3251 30.2682 17.666 30.3799C18.2083 30.5582 18.5699 30.9324 18.7145 31.4906C18.7713 31.7094 18.6209 31.8688 18.3844 31.8696Z" fill="#FB8080"/>
</svg>
