<svg width="48" height="49" viewBox="0 0 48 49" fill="none" xmlns="http://www.w3.org/2000/svg">
<g clip-path="url(#clip0_209_3414)">
<path d="M12.2883 48.0389C12.188 47.8534 11.9787 47.8484 11.8183 47.7757C5.58961 44.9408 1.75588 40.1784 0.31713 33.4885C0.128409 32.6194 0.0222454 31.7344 5.43119e-05 30.8454C-0.0262642 29.8089 0.665537 29.1071 1.707 29.0983C2.19076 29.0983 2.67577 29.0983 3.19337 29.0983C3.07556 28.79 2.95149 28.5093 2.86126 28.221C2.6423 27.5448 2.67886 26.8117 2.96402 26.1607C3.08935 25.8699 3.01165 25.7458 2.78355 25.5704C0.720681 23.9775 -0.215507 21.857 0.151699 19.2903C0.527678 16.6045 2.0905 14.7597 4.65718 13.8724C6.6787 13.1718 8.62877 13.4689 10.4285 14.6344C10.6791 14.7973 10.8608 14.8023 11.1428 14.7121C13.1706 14.0629 14.954 14.6407 16.5644 15.8952C16.9016 16.1584 17.0419 16.1709 17.275 15.7987C17.5968 15.2534 18.088 14.8283 18.6737 14.588C19.0133 14.4627 19.0083 14.301 18.9481 14.004C18.3942 11.3032 18.9657 8.86562 20.7027 6.71878C21.3131 5.96682 22.0049 5.93424 22.6954 6.61977C23.6391 7.55471 24.5753 8.4909 25.5077 9.44212C25.7258 9.66646 25.8424 9.69278 26.088 9.46343C27.069 8.55763 28.3002 7.96849 29.621 7.77288C30.9418 7.57726 32.2909 7.78424 33.4923 8.36682C34.07 8.64881 34.164 8.85936 33.9936 9.48474C33.6752 9.85069 33.3206 9.84192 32.8995 9.65017C30.8943 8.7403 29.0144 8.96338 27.2711 10.2969C26.7535 10.6904 26.7698 10.7004 27.2422 11.1741C27.3901 11.3208 27.4841 11.4624 27.7222 11.2431C30.126 9.03231 34.1202 10.2329 34.7844 13.6167C34.8308 13.8486 34.9197 13.9 35.1265 13.8674C35.2502 13.842 35.3773 13.8373 35.5025 13.8536C35.8421 13.9113 35.8559 13.7408 35.8008 13.4776C35.7027 12.9237 35.5138 12.3897 35.2418 11.8973C35.01 11.5113 35.0225 11.1679 35.2844 10.817C35.9249 10.5663 36.1768 10.6578 36.4963 11.2594C36.9289 12.0566 37.1853 12.9375 37.2483 13.8423C37.2608 14.0479 37.2796 14.207 37.499 14.3436C39.2184 15.3463 39.9629 17.1121 39.5343 19.0998C39.2836 20.2778 38.9703 20.8857 37.8925 22.3232C38.2397 22.5604 38.5681 22.824 38.875 23.1115C40.0631 24.3334 40.0757 25.9789 38.8951 27.2134C38.1607 27.9804 37.232 28.4053 36.2344 28.7073C36.1204 28.7424 35.9136 28.6835 35.9374 28.9116C35.9612 29.1397 36.1367 29.1071 36.2933 29.1071C36.653 29.1071 37.0114 29.1071 37.3711 29.1071C38.4001 29.1209 39.1044 29.859 39.0467 30.883C38.8483 34.4854 37.6577 37.9629 35.6066 40.931C33.5554 43.8991 30.7236 46.2424 27.424 47.7018C27.1357 47.8271 26.8362 47.9336 26.5467 48.0489L12.2883 48.0389ZM28.8991 29.0833C29.8181 29.0833 30.7372 29.0879 31.6562 29.0971C31.8016 29.0971 31.9545 29.0971 32.0247 28.9592C32.0723 28.8652 31.9495 28.8 31.8868 28.7374L27.8726 24.7432C27.8382 24.6919 27.801 24.6426 27.7611 24.5953C27.35 24.1692 27.3375 24.1717 27.1019 24.7119C26.785 25.4406 26.731 26.2568 26.9491 27.0209C27.1671 27.7851 27.6438 28.4498 28.2975 28.9015C28.478 29.0256 28.6584 29.1572 28.8991 29.0833ZM23.2707 9.21027C22.8358 8.76662 22.3934 8.33299 21.9685 7.87304C21.788 7.68004 21.684 7.71262 21.5411 7.91189C20.1864 9.80432 19.8217 11.876 20.4132 14.1218C20.4483 14.2559 20.4721 14.3988 20.6375 14.4464C21.273 14.6331 21.7429 15.0643 22.2029 15.5104C22.4234 15.8676 22.7042 16.2022 22.8508 16.587C23.0551 17.1234 23.2945 17.5094 23.9537 17.4091C24.1105 17.3985 24.2673 17.4292 24.4086 17.4981C24.653 17.5984 24.7157 17.5094 24.7846 17.2763C25.2608 15.6683 26.0241 14.2897 27.7811 13.7295C27.7405 13.6707 27.6966 13.6142 27.6496 13.5603L23.2707 9.21027ZM13.326 15.9378C12.7022 15.7801 12.0435 15.8357 11.4549 16.0957C10.0425 16.7374 9.71661 17.9756 10.0061 19.5322C10.2279 20.7215 10.9273 21.6627 11.8121 22.4723C12.4111 23.0212 12.3322 23.4749 11.5915 23.8221C11.0626 24.0727 10.5588 24.3397 10.1715 24.7896C9.67024 25.3749 9.61384 25.9551 10.0462 26.5818C10.3959 27.0831 10.9147 27.3788 11.4524 27.6408C11.6303 27.7272 11.7369 27.6721 11.8133 27.4854C11.9549 27.1395 12.1166 26.8023 12.2708 26.4614C13.1405 25.0227 14.3299 23.9649 15.9378 23.4248C16.2975 23.2995 16.2612 23.1867 16.0331 22.9648C15.4954 22.4422 14.9703 21.9083 14.4414 21.377C14.3161 21.2516 14.182 21.1464 14.1569 20.9609C14.1156 20.6488 14.1481 20.3568 14.4527 20.1851C14.7998 19.9908 15.1144 20.0711 15.3876 20.3443C16.2048 21.1597 17.0215 21.9764 17.8378 22.7944C17.9944 22.9523 18.1423 23.0902 18.3942 23.0839C19.2853 23.0613 20.1187 23.3107 20.9245 23.6654C21.0022 23.6993 21.0837 23.7907 21.1752 23.6805C21.0398 23.2005 20.8757 22.728 20.7754 22.2417C20.5009 20.907 20.5248 19.6099 21.3306 18.423C21.4935 18.1824 21.9309 18.0909 21.8031 17.6961C21.6933 17.4042 21.5543 17.1242 21.3883 16.8602C21.2898 16.7004 21.1783 16.5491 21.0549 16.4078C20.3443 15.5305 19.4495 15.4954 18.6549 16.305C18.2626 16.7035 18.0483 17.2061 17.8064 17.6949C17.5558 18.2137 17.0382 18.2927 16.6146 17.8941C16.5131 17.7989 16.4316 17.6811 16.3326 17.5821C15.4954 16.7349 14.5617 16.0569 13.326 15.9378ZM4.59953 33.4835C4.76998 33.4835 4.94167 33.4985 5.11337 33.4985H27.0367C27.6997 33.4985 27.8551 33.6238 28.0193 34.2505C27.8839 34.7518 27.5543 34.916 27.0442 34.916C19.8589 34.9051 12.6735 34.903 5.4881 34.9097C5.31765 34.9097 5.14595 34.9185 4.97426 34.9235H2.17196C2.14915 35.0338 2.16416 35.1486 2.21457 35.2493C3.60987 39.5606 6.23421 42.9097 10.0876 45.2967C11.4449 46.1414 12.8347 46.9135 14.5367 46.6152L26.1507 46.6302C26.337 46.6165 26.5184 46.564 26.6833 46.4761C29.7561 45.1626 32.4031 43.0203 34.3282 40.2887C35.4966 38.657 36.377 36.8373 36.9312 34.9084C34.9009 34.9084 32.9045 34.8972 30.9093 34.916C30.3992 34.916 30.0696 34.7518 29.9355 34.2517C30.0997 33.6251 30.2551 33.4998 30.9181 33.4998C32.917 33.4998 34.916 33.4998 36.9137 33.506C37.1894 33.506 37.3197 33.4597 37.3636 33.1489C37.4589 32.4846 37.5767 31.8242 37.6143 31.1537C37.6519 30.4832 37.6493 30.4995 37.0152 30.4995H4.69102C4.53562 30.4995 4.38021 30.5095 4.22481 30.5145C3.4152 30.5145 2.60559 30.5145 1.79723 30.4944C1.48267 30.4869 1.38742 30.6198 1.40747 30.913C1.46011 31.6901 1.56789 32.4596 1.69447 33.2266C1.72956 33.4409 1.81979 33.506 2.03159 33.5023C2.88256 33.4923 3.74355 33.4935 4.59953 33.4885V33.4835ZM34.4936 29.0494L34.3295 28.6973C34.0299 28.0631 34.2518 27.6307 34.9373 27.5104C35.1528 27.4728 35.3709 27.4478 35.5827 27.3964C36.3773 27.1996 37.133 26.9114 37.7521 26.3512C38.5692 25.608 38.5642 24.7019 37.7521 23.97C37.4478 23.7005 37.1048 23.4783 36.7345 23.3107C35.7319 22.847 35.6742 22.4535 36.47 21.7229C37.281 21.002 37.8576 20.0548 38.1256 19.0033C38.7146 16.6484 37.1794 14.9389 34.7856 15.3061C33.5324 15.4991 32.5298 16.1709 31.6876 17.0996C31.0747 17.7788 30.5772 17.7137 30.2175 16.8802C30.0069 16.3397 29.666 15.8597 29.2249 15.4829C28.6484 15.0166 28.0694 15.0016 27.4703 15.4315C27.1322 15.6865 26.8555 16.0141 26.6607 16.3902C26.3011 17.0484 26.0678 17.768 25.9727 18.512C25.8687 19.2314 25.42 19.462 24.767 19.1386C24.4895 18.9947 24.1947 18.8869 23.8898 18.8178C23.1228 18.6574 22.5538 18.9782 22.2317 19.6951C21.9322 20.3555 21.9848 21.9773 22.4335 22.6991C22.7576 22.0041 23.1591 21.3478 23.6303 20.7428C24.3084 19.9069 25.0089 19.8655 25.7709 20.6175C26.6357 21.4747 27.4942 22.3395 28.3564 23.2005C28.8289 23.6729 28.8289 23.6717 29.2951 23.2005L32.7416 19.754C32.9509 19.5447 33.1815 19.4068 33.4935 19.5033C33.6231 19.5371 33.74 19.6078 33.8302 19.7068C33.9203 19.8058 33.9797 19.9289 34.0011 20.061C34.06 20.3718 33.8908 20.5924 33.684 20.7992C32.4884 21.9898 31.3028 23.1904 30.0997 24.371C29.8591 24.6066 29.8791 24.7319 30.106 24.9563C31.4194 26.2496 32.7165 27.558 34.0224 28.8589C34.1314 28.9717 34.2229 29.1522 34.4936 29.0544V29.0494ZM11.0739 29.0908C10.6327 28.8076 10.174 28.5895 9.77175 28.2749C8.8481 27.5543 8.23274 26.6632 8.37436 25.435C8.49969 24.4011 9.12632 23.6742 9.95974 23.1165C10.2004 22.9548 10.2392 22.8658 10.0362 22.6327C9.41529 21.9315 8.96454 21.0965 8.71901 20.1926C8.65133 19.942 8.5235 19.8831 8.28538 19.9069C7.91041 19.9524 7.55718 20.1075 7.26986 20.3527C6.98253 20.5979 6.77386 20.9223 6.66992 21.2855C6.4481 22.0374 6.53206 22.7681 6.80778 23.4849C7.30031 24.7695 7.29906 24.757 6.01196 25.1944C5.13468 25.4939 4.41405 25.9827 4.18596 26.9615C4.03055 27.6245 4.29875 28.1684 4.64841 28.7161C4.96173 29.2011 5.4129 29.1046 5.85405 29.1071C6.21248 29.1071 6.57217 29.1071 6.9306 29.1071L11.0739 29.0908ZM4.9329 24.0777C4.74491 23.9687 4.6083 23.8935 4.47671 23.8108C3.59388 23.2446 2.94996 22.3737 2.66747 21.3637C2.38499 20.3537 2.48364 19.2751 2.94466 18.3331C3.40568 17.3911 4.1969 16.6514 5.16778 16.2548C6.13867 15.8582 7.22147 15.8324 8.21019 16.1822C8.46961 16.2762 8.7729 16.5419 8.96214 16.4717C9.19274 16.3852 9.32434 16.0318 9.49603 15.7924C9.50982 15.7736 9.50355 15.741 9.50982 15.6947C8.0059 14.8174 6.41676 14.6507 4.79755 15.3187C2.91013 16.0919 1.78971 17.5332 1.53154 19.5497C1.27337 21.6063 2.0529 23.2731 3.71473 24.5264C3.92653 24.6868 4.07191 24.6956 4.27494 24.5176C4.48211 24.356 4.70029 24.209 4.92789 24.0777H4.9329ZM12.9087 29.0595C13.8073 29.1735 13.8073 29.1735 14.0692 28.3852C14.0892 28.3263 14.1105 28.2687 14.1331 28.2097C14.7948 26.494 16.5143 25.3648 18.304 25.4613C19.215 25.4982 20.0898 25.8283 20.798 26.4026C21.5062 26.9769 22.01 27.7646 22.2342 28.6484C22.3332 29.0444 22.4974 29.1497 22.8608 29.0983C22.9386 29.0877 23.0174 29.0877 23.0952 29.0983C23.3458 29.1309 23.3634 29.0244 23.3271 28.8025C22.9085 26.3073 20.5874 24.3961 18.042 24.4637C15.3701 24.5339 13.1907 26.4865 12.9087 29.0595ZM26.4439 29.0958C25.1781 27.1921 25.0566 25.3235 26.2334 23.4223C26.3587 23.2255 26.3073 23.1328 26.1695 22.9987C25.7659 22.6077 25.3649 22.2141 24.9789 21.8068C24.8059 21.6238 24.7144 21.6289 24.5615 21.8356C23.8366 22.8176 23.3734 23.9678 23.2155 25.1781C23.2059 25.2457 23.2116 25.3146 23.2322 25.3797C23.2528 25.4447 23.2878 25.5044 23.3346 25.5541C24.1046 26.5034 24.5957 27.648 24.7533 28.8602C24.7758 29.0306 24.8197 29.1008 25.0039 29.0971C25.4589 29.0908 25.9238 29.0908 26.4364 29.0908L26.4439 29.0958ZM30.5797 11.5301C29.9206 11.5295 29.2815 11.7561 28.77 12.1717C28.5707 12.3359 28.493 12.4387 28.7274 12.6643C29.5696 13.4739 30.3942 14.3048 31.2113 15.1407C31.388 15.3212 31.5058 15.3462 31.7126 15.1783C32.1443 14.8191 32.6332 14.5349 33.1589 14.3374C33.4196 14.2396 33.4584 14.108 33.4096 13.8473C33.2819 13.1918 32.9292 12.6015 32.4125 12.1784C31.8958 11.7552 31.2475 11.5259 30.5797 11.5301ZM5.16225 22.5738C5.16225 22.2417 5.14971 21.9823 5.16225 21.7254C5.19498 20.9318 5.50583 20.175 6.04038 19.5875C6.57494 19 7.29911 18.6193 8.08611 18.512C8.24778 18.4894 8.46209 18.5847 8.50595 18.2789C8.53234 18.175 8.52085 18.065 8.47354 17.9688C8.42623 17.8726 8.3462 17.7963 8.24778 17.7538C7.30658 17.2186 6.34408 17.176 5.39661 17.6836C4.93937 17.9117 4.55573 18.2641 4.28971 18.7004C4.02369 19.1366 3.88609 19.6391 3.89269 20.15C3.87389 21.1338 4.27995 21.9384 5.16225 22.5738ZM18.1373 29.0908C18.9331 29.0908 19.7277 29.0783 20.5185 29.0971C20.8506 29.1058 20.9195 29.0181 20.8042 28.706C20.4132 27.6508 19.2539 26.8399 18.1197 26.8512C16.9504 26.8625 15.8175 27.652 15.434 28.7035C15.3287 28.9893 15.3814 29.0996 15.7022 29.0946C16.5156 29.0908 17.3264 29.0908 18.1373 29.0908Z" fill="#020202"/>
<path d="M13.3661 3.47664C13.0891 3.06181 13.1418 2.69962 13.5027 2.3487C14.1431 1.72959 14.756 1.08667 15.3951 0.468809C16.0343 -0.14905 16.7637 -0.132758 17.3252 0.584109C19.1712 2.94275 19.6024 5.56082 18.4957 8.33179C17.3891 11.1028 15.2711 12.6731 12.3209 13.0679C10.1515 13.3599 8.21144 12.7621 6.51702 11.391C5.80642 10.8158 5.76507 10.1014 6.40799 9.45722C7.90522 7.9533 9.40914 6.44938 10.9197 4.94547C11.3333 4.53314 11.5464 4.51434 12.0778 4.82014C12.3447 5.26129 12.2532 5.62724 11.8898 5.98568C10.9034 6.94568 9.94846 7.92698 8.9847 8.90077C8.54982 9.32437 8.12246 9.75549 7.68005 10.1666C7.50334 10.332 7.53593 10.4022 7.71765 10.5425C10.0713 12.3848 13.9439 12.0252 15.9165 9.77429C17.9681 7.7628 18.2363 4.11079 16.5156 1.83361C16.3226 1.58296 16.2248 1.60928 16.0306 1.81231C15.5292 2.32991 15.0279 2.83246 14.5129 3.33502C14.093 3.75236 13.8887 3.77492 13.3661 3.47664Z" fill="#060404"/>
<path d="M13.3661 3.47659C13.8887 3.77361 14.093 3.75231 14.5179 3.33497C15.0292 2.83367 15.5405 2.33236 16.0356 1.81226C16.2298 1.60923 16.3276 1.5779 16.5206 1.83356C18.2413 4.11074 17.9731 7.76275 15.9215 9.77424C14.6338 10.2573 13.2469 10.4153 11.8835 10.2342C12.1918 9.71408 12.1104 9.14886 12.0314 8.60495C11.9775 8.23774 11.688 8.05727 11.312 8.08609C11.1458 8.08609 10.9864 8.15211 10.8689 8.26963C10.7514 8.38715 10.6854 8.54653 10.6854 8.71273C10.6591 9.06865 10.6666 9.42709 10.6591 9.78427C9.99609 9.69153 9.481 9.31805 8.98596 8.90698C9.94847 7.92693 10.9035 6.94562 11.8798 5.98312C12.2432 5.62468 12.3347 5.25873 12.0677 4.81758L13.3661 3.47659ZM15.1834 6.31649C15.3551 6.31649 15.5268 6.32777 15.6959 6.31649C16.0719 6.2839 16.2988 6.07837 16.3376 5.69988C16.379 5.29633 16.1772 5.00933 15.7962 4.94792C15.3961 4.89111 14.9902 4.88816 14.5893 4.93915C14.5024 4.94568 14.4177 4.96997 14.3405 5.01051C14.2633 5.05106 14.1952 5.107 14.1405 5.17489C14.0857 5.24277 14.0455 5.32116 14.0222 5.40521C13.999 5.48925 13.9932 5.57717 14.0053 5.66354C14.0316 6.03952 14.2672 6.29017 14.6708 6.31523C14.84 6.32651 15.0117 6.31649 15.1834 6.31649ZM15.058 8.54228C15.0529 8.46202 15.0329 8.38341 14.9991 8.31043C14.7347 7.87041 14.3641 7.50372 13.9213 7.2439C13.6243 7.07972 13.3386 7.2063 13.1355 7.46072C13.027 7.5768 12.9666 7.72978 12.9666 7.88871C12.9666 8.04763 13.027 8.20061 13.1355 8.3167C13.3799 8.59885 13.6437 8.86352 13.9251 9.10876C14.0262 9.19684 14.1522 9.25119 14.2857 9.26422C14.4191 9.27725 14.5533 9.24831 14.6695 9.18145C14.9214 9.06364 15.0392 8.84683 15.063 8.53727L15.058 8.54228Z" fill="#FA4654"/>
<path d="M26.6708 6.97692C25.8875 6.97692 25.3122 6.33399 25.4902 5.6071C25.885 4.00543 26.3136 2.41253 26.761 0.824647C26.9227 0.249399 27.4841 -0.0426114 28.0907 0.0413573C29.1775 0.204352 30.1828 0.713402 30.9574 1.49296C31.732 2.27253 32.2346 3.28105 32.3907 4.36888C32.4696 4.9529 32.224 5.48804 31.6838 5.6447C30.0696 6.11217 28.4492 6.53201 26.8199 6.96564C26.7708 6.97514 26.7208 6.97893 26.6708 6.97692ZM26.9665 5.473C28.2612 5.12835 29.4493 4.81379 30.6348 4.49546C30.8065 4.44909 31.0108 4.43781 30.9269 4.14454C30.5221 2.8236 29.6736 1.94882 28.3527 1.53399C28.1358 1.46506 28.0042 1.51144 27.9504 1.75958C27.8727 2.12428 27.7636 2.48271 27.6684 2.84365C27.4465 3.69963 27.2134 4.5506 26.9665 5.47801V5.473Z" fill="#060404"/>
<path d="M35.2818 10.8132C35.0199 11.1641 35.0074 11.5075 35.2392 11.8935C35.5112 12.386 35.7001 12.9199 35.7982 13.4739C35.8533 13.7346 35.8395 13.905 35.4999 13.8499C35.3747 13.8336 35.2476 13.8382 35.1239 13.8637C34.9171 13.8988 34.8281 13.8474 34.7818 13.613C34.1175 10.2292 30.1234 9.02857 27.7196 11.2393C27.4815 11.4586 27.3875 11.317 27.2396 11.1704C26.7621 10.7004 26.7509 10.6904 27.2685 10.2931C29.013 8.95964 30.9029 8.73656 32.8969 9.64643C33.318 9.83818 33.6726 9.84695 33.991 9.481C34.496 9.85698 35.0362 10.1929 35.2818 10.8132Z" fill="#F7CDA0"/>
<path d="M4.97424 34.926C5.14594 34.926 5.31764 34.9122 5.48808 34.9122C12.6735 34.9122 19.8588 34.9143 27.0442 34.9185C27.5543 34.9185 27.8839 34.7543 28.0193 34.253H29.9405C30.0746 34.7543 30.4042 34.9222 30.9143 34.9172C32.9095 34.8984 34.9059 34.9097 36.9362 34.9097C36.384 36.8386 35.5058 38.6587 34.3395 40.2912C32.4143 43.0228 29.7674 45.1651 26.6946 46.4786C26.5297 46.5665 26.3483 46.6191 26.1619 46.6327L14.5379 46.6177C14.4314 46.5538 14.3286 46.4848 14.2183 46.4284C12.6891 45.6199 11.2816 44.5997 10.0374 43.3981C8.77744 42.1888 7.68985 40.8119 6.80526 39.3062C5.98312 37.9439 5.36615 36.468 4.97424 34.926Z" fill="#D7EBFD"/>
<path d="M34.4936 29.0546C34.2229 29.1524 34.1314 28.9719 34.0174 28.8579C32.7102 27.557 31.4143 26.2486 30.1009 24.9552C29.8741 24.7309 29.8503 24.6055 30.0946 24.3699C31.299 23.1893 32.4834 21.9887 33.679 20.7981C33.8858 20.5913 34.055 20.3708 33.9961 20.0599C33.9746 19.9278 33.9152 19.8047 33.8251 19.7057C33.735 19.6067 33.618 19.536 33.4885 19.5022C33.1752 19.4057 32.9446 19.5436 32.7365 19.7529L29.2888 23.2006C28.8226 23.6668 28.8226 23.6681 28.3501 23.2006C27.4879 22.3396 26.6294 21.4749 25.7646 20.6176C25.0064 19.8657 24.3021 19.9096 23.624 20.743C23.155 21.3483 22.7556 22.0046 22.4334 22.6993C21.991 21.9812 21.9321 20.3595 22.2304 19.7003C22.5525 18.9834 23.1215 18.6626 23.8885 18.823C24.1934 18.8921 24.4882 18.9999 24.7658 19.1438C25.4187 19.4659 25.8674 19.2353 25.9714 18.5172C26.0665 17.7732 26.2998 17.0536 26.6594 16.3954C26.8542 16.0193 27.1309 15.6917 27.4691 15.4367C28.0731 15.0068 28.6521 15.0218 29.2236 15.488C29.6647 15.8648 30.0057 16.3449 30.2162 16.8854C30.5759 17.7188 31.0734 17.784 31.6863 17.1047C32.5247 16.1761 33.5261 15.5043 34.7844 15.3113C37.1781 14.9441 38.7133 16.6536 38.1243 19.0085C37.8558 20.058 37.2797 21.0033 36.47 21.723C35.6742 22.4537 35.7331 22.851 36.7344 23.3109C37.1047 23.4785 37.4478 23.7007 37.7521 23.9701C38.5692 24.707 38.5742 25.6132 37.7521 26.3513C37.133 26.9115 36.3735 27.1998 35.5827 27.3966C35.3709 27.4479 35.1528 27.473 34.9373 27.5106C34.2517 27.6359 34.0299 28.0633 34.3294 28.6974L34.4936 29.0546Z" fill="#67C843"/>
<path d="M29.9405 34.2544H28.0192C27.8551 33.6277 27.6996 33.5024 27.0367 33.5024H5.11333C4.94163 33.5024 4.76993 33.4924 4.59949 33.4874C4.37516 32.5098 4.34884 31.5072 4.22351 30.5184C4.37892 30.5184 4.53432 30.5034 4.68972 30.5034H37.0177C37.6518 30.5034 37.6506 30.5034 37.6167 31.1576C37.5829 31.8118 37.4638 32.4885 37.3661 33.1528C37.3222 33.4636 37.1919 33.5112 36.9161 33.5099C34.9184 33.4987 32.9195 33.5037 30.9205 33.5037C30.2601 33.5049 30.1047 33.6252 29.9405 34.2544Z" fill="#E9F5FE"/>
<path d="M13.326 15.9377C14.5617 16.0631 15.4954 16.7348 16.3339 17.582C16.4329 17.681 16.5143 17.7988 16.6158 17.8941C17.0394 18.2926 17.5508 18.2137 17.8077 17.6948C18.0496 17.206 18.2639 16.7035 18.6561 16.305C19.4507 15.4953 20.3455 15.5317 21.0561 16.4077C21.1787 16.5492 21.2894 16.7005 21.387 16.8601C21.553 17.1241 21.692 17.4042 21.8018 17.6961C21.9272 18.0909 21.4923 18.1823 21.3294 18.423C20.5235 19.6111 20.4997 20.9069 20.7742 22.2417C20.8744 22.7279 21.0386 23.2004 21.174 23.6804C21.0875 23.7857 21.006 23.6992 20.9233 23.6654C20.1175 23.3107 19.284 23.0613 18.393 23.0839C18.1423 23.0901 17.9932 22.9585 17.8365 22.7943C17.0219 21.9755 16.2052 21.1588 15.3864 20.3442C15.1132 20.071 14.7986 19.9908 14.4514 20.1851C14.1469 20.3568 14.1143 20.6488 14.1557 20.9608C14.1807 21.1463 14.3199 21.2566 14.4402 21.3769C14.969 21.9083 15.4942 22.4422 16.0318 22.9648C16.2599 23.1866 16.2963 23.3044 15.9366 23.4247C14.3349 23.9649 13.1455 25.0226 12.2821 26.4589C12.0502 26.0829 12.0702 25.6994 12.1718 25.2946C12.4011 24.3847 13.1054 23.8985 13.8186 23.4147C14.2747 23.1052 14.3086 22.9009 13.9326 22.5374C13.3752 21.9907 12.9392 21.3326 12.653 20.6062C12.3359 19.8116 12.1517 18.9982 12.277 18.1147C12.3873 17.2524 12.7746 16.5656 13.326 15.9377Z" fill="#01794D"/>
<path d="M4.97424 34.9261C5.36576 36.4681 5.9823 37.944 6.80401 39.3062C7.6886 40.812 8.77619 42.1889 10.0362 43.3981C11.2804 44.5998 12.6879 45.62 14.2171 46.4285C14.3274 46.4849 14.4301 46.5539 14.5366 46.6178C12.8347 46.9161 11.4448 46.144 10.0876 45.2993C6.24422 42.9098 3.61988 39.5607 2.21456 35.2519C2.16415 35.1512 2.14913 35.0364 2.17195 34.9261H4.97424Z" fill="#C2E0FD"/>
<path d="M11.0738 29.0907H6.93054C6.57211 29.0907 6.21242 29.0907 5.85399 29.0907C5.41284 29.0907 4.96166 29.1847 4.64835 28.6997C4.29869 28.157 4.03049 27.6131 4.18589 26.9451C4.41399 25.9663 5.13461 25.4776 6.0119 25.178C7.299 24.7407 7.30025 24.7532 6.80772 23.4686C6.532 22.7517 6.44803 22.0148 6.66986 21.2691C6.7738 20.906 6.98247 20.5815 7.2698 20.3363C7.55712 20.0911 7.91035 19.9361 8.28532 19.8905C8.52218 19.8792 8.64751 19.9419 8.71895 20.1926C8.96323 21.0995 9.41404 21.9377 10.0361 22.6414C10.2392 22.8771 10.2003 22.9635 9.95968 23.1252C9.12751 23.6829 8.49336 24.4098 8.3743 25.4437C8.23268 26.6719 8.84803 27.563 9.77169 28.2836C10.174 28.5894 10.6327 28.8125 11.0738 29.0907Z" fill="#7ECF60"/>
<path d="M13.3261 15.9378C12.7747 16.5644 12.3874 17.2525 12.2696 18.111C12.1443 18.9945 12.3298 19.8079 12.6456 20.6025C12.9317 21.3289 13.3677 21.987 13.9252 22.5337C14.3011 22.9022 14.2673 23.1065 13.8111 23.411C13.098 23.896 12.3937 24.3823 12.1643 25.2909C12.0628 25.6957 12.039 26.0855 12.2746 26.4552C12.1205 26.7961 11.9588 27.1332 11.8172 27.4791C11.7407 27.6658 11.6342 27.721 11.4562 27.6345C10.9198 27.3789 10.4022 27.0856 10.0513 26.5843C9.61393 25.9577 9.66657 25.3774 10.1766 24.7921C10.5639 24.3422 11.0677 24.0702 11.5966 23.8246C12.3373 23.4799 12.4162 23.0238 11.8172 22.4748C10.9324 21.664 10.233 20.7203 10.0112 19.5347C9.72171 17.9756 10.0476 16.7399 11.46 16.0982C12.0468 15.8385 12.7035 15.7821 13.3261 15.9378Z" fill="#026740"/>
<path d="M23.2707 9.21033L27.6471 13.5604C27.6941 13.6143 27.7381 13.6708 27.7787 13.7296C26.0242 14.2898 25.2584 15.6684 24.7822 17.2763C24.7133 17.5094 24.6506 17.5984 24.4062 17.4982C24.2649 17.4293 24.1081 17.3986 23.9513 17.4092C23.2921 17.5094 23.0527 17.1234 22.8484 16.587C22.7005 16.2023 22.421 15.8677 22.2005 15.5105C22.4511 15.2949 22.2142 15.0781 22.1842 14.8738C22.0801 14.1745 21.9135 13.4827 22.1378 12.7771C22.6103 12.9112 23.094 12.8611 23.5703 12.841C23.6643 12.8399 23.757 12.8193 23.8426 12.7805C23.9283 12.7418 24.005 12.6858 24.068 12.616C24.1309 12.5462 24.1788 12.4642 24.2085 12.375C24.2383 12.2858 24.2492 12.1915 24.2408 12.0978C24.1969 11.6855 23.9513 11.4562 23.5302 11.4499C23.1091 11.4436 22.6629 11.4562 22.2293 11.4599C22.3258 10.7343 22.6341 10.0813 22.9587 9.44343C22.9817 9.37801 23.0237 9.32091 23.0792 9.2794C23.1348 9.23789 23.2015 9.21385 23.2707 9.21033ZM25.2321 14.8036C25.2446 14.6649 25.2148 14.5256 25.1466 14.4041C25.0783 14.2826 24.9749 14.1846 24.8499 14.1231C24.7342 14.0544 24.5995 14.0247 24.4656 14.0385C24.3318 14.0522 24.2059 14.1087 24.1067 14.1996C23.803 14.4663 23.5162 14.7518 23.2482 15.0543C23.1861 15.1151 23.1374 15.1882 23.1051 15.2689C23.0728 15.3496 23.0576 15.4362 23.0606 15.523C23.0635 15.6099 23.0845 15.6952 23.1222 15.7735C23.1599 15.8518 23.2135 15.9215 23.2795 15.978C23.335 16.0447 23.4034 16.0995 23.4806 16.1391C23.5579 16.1786 23.6423 16.2021 23.7289 16.2081C23.8155 16.2141 23.9024 16.2024 23.9843 16.1738C24.0663 16.1453 24.1416 16.1004 24.2057 16.0419C24.5217 15.7662 24.8189 15.4698 25.0955 15.1546C25.1857 15.0603 25.2348 14.9341 25.2321 14.8036Z" fill="#F72A39"/>
<path d="M4.9278 24.0779C4.69967 24.2054 4.48066 24.3486 4.27234 24.5065C4.06931 24.6844 3.92393 24.6757 3.71213 24.5152C2.0503 23.262 1.27077 21.5951 1.52895 19.5385C1.7796 17.522 2.90754 16.0808 4.79495 15.3075C6.41417 14.6445 7.99829 14.8062 9.50722 15.6835C9.50722 15.7299 9.50722 15.7625 9.49344 15.7813C9.32174 16.0206 9.19015 16.374 8.95955 16.4605C8.77281 16.5307 8.46952 16.265 8.20759 16.171C7.21336 15.8019 6.11741 15.8154 5.13264 16.2091C4.14788 16.6028 3.34461 17.3485 2.8789 18.3014C2.41319 19.2542 2.31828 20.3461 2.61262 21.365C2.90696 22.3839 3.56953 23.257 4.47161 23.8147C4.6032 23.8974 4.73981 23.9726 4.9278 24.0779Z" fill="#F7CDA0"/>
<path d="M12.9086 29.0596C13.1944 26.4866 15.3738 24.534 18.037 24.4638C20.5824 24.3962 22.9034 26.3074 23.322 28.8026C23.3583 29.0245 23.3383 29.131 23.0901 29.0984C23.0124 29.0878 22.9335 29.0878 22.8558 29.0984C22.4973 29.1536 22.3332 29.0445 22.2291 28.6485C22.0058 27.7636 21.5022 26.9746 20.7937 26.3993C20.0852 25.824 19.2096 25.4933 18.2977 25.4564C16.5017 25.3599 14.7885 26.4891 14.1268 28.2048C14.1042 28.2637 14.0829 28.3214 14.0629 28.3803C13.8035 29.1736 13.8035 29.1736 12.9086 29.0596Z" fill="#F7CDA0"/>
<path d="M26.4365 29.0909C25.9239 29.0909 25.4589 29.0834 24.9965 29.0909C24.8122 29.0909 24.7684 29.0245 24.7458 28.854C24.5883 27.6419 24.0971 26.4973 23.3271 25.5479C23.2803 25.4982 23.2453 25.4386 23.2247 25.3735C23.2041 25.3084 23.1984 25.2395 23.208 25.1719C23.3659 23.9616 23.8291 22.8114 24.5541 21.8295C24.707 21.6227 24.8047 21.6177 24.9714 21.8007C25.3574 22.208 25.7584 22.6015 26.162 22.9925C26.2999 23.1266 26.3475 23.2194 26.2259 23.4161C25.0491 25.3236 25.1707 27.1922 26.4365 29.0909Z" fill="#FDFDFD"/>
<path d="M23.2707 9.21039C23.2014 9.21391 23.1348 9.23795 23.0792 9.27946C23.0237 9.32097 22.9817 9.37807 22.9587 9.44349C22.6341 10.0864 22.3258 10.7344 22.2293 11.46C21.6402 11.9137 21.6139 12.2809 22.1378 12.7772C21.9134 13.4828 22.0801 14.1746 22.1841 14.8739C22.2142 15.0782 22.4548 15.295 22.2004 15.5105C21.7405 15.0644 21.2705 14.6333 20.6351 14.4465C20.4697 14.3989 20.4459 14.256 20.4108 14.1219C19.8217 11.8761 20.1864 9.80443 21.5387 7.912C21.6816 7.71274 21.7894 7.68015 21.9661 7.87315C22.3934 8.32809 22.8358 8.76673 23.2707 9.21039Z" fill="#E11F2C"/>
<path d="M30.5798 11.5301C31.2475 11.527 31.8953 11.7573 32.4113 12.1811C32.9273 12.6049 33.2791 13.1956 33.4059 13.8512C33.4535 14.1118 33.4147 14.2434 33.1552 14.3412C32.6293 14.5378 32.14 14.8212 31.7077 15.1796C31.5059 15.3476 31.3881 15.3225 31.2064 15.142C30.3893 14.3061 29.5646 13.4752 28.7224 12.6656C28.4881 12.44 28.5658 12.3372 28.7651 12.173C29.2777 11.7559 29.9188 11.5288 30.5798 11.5301Z" fill="#FDFDFD"/>
<path d="M5.16232 22.5738C4.28504 21.9472 3.87397 21.1363 3.89277 20.15C3.88616 19.639 4.02377 19.1366 4.28979 18.7003C4.5558 18.2641 4.93945 17.9117 5.39668 17.6835C6.34415 17.176 7.30666 17.2186 8.24786 17.7537C8.34627 17.7963 8.42631 17.8725 8.47362 17.9688C8.52093 18.065 8.53242 18.1749 8.50603 18.2788C8.46342 18.5846 8.24786 18.4894 8.08619 18.512C7.29919 18.6192 6.57501 19 6.04046 19.5874C5.50591 20.1749 5.19505 20.9317 5.16232 21.7253C5.14979 21.9797 5.16232 22.2392 5.16232 22.5738Z" fill="#FDFDFD"/>
<path d="M18.1373 29.0909C17.3264 29.0909 16.5156 29.0834 15.706 29.0909C15.3851 29.0909 15.33 28.9857 15.4378 28.6999C15.8213 27.6484 16.9542 26.8589 18.1235 26.8476C19.2514 26.8363 20.417 27.6472 20.808 28.7024C20.9233 29.0145 20.8543 29.1022 20.5222 29.0934C19.7277 29.0834 18.9331 29.0909 18.1373 29.0909Z" fill="#01794D"/>
<path d="M27.8727 24.7433L31.8932 28.7375C31.9558 28.8002 32.0786 28.8628 32.031 28.9593C31.9608 29.0934 31.8079 29.0984 31.6626 29.0972C30.7435 29.0905 29.8244 29.0859 28.9054 29.0834C27.795 27.8163 27.3538 26.3926 27.8727 24.7433Z" fill="#FDDE73"/>
<path d="M4.22488 30.5196C4.35021 31.5084 4.37528 32.5111 4.60086 33.4886C3.74488 33.4886 2.88891 33.4886 2.03293 33.5074C1.82112 33.5074 1.73089 33.446 1.6958 33.2317C1.57047 32.4647 1.46144 31.6952 1.4088 30.9182C1.38875 30.6211 1.484 30.4921 1.79857 30.4996C2.60567 30.5184 3.41528 30.5146 4.22488 30.5196Z" fill="#D7EBFD"/>
<path d="M27.8727 24.7433C27.3538 26.3925 27.795 27.8163 28.8991 29.0833C28.6585 29.1572 28.478 29.0257 28.2975 28.9016C27.6438 28.4498 27.1672 27.7851 26.9491 27.0209C26.7311 26.2568 26.7851 25.4407 27.1019 24.7119C27.3375 24.1718 27.3526 24.1693 27.7611 24.5954C27.801 24.6426 27.8382 24.692 27.8727 24.7433Z" fill="#F99601"/>
<path d="M11.8835 10.2342C13.2452 10.4145 14.6304 10.2565 15.9165 9.77429C13.9439 12.0252 10.0713 12.3848 7.71766 10.5425C7.53594 10.3997 7.50336 10.3295 7.68007 10.1666C8.12247 9.75298 8.54983 9.32186 8.98471 8.89825C9.4785 9.31183 9.98732 9.68531 10.6566 9.77554C10.8859 10.4473 11.2381 10.5776 11.8835 10.2342Z" fill="#F72A39"/>
<path d="M11.8834 10.2344C11.238 10.5778 10.8808 10.4474 10.6565 9.78069C10.664 9.42351 10.6565 9.06507 10.6828 8.70915C10.6828 8.54295 10.7488 8.38357 10.8663 8.26605C10.9839 8.14853 11.1433 8.08251 11.3094 8.08251C11.6854 8.05369 11.9749 8.23416 12.0288 8.60137C12.1103 9.14904 12.1917 9.71427 11.8834 10.2344Z" fill="#060404"/>
<path d="M15.1834 6.31642C15.0117 6.31642 14.84 6.32645 14.6708 6.31642C14.2672 6.28759 14.0316 6.04697 14.0053 5.66472C13.9932 5.57836 13.999 5.49044 14.0222 5.40639C14.0455 5.32235 14.0857 5.24396 14.1404 5.17607C14.1952 5.10819 14.2632 5.05224 14.3404 5.01169C14.4177 4.97115 14.5023 4.94686 14.5893 4.94033C14.9902 4.88934 15.3961 4.89229 15.7962 4.94911C16.1722 5.00801 16.379 5.29501 16.3376 5.70107C16.2988 6.07705 16.0707 6.28509 15.6959 6.31767C15.5268 6.3277 15.3551 6.31642 15.1834 6.31642Z" fill="#060404"/>
<path d="M15.0631 8.53741C15.0355 8.84196 14.9214 9.05877 14.677 9.17658C14.5608 9.24344 14.4266 9.27238 14.2932 9.25935C14.1598 9.24632 14.0337 9.19197 13.9326 9.10389C13.6512 8.85865 13.3874 8.59398 13.1431 8.31182C13.0345 8.19574 12.9741 8.04276 12.9741 7.88384C12.9741 7.72491 13.0345 7.57193 13.1431 7.45585C13.3461 7.20519 13.6318 7.07987 13.9288 7.23903C14.3716 7.49885 14.7422 7.86554 15.0067 8.30556C15.0396 8.3787 15.0587 8.45731 15.0631 8.53741Z" fill="#060404"/>
<path d="M26.9666 5.47804C27.2172 4.55062 27.4415 3.69966 27.6684 2.84618C27.7636 2.48524 27.8727 2.12681 27.9504 1.76211C28.0043 1.51146 28.1358 1.46759 28.3527 1.53652C29.6736 1.95135 30.5221 2.82613 30.9269 4.14707C31.0159 4.44034 30.8015 4.45162 30.6349 4.49799C29.4518 4.81882 28.2612 5.13339 26.9666 5.47804Z" fill="#F99601"/>
<path d="M25.2319 14.8037C25.2347 14.9342 25.1856 15.0604 25.0953 15.1546C24.8188 15.4699 24.5215 15.7663 24.2055 16.042C24.1414 16.1005 24.0661 16.1454 23.9842 16.1739C23.9022 16.2025 23.8153 16.2141 23.7288 16.2082C23.6422 16.2022 23.5577 16.1787 23.4805 16.1392C23.4032 16.0996 23.3348 16.0448 23.2794 15.978C23.2133 15.9215 23.1597 15.8519 23.122 15.7736C23.0844 15.6953 23.0634 15.61 23.0604 15.5231C23.0575 15.4362 23.0726 15.3497 23.1049 15.269C23.1372 15.1883 23.186 15.1152 23.248 15.0544C23.5161 14.7519 23.8028 14.4664 24.1065 14.1997C24.2058 14.1088 24.3316 14.0523 24.4655 14.0386C24.5993 14.0248 24.734 14.0545 24.8497 14.1232C24.9747 14.1847 25.0782 14.2827 25.1464 14.4042C25.2147 14.5256 25.2445 14.665 25.2319 14.8037Z" fill="#060404"/>
<path d="M22.1376 12.7771C21.6138 12.2758 21.6363 11.9136 22.2291 11.46C22.6628 11.46 23.0964 11.4449 23.53 11.4499C23.9637 11.4549 24.1968 11.6856 24.2406 12.0979C24.2491 12.1915 24.2381 12.2858 24.2084 12.375C24.1787 12.4642 24.1308 12.5462 24.0678 12.616C24.0049 12.6858 23.9282 12.7418 23.8425 12.7806C23.7569 12.8193 23.6641 12.8399 23.5701 12.8411C23.0939 12.8611 22.6101 12.9112 22.1376 12.7771Z" fill="#060404"/>
</g>
<defs>
<clipPath id="clip0_209_3414">
<rect width="48" height="48" fill="white" transform="translate(0 0.0150146)"/>
</clipPath>
</defs>
</svg>
