<svg width="48" height="49" viewBox="0 0 48 49" fill="none" xmlns="http://www.w3.org/2000/svg">
<g clip-path="url(#clip0_209_3119)">
<path d="M22.6453 48.1595C22.6215 48.0618 22.53 48.0718 22.4623 48.0442C21.3456 47.5956 20.8017 46.8035 20.7992 45.5891C20.793 43.3858 20.7829 41.1814 20.8092 38.9781C20.8092 38.5608 20.6839 38.463 20.3004 38.443C17.335 38.2901 14.4121 37.6713 11.6391 36.6095C11.3333 36.4929 11.2744 36.647 11.1704 36.8476C9.96726 39.1552 8.76162 41.4613 7.55348 43.7656C6.88549 45.0339 5.57207 45.5202 4.35765 44.9662C3.08308 44.3834 2.60308 42.9096 3.27734 41.6012C4.48716 39.2618 5.70658 36.9278 6.93562 34.5992C7.10982 34.2721 7.07222 34.1205 6.78021 33.8911C3.11316 31.0086 0.988881 27.2238 0.22439 22.6468C0.0953041 21.8798 0.0727454 21.1003 0.0125887 20.317C-0.105218 18.8006 0.552745 17.6639 1.65687 16.7239C3.2222 15.3942 5.08329 14.641 7.00705 14.0269C10.3094 12.9742 13.7108 12.4453 17.1585 12.1307C20.4586 11.825 23.7772 11.771 27.0856 11.969C31.7415 12.2548 36.3434 12.8563 40.7462 14.4944C42.1548 15.017 43.4971 15.6737 44.6651 16.6412C45.8532 17.625 46.4836 18.8194 46.4084 20.4273C46.1477 25.9617 43.8868 30.4609 39.5756 33.9275C39.2823 34.1631 39.3024 34.3147 39.4503 34.5992C40.6877 36.9386 41.9155 39.286 43.1336 41.6413C43.858 43.0462 43.2138 44.6416 41.7713 45.1053C40.6221 45.475 39.4804 44.98 38.8713 43.8283C37.9827 42.1464 37.1092 40.4582 36.2307 38.7726C35.8848 38.1092 35.5384 37.4462 35.1917 36.7837C35.1152 36.637 35.0802 36.4954 34.8157 36.5944C32.0146 37.6669 29.0621 38.292 26.0667 38.4467C25.6757 38.4668 25.5955 38.5996 25.5992 38.9719C25.6193 41.0197 25.5654 43.0688 25.623 45.1128C25.6656 46.6168 25.1593 47.677 23.6742 48.1583L22.6453 48.1595ZM31.1737 36.0417C39.1307 34.3486 43.4557 28.6124 44.3831 23.2396C43.5209 23.9139 42.5922 24.35 41.6798 24.8162C40.993 25.0669 40.3125 25.3401 39.617 25.5682C34.7556 27.1273 29.7362 27.6536 24.6643 27.794C21.5873 27.8689 18.5089 27.7227 15.4528 27.3566C12.455 27.0032 9.49854 26.458 6.62857 25.5105C5.0106 24.9742 3.45906 24.2949 2.06543 23.2835C2.03912 23.3437 2.01906 23.37 2.01906 23.3975C2.01675 23.4443 2.0214 23.4912 2.03285 23.5367C2.86251 27.0458 4.56444 30.0398 7.38303 32.3321C11.1942 35.4326 15.7197 36.4954 20.4884 36.8363C20.7591 36.8563 20.803 36.7398 20.7967 36.5142C20.7867 36.1382 20.7854 35.7622 20.7967 35.3863C20.8368 34.0566 21.8119 33.0138 23.0526 32.9612C24.4036 32.9036 25.4513 33.8046 25.5904 35.1795C25.6368 35.6444 25.6105 36.1157 25.6143 36.5844C25.6143 36.7536 25.6143 36.8802 25.8649 36.8639C27.6596 36.7473 29.4367 36.5305 31.1737 36.0417ZM39.8025 15.9105C39.6884 15.8604 39.5781 15.8003 39.4616 15.7589C36.8009 14.8152 34.0462 14.2851 31.2552 13.9442C27.5478 13.4936 23.8089 13.3582 20.0786 13.5394C16.8126 13.6935 13.5754 14.0407 10.3858 14.7776C8.11494 15.304 5.88914 15.9607 3.85635 17.1375C3.19087 17.5222 2.57301 17.9747 2.10178 18.5888C1.45885 19.4134 1.4576 20.2506 2.10178 21.0752C2.45637 21.516 2.87953 21.8968 3.35504 22.2032C4.68977 23.1005 6.16737 23.6858 7.69133 24.1595C12.3522 25.6108 17.1572 26.0958 22.0099 26.1986C25.9285 26.2952 29.8472 26.0132 33.7116 25.3564C35.7857 24.9967 37.8474 24.5468 39.8062 23.7597C41.3816 23.2284 42.8867 22.5616 44.0761 21.3535C45.0599 20.3509 45.0611 19.3107 44.0761 18.3131C42.883 17.1062 41.3853 16.4319 39.8025 15.9105ZM24.0113 40.576C24.0113 38.9518 24.0113 37.3272 24.0113 35.7021C24.0193 35.515 24.0037 35.3276 23.965 35.1444C23.9203 34.9786 23.8226 34.8321 23.6867 34.7271C23.5509 34.6221 23.3844 34.5646 23.2127 34.5631C23.0411 34.5617 22.8737 34.6165 22.7361 34.7192C22.5986 34.8219 22.4984 34.9669 22.451 35.1319C22.4093 35.3142 22.3921 35.5014 22.3996 35.6883C22.3996 38.9376 22.3996 42.1869 22.3996 45.4362C22.3927 45.6233 22.4112 45.8105 22.4548 45.9926C22.5033 46.1576 22.6048 46.302 22.7435 46.4036C22.8822 46.5052 23.0506 46.5583 23.2225 46.5547C23.3944 46.5512 23.5604 46.4911 23.6948 46.3839C23.8292 46.2766 23.9246 46.1281 23.9662 45.9613C24.0032 45.7778 24.0184 45.5906 24.0113 45.4036C24.0147 43.7944 24.0151 42.1852 24.0126 40.576H24.0113ZM41.8578 42.8093C41.8199 42.5977 41.743 42.395 41.631 42.2115C40.5131 40.0735 39.396 37.935 38.2797 35.7961C37.9213 35.108 37.9213 35.108 37.2195 35.489C37.1144 35.5566 37.0032 35.6141 36.8874 35.6607C36.5452 35.7648 36.5327 35.9177 36.6981 36.2297C37.8875 38.4705 39.053 40.7239 40.2286 42.9723C40.2948 43.1137 40.379 43.246 40.4792 43.3658C40.5774 43.4891 40.7136 43.5765 40.8666 43.6144C41.0196 43.6522 41.1808 43.6384 41.3252 43.5751C41.6635 43.4385 41.819 43.174 41.8578 42.8093ZM5.34773 43.5826C5.76883 43.5889 5.98188 43.332 6.15985 42.9886C7.23264 40.9173 8.31212 38.8482 9.39828 36.7811C9.867 35.8838 9.86575 35.8826 8.97217 35.3687C8.92804 35.3498 8.88603 35.3263 8.84684 35.2985C8.57614 35.0654 8.43703 35.1319 8.2716 35.4539C7.1211 37.6973 5.94804 39.9281 4.78251 42.1639C4.71378 42.2846 4.65429 42.4103 4.60455 42.5399C4.56112 42.6583 4.54723 42.7855 4.56406 42.9105C4.5809 43.0355 4.62795 43.1545 4.70116 43.2572C4.77436 43.3599 4.87151 43.4433 4.98417 43.5C5.09684 43.5567 5.22163 43.585 5.34773 43.5826Z" fill="#040202"/>
<path d="M22.7204 7.81466C22.6964 7.45076 22.5656 7.10202 22.3445 6.81205C21.3005 5.37706 21.3418 3.94583 22.4773 2.57727C23.0321 1.90218 23.5923 1.23085 24.1579 0.563276C24.5602 0.0895419 25.0352 0.014346 25.4112 0.352727C25.7646 0.667296 25.7533 1.13978 25.3736 1.59847C24.8134 2.28401 24.2344 2.96328 23.6692 3.64881C23.0663 4.38197 23.0425 5.05748 23.6002 5.82072C24.6655 7.2933 24.5464 8.90375 23.2756 10.236C22.9222 10.6119 22.4598 10.6483 22.1088 10.3375C21.783 10.048 21.7617 9.59304 22.0562 9.20077C22.5713 8.51523 22.7154 8.22197 22.7204 7.81466Z" fill="#040404"/>
<path d="M17.8528 10.5503C17.711 10.5505 17.5717 10.5134 17.4487 10.4428C17.3258 10.3722 17.2236 10.2706 17.1522 10.148C16.9893 9.86981 16.9617 9.54145 17.1848 9.31461C18.1586 8.32077 17.9919 7.41592 17.2462 6.31931C16.5005 5.2227 16.6371 3.9519 17.4555 2.86281C18.0734 2.04067 18.7602 1.2674 19.4244 0.485368C19.7715 0.0780577 20.2152 0.0341934 20.5799 0.333723C20.9446 0.633253 20.9747 1.11325 20.625 1.53811C20.051 2.24996 19.4444 2.94678 18.8604 3.65989C18.2764 4.37299 18.2501 5.06354 18.809 5.83304C19.868 7.29059 19.7202 9.03513 18.4331 10.2834C18.2785 10.4399 18.0722 10.5348 17.8528 10.5503Z" fill="#040404"/>
<path d="M27.4716 10.5492C27.3311 10.5512 27.1925 10.5164 27.0696 10.4482C26.9468 10.38 26.8439 10.2808 26.7713 10.1605C26.6986 10.0402 26.6588 9.90303 26.6556 9.76254C26.6525 9.62206 26.6862 9.48321 26.7534 9.35981C26.838 9.229 26.9332 9.10535 27.0379 8.9901C27.6646 8.20556 27.6809 7.56263 27.0868 6.73423C26.1256 5.40201 26.1707 3.90812 27.2121 2.64357C27.7903 1.94592 28.371 1.25036 28.9542 0.556889C29.3427 0.095688 29.7889 0.0117194 30.1736 0.316262C30.5584 0.620806 30.5709 1.11083 30.1736 1.59083C29.6134 2.28389 29.0369 2.9619 28.4704 3.64869C27.8688 4.37684 27.8438 5.05736 28.4002 5.82185C29.4705 7.30697 29.3339 8.99637 28.0443 10.2722C27.8962 10.4349 27.691 10.5341 27.4716 10.5492Z" fill="#040404"/>
<path d="M39.7999 23.7598C37.8361 24.5469 35.7794 24.9968 33.7053 25.3565C29.8383 26.0121 25.917 26.2925 21.9961 26.1937C17.1434 26.0909 12.3384 25.6059 7.67752 24.1546C6.15355 23.6809 4.66968 23.0956 3.34122 22.1983C2.86571 21.8919 2.44255 21.5111 2.08796 21.0703C1.44629 20.2457 1.44754 19.4085 2.08796 18.5839C2.56545 17.9698 3.18331 17.5173 3.8488 17.1326C5.88284 15.9558 8.10989 15.2941 10.3783 14.7727C13.5679 14.042 16.805 13.6886 20.071 13.5345C23.8013 13.3533 27.5402 13.4887 31.2476 13.9393C34.0387 14.2802 36.7933 14.8103 39.454 15.754C39.5706 15.7954 39.6809 15.8555 39.7949 15.9056C39.8338 16.1388 40.0568 16.1563 40.2097 16.2378C40.9617 16.6726 41.6911 17.1476 42.2989 17.7855C43.4181 18.9586 43.4582 20.3998 42.4593 21.6468C41.8189 22.4464 40.9767 22.9527 40.1283 23.4678C40.008 23.5493 39.8275 23.5656 39.7999 23.7598ZM26.4013 15.3254C26.4037 15.1754 26.3602 15.0283 26.2766 14.9038C26.1931 14.7793 26.0735 14.6832 25.9338 14.6286C25.7755 14.5568 25.5984 14.5378 25.4284 14.5744C25.2585 14.6109 25.1049 14.7011 24.9901 14.8316C22.0976 17.725 19.205 20.6192 16.3125 23.5142C15.9115 23.9165 15.8989 24.3739 16.2436 24.7173C16.5694 25.0419 17.062 25.0169 17.4492 24.6309C20.3359 21.7517 23.2184 18.8692 26.0967 15.9833C26.1919 15.9021 26.2684 15.8012 26.3209 15.6877C26.3735 15.5741 26.4009 15.4505 26.4013 15.3254ZM30.4117 16.1325C30.4054 15.9799 30.356 15.8322 30.2693 15.7064C30.1826 15.5807 30.0621 15.482 29.9217 15.4219C29.5319 15.2439 29.2236 15.3956 28.9517 15.6725C26.3449 18.2777 23.7389 20.8844 21.1338 23.4929C20.7127 23.9152 20.6914 24.3852 21.0511 24.7311C21.3907 25.0595 21.8519 25.0369 22.2555 24.6334C24.8681 22.0283 27.4753 19.4198 30.0771 16.808C30.271 16.6335 30.3918 16.3922 30.4155 16.1325H30.4117ZM21.6013 15.3467C21.5962 15.1867 21.5438 15.0318 21.4507 14.9017C21.3575 14.7715 21.2278 14.672 21.078 14.6156C20.9283 14.5592 20.7651 14.5486 20.6093 14.585C20.4534 14.6215 20.3119 14.7034 20.2026 14.8203C17.5624 17.4614 14.9218 20.1032 12.2808 22.746C11.9248 23.1031 11.9236 23.6032 12.2419 23.919C12.5602 24.2348 13.0352 24.2386 13.4087 23.8664C16.0431 21.2412 18.6749 18.6123 21.3043 15.9796C21.4799 15.8135 21.5871 15.5878 21.605 15.3467H21.6013ZM26.3637 24.9467C26.7146 24.9467 26.9364 24.7587 27.1507 24.5444C29.4358 22.2551 31.7235 19.9687 34.0136 17.6853C34.1181 17.5914 34.2084 17.4829 34.2818 17.3632C34.3714 17.224 34.4136 17.0596 34.4021 16.8945C34.3906 16.7294 34.326 16.5724 34.2179 16.4471C33.9785 16.1538 33.6664 16.1124 33.3268 16.2127C33.125 16.2729 32.9947 16.442 32.8518 16.5887C30.5876 18.8529 28.3229 21.1184 26.0579 23.3851C25.9424 23.4904 25.8375 23.6067 25.7446 23.7323C25.6693 23.8493 25.6261 23.9841 25.6193 24.1231C25.6125 24.2621 25.6423 24.4004 25.7057 24.5243C25.7692 24.6481 25.8641 24.7531 25.9808 24.8288C26.0976 24.9045 26.2322 24.9482 26.3712 24.9555L26.3637 24.9467ZM31.9833 24.1496C32.3129 24.1609 32.5297 23.9629 32.744 23.7498C34.7643 21.7262 36.7862 19.7039 38.8098 17.6828C38.8787 17.6191 38.9436 17.5513 39.0041 17.4797C39.2898 17.1163 39.2698 16.6827 38.9577 16.3794C38.8862 16.3063 38.8008 16.2483 38.7065 16.2086C38.6123 16.169 38.511 16.1486 38.4088 16.1486C38.3065 16.1486 38.2053 16.169 38.1111 16.2086C38.0168 16.2483 37.9314 16.3063 37.8599 16.3794C35.7093 18.5158 33.5649 20.6589 31.4269 22.8086C31.3826 22.853 31.3447 22.9031 31.3141 22.9578C31.2469 23.0776 31.2117 23.2128 31.2119 23.3502C31.212 23.4876 31.2476 23.6227 31.315 23.7424C31.3825 23.8622 31.4797 23.9625 31.5971 24.0338C31.7146 24.1051 31.8485 24.145 31.9858 24.1496H31.9833ZM8.84807 23.3375C9.12629 23.3538 9.33809 23.1508 9.5524 22.9365C11.5576 20.9245 13.5662 18.9147 15.5781 16.907C15.7017 16.7891 15.8099 16.656 15.9002 16.511C15.9731 16.3891 16.0079 16.2482 16.0001 16.1063C15.9923 15.9645 15.9422 15.8283 15.8563 15.7151C15.7812 15.5947 15.6743 15.4973 15.5474 15.4338C15.4204 15.3704 15.2784 15.3432 15.1369 15.3555C14.8525 15.3755 14.6607 15.5623 14.4702 15.7527C12.4525 17.7755 10.433 19.7983 8.41193 21.821C8.30806 21.9154 8.21439 22.0204 8.13245 22.1344C8.05308 22.2515 8.00838 22.3887 8.0035 22.5302C7.99862 22.6716 8.03376 22.8116 8.10488 22.9339C8.25277 23.1996 8.48713 23.3312 8.84807 23.3375ZM10.3821 16.9885C10.3733 16.6125 10.2204 16.3618 9.92086 16.2365C9.54488 16.0748 9.23156 16.1876 8.94958 16.4709C7.67376 17.7567 6.39042 19.0313 5.11334 20.3171C4.72733 20.7044 4.70854 21.1844 5.0419 21.5165C5.37527 21.8486 5.85903 21.8236 6.24754 21.4375C7.53256 20.1626 8.81297 18.8838 10.0888 17.6013C10.2755 17.4158 10.4009 17.209 10.3821 16.9885ZM37.6092 23.335C37.7191 23.3393 37.8287 23.3198 37.9303 23.2778C38.032 23.2359 38.1234 23.1724 38.1982 23.0919C39.2485 22.0441 40.3025 20.9989 41.3427 19.9424C41.7036 19.5765 41.6923 19.0952 41.3565 18.7756C41.0206 18.456 40.5945 18.4661 40.2285 18.8107C39.9202 19.0977 39.6295 19.4035 39.3312 19.7018C38.5792 20.4537 37.8273 21.2057 37.0753 21.9577C36.8247 22.2083 36.7269 22.5066 36.8748 22.8537C36.9314 23.0008 37.0327 23.1263 37.1645 23.2127C37.2962 23.299 37.4518 23.3418 37.6092 23.335Z" fill="#F04234"/>
<path d="M31.1737 36.0417C29.4367 36.5305 27.6645 36.7473 25.8649 36.8676C25.6217 36.8839 25.6142 36.7574 25.6142 36.5882C25.6142 36.1194 25.6368 35.6482 25.5904 35.1833C25.4513 33.8047 24.4036 32.9073 23.0525 32.965C21.8106 33.0176 20.8355 34.0603 20.7967 35.3901C20.7854 35.766 20.7866 36.142 20.7967 36.518C20.8029 36.7436 20.7591 36.8601 20.4884 36.8401C15.7197 36.4992 11.1942 35.4364 7.38298 32.3359C4.56439 30.0436 2.86245 27.0521 2.03279 23.5405C2.02134 23.495 2.0167 23.4481 2.01901 23.4013C2.01901 23.3738 2.03906 23.3474 2.06538 23.2873C3.45901 24.2987 5.01055 24.9779 6.62851 25.5143C9.49849 26.4643 12.4549 27.007 15.4527 27.3554C18.5088 27.7215 21.5872 27.8677 24.6642 27.7928C29.7362 27.6524 34.7555 27.126 39.6169 25.567C40.3125 25.3439 40.9955 25.0657 41.6798 24.815C41.5231 25.2712 41.3828 25.7324 41.2061 26.1798C40.3263 28.464 38.9461 30.5221 37.1668 32.203C35.5375 33.742 33.6677 34.8812 31.6198 35.7573C31.4632 35.8249 31.2313 35.8074 31.1737 36.0417Z" fill="#FD5622"/>
<path d="M31.1737 36.0418C31.2314 35.8075 31.4632 35.825 31.6199 35.7586C33.6677 34.8813 35.5338 33.7433 37.1668 32.2043C38.9461 30.5234 40.3263 28.4653 41.2061 26.1812C41.3828 25.7337 41.5232 25.2725 41.6798 24.8163C42.5922 24.3501 43.5209 23.914 44.3831 23.2397C43.4594 28.6125 39.1307 34.3537 31.1737 36.0418Z" fill="#D54215"/>
<path d="M24.0126 40.576C24.0126 42.1852 24.0126 43.7944 24.0126 45.4035C24.0197 45.5906 24.0045 45.7778 23.9675 45.9612C23.9258 46.1281 23.8305 46.2766 23.696 46.3838C23.5616 46.4911 23.3957 46.5511 23.2237 46.5547C23.0518 46.5582 22.8835 46.5051 22.7448 46.4036C22.606 46.302 22.5046 46.1575 22.456 45.9926C22.4125 45.8105 22.3939 45.6233 22.4009 45.4361C22.4009 42.186 22.4009 38.9367 22.4009 35.6882C22.3933 35.5013 22.4106 35.3142 22.4523 35.1318C22.4997 34.9668 22.5998 34.8219 22.7374 34.7192C22.875 34.6165 23.0424 34.5617 23.214 34.5631C23.3857 34.5645 23.5522 34.6221 23.688 34.7271C23.8238 34.832 23.9216 34.9786 23.9662 35.1443C24.005 35.3276 24.0206 35.5149 24.0126 35.702C24.0151 37.3263 24.0151 38.9509 24.0126 40.576Z" fill="#F0B708"/>
<path d="M41.8578 42.8094C41.8202 43.1741 41.6648 43.4361 41.3202 43.5752C41.1758 43.6385 41.0146 43.6523 40.8616 43.6145C40.7086 43.5766 40.5724 43.4892 40.4742 43.3659C40.374 43.2461 40.2897 43.1138 40.2236 42.9724C39.048 40.724 37.8825 38.4706 36.6931 36.2298C36.5277 35.9177 36.5402 35.7648 36.8824 35.6608C36.9982 35.6142 37.1094 35.5567 37.2145 35.4891C37.9163 35.1132 37.9163 35.1132 38.2747 35.7962C39.3918 37.9359 40.5089 40.0744 41.626 42.2116C41.7397 42.3948 41.8184 42.5975 41.8578 42.8094Z" fill="#F9BD08"/>
<path d="M5.34777 43.5815C5.22291 43.5825 5.09966 43.5532 4.98854 43.4963C4.87741 43.4393 4.78171 43.3564 4.70957 43.2544C4.63744 43.1525 4.59102 43.0347 4.57426 42.9109C4.55751 42.7872 4.57092 42.6612 4.61336 42.5438C4.6631 42.4142 4.72259 42.2885 4.79132 42.1678C5.95685 39.932 7.12991 37.7012 8.2804 35.4579C8.44583 35.1358 8.58495 35.0694 8.85565 35.3025C8.89484 35.3302 8.93685 35.3537 8.98098 35.3726C9.87455 35.8865 9.87581 35.8877 9.40709 36.7851C8.3226 38.8521 7.2402 40.92 6.15988 42.9887C5.98192 43.3296 5.76385 43.589 5.34777 43.5815Z" fill="#F9BD08"/>
<path d="M39.7999 23.7598C39.8275 23.5656 40.008 23.5493 40.1358 23.4728C40.9843 22.9577 41.8265 22.4514 42.4669 21.6518C43.4695 20.3986 43.4256 18.9636 42.3065 17.7905C41.6986 17.1526 40.9742 16.6776 40.2173 16.2428C40.0644 16.155 39.8413 16.1438 39.8024 15.9106C41.3853 16.4282 42.883 17.1063 44.0723 18.3132C45.0549 19.3158 45.0536 20.356 44.0723 21.3536C42.8805 22.5617 41.3753 23.2285 39.7999 23.7598Z" fill="#C22827"/>
<path d="M26.4013 15.3254C26.4016 15.4508 26.3748 15.5747 26.3226 15.6888C26.2705 15.8028 26.1943 15.9041 26.0993 15.9859C23.2168 18.8684 20.3343 21.7509 17.4518 24.6334C17.0645 25.0194 16.5745 25.0445 16.2461 24.7199C15.9015 24.3765 15.914 23.9191 16.3151 23.5168C19.2051 20.6192 22.0976 17.725 24.9926 14.8342C25.1074 14.7036 25.2611 14.6135 25.431 14.5769C25.6009 14.5404 25.7781 14.5594 25.9364 14.6311C26.0751 14.686 26.1939 14.7819 26.277 14.9059C26.36 15.0299 26.4034 15.1762 26.4013 15.3254Z" fill="#030101"/>
<path d="M30.4155 16.1324C30.3918 16.3922 30.271 16.6334 30.0771 16.8079C27.4703 19.4147 24.8627 22.0202 22.2542 24.6245C21.8507 25.0281 21.3895 25.0506 21.0499 24.7223C20.6902 24.3764 20.7115 23.9064 21.1326 23.4841C23.736 20.8748 26.342 18.268 28.9504 15.6637C29.2224 15.3917 29.5307 15.2401 29.9205 15.413C30.0631 15.4731 30.1855 15.5728 30.2733 15.7003C30.361 15.8278 30.4104 15.9777 30.4155 16.1324Z" fill="#040101"/>
<path d="M21.605 15.3466C21.5862 15.5851 21.48 15.8083 21.3067 15.9732C18.6749 18.6026 16.043 21.2315 13.4112 23.86C13.0352 24.236 12.5715 24.236 12.2444 23.9127C11.9173 23.5893 11.9273 23.0968 12.2832 22.7396C14.9201 20.0944 17.5607 17.4525 20.2051 14.814C20.3144 14.697 20.4559 14.6151 20.6117 14.5787C20.7676 14.5422 20.9307 14.5529 21.0805 14.6092C21.2303 14.6656 21.36 14.7652 21.4531 14.8953C21.5463 15.0255 21.5987 15.1804 21.6037 15.3403L21.605 15.3466Z" fill="#020101"/>
<path d="M26.3663 24.9466C26.2273 24.9393 26.0927 24.8956 25.9759 24.8199C25.8591 24.7442 25.7642 24.6392 25.7008 24.5154C25.6374 24.3915 25.6075 24.2532 25.6144 24.1142C25.6212 23.9752 25.6644 23.8404 25.7396 23.7234C25.8325 23.5978 25.9375 23.4815 26.0529 23.3762C28.3163 21.1103 30.581 18.8448 32.8469 16.5798C32.9898 16.4369 33.1201 16.2677 33.3219 16.2038C33.6615 16.1035 33.9736 16.1449 34.2129 16.4382C34.321 16.5635 34.3857 16.7205 34.3972 16.8856C34.4087 17.0507 34.3665 17.2151 34.2769 17.3543C34.2035 17.474 34.1131 17.5825 34.0087 17.6764C31.7219 19.9674 29.4368 22.2566 27.1533 24.5443C26.944 24.7586 26.7172 24.9541 26.3663 24.9466Z" fill="#030101"/>
<path d="M31.9859 24.1496C31.8489 24.1445 31.7156 24.1043 31.5986 24.0328C31.4817 23.9614 31.385 23.8612 31.3178 23.7417C31.2507 23.6223 31.2153 23.4876 31.2151 23.3505C31.2149 23.2135 31.2499 23.0787 31.3167 22.959C31.3473 22.9044 31.3852 22.8542 31.4294 22.8099C33.5717 20.6643 35.716 18.5212 37.8624 16.3806C37.934 16.3076 38.0194 16.2495 38.1136 16.2099C38.2079 16.1703 38.3091 16.1498 38.4114 16.1498C38.5136 16.1498 38.6148 16.1703 38.7091 16.2099C38.8034 16.2495 38.8888 16.3076 38.9603 16.3806C39.2724 16.6839 39.2924 17.1175 39.0067 17.481C38.9462 17.553 38.8813 17.6212 38.8124 17.6853C36.7897 19.7072 34.7677 21.7295 32.7466 23.7523C32.5323 23.9629 32.3155 24.1609 31.9859 24.1496Z" fill="#030101"/>
<path d="M8.84819 23.3376C8.48725 23.3376 8.25288 23.1997 8.105 22.929C8.03388 22.8066 7.99874 22.6667 8.00362 22.5252C8.0085 22.3838 8.05319 22.2466 8.13257 22.1294C8.21451 22.0155 8.30818 21.9105 8.41205 21.8161C10.4306 19.795 12.4501 17.7739 14.4703 15.7528C14.6608 15.5623 14.8463 15.3768 15.1371 15.3555C15.2785 15.3433 15.4205 15.3704 15.5475 15.4339C15.6744 15.4974 15.7814 15.5947 15.8564 15.7152C15.9423 15.8283 15.9924 15.9646 16.0002 16.1064C16.008 16.2482 15.9732 16.3891 15.9003 16.511C15.8101 16.6561 15.7018 16.7892 15.5782 16.9071C13.573 18.919 11.5644 20.9288 9.55252 22.9365C9.33821 23.1508 9.12641 23.3538 8.84819 23.3376Z" fill="#030101"/>
<path d="M10.3821 16.9885C10.3997 17.2091 10.2718 17.4159 10.0889 17.6001C8.80885 18.8793 7.52844 20.158 6.2476 21.4364C5.85909 21.8224 5.37031 21.8412 5.04196 21.5153C4.7136 21.1895 4.72739 20.7032 5.1134 20.316C6.39047 19.0314 7.67381 17.7568 8.94964 16.4722C9.23162 16.189 9.54619 16.0762 9.92092 16.2378C10.2204 16.3657 10.3733 16.6076 10.3821 16.9885Z" fill="#040101"/>
<path d="M37.6093 23.3351C37.4524 23.341 37.2975 23.2977 37.1665 23.2111C37.0355 23.1246 36.9348 22.9992 36.8786 22.8526C36.7308 22.5054 36.8273 22.2096 37.0792 21.9565C37.8311 21.2045 38.5831 20.4526 39.335 19.7006C39.6333 19.4023 39.9241 19.0965 40.2324 18.8095C40.5996 18.4649 41.0332 18.4599 41.3603 18.7744C41.6874 19.089 41.7075 19.5753 41.3465 19.9412C40.3063 20.9977 39.2523 22.0429 38.2021 23.0907C38.1269 23.172 38.035 23.2359 37.9326 23.2781C37.8302 23.3203 37.7199 23.3398 37.6093 23.3351Z" fill="#030101"/>
</g>
<defs>
<clipPath id="clip0_209_3119">
<rect width="48" height="48" fill="white" transform="translate(0 0.138062)"/>
</clipPath>
</defs>
</svg>
