<svg width="48" height="49" viewBox="0 0 48 49" fill="none" xmlns="http://www.w3.org/2000/svg">
<g clip-path="url(#clip0_209_3188)">
<path d="M0 20.5621C0.469827 19.6851 1.24034 19.5022 2.16371 19.5498C3.08707 19.5974 4.04301 19.566 4.97515 19.5598C5.53268 19.5598 6.02506 19.6851 6.37711 20.1599C6.42588 20.2407 6.50326 20.3002 6.59386 20.3265C7.74149 20.6084 8.75005 20.2514 9.39779 19.2691C10.345 17.8346 11.7168 17.3096 13.3656 17.3159C14.2577 17.3159 14.2677 17.3159 14.2677 16.4389C14.2677 14.6849 14.7225 13.0098 15.1222 11.3284C15.4667 9.88136 15.4867 8.42301 15.478 6.95465C15.4902 6.87938 15.4734 6.80228 15.4311 6.73884C15.3889 6.67539 15.3241 6.6303 15.2499 6.61261C14.5609 6.36204 14.274 5.82456 14.2715 5.11919C14.2715 3.94776 14.2614 2.77632 14.2715 1.60489C14.2827 0.62389 14.8941 0.0300293 15.8726 0.0300293C19.5477 0.0300293 23.2186 0.0300293 26.8854 0.0300293C27.8363 0.0300293 28.4464 0.612614 28.4615 1.56354C28.479 2.7663 28.469 3.96906 28.4615 5.17181C28.4684 5.39912 28.4232 5.62501 28.3294 5.83217C28.2356 6.03934 28.0956 6.2223 27.9202 6.36705C27.8375 6.43596 27.7448 6.48482 27.7123 6.60635C27.5558 7.12397 27.5726 7.67851 27.76 8.18573C27.9475 8.69294 28.2954 9.1251 28.7509 9.41654C30.2243 10.38 30.7317 11.797 30.7217 13.4708C30.7217 14.2977 30.7216 14.304 31.5385 14.3002C33.3539 14.289 35.0892 14.7726 36.8319 15.1772C38.2489 15.5093 39.6797 15.5055 41.1155 15.5042C41.3184 15.5042 41.366 15.4053 41.435 15.2449C41.6855 14.6059 42.1867 14.3052 42.857 14.299C44.0747 14.289 45.2938 14.2827 46.5128 14.299C47.3898 14.3115 47.9937 14.9392 47.995 15.8312C47.995 19.5339 47.995 23.2361 47.995 26.9379C47.995 27.8363 47.4212 28.4589 46.5241 28.4802C45.2913 28.5103 44.056 28.494 42.8219 28.4802C42.4022 28.4802 42.0038 28.3549 41.7394 28.0142C41.6643 27.9076 41.5613 27.8239 41.4418 27.7722C41.3222 27.7205 41.1906 27.7027 41.0616 27.721C40.7496 27.7423 40.4352 27.7273 40.1244 27.731C39.5669 27.7398 39.1071 27.9691 38.829 28.4451C37.8179 30.1766 36.2681 30.8143 34.3374 30.7392C33.7285 30.7153 33.711 30.7392 33.7285 31.3518C33.7699 33.2173 33.2838 35.0014 32.8603 36.788C32.5208 38.2213 32.5145 39.6696 32.517 41.1167C32.5079 41.1923 32.5276 41.2686 32.5722 41.3303C32.6168 41.392 32.6829 41.4348 32.7576 41.45C33.4228 41.7005 33.7185 42.218 33.7235 42.9045C33.7336 44.0923 33.7235 45.285 33.7235 46.4664C33.7235 47.2507 33.2813 47.7093 32.6172 48.015H20.5308C19.972 47.6391 19.5172 47.2169 19.5285 46.4627C19.546 45.2762 19.5285 44.091 19.5285 42.9045C19.5188 42.6697 19.5634 42.4357 19.6591 42.221C19.7547 42.0063 19.8987 41.8166 20.0798 41.6667C20.1625 41.599 20.2502 41.5489 20.2802 41.4261C20.5671 40.266 20.2051 39.28 19.1965 38.5922C18.2067 37.9156 17.5678 37.016 17.3698 35.8271C17.2757 35.2567 17.2446 34.6778 17.2771 34.1006C17.2934 33.815 17.2132 33.7247 16.9188 33.736C15.5206 33.7861 14.1537 33.5757 12.8018 33.2349C10.9062 32.7563 8.99311 32.4105 7.02359 32.5408C6.84945 32.5521 6.66151 32.4769 6.57006 32.7412C6.31948 33.4779 5.74567 33.7435 5.00271 33.7435C4.0355 33.7435 3.06578 33.7009 2.10106 33.7548C1.18772 33.8225 0.454792 33.607 0 32.7488V20.5621ZM16.4991 27.5017L15.6834 26.8289C15.6534 27.8312 15.83 28.1031 16.4991 28.152C16.6415 28.1703 16.7858 28.1383 16.9071 28.0614C17.0284 27.9845 17.1189 27.8676 17.1631 27.731L16.4991 27.5017ZM19.5059 30.6715C20.0422 30.5901 20.2577 30.3783 20.2827 29.8709C20.3015 29.4061 20.289 28.9388 20.289 28.4727C20.289 27.6959 20.289 27.6959 19.5085 27.7686C19.3218 27.7586 19.1326 27.7511 18.9509 27.7373C18.7455 27.7222 18.6828 27.82 18.6853 28.0167C18.6953 28.6431 18.6715 29.2695 18.6991 29.8885C18.7154 30.3821 18.976 30.6076 19.5009 30.6715H19.5059ZM25.5009 31.2603C25.8831 31.2967 26.1011 31.0849 26.2527 30.7592C26.4043 30.4335 26.1274 30.3307 25.972 30.1541C25.8467 30.0162 25.7452 29.8634 25.6325 29.7168C25.4126 29.1944 25.3864 28.6106 25.5586 28.0705C25.5899 27.9728 25.8016 27.7147 25.5009 27.7435C25.2378 27.7686 24.7492 27.4429 24.7154 27.9866C24.6722 28.8292 24.6722 29.6735 24.7154 30.5161C24.7292 31.006 24.9873 31.2127 25.4959 31.2603H25.5009ZM22.5028 27.7874C22.3274 27.6884 22.1382 27.7573 21.9566 27.7385C21.7473 27.7172 21.6935 27.8275 21.6947 28.0179C21.6947 29.4324 21.6872 30.8456 21.7047 32.2589C21.7123 32.7801 21.9641 33.0018 22.5153 33.0745C23.108 32.9743 23.2921 32.765 23.2959 32.1298C23.3034 30.9484 23.2959 29.7657 23.2959 28.5842C23.2934 27.7711 23.2934 27.7711 22.4978 27.7874H22.5028ZM5.23825 30.7792C5.2441 29.1087 5.24995 27.4383 5.25579 25.7678C5.25579 25.1413 5.38108 24.9822 5.97244 24.798C6.5688 25.0035 6.66151 25.1326 6.66151 25.7878C6.66151 27.4165 6.67404 29.0352 6.65274 30.6577C6.65274 31.0336 6.73293 31.1589 7.13259 31.1513C8.58467 31.1062 10.0405 31.1075 11.4525 31.5134C14.2088 32.309 17.0378 32.4468 19.8868 32.3453C19.9645 32.3453 20.0434 32.3453 20.1211 32.3391C20.2677 32.3265 20.289 32.2238 20.2727 32.1048C20.2527 31.9632 20.1474 31.9883 20.0597 32.0121C19.2291 32.2376 18.5287 31.977 17.901 31.4395C17.4784 30.9712 17.2539 30.3573 17.2746 29.7268C17.2746 29.5364 17.257 29.4625 17.0152 29.5038C15.399 29.7782 14.274 28.8147 14.2677 27.1697C14.2677 26.2802 14.2677 25.3911 14.2677 24.5024C14.277 24.3199 14.2166 24.1407 14.0986 24.0012C13.3105 23.0515 13.323 22.0179 14.1174 21.0294C14.2069 20.9437 14.2606 20.8273 14.2677 20.7037C14.2677 20.1273 14.2677 19.5498 14.2677 18.9722C14.2677 18.8369 14.2464 18.7529 14.0748 18.7216C12.6352 18.4397 11.2884 18.9785 10.4652 20.2251C9.92775 21.0357 9.21236 21.5581 8.25141 21.721C7.87892 21.7439 7.50551 21.7481 7.13259 21.7335C6.73168 21.7009 6.63145 21.85 6.65149 22.2347C6.68031 22.9375 6.57632 23.0616 5.97244 23.2683C5.37857 23.0866 5.25705 22.9225 5.25454 22.3011C5.25454 21.9578 5.24201 21.6145 5.25454 21.2712C5.26456 21.0444 5.18187 20.9718 4.95886 20.978C4.30612 20.9981 3.65212 21.0006 2.99812 21.0094C2.57841 21.0006 2.15744 21.0018 1.74525 20.9768C1.47964 20.9617 1.40196 21.0557 1.40196 21.3213C1.41115 24.8928 1.41115 28.4648 1.40196 32.0371C1.40196 32.2677 1.44957 32.3716 1.70892 32.3679C2.78471 32.3554 3.86093 32.3554 4.93756 32.3679C5.17812 32.3679 5.27333 32.304 5.25955 32.0534C5.23825 31.6212 5.24452 31.2002 5.23825 30.7792ZM44.2527 15.7373C43.8943 15.7285 43.5335 15.7373 43.1777 15.7047C42.8219 15.6721 42.7317 15.7874 42.7342 16.142C42.753 18.1879 42.7342 20.2338 42.7492 22.281C42.7492 22.7822 42.5851 23.1267 42.0777 23.2558C41.4638 23.0954 41.3372 22.94 41.3372 22.3174C41.3372 20.6473 41.3297 18.9772 41.3372 17.3059C41.3372 17.014 41.2821 16.8811 40.9614 16.9075C40.5579 16.94 40.1508 16.925 39.7461 16.9313C38.3679 16.9313 37.0223 16.6682 35.6818 16.3625C34.6657 16.1294 33.6559 15.8513 32.6097 15.7711C30.9885 15.6458 29.3648 15.726 27.7423 15.7147C25.6049 15.6997 23.4663 15.7147 21.3289 15.7147C20.6862 15.7147 20.4343 15.9377 20.3617 16.5316C20.4569 17.1179 20.6749 17.3084 21.3076 17.3109C23.1606 17.3171 25.0136 17.3109 26.8666 17.3109C27.161 17.3109 27.4554 17.3422 27.7436 17.3585C27.9478 17.5101 28.1194 17.6755 28.1395 17.9574C28.167 18.4435 27.8651 18.7091 27.2487 18.7091C25.0988 18.7141 22.9488 18.7141 20.7989 18.7091C19.9419 18.7091 19.085 18.6991 18.228 18.7091C17.658 18.7179 17.4187 18.9597 17.351 19.5159C17.4387 20.1123 17.6642 20.3027 18.337 20.304C21.2178 20.304 24.0994 20.304 26.9818 20.304C27.3577 20.4606 27.6283 20.7124 27.5318 21.1559C27.4354 21.5995 27.0983 21.726 26.6824 21.721C26.2664 21.716 25.8405 21.721 25.4208 21.721C22.2577 21.721 19.0942 21.721 15.9303 21.721C15.2625 21.721 15.0532 21.9039 14.9455 22.5153C15.0382 23.1417 15.2662 23.3284 16.0092 23.3284C19.6726 23.3284 23.3356 23.3284 26.9981 23.3284C27.3815 23.465 27.612 23.7268 27.5356 24.1415C27.4554 24.5813 27.1222 24.7316 26.7049 24.7316H24.9321C22.5333 24.7316 20.1345 24.7316 17.7356 24.7316C17.0591 24.7316 16.8236 24.9321 16.7672 25.5235C16.8198 26.1286 17.0629 26.3278 17.7795 26.329C21.9014 26.329 26.0238 26.329 30.1466 26.329C30.5776 26.329 30.9635 26.3704 31.1489 26.839C31.1414 27.5143 30.9346 27.7273 30.2581 27.7323C29.4963 27.7385 28.7358 27.7222 27.9741 27.7423C27.3765 27.7573 27.0971 27.9778 26.9117 28.5228C26.7513 29.0954 26.928 29.3322 27.5381 29.3334C29.9286 29.3334 32.3178 29.3334 34.7083 29.3334C35.9436 29.3334 36.9246 28.9062 37.5623 27.8024C37.8403 27.3275 38.2428 26.9376 38.7262 26.6748C39.3527 26.3215 40.0405 26.2827 40.7308 26.329C41.2019 26.3604 41.3873 26.2426 41.3485 25.7314C41.3009 25.1125 41.465 24.9521 42.0777 24.7943C42.5788 24.9196 42.7743 25.2616 42.7467 25.7653C42.7279 26.091 42.7592 26.4193 42.7379 26.745C42.7204 27.0194 42.8294 27.0883 43.0875 27.0858C44.1466 27.0733 45.2048 27.0733 46.2623 27.0858C46.5391 27.0858 46.6093 26.983 46.5968 26.7287C46.5755 26.3253 46.5817 25.9194 46.5767 25.5159C46.5817 22.342 46.5876 19.1706 46.5943 16.0016C46.5943 15.7911 46.5504 15.6872 46.3124 15.6934C45.6258 15.7273 44.9392 15.7285 44.2527 15.7373ZM17.2508 1.45454C16.8461 1.45454 16.4402 1.46081 16.0367 1.43324C15.7448 1.4132 15.6609 1.51218 15.6697 1.80034C15.6872 2.82894 15.691 3.85755 15.6697 4.88616C15.6697 5.21942 15.7661 5.29835 16.0881 5.2971C18.1453 5.28332 20.2025 5.28833 22.2598 5.28958C22.8862 5.28958 23.0453 5.41487 23.2257 6.00998C23.1117 6.5174 22.7972 6.70909 22.2798 6.70407C20.6248 6.68528 18.9697 6.70407 17.3147 6.68779C16.9651 6.68779 16.8674 6.77173 16.8749 7.12629C16.9025 8.35786 16.9238 9.59445 16.6669 10.811C16.3988 12.0764 16.0806 13.3318 15.8526 14.6034C15.5318 16.3975 15.7273 18.2167 15.6797 20.0246C15.6759 20.0713 15.6759 20.1182 15.6797 20.1649C15.6997 20.3128 15.805 20.3278 15.9215 20.309C16.0631 20.2864 16.0305 20.1837 16.0067 20.0923C15.7837 19.2629 16.0393 18.56 16.5792 17.9336C17.1906 17.3798 17.9286 17.262 18.7091 17.3071C18.9221 17.3209 19.0549 17.3146 19.001 17.0114C18.7279 15.4641 19.7064 14.3065 21.28 14.3015C23.0591 14.3015 24.8382 14.3015 26.6185 14.3015C27.399 14.3015 28.1796 14.3015 28.9601 14.3015C29.0992 14.3015 29.2596 14.3616 29.3072 14.1123C29.5828 12.674 29.0403 11.3159 27.8037 10.5003C26.9906 9.96279 26.4694 9.2474 26.3065 8.28394C26.2877 7.95763 26.2877 7.63051 26.3065 7.3042C26.3566 6.83437 26.2238 6.61637 25.7114 6.69155C25.199 6.76672 24.8795 6.5174 24.768 6.00998C24.9522 5.41738 25.1176 5.29209 25.7427 5.29209C26.086 5.29209 26.4293 5.29209 26.7726 5.29209C26.9568 5.29209 27.072 5.26327 27.0608 5.04151C27.0407 4.6218 27.037 4.20209 27.0257 3.78864C27.0357 3.10207 27.0407 2.41675 27.062 1.73143C27.0683 1.5009 26.9806 1.44202 26.7613 1.44327C23.5916 1.44744 20.4214 1.45079 17.2508 1.45329V1.45454ZM24.7755 42.0476C24.8858 41.5377 25.2053 41.3522 25.7214 41.3572C27.3878 41.3748 29.0541 41.3572 30.7217 41.3698C31.0136 41.3698 31.1476 41.3121 31.1226 40.9939C31.0912 40.5905 31.105 40.1845 31.0988 39.7799C31.09 38.4017 31.3493 37.0524 31.6713 35.7118C32.0246 34.2246 32.3629 32.7325 32.3291 31.1852C32.3228 30.8795 32.2752 30.7417 31.9244 30.7479C30.6289 30.768 29.3322 30.7605 28.0405 30.7479C27.8012 30.7479 27.7047 30.8081 27.6308 31.0599C27.285 32.2464 26.2464 32.8715 25.0274 32.6385C24.7893 32.5934 24.7066 32.5884 24.6239 32.8628C24.1378 34.4915 22.3562 35.019 21.037 33.9377C20.9766 33.8789 20.9053 33.8326 20.827 33.8015C20.7488 33.7703 20.6651 33.7549 20.5809 33.7561C20.2226 33.7711 19.863 33.7724 19.5047 33.7799C18.6828 33.721 18.6828 33.721 18.6866 34.5103C18.6866 34.5717 18.6866 34.6356 18.6866 34.697C18.6665 35.9599 19.1088 36.9684 20.2514 37.6149C20.669 37.8625 21.0186 38.2099 21.2687 38.626C21.701 39.3063 21.7386 40.068 21.6997 40.8335C21.6784 41.257 21.7974 41.3998 22.236 41.376C22.8937 41.3397 23.024 41.4587 23.227 42.0501C23.0503 42.6452 22.8862 42.7692 22.2635 42.7717C21.9365 42.7717 21.6083 42.788 21.2825 42.7717C21.0132 42.7554 20.933 42.8544 20.9392 43.1175C20.9543 43.8028 20.9392 44.4882 20.9468 45.1735C20.9555 45.6383 20.7438 46.2735 21.0244 46.5241C21.3652 46.8285 21.9992 46.6118 22.5053 46.6118C25.6793 46.6168 28.8532 46.6231 32.0271 46.6306C32.2476 46.6306 32.3303 46.5667 32.3241 46.3399C32.3065 45.6558 32.3053 44.9718 32.2978 44.2864C32.3053 43.9457 32.2915 43.6011 32.3278 43.2629C32.3692 42.887 32.2476 42.7617 31.8505 42.7617C29.8133 42.7818 27.7736 42.7717 25.7352 42.7705C25.1163 42.7717 24.9522 42.6464 24.7755 42.0501V42.0476Z" fill="#040303"/>
<path d="M17.3586 19.5296C17.425 18.9683 17.6643 18.7316 18.2356 18.7228C19.0926 18.709 19.9495 18.7228 20.8065 18.7228C22.9564 18.7228 25.1064 18.7228 27.2563 18.7228C27.8727 18.7228 28.1746 18.4522 28.1471 17.9711C28.1308 17.6892 27.9554 17.5238 27.7512 17.3722C27.6998 16.762 27.4718 16.544 26.8666 16.5428C24.695 16.5428 22.5275 16.5428 20.3642 16.5428C20.4369 15.9489 20.6887 15.7272 21.3315 15.7259C23.4689 15.7259 25.6075 15.7134 27.7449 15.7259C29.3674 15.7372 30.9911 15.6583 32.6123 15.7823C33.6585 15.8625 34.6683 16.1406 35.6844 16.3736C37.0249 16.6793 38.3668 16.9462 39.7487 16.9425C39.7487 19.4106 39.7487 21.8788 39.7487 24.3469C39.7487 25.0736 39.4542 25.5196 38.7827 25.7865C38.1217 26.0297 37.5525 26.4723 37.154 27.0531C36.4323 28.1268 35.4313 28.5791 34.1308 28.5566C31.7265 28.5115 29.3198 28.5428 26.9143 28.5428C27.1047 27.9978 27.3791 27.7773 27.9767 27.7623C28.7384 27.7422 29.4989 27.7623 30.2607 27.7522C30.9372 27.7522 31.144 27.5342 31.1515 26.8589C31.1984 26.8549 31.2436 26.8396 31.2833 26.8143C31.323 26.789 31.356 26.7544 31.3795 26.7136C31.4521 26.6031 31.4942 26.4754 31.5017 26.3435C31.5092 26.2115 31.4817 26.0799 31.4221 25.9619C31.2517 25.6173 30.9535 25.5497 30.6002 25.5497C25.9921 25.5497 21.3832 25.5497 16.7735 25.5497C16.8299 24.9583 17.0654 24.7591 17.742 24.7579C20.1408 24.7579 22.5396 24.7579 24.9385 24.7579H26.7138C27.131 24.7579 27.4655 24.6075 27.5445 24.1678C27.6209 23.7531 27.3903 23.4912 27.007 23.3546C26.9268 22.742 26.715 22.5528 26.0911 22.5516L14.9543 22.5428C15.0558 21.9314 15.2713 21.7497 15.9391 21.7485C19.103 21.7485 22.2665 21.7485 25.4296 21.7485C25.8493 21.7485 26.2703 21.7485 26.6912 21.7485C27.1122 21.7485 27.443 21.6232 27.5407 21.1834C27.6384 20.7437 27.3716 20.4881 26.9907 20.3315C26.9381 19.7577 26.7125 19.5497 26.1137 19.5497C23.1953 19.5355 20.277 19.5288 17.3586 19.5296Z" fill="#FCDD9D"/>
<path d="M19.4996 33.7812C19.8579 33.7737 20.2175 33.7725 20.5758 33.7574C20.6601 33.7562 20.7437 33.7716 20.822 33.8028C20.9002 33.834 20.9716 33.8803 21.0319 33.9391C22.3512 35.0203 24.1327 34.4929 24.6188 32.8641C24.7015 32.5897 24.7842 32.5948 25.0223 32.6399C26.2413 32.8729 27.2774 32.2477 27.6257 31.0612C27.6997 30.8107 27.7961 30.7468 28.0354 30.7493C29.3321 30.758 30.6289 30.7656 31.9193 30.7493C32.2701 30.7493 32.3177 30.8808 32.324 31.1865C32.3578 32.7338 32.0195 34.226 31.6662 35.7132C31.348 37.0537 31.0849 38.3981 31.0937 39.7812C28.6418 39.7812 26.1899 39.7612 23.7381 39.7988C23.4191 39.8062 23.1055 39.7157 22.8396 39.5394C22.5737 39.3631 22.3682 39.1095 22.2509 38.8128C21.9946 38.1587 21.5542 37.5929 20.983 37.184C20.6208 36.9413 20.3008 36.6408 20.0359 36.2945C19.4858 35.524 19.4721 34.6607 19.4996 33.7812Z" fill="#DEA673"/>
<path d="M26.3177 8.2828C26.4806 9.24876 27.0018 9.96165 27.8149 10.4991C29.0489 11.3147 29.5914 12.6729 29.3183 14.1112C29.2707 14.3617 29.1103 14.2991 28.9713 14.3003C28.1907 14.3003 27.4102 14.3003 26.6296 14.3003C24.8493 14.3003 23.0702 14.3003 21.2912 14.3003C19.7176 14.3003 18.7391 15.463 19.0122 17.0103C19.0661 17.3135 18.9333 17.3198 18.7203 17.306C17.9347 17.2559 17.1968 17.3736 16.5904 17.9324C16.5641 17.8785 16.514 17.8247 16.514 17.7695C16.5077 16.5568 16.4639 15.3465 16.7483 14.1462C17.0991 12.6678 17.4724 11.1907 17.6253 9.67474C17.7067 8.87917 18.3131 8.2828 19.1037 8.28155C21.5075 8.28071 23.9122 8.28113 26.3177 8.2828Z" fill="#F4D08F"/>
<path d="M8.25255 21.7123C9.21727 21.5494 9.9289 21.027 10.4664 20.2164C11.2895 18.976 12.6363 18.4373 14.0759 18.7129C14.2475 18.7467 14.2688 18.8307 14.2688 18.9635C14.2688 19.5411 14.2688 20.1186 14.2688 20.695C14.2617 20.8187 14.208 20.935 14.1185 21.0207C13.3242 22.0092 13.3116 23.0428 14.0997 23.9925C14.2177 24.132 14.2782 24.3112 14.2688 24.4937C14.2688 25.3815 14.2688 26.2707 14.2688 27.161C14.2688 28.8061 15.3964 29.7695 17.0164 29.4951C17.2582 29.4538 17.2807 29.5277 17.2757 29.7182C17.255 30.3486 17.4796 30.9625 17.9022 31.4308C17.8379 31.4694 17.7676 31.4969 17.6942 31.5123C16.3235 31.5411 14.9667 31.496 13.6173 31.1765C12.3983 30.8883 11.1855 30.5613 9.92138 30.4624C8.76874 30.3734 8.21497 29.8848 8.23877 28.5831C8.27886 26.3028 8.2513 24.0076 8.25255 21.7123Z" fill="#EABC82"/>
<path d="M26.9105 28.5303C29.316 28.5303 31.7228 28.499 34.127 28.5441C35.4275 28.5679 36.4285 28.1156 37.1502 27.0406C37.5487 26.4599 38.1179 26.0172 38.7789 25.774C39.4505 25.5071 39.7449 25.0611 39.7449 24.3344C39.7449 21.8663 39.7449 19.3981 39.7449 16.93C40.1496 16.9237 40.5567 16.9387 40.9602 16.9062C41.2847 16.8798 41.3423 17.0127 41.336 17.3046C41.3235 18.9746 41.3285 20.6447 41.336 22.3161C41.336 22.9425 41.4613 23.0941 42.0765 23.2545V24.808C41.4638 24.9659 41.2997 25.1262 41.3473 25.7452C41.3861 26.2563 41.2007 26.3716 40.7296 26.3428C40.0418 26.2964 39.3515 26.3353 38.725 26.6886C38.2416 26.9514 37.8391 27.3413 37.5611 27.8162C36.9234 28.9199 35.9424 29.3522 34.7071 29.3472C32.3166 29.3359 29.9274 29.3472 27.5369 29.3472C26.9268 29.3397 26.7501 29.1029 26.9105 28.5303Z" fill="#F4D08F"/>
<path d="M26.3178 8.28266C23.9114 8.28266 21.5051 8.28266 19.0987 8.28266C18.3082 8.28266 17.7018 8.88028 17.6204 9.67585C17.465 11.1918 17.0916 12.669 16.7433 14.1473C16.4589 15.3476 16.5028 16.5579 16.5091 17.7707C16.5091 17.8258 16.5592 17.8797 16.5855 17.9335C16.0455 18.56 15.7899 19.2628 16.0129 20.0922C16.0367 20.1774 16.0693 20.2864 15.9277 20.309C15.8112 20.3278 15.706 20.309 15.6859 20.1649C15.6822 20.1182 15.6822 20.0713 15.6859 20.0246C15.7285 18.2167 15.5381 16.3912 15.8588 14.6034C16.0868 13.3317 16.4051 12.0764 16.6732 10.811C16.9238 9.59441 16.9087 8.35783 16.8812 7.12626C16.8736 6.77169 16.9714 6.68399 17.3209 6.68775C18.976 6.7078 20.631 6.68775 22.286 6.70404C22.8035 6.70404 23.118 6.51736 23.232 6.00995H24.783C24.8945 6.51736 25.2128 6.76167 25.7264 6.69151C26.2401 6.62135 26.3717 6.83434 26.3215 7.30417C26.3015 7.62999 26.3003 7.95669 26.3178 8.28266Z" fill="#EABC82"/>
<path d="M8.2527 21.7122C8.2527 24.0074 8.27901 26.3027 8.23766 28.5967C8.21386 29.8997 8.76763 30.3883 9.92027 30.476C11.1844 30.575 12.3972 30.902 13.6162 31.1901C14.9656 31.5096 16.3224 31.5547 17.6931 31.5259C17.7665 31.5106 17.8368 31.483 17.9011 31.4445C18.5275 31.9819 19.2291 32.2425 20.0597 32.017C20.1475 31.9932 20.2527 31.9682 20.2727 32.1097C20.289 32.2288 20.2727 32.3315 20.1211 32.344C20.0435 32.3515 19.9645 32.344 19.8869 32.3503C17.0378 32.4518 14.2151 32.314 11.4525 31.5184C10.0405 31.1124 8.58471 31.1112 7.13263 31.1563C6.73297 31.1688 6.64777 31.0423 6.65278 30.6627C6.67408 29.0402 6.6628 27.4165 6.66155 25.7928C6.66155 25.1375 6.56884 25.0085 5.97247 24.803C5.97247 24.2868 5.97247 23.7706 5.97247 23.2544C6.57636 23.0477 6.68035 22.9237 6.65153 22.2208C6.63649 21.845 6.73171 21.6909 7.13263 21.7197C7.50588 21.736 7.87971 21.7335 8.2527 21.7122Z" fill="#DEA673"/>
<path d="M22.5004 46.6081C21.9992 46.6081 21.3603 46.8248 21.0195 46.5204C20.7388 46.2698 20.9506 45.6346 20.9418 45.1698C20.9305 44.4845 20.9493 43.7992 20.9343 43.1138C20.928 42.8507 21.0082 42.7518 21.2776 42.768C21.6033 42.7893 21.9316 42.7743 22.2586 42.768C22.885 42.768 23.0454 42.6428 23.222 42.0464H24.7756C24.9522 42.6428 25.1164 42.768 25.7353 42.7693C27.7737 42.7693 29.8134 42.7806 31.8505 42.7605C32.2477 42.7605 32.3692 42.8745 32.3279 43.2617C32.2915 43.5999 32.3053 43.9445 32.2978 44.2853C31.2955 44.2853 30.3007 44.2652 29.3022 44.2853C27.7148 44.3204 26.1287 44.2326 24.5413 44.3492C23.9817 44.406 23.4631 44.6685 23.0861 45.0858C22.709 45.5032 22.5003 46.0456 22.5004 46.6081Z" fill="#B0E19C"/>
<path d="M24.7754 6.00882H23.2244C23.044 5.41747 22.8811 5.29218 22.2584 5.29218C20.2012 5.29218 18.144 5.29218 16.0868 5.2997C15.7648 5.2997 15.662 5.22202 15.6683 4.88875C15.6908 3.86015 15.6871 2.83154 15.6683 1.80293C15.6683 1.51477 15.7435 1.4158 16.0354 1.43584C16.4388 1.4634 16.8447 1.45213 17.2494 1.45714C17.2369 2.28654 17.5902 2.90796 18.273 3.37779C18.7942 3.73486 19.3868 3.76743 19.9656 3.7737C22.3185 3.79876 24.6714 3.78372 27.0243 3.78372C27.0356 4.20343 27.0394 4.62315 27.0594 5.03659C27.0707 5.2596 26.9554 5.29343 26.7712 5.28717C26.428 5.2784 26.0847 5.28717 25.7414 5.28717C25.1175 5.29218 24.9521 5.41747 24.7754 6.00882Z" fill="#C0D9FB"/>
<path d="M42.0776 24.808V23.2544C42.5788 23.1291 42.7529 22.7858 42.7492 22.2797C42.7354 20.2337 42.7492 18.1878 42.7341 16.1406C42.7341 15.7861 42.8269 15.6683 43.1777 15.7034C43.5285 15.7384 43.8943 15.7272 44.2526 15.7359C44.2526 17.4511 44.2363 19.1676 44.2526 20.8827C44.2626 21.7835 44.1862 22.6844 44.3278 23.5864C44.5095 24.7391 45.3865 25.5271 46.5742 25.5284C46.5742 25.9318 46.5742 26.3377 46.5942 26.7412C46.6068 26.9917 46.5366 27.102 46.2597 27.0982C45.2023 27.084 44.144 27.084 43.0849 27.0982C42.8269 27.0982 42.7179 27.0318 42.7354 26.7574C42.7567 26.4317 42.7254 26.1034 42.7442 25.7777C42.7742 25.2753 42.585 24.937 42.0776 24.808Z" fill="#FB7E84"/>
<path d="M5.23821 30.7793C5.23821 31.2003 5.23821 31.6212 5.25951 32.0409C5.27329 32.2915 5.17807 32.3579 4.93752 32.3554C3.86172 32.3446 2.7855 32.3446 1.70887 32.3554C1.44953 32.3554 1.40192 32.2552 1.40192 32.0247C1.4086 28.4531 1.4086 24.8812 1.40192 21.3088C1.40192 21.0432 1.47959 20.9493 1.7452 20.9643C2.16366 20.9894 2.58463 20.9881 2.99807 20.9969C2.99807 23.5185 2.99807 26.0405 2.99807 28.563C2.99933 29.8484 3.94399 30.7806 5.23821 30.7793Z" fill="#D3BAEC"/>
<path d="M5.23815 30.7793C3.94393 30.7793 2.99927 29.8472 2.99927 28.563C2.99927 26.0414 2.99927 23.5193 2.99927 20.9969C3.65327 20.9881 4.30726 20.9856 4.96001 20.9656C5.18302 20.9656 5.26571 21.032 5.25569 21.2587C5.2394 21.602 5.25569 21.9453 5.25569 22.2886C5.25569 22.915 5.38098 23.0742 5.97358 23.2558C5.97358 23.772 5.97358 24.2882 5.97358 24.8044C5.37972 24.9885 5.25945 25.1502 5.25694 25.7741C5.25026 27.4429 5.24399 29.1113 5.23815 30.7793Z" fill="#E9D0FD"/>
<path d="M24.7755 42.0501H23.222C23.019 41.4587 22.8887 41.3397 22.2309 41.376C21.7924 41.3998 21.6734 41.257 21.6947 40.8335C21.7336 40.068 21.6947 39.3063 21.2637 38.626C21.0134 38.2104 20.6638 37.8634 20.2464 37.6161C19.1038 36.9697 18.6615 35.9611 18.6816 34.6982C18.6816 34.6356 18.6816 34.5729 18.6816 34.5115C18.6816 33.7222 18.6816 33.7222 19.4997 33.7811C19.4721 34.6581 19.4859 35.5238 20.0409 36.2868C20.3059 36.6332 20.6258 36.9337 20.9881 37.1764C21.5593 37.5853 21.9997 38.151 22.256 38.8051C22.3733 39.1018 22.5787 39.3555 22.8447 39.5318C23.1106 39.7081 23.4242 39.7986 23.7432 39.7911C26.195 39.7535 28.6469 39.7748 31.0988 39.7736C31.105 40.1783 31.0913 40.5842 31.1226 40.9876C31.1476 41.3109 31.0136 41.371 30.7217 41.3635C29.0541 41.3522 27.3878 41.3635 25.7214 41.3509C25.2053 41.3547 24.8858 41.5401 24.7755 42.0501Z" fill="#C08A64"/>
<path d="M27.0257 3.77982C24.6728 3.77982 22.3199 3.79486 19.967 3.7698C19.3882 3.76354 18.7956 3.73096 18.2744 3.37389C17.5916 2.90407 17.2383 2.28264 17.2508 1.45324C20.4248 1.44823 23.5949 1.44197 26.7614 1.43445C26.9806 1.43445 27.0683 1.49208 27.062 1.72261C27.0407 2.41043 27.0357 3.09325 27.0257 3.77982Z" fill="#DAE9FE"/>
<path d="M46.5767 25.5297C45.389 25.5297 44.512 24.7404 44.3303 23.5878C44.1888 22.6857 44.2652 21.7849 44.2552 20.8841C44.2364 19.1689 44.2552 17.4525 44.2552 15.7373C44.9417 15.7285 45.6333 15.7273 46.3149 15.7072C46.5529 15.7072 46.598 15.8049 46.5968 16.0154C46.5859 19.1869 46.5792 22.3583 46.5767 25.5297Z" fill="#FE999E"/>
<path d="M22.5004 46.6081C22.5012 46.0467 22.7099 45.5054 23.0864 45.0889C23.4629 44.6725 23.9803 44.4102 24.5388 44.3529C26.1287 44.2364 27.7148 44.3241 29.2997 44.289C30.302 44.2665 31.2968 44.289 32.2953 44.289C32.3028 44.9743 32.3041 45.6584 32.3216 46.3425C32.3279 46.5692 32.2452 46.6344 32.0247 46.6331C28.8508 46.6189 25.676 46.6106 22.5004 46.6081Z" fill="#CBF39E"/>
<path d="M16.7697 25.5334C21.3786 25.5334 25.9875 25.5334 30.5964 25.5334C30.9497 25.5334 31.2478 25.601 31.4182 25.9456C31.4779 26.0636 31.5053 26.1952 31.4978 26.3271C31.4904 26.4591 31.4482 26.5868 31.3756 26.6973C31.3522 26.7381 31.3192 26.7726 31.2795 26.7979C31.2398 26.8233 31.1945 26.8386 31.1476 26.8426C30.9659 26.3741 30.5801 26.3315 30.1453 26.3327C26.0234 26.3377 21.901 26.3377 17.7782 26.3327C17.0653 26.3402 16.8223 26.1385 16.7697 25.5334Z" fill="#EABC82"/>
<path d="M14.9504 22.5255L26.0872 22.5342C26.7137 22.5342 26.9229 22.7247 27.0031 23.3373C23.3413 23.3373 19.6784 23.3373 16.0141 23.3373C15.2712 23.3336 15.0432 23.1569 14.9504 22.5255Z" fill="#EABC82"/>
<path d="M17.3585 19.5297C20.2769 19.5297 23.1948 19.5297 26.1123 19.5297C26.7087 19.5297 26.9342 19.7376 26.9893 20.3115C24.1077 20.3115 21.2261 20.3115 18.3445 20.3115C17.6717 20.3165 17.4462 20.126 17.3585 19.5297Z" fill="#F4D08F"/>
<path d="M20.363 16.5292C22.5346 16.5292 24.7021 16.5292 26.8654 16.5292C27.4705 16.5292 27.6985 16.7484 27.7499 17.3586C27.4567 17.3423 27.1623 17.311 26.8729 17.311C25.0199 17.311 23.1669 17.311 21.3139 17.311C20.6724 17.306 20.4582 17.1155 20.363 16.5292Z" fill="#F4D08F"/>
<path d="M22.5104 33.0745C21.9592 33.0018 21.7074 32.78 21.6998 32.2588C21.6823 30.8456 21.6998 29.4324 21.6898 28.0179C21.6898 27.8274 21.7424 27.7172 21.9517 27.7385C22.1333 27.7573 22.3275 27.6884 22.4979 27.7873L22.5104 33.0745Z" fill="#EABC82"/>
<path d="M22.5104 33.0745L22.4979 27.7874C23.2934 27.7711 23.2934 27.7711 23.2934 28.5842C23.2934 29.7656 23.2934 30.9484 23.2934 32.1298C23.2872 32.765 23.103 32.9805 22.5104 33.0745Z" fill="#F4D08F"/>
<path d="M25.4958 31.2603C24.9871 31.2127 24.729 31.0097 24.7115 30.5224C24.6683 29.6797 24.6683 28.8354 24.7115 27.9928C24.7478 27.4491 25.234 27.7748 25.4971 27.7497C25.7978 27.7209 25.586 27.979 25.5547 28.0767C25.3825 28.6168 25.4088 29.2006 25.6286 29.723C25.4607 29.8245 25.5033 29.9911 25.5033 30.1415C25.4921 30.5148 25.4958 30.8869 25.4958 31.2603Z" fill="#DEA673"/>
<path d="M19.501 30.6716C18.976 30.6077 18.7154 30.3822 18.6941 29.8885C18.6666 29.2621 18.6941 28.6357 18.6804 28.0167C18.6804 27.82 18.7405 27.7223 18.946 27.7373C19.1314 27.7511 19.3218 27.7586 19.5035 27.7687C19.5027 28.7376 19.5018 29.7052 19.501 30.6716Z" fill="#EABC82"/>
<path d="M19.5009 30.6715C19.5009 29.7043 19.5009 28.7367 19.5009 27.7686C20.2814 27.696 20.2814 27.696 20.2814 28.4728C20.2814 28.9388 20.2939 29.4061 20.2751 29.871C20.2576 30.3784 20.0371 30.5901 19.5009 30.6715Z" fill="#F4D08F"/>
<path d="M25.496 31.2603C25.496 30.8844 25.496 30.5086 25.496 30.1415C25.496 29.9911 25.4584 29.8245 25.6213 29.723C25.734 29.8696 25.8393 30.0225 25.9608 30.1603C26.1162 30.3369 26.3918 30.4484 26.2415 30.7654C26.0911 31.0824 25.8781 31.2966 25.496 31.2603Z" fill="#F4D08F"/>
<path d="M16.499 28.152C15.83 28.1031 15.6533 27.8262 15.6834 26.8289L16.499 27.5017V28.152Z" fill="#DEA673"/>
<path d="M16.4991 28.1519V27.5016L17.1632 27.7309C17.119 27.8676 17.0285 27.9844 16.9072 28.0613C16.7859 28.1382 16.6416 28.1702 16.4991 28.1519Z" fill="#F4D08F"/>
</g>
<defs>
<clipPath id="clip0_209_3188">
<rect width="48" height="48" fill="white" transform="translate(0 0.0300293)"/>
</clipPath>
</defs>
</svg>
