<svg width="48" height="48" viewBox="0 0 48 48" fill="none" xmlns="http://www.w3.org/2000/svg">
<g clip-path="url(#clip0_93_544)">
<path d="M10.0226 18.9613C10.844 17.5346 12.0533 16.7893 13.696 16.7973C14.1292 16.8005 14.5573 16.8912 14.9546 17.0639C15.1866 17.1626 15.2533 17.1026 15.3 16.8599C15.5026 15.7839 15.772 14.7266 15.936 13.6386C16.0693 12.7639 16.5546 12.2319 17.3067 11.8853C18.72 11.2306 20.2173 11.1266 21.7413 11.2586C22.6211 11.3139 23.4816 11.5403 24.2746 11.9253C24.976 12.2853 25.42 12.8079 25.5653 13.6333C25.868 15.3666 26.248 17.0773 26.6013 18.8213C26.7746 18.7693 26.804 18.6346 26.868 18.5333C27.3693 17.6733 27.8466 16.7999 28.3706 15.9533C30.204 12.9813 33.7333 11.7493 36.9973 12.9333C37.3186 13.0506 37.4533 13.0079 37.6053 12.7186C37.8893 12.1746 38.208 11.6519 38.5173 11.1186C39.268 9.83194 40.6933 9.39994 41.8786 10.0986C43.064 10.7973 43.408 12.2319 42.6693 13.5226C41.3484 15.8239 40.0213 18.1217 38.688 20.4159C38.632 20.5146 38.5746 20.6106 38.4733 20.7826C38.956 20.7826 39.3773 20.7826 39.7986 20.7826C40.82 20.7919 41.4773 21.4493 41.5066 22.4559C41.6133 26.0173 40.2467 28.8159 37.1973 30.7226C35.8893 31.5306 34.3814 31.9569 32.844 31.9533C31.832 31.9653 30.8213 31.9533 29.7626 31.9533C30.0986 33.3159 30.4213 34.6346 30.7493 35.9533C31.3106 38.2053 31.884 40.4559 32.4306 42.7119C32.5133 43.0506 32.6466 43.1653 32.9933 43.1386C33.3573 43.0985 33.7254 43.1192 34.0826 43.1999C34.6502 43.3354 35.1486 43.6738 35.4839 44.1514C35.8191 44.6291 35.9679 45.2129 35.9023 45.7927C35.8367 46.3725 35.5612 46.9083 35.1277 47.2989C34.6942 47.6896 34.1328 47.9081 33.5493 47.9133C31.7533 47.9306 29.9573 47.9133 28.1626 47.9133C21.4613 47.9133 14.7609 47.9133 8.06131 47.9133C6.14265 47.9133 4.96132 45.9586 5.89865 44.3426C6.39065 43.4933 7.15998 43.1106 8.14132 43.1239C8.95732 43.1346 8.95865 43.1239 9.15465 42.3386C9.97731 39.0399 10.792 35.7399 11.6333 32.4466C11.748 31.9973 11.6333 31.9466 11.2173 31.9426C9.80798 31.9319 8.39465 32.0533 6.99198 31.7693C3.02798 30.9693 0.0586478 27.4119 -0.00268555 23.3693C-0.00268555 23.1199 -0.00268555 22.8706 -0.00268555 22.6213C-0.00268555 21.5733 0.378648 21.0746 1.38665 20.7893C1.44798 20.7719 1.56398 20.7613 1.56531 20.7426C1.58398 20.4133 1.58398 20.0839 1.59865 19.7533C1.61331 19.4226 1.63865 19.1719 1.16531 19.0439C0.305315 18.8159 -0.0880189 17.8666 0.254648 16.9933C0.861315 15.4666 2.00931 14.6146 3.63065 14.4226C3.75043 14.4131 3.86713 14.3799 3.97401 14.3249C4.08089 14.27 4.17582 14.1944 4.25331 14.1026C6.26665 11.9319 9.82398 12.5933 10.8906 15.3333C11.2653 16.2946 10.9066 17.1386 9.93598 17.4919C9.68131 17.5853 9.62931 17.7039 9.68531 17.9253C9.77331 18.2666 9.81731 18.6306 10.0226 18.9613ZM22.204 36.7706C22.4706 37.2266 22.712 37.6959 23.004 38.1346C23.892 39.4799 23.9133 40.8106 22.9853 42.1413C22.55 42.5806 22.0233 42.9188 21.4426 43.1319H23.976C24.7427 43.1319 24.7427 43.1319 24.7427 42.3906C24.7427 41.5613 24.7427 41.5613 25.5427 41.5199C26.3427 41.5599 26.3427 41.5599 26.3427 42.3826C26.3427 43.1319 26.3426 43.1319 27.092 43.1319C27.9133 43.1319 27.9133 43.1319 27.956 43.9319C27.9146 44.7319 27.9146 44.7319 27.0813 44.7319C20.7818 44.7319 14.4818 44.7319 8.18132 44.7319C7.55065 44.7319 7.18931 45.0306 7.19065 45.5319C7.19198 46.0333 7.54665 46.3319 8.13465 46.3319C16.5471 46.3319 24.9587 46.3319 33.3693 46.3319C33.9587 46.3319 34.3146 46.0266 34.32 45.5426C34.3253 45.0586 33.968 44.7426 33.3867 44.7426C32.3893 44.7426 31.3867 44.7426 30.3947 44.7426C29.5627 44.7426 29.5627 44.7426 29.5213 43.9426C29.5627 43.1426 29.5626 43.1426 30.3933 43.1426C30.443 43.1386 30.493 43.1386 30.5427 43.1426C30.872 43.1946 30.8893 43.0266 30.824 42.7706C29.9786 39.4293 29.1342 36.0875 28.2906 32.7453C28.1333 31.9599 28.1333 31.9599 27.3333 31.9599C22.8506 31.9599 18.3666 31.9599 13.884 31.9493C13.484 31.9493 13.304 32.0573 13.276 32.4426C13.2637 32.5414 13.2454 32.6394 13.2213 32.7359C12.3778 36.0675 11.5355 39.3951 10.6946 42.7186C10.6146 43.0333 10.6653 43.1466 11.0253 43.1399C12.2698 43.1186 13.5142 43.1186 14.7586 43.1399C15.0906 43.1399 15.172 43.0453 15.1666 42.7239C15.1493 41.5119 15.1453 40.2986 15.1666 39.0853C15.1882 37.619 15.7856 36.2201 16.8297 35.1905C17.8738 34.1609 19.281 33.5832 20.7474 33.5821C22.2138 33.5811 23.6218 34.1568 24.6674 35.1849C25.713 36.213 26.3123 37.6111 26.336 39.0773C26.352 39.9093 26.352 39.9093 25.536 39.9533C24.7493 39.9093 24.7493 39.9093 24.736 39.1279C24.736 39.0786 24.736 39.0279 24.736 38.9786C24.6929 38.0075 24.2985 37.0851 23.6263 36.3829C22.954 35.6807 22.0497 35.2466 21.0813 35.1613C19.0533 34.9999 17.1853 36.3799 16.856 38.3746C16.6093 39.8693 16.804 41.3893 16.7586 42.8973C16.7586 43.0653 16.812 43.1346 16.9866 43.1346C17.9826 43.1346 18.9786 43.1346 19.9746 43.1346C17.7466 42.2999 17.2813 39.8626 18.4653 38.2013C18.7427 37.8093 18.9653 37.3799 19.2133 36.9679C20.0307 35.6079 21.2267 35.5319 22.204 36.7706ZM20.7733 22.3826H2.02531C1.79598 22.3826 1.59998 22.3319 1.58665 22.7133C1.43198 26.9799 4.63065 30.3573 8.88931 30.3613C16.8004 30.3693 24.7115 30.3693 32.6227 30.3613C33.1381 30.3667 33.6527 30.3162 34.1573 30.2106C37.576 29.4679 39.8906 26.5999 39.908 23.1013C39.908 22.3799 39.908 22.3799 39.172 22.3799L20.7733 22.3826ZM16.7293 17.8839C16.7874 17.8903 16.8459 17.8903 16.904 17.8839C17.4227 17.6775 17.9793 17.5828 18.5371 17.6062C19.095 17.6296 19.6416 17.7705 20.1413 18.0197C20.6409 18.2689 21.0823 18.6208 21.4366 19.0523C21.7909 19.4839 22.0502 19.9853 22.1973 20.5239C22.256 20.7533 22.3733 20.7906 22.5826 20.7906C23.3826 20.7813 24.1827 20.7746 24.976 20.7906C25.2947 20.7986 25.3666 20.7293 25.2973 20.4013C24.992 18.9719 24.716 17.5386 24.4333 16.1053C24.28 15.3293 24.284 15.3293 23.508 15.5866C23.3826 15.6279 23.2547 15.6653 23.1253 15.6986C21.3163 16.1891 19.3998 16.108 17.6386 15.4666C17.4786 15.4093 17.2586 15.1999 17.1853 15.5559C17.0293 16.3133 16.8866 17.0759 16.7293 17.8839ZM34.476 14.0866C32.4466 14.1639 30.848 15.0199 29.752 16.7533C29.42 17.2773 29.5026 17.6866 30.008 17.9813C31.048 18.6013 32.1067 19.1906 33.1507 19.8053C33.3587 19.9279 33.4613 19.8919 33.5787 19.6879C34.5182 18.0462 35.4649 16.4093 36.4187 14.7773C36.564 14.5266 36.4946 14.4359 36.2426 14.3626C35.672 14.1781 35.0757 14.085 34.476 14.0866ZM34.7853 20.7853C35.3746 20.7853 35.872 20.7853 36.3693 20.7853C36.452 20.7927 36.5348 20.7742 36.6065 20.7324C36.6782 20.6906 36.7351 20.6275 36.7693 20.5519C38.2982 17.895 39.8293 15.2377 41.3626 12.5799C41.4181 12.4968 41.4557 12.4029 41.4729 12.3045C41.4901 12.206 41.4866 12.105 41.4627 12.0079C41.368 11.6773 41.176 11.4493 40.8227 11.3946C40.4053 11.3279 40.128 11.5279 39.9267 11.8773C39.1924 13.1564 38.4555 14.4342 37.716 15.7106L34.7853 20.7853ZM20.7586 12.7999C19.792 12.8226 18.8226 12.9146 17.9226 13.3613C17.8213 13.4119 17.6853 13.4559 17.6693 13.5799C17.6493 13.7466 17.8146 13.7853 17.9253 13.8466C18.536 14.1719 19.2053 14.2959 19.884 14.3586C21.1373 14.4759 22.3706 14.3986 23.5386 13.8706C23.6546 13.8186 23.8173 13.7706 23.8333 13.6293C23.8547 13.4426 23.66 13.4013 23.536 13.3426C22.6667 12.9213 21.7333 12.8226 20.7586 12.7999ZM12.8133 20.7853C13.244 20.7853 13.676 20.7666 14.1053 20.7919C14.372 20.8093 14.4853 20.7013 14.544 20.4573C14.642 20.0529 14.8236 19.6737 15.0773 19.3439C15.2426 19.1266 15.1933 18.9999 14.9933 18.8613C14.2546 18.3506 13.468 18.2346 12.64 18.5946C11.812 18.9546 11.3493 19.5999 11.1893 20.4746C11.1453 20.7106 11.22 20.7999 11.4706 20.7906C11.9173 20.7733 12.3653 20.7853 12.8133 20.7853ZM20.752 37.4919C20.3226 38.2239 19.9053 38.8586 19.5666 39.5333C19.4834 39.7012 19.4346 39.8841 19.4231 40.0711C19.4116 40.2582 19.4377 40.4457 19.4998 40.6225C19.562 40.7994 19.6589 40.962 19.7848 41.1008C19.9108 41.2395 20.0633 41.3517 20.2333 41.4306C20.4785 41.5348 20.7492 41.5632 21.0106 41.5121C21.272 41.461 21.5121 41.3327 21.7 41.1439C21.9013 40.9207 22.0304 40.6418 22.0703 40.3439C22.1103 40.046 22.0593 39.743 21.924 39.4746C21.5746 38.8346 21.1826 38.2186 20.752 37.4919ZM3.99198 17.6119V17.5999C4.63998 17.5999 5.28798 17.5919 5.93598 17.5999C6.21598 17.5999 6.25331 17.5146 6.11998 17.2853C5.64131 16.4533 4.91998 15.9973 3.96398 16.0079C3.03065 16.0173 2.33065 16.4786 1.86665 17.2959C1.69865 17.5919 1.83731 17.6226 2.09731 17.6186C2.72798 17.5999 3.35998 17.6119 3.99198 17.6119ZM18.308 20.7853C18.9746 20.7853 19.6333 20.7853 20.296 20.7853C20.52 20.7853 20.5933 20.7453 20.4893 20.5053C20.1706 19.7706 19.2506 19.1906 18.356 19.1879C17.4613 19.1853 16.5533 19.7559 16.2293 20.5013C16.1306 20.7293 16.176 20.7893 16.4146 20.7853C17.048 20.7799 17.6773 20.7853 18.308 20.7853ZM9.18798 20.7853C8.47998 19.7853 8.15865 18.7133 7.93998 17.5733C7.77598 18.3733 7.39732 18.9373 6.59598 19.1399C6.44132 19.1799 6.46265 19.3106 6.48265 19.4253C6.54619 19.8334 6.65762 20.2326 6.81465 20.6146C6.83148 20.6704 6.86743 20.7185 6.9162 20.7505C6.96497 20.7824 7.02343 20.7961 7.08132 20.7893C7.75065 20.7826 8.42265 20.7853 9.18798 20.7853ZM31.5653 20.7613C30.5893 20.0946 29.5266 19.6839 28.664 18.9573C28.5106 18.8239 28.468 18.9573 28.4107 19.0546C28.0907 19.6079 27.772 20.1626 27.4266 20.7613H31.5653ZM5.86665 14.8666C6.33092 15.1289 6.74345 15.4736 7.08398 15.8839C7.1228 15.9269 7.17149 15.9598 7.22584 15.9798C7.28019 15.9997 7.33858 16.0062 7.39598 15.9986C7.97598 15.9986 8.55598 15.9906 9.13598 15.9986C9.39465 15.9986 9.40265 15.9159 9.30931 15.7053C8.76531 14.4586 6.99865 14.0079 5.86665 14.8666ZM5.13731 20.7853C5.04398 20.3146 4.95331 19.8786 4.87065 19.4413C4.84531 19.2999 4.82398 19.1839 4.64131 19.1893C4.17998 19.2013 3.59731 19.0426 3.29198 19.2653C2.98665 19.4879 3.21331 20.0973 3.19065 20.5373C3.18131 20.7359 3.26931 20.7919 3.45731 20.7893C4.02398 20.7813 4.58398 20.7853 5.14265 20.7853H5.13731Z" fill="#020201"/>
<path d="M17.8667 0.0347054C18.8147 0.0347054 18.812 0.0347054 18.66 0.885372C18.5681 1.30621 18.4215 1.71322 18.224 2.09604C18.0468 2.4454 17.9544 2.83163 17.9544 3.22337C17.9544 3.61511 18.0468 4.00134 18.224 4.35071C18.9173 5.74137 18.9253 7.11604 18.2133 8.49737C18.1581 8.61789 18.1092 8.74116 18.0667 8.8667C17.9733 9.10404 18.0747 9.53337 17.872 9.5747C17.4293 9.67204 16.9493 9.6227 16.4867 9.5987C16.2853 9.58937 16.3693 9.3907 16.3787 9.2787C16.4206 8.73231 16.5696 8.19951 16.8173 7.71071C17.0319 7.31557 17.1449 6.87334 17.1463 6.42371C17.1477 5.97409 17.0374 5.53116 16.8253 5.1347C16.1987 3.86137 16.2067 2.58537 16.8253 1.30804C16.9187 1.11604 17.052 0.908039 17.048 0.709372C17.0413 0.0320388 17.412 -0.0679613 17.8667 0.0347054Z" fill="#040404"/>
<path d="M20.3239 9.61348C19.4986 9.61348 19.5026 9.61348 19.6453 8.78015C19.7333 8.35894 19.8782 7.95166 20.0759 7.56948C20.2574 7.2133 20.352 6.81923 20.352 6.41948C20.352 6.01974 20.2574 5.62566 20.0759 5.26948C19.3959 3.89615 19.3919 2.53481 20.0839 1.16548C20.191 0.97833 20.2573 0.770694 20.2786 0.556147C20.2906 0.112148 20.4879 -0.0478525 20.9106 0.0334808C20.9438 0.0368226 20.9773 0.0368226 21.0106 0.0334808C22.0893 0.0334808 22.0999 0.0334808 21.8106 1.08415C21.7028 1.43144 21.569 1.77016 21.4106 2.09748C21.0746 2.85348 21.0506 3.61348 21.4199 4.35481C22.1133 5.74548 22.1186 7.12015 21.4053 8.50148C21.3388 8.63506 21.2869 8.77543 21.2506 8.92015C21.0733 9.61215 21.0759 9.61348 20.3239 9.61348Z" fill="#040404"/>
<path d="M23.5173 9.61341C22.6906 9.61341 22.696 9.61341 22.8373 8.78141C22.9257 8.35989 23.0706 7.95222 23.268 7.56941C23.4492 7.2134 23.5437 6.81957 23.5437 6.42008C23.5437 6.02059 23.4492 5.62676 23.268 5.27075C22.5866 3.89741 22.5826 2.53475 23.276 1.16541C23.3828 0.978943 23.4479 0.771495 23.4666 0.557413C23.4666 0.0614132 23.7333 -0.0385868 24.1493 0.0347465C24.1657 0.036083 24.1822 0.036083 24.1986 0.0347465C25.2786 0.0347465 25.2893 0.0347466 24.9986 1.08408C24.8908 1.4318 24.7571 1.77096 24.5986 2.09875C24.2626 2.85475 24.24 3.61475 24.608 4.35475C25.3013 5.74541 25.308 7.12141 24.5946 8.50275C24.5278 8.63571 24.4759 8.77568 24.44 8.92008C24.2666 9.61208 24.2666 9.61341 23.5173 9.61341Z" fill="#040404"/>
<path d="M20.7734 22.3828H39.1734C39.912 22.3828 39.912 22.3828 39.9094 23.1041C39.8947 26.6028 37.5774 29.4708 34.1587 30.2134C33.6541 30.319 33.1395 30.3695 32.624 30.3641C24.7129 30.3641 16.8018 30.3641 8.89069 30.3641C4.63202 30.3641 1.43335 26.9881 1.58802 22.7161C1.60135 22.3348 1.79735 22.3854 2.02669 22.3854H20.7734V22.3828Z" fill="#FE9711"/>
<path d="M25.5427 39.9533C26.3547 39.9093 26.3547 39.9093 26.3427 39.0773C26.319 37.6111 25.7197 36.213 24.674 35.1849C23.6284 34.1568 22.2205 33.5811 20.7541 33.5822C19.2877 33.5832 17.8805 34.1609 16.8364 35.1905C15.7923 36.2201 15.1949 37.6191 15.1733 39.0853C15.1547 40.2986 15.1587 41.512 15.1733 42.7239C15.1733 43.0453 15.0973 43.1453 14.7653 43.1399C13.5209 43.1195 12.2765 43.1195 11.032 43.1399C10.672 43.1466 10.6213 43.0333 10.7013 42.7186C11.5422 39.3951 12.3805 36.0675 13.216 32.736C13.448 32.736 13.68 32.756 13.912 32.756C17.792 32.756 21.6729 32.756 25.5547 32.756C26.4653 32.756 27.3773 32.7426 28.2893 32.736C29.132 36.0773 29.9765 39.4191 30.8227 42.7613C30.888 43.0173 30.8707 43.1853 30.5413 43.1333C30.4916 43.1293 30.4417 43.1293 30.392 43.1333C29.5613 43.1333 29.5613 43.1333 29.52 43.9333H27.9533C27.9107 43.1333 27.9107 43.1333 27.0893 43.1333C26.34 43.1333 26.34 43.1333 26.34 42.384C26.34 41.5613 26.34 41.5613 25.54 41.5213L25.5427 39.9533Z" fill="#FD9711"/>
<path d="M27.9533 43.9294H29.516C29.5573 44.7294 29.5573 44.7294 30.3893 44.7294C31.3866 44.7294 32.3893 44.7294 33.3813 44.7294C33.9653 44.7294 34.3213 45.0454 34.3146 45.5294C34.308 46.0134 33.9533 46.3187 33.364 46.3187C24.9524 46.3187 16.5409 46.3187 8.12931 46.3187C7.54131 46.3187 7.18664 46.0094 7.18531 45.5187C7.18397 45.0281 7.54531 44.7187 8.17597 44.7187C14.4764 44.7187 20.7764 44.7187 27.076 44.7187C27.912 44.7294 27.912 44.7294 27.9533 43.9294Z" fill="#ED8600"/>
<path d="M16.7294 17.8841C16.8867 17.0761 17.0294 16.3134 17.1854 15.5521C17.2587 15.1947 17.4787 15.4054 17.6387 15.4627C19.3993 16.1059 21.3158 16.1888 23.1254 15.7001C23.2587 15.6667 23.3827 15.6294 23.508 15.5881C24.284 15.3307 24.28 15.3307 24.4334 16.1067C24.716 17.5401 24.992 18.9734 25.2974 20.4027C25.3667 20.7307 25.2974 20.8027 24.976 20.7921C24.176 20.7734 23.376 20.7801 22.5827 20.7921C22.3734 20.7921 22.256 20.7547 22.1974 20.5254C22.0502 19.9868 21.791 19.4853 21.4367 19.0538C21.0824 18.6223 20.641 18.2704 20.1413 18.0212C19.6417 17.772 19.095 17.6311 18.5372 17.6077C17.9793 17.5843 17.4228 17.6789 16.904 17.8854C16.8459 17.8913 16.7874 17.8909 16.7294 17.8841Z" fill="#EB8500"/>
<path d="M25.5427 39.9534V41.5201C24.7427 41.5614 24.7427 41.5614 24.7427 42.3907C24.7427 43.1321 24.7427 43.1321 23.976 43.1321H21.4427C22.0233 42.919 22.55 42.5808 22.9853 42.1414C23.1492 42.1458 23.3104 42.0992 23.4467 42.0081C23.9289 41.7056 24.2755 41.2284 24.4141 40.6763C24.5528 40.1242 24.4727 39.5399 24.1907 39.0454C23.8427 38.4094 23.4333 37.8068 23.0693 37.1788C22.868 36.8334 22.6027 36.6801 22.2067 36.7788C21.2293 35.5401 20.0333 35.6161 19.2187 36.9708C18.9707 37.3828 18.748 37.8121 18.4707 38.2041C17.2867 39.8681 17.752 42.3054 19.98 43.1374C18.984 43.1374 17.988 43.1374 16.992 43.1374C16.8173 43.1374 16.7587 43.0681 16.764 42.9001C16.8093 41.3921 16.6146 39.8721 16.8613 38.3774C17.1907 36.3774 19.0587 35.0028 21.0867 35.1641C22.055 35.2494 22.9594 35.6835 23.6316 36.3857C24.3039 37.0879 24.6982 38.0103 24.7413 38.9814C24.7413 39.0307 24.7413 39.0814 24.7413 39.1308C24.756 39.9094 24.756 39.9094 25.5427 39.9534Z" fill="#EA8500"/>
<path d="M34.476 14.0868C35.0756 14.0847 35.6719 14.1774 36.2426 14.3614C36.4946 14.4348 36.564 14.5254 36.4186 14.7761C35.464 16.4081 34.5173 18.045 33.5786 19.6868C33.4613 19.8908 33.3586 19.9268 33.1506 19.8041C32.1066 19.1894 31.048 18.6041 30.008 17.9801C29.5026 17.6788 29.42 17.2761 29.752 16.7521C30.848 15.0201 32.4466 14.1641 34.476 14.0868ZM34.2506 16.7828C34.2506 16.7414 34.1493 16.7041 34.0666 16.6494C33.8266 16.5041 33.5733 16.3761 33.344 16.2161C33.0386 16.0014 32.8826 16.0734 32.7013 16.3974C32.14 17.4001 32.1226 17.3948 33.1293 17.9428C33.252 18.0108 33.3613 18.1428 33.5293 18.0908C33.6 18.0734 34.2666 16.9401 34.2506 16.7828Z" fill="#D40026"/>
<path d="M34.7853 20.7854L37.7119 15.7188C38.4497 14.4414 39.1866 13.1636 39.9226 11.8854C40.1239 11.5361 40.4013 11.3361 40.8186 11.4028C41.1719 11.4574 41.3639 11.6854 41.4586 12.0161C41.4826 12.1131 41.486 12.2141 41.4688 12.3126C41.4516 12.4111 41.4141 12.5049 41.3586 12.5881C39.8297 15.2468 38.2986 17.9041 36.7653 20.5601C36.731 20.6357 36.6741 20.6987 36.6025 20.7405C36.5308 20.7823 36.4479 20.8008 36.3653 20.7934C35.8666 20.7788 35.3746 20.7854 34.7853 20.7854Z" fill="#C87200"/>
<path d="M28.2893 32.736C27.3773 32.736 26.4653 32.756 25.5546 32.756C21.6737 32.756 17.7928 32.756 13.9119 32.756C13.6799 32.756 13.4479 32.7427 13.2159 32.736C13.2401 32.6394 13.2583 32.5415 13.2706 32.4427C13.2986 32.0573 13.4826 31.9467 13.8786 31.9493C18.3613 31.9653 22.8453 31.96 27.3279 31.96C28.1333 31.96 28.1333 31.96 28.2893 32.736Z" fill="#ED8600"/>
<path d="M20.7586 12.8C21.7266 12.8227 22.6639 12.9213 23.5359 13.3333C23.6599 13.392 23.8546 13.4333 23.8333 13.62C23.8173 13.7613 23.6546 13.8093 23.5386 13.8613C22.3706 14.3947 21.1386 14.4667 19.8839 14.3493C19.2053 14.2867 18.5359 14.1627 17.9253 13.8373C17.8146 13.78 17.6493 13.7413 17.6693 13.5707C17.6853 13.4467 17.8213 13.4027 17.9226 13.352C18.8226 12.9147 19.7919 12.8227 20.7586 12.8Z" fill="#C87200"/>
<path d="M12.8133 20.7853C12.3653 20.7853 11.9173 20.7733 11.4706 20.7853C11.2199 20.7946 11.1453 20.7053 11.1893 20.4693C11.3493 19.5919 11.8106 18.9399 12.6373 18.5853C13.4639 18.2306 14.2519 18.3453 14.9906 18.8519C15.1906 18.9853 15.2399 19.1186 15.0746 19.3346C14.8209 19.6643 14.6392 20.0436 14.5413 20.4479C14.4826 20.6919 14.3733 20.7999 14.1026 20.7826C13.6759 20.7666 13.2439 20.7853 12.8133 20.7853Z" fill="#FB4F22"/>
<path d="M20.752 37.4921C21.1827 38.2187 21.5747 38.8347 21.9187 39.4747C22.054 39.7431 22.105 40.0462 22.0651 40.3441C22.0251 40.642 21.896 40.9208 21.6947 41.1441C21.5068 41.3329 21.2667 41.4611 21.0053 41.5122C20.7439 41.5633 20.4732 41.5349 20.228 41.4307C20.058 41.3518 19.9055 41.2397 19.7796 41.1009C19.6536 40.9621 19.5567 40.7995 19.4946 40.6227C19.4324 40.4458 19.4063 40.2584 19.4178 40.0713C19.4293 39.8842 19.4781 39.7013 19.5614 39.5334C19.9054 38.8587 20.3227 38.2241 20.752 37.4921Z" fill="#FB4F22"/>
<path d="M3.99199 17.6121C3.35999 17.6121 2.72799 17.6054 2.09733 17.6121C1.83066 17.6121 1.69733 17.5854 1.86666 17.2894C2.33066 16.4721 3.02533 16.0107 3.96399 16.0014C4.92399 15.9907 5.64133 16.4467 6.11999 17.2787C6.25333 17.5081 6.21599 17.5974 5.93599 17.5934C5.28799 17.5814 4.63999 17.5934 3.99199 17.5934V17.6121Z" fill="#C3C2C7"/>
<path d="M18.308 20.7854C17.6773 20.7854 17.048 20.7854 16.4187 20.7854C16.18 20.7854 16.1347 20.7294 16.2333 20.5014C16.5573 19.7561 17.4627 19.1867 18.36 19.1881C19.2573 19.1894 20.1707 19.7707 20.4933 20.5054C20.5973 20.7454 20.524 20.7881 20.3 20.7854C19.6333 20.7814 18.9707 20.7854 18.308 20.7854Z" fill="#FB6142"/>
<path d="M9.18802 20.7853C8.42269 20.7853 7.75069 20.7853 7.07736 20.7853C7.01947 20.7922 6.96101 20.7785 6.91224 20.7465C6.86348 20.7146 6.82752 20.6665 6.81069 20.6107C6.65366 20.2286 6.54223 19.8294 6.47869 19.4213C6.46402 19.3067 6.43736 19.176 6.59202 19.136C7.39202 18.9333 7.77202 18.3653 7.93602 17.5693C8.15869 18.7133 8.48002 19.7853 9.18802 20.7853Z" fill="#D3D2D5"/>
<path d="M31.5653 20.7613H27.432C27.7773 20.1626 28.0987 19.608 28.416 19.0546C28.4733 18.9573 28.516 18.828 28.6693 18.9573C29.5267 19.684 30.5893 20.0906 31.5653 20.7613Z" fill="#FB6142"/>
<path d="M22.204 36.7707C22.604 36.676 22.8706 36.8294 23.0666 37.1707C23.4306 37.7987 23.84 38.4014 24.188 39.0374C24.47 39.5318 24.5501 40.1161 24.4115 40.6682C24.2728 41.2203 23.9262 41.6975 23.444 42C23.3077 42.0912 23.1465 42.1377 22.9826 42.1334C23.916 40.8 23.8893 39.4667 23.0013 38.1267C22.712 37.696 22.4693 37.2267 22.204 36.7707Z" fill="#C87200"/>
<path d="M5.86658 14.8666C6.99324 14.008 8.75991 14.4586 9.30924 15.7066C9.40124 15.9173 9.39457 16.0053 9.13591 16C8.55591 15.9906 7.97591 16 7.39591 16C7.33851 16.0076 7.28011 16.0011 7.22576 15.9811C7.17141 15.9612 7.12273 15.9283 7.08391 15.8853C6.7435 15.4745 6.33096 15.1293 5.86658 14.8666Z" fill="#A9A8AE"/>
<path d="M5.14271 20.7854C4.58404 20.7854 4.02404 20.7854 3.46537 20.7854C3.27871 20.7854 3.19071 20.7321 3.19871 20.5334C3.22137 20.0934 3.00271 19.4761 3.30004 19.2614C3.59737 19.0467 4.18804 19.1974 4.64937 19.1854C4.83204 19.1854 4.85337 19.2961 4.87871 19.4374C4.95871 19.8787 5.04937 20.3147 5.14271 20.7854Z" fill="#E2E3E4"/>
<path d="M34.2507 16.7827C34.2627 16.94 33.6 18.0733 33.5307 18.0947C33.3614 18.1467 33.252 18.0147 33.1307 17.9467C32.124 17.3987 32.1414 17.404 32.7027 16.4014C32.884 16.0774 33.04 16.0014 33.3454 16.22C33.5747 16.38 33.828 16.508 34.068 16.6534C34.1494 16.704 34.2507 16.7414 34.2507 16.7827Z" fill="#020201"/>
</g>
<defs>
<clipPath id="clip0_93_544">
<rect width="48" height="48" fill="white"/>
</clipPath>
</defs>
</svg>
