<svg width="48" height="48" viewBox="0 0 48 48" fill="none" xmlns="http://www.w3.org/2000/svg">
<g clip-path="url(#clip0_93_542)">
<path d="M13.0664 46.4088C13.0026 46.7057 12.8375 46.91 12.5174 46.8536C12.1973 46.7972 12.111 46.5554 12.111 46.2584C12.111 44.042 12.111 41.8256 12.111 39.6091C12.111 39.0766 12.3536 38.6694 12.87 38.4902C13.0826 38.4163 13.1114 38.3036 13.1039 38.1144C13.0914 37.8024 13.1039 37.4879 13.0951 37.1772C13.0951 36.7361 13.2564 36.3753 13.6541 36.1748C13.8779 36.062 13.8729 35.9543 13.8141 35.7388C13.3377 34.011 12.0635 33.2442 10.4378 32.9122C9.47745 32.7167 8.50332 32.5764 7.60422 32.1529C6.26126 31.5395 5.12986 30.541 4.35295 29.2837C2.91989 26.9482 1.44181 24.639 0.0762798 22.261C0.0637749 22.2397 0.0262603 22.2334 0 22.2196V21.1884C0.138804 21.1358 0.135053 20.993 0.190074 20.889C0.839078 19.6711 2.44596 19.5458 3.25127 20.681C3.97012 21.7206 4.74273 22.7218 5.56592 23.6805C5.64846 23.7745 5.73599 23.8647 5.81602 23.9587C6.23869 24.4599 6.56632 24.8082 7.39164 24.4335C8.59836 23.8885 9.76757 24.3333 10.6179 25.3457C10.983 25.7804 11.3919 25.9295 11.9109 25.9471C12.4111 25.9634 12.9113 25.9584 13.4115 26.0198C15.0021 26.219 16.1801 27.185 17.288 28.2224C19.4263 30.2271 20.6256 32.733 21.0945 35.601C21.137 35.8628 21.2133 35.9618 21.4809 36.0094C21.7132 36.0514 21.9241 36.172 22.0784 36.351C22.2327 36.53 22.321 36.7566 22.3287 36.993C22.3431 37.1801 22.3469 37.368 22.34 37.5555C22.3275 37.9891 22.2862 38.3825 22.8564 38.5779C23.2166 38.7032 23.3504 39.1142 23.3504 39.5176C23.3504 41.7662 23.3504 44.0144 23.3504 46.2622C23.3504 46.5654 23.2578 46.8035 22.9477 46.8548C22.6376 46.9062 22.465 46.6982 22.395 46.4075C22.395 44.1598 22.395 41.9133 22.4138 39.6655C22.4138 39.3335 22.2587 39.2821 21.9811 39.2896C19.1416 39.3197 16.3018 39.3439 13.4615 39.3623C13.1564 39.3623 13.0488 39.465 13.0501 39.7682C13.0601 41.9734 13.0626 44.1936 13.0664 46.4088ZM17.4818 36.0094V35.9881C18.2321 35.9881 18.9824 35.9706 19.7327 35.9956C20.1079 36.0094 20.2191 35.8942 20.1466 35.5208C19.7715 33.5787 19.07 31.762 17.822 30.2184C16.2513 28.2763 14.4807 26.6525 11.6946 26.8667C10.9805 26.9219 10.3928 26.5748 9.92513 25.9897C9.6371 25.6132 9.22771 25.3483 8.76667 25.2402C8.30564 25.1322 7.82148 25.1876 7.39664 25.3971C7.07026 25.5549 6.99148 25.7729 7.20156 26.0636C7.32647 26.2411 7.46485 26.4086 7.61547 26.5648C8.22716 27.1683 8.91542 27.6885 9.66252 28.1122C9.92888 28.2725 10.119 28.488 9.93763 28.8025C9.75631 29.117 9.4712 29.0982 9.17608 28.9216C8.61026 28.5912 8.0713 28.2167 7.5642 27.8014C6.89144 27.2339 6.23869 26.6475 6.10989 25.699C6.09231 25.624 6.05215 25.5562 5.99484 25.5048C4.65932 24.1992 3.52888 22.7295 2.46221 21.2022C2.21211 20.8376 1.82446 20.7649 1.42055 20.9516C0.920359 21.1759 0.811567 21.7372 1.16045 22.3061C2.41094 24.3546 3.68769 26.3919 4.92442 28.4454C6.11114 30.4201 7.8143 31.5602 10.1014 31.8973C12.4361 32.2418 14.2281 33.3056 14.8045 35.7927C14.8646 36.0508 15.0221 36.0094 15.1859 36.0094C15.95 36.0044 16.7165 36.0032 17.4818 36.0032V36.0094ZM17.7144 38.4201V38.3612H20.4742C21.4046 38.3612 21.3808 38.3612 21.4059 37.4516C21.4184 37.018 21.2883 36.8978 20.8569 36.9053C18.9399 36.9378 17.0204 36.9391 15.1047 36.9479C14.018 36.9479 14.033 36.9479 14.038 38.0454C14.038 38.3687 14.1493 38.4301 14.4419 38.4213C15.5311 38.405 16.6227 38.4138 17.7144 38.4138V38.4201Z" fill="#060605"/>
<path d="M48 22.1256C46.5653 24.6231 45.0647 27.0793 43.4983 29.4941C42.2415 31.4362 40.372 32.4824 38.0886 32.8144C37.5186 32.9025 36.9597 33.052 36.4217 33.2605C35.2288 33.709 34.5285 34.5798 34.1709 35.7726C34.1221 35.9355 34.0933 36.0432 34.2959 36.1422C34.7498 36.3677 34.9212 36.7687 34.9049 37.2699C34.8961 37.4565 34.9174 37.6457 34.8961 37.8312C34.8524 38.1995 34.9224 38.4413 35.3276 38.6017C35.7327 38.7621 35.8865 39.1756 35.8878 39.6041C35.8878 41.8218 35.8878 44.0407 35.8878 46.2584C35.8878 46.5554 35.7965 46.8022 35.4826 46.8548C35.1688 46.9074 34.9962 46.7082 34.9324 46.4113C34.9374 44.1944 34.9432 41.9784 34.9499 39.7632C34.9499 39.5051 34.8936 39.3598 34.5873 39.3572C31.7162 39.3414 28.845 39.3172 25.9739 39.2846C25.6938 39.2846 25.5888 39.3798 25.59 39.6605C25.6013 41.9082 25.6025 44.1547 25.6063 46.4025C25.5362 46.6919 25.3737 46.9037 25.0548 46.8498C24.7147 46.7922 24.6496 46.5253 24.6509 46.2121C24.6576 44.0102 24.6576 41.8092 24.6509 39.6091C24.6509 39.034 24.8722 38.6067 25.4325 38.415C25.5073 38.3965 25.5723 38.3503 25.6146 38.2857C25.6568 38.2211 25.673 38.1428 25.66 38.0667C25.65 37.7397 25.6538 37.4114 25.6675 37.0832C25.6926 36.4943 25.9952 36.1096 26.5666 35.9969C26.7955 35.9505 26.8668 35.8653 26.9018 35.6435C27.4908 32.01 29.2302 29.0756 32.2789 26.9532C33.171 26.3103 34.24 25.9602 35.3388 25.9508C35.6039 25.9508 35.869 25.9421 36.1341 25.9358C36.3748 25.9419 36.6135 25.891 36.8309 25.7871C37.0482 25.6833 37.2379 25.5294 37.3846 25.3381C38.3187 24.1892 39.8281 23.911 41.1423 24.6052C41.3637 24.7217 41.4712 24.7079 41.6425 24.5325C42.6904 23.4575 43.7083 22.3399 44.4599 21.0456C45.3215 19.5634 47.2947 19.4243 48.0075 21.2736L48 22.1256ZM30.4932 35.9818V36.0031C31.2272 36.0031 31.9625 35.9831 32.6953 36.0107C33.0342 36.0244 33.1755 35.9229 33.2618 35.5872C33.7082 33.8569 34.8099 32.748 36.513 32.2255C37.0035 32.069 37.5051 31.95 38.0136 31.8697C40.1119 31.5602 41.7576 30.5341 42.883 28.7374C44.2223 26.5948 45.5328 24.436 46.8521 22.281C47.1759 21.7522 47.1022 21.2786 46.6833 21.003C46.2643 20.7273 45.7729 20.8451 45.4128 21.3676C44.7405 22.343 44.0176 23.2823 43.2469 24.1817C42.6404 24.8896 41.9964 25.5311 41.5975 26.437C41.0435 27.6899 39.7893 28.3314 38.6351 28.9967C38.4075 29.122 38.2024 29.0117 38.0724 28.8113C38.0394 28.7669 38.0156 28.7164 38.0025 28.6627C37.9894 28.6089 37.9872 28.5531 37.996 28.4985C38.0049 28.4439 38.0246 28.3917 38.0541 28.3449C38.0835 28.2981 38.1221 28.2577 38.1674 28.2262C38.319 28.1175 38.4768 28.0179 38.6401 27.928C39.4254 27.4143 40.202 26.8855 40.7659 26.1125C41.0385 25.7366 40.971 25.5449 40.5459 25.3607C39.6543 24.971 38.6939 25.2078 38.0336 26.0298C37.8552 26.2687 37.6267 26.4657 37.3642 26.6068C37.1018 26.7479 36.8117 26.8298 36.5143 26.8467C36.2348 26.8767 35.9538 26.8917 35.6727 26.8918C34.4447 26.8404 33.4018 27.2677 32.4214 28.0019C29.8954 29.8951 28.4636 32.436 27.8509 35.4894C27.7709 35.8904 27.8809 36.0056 28.2823 35.9906C29.0239 35.9593 29.7616 35.9818 30.4932 35.9818ZM30.2343 38.3511V38.4063H32.9942C33.962 38.4063 33.9433 38.4063 33.9683 37.4365C33.9783 37.0406 33.8432 36.9353 33.4681 36.9353C31.5348 36.9428 29.6003 36.9228 27.6658 36.9153C26.5879 36.9153 26.6004 36.9153 26.5942 38.0003C26.5942 38.2985 26.6829 38.3599 26.9693 38.3561C28.051 38.3399 29.1427 38.3511 30.2343 38.3511Z" fill="#060605"/>
<path d="M21.0006 0C21.0557 0.0513704 21.1132 0.100235 21.1657 0.154111C21.4533 0.458575 21.4571 0.84072 21.1782 1.09883C21.06 1.21228 20.9022 1.27478 20.7385 1.27291C20.5748 1.27104 20.4184 1.20494 20.3029 1.0888C20.039 0.81942 20.059 0.424746 20.3554 0.144088C20.4104 0.0914644 20.4729 0.0476116 20.533 0L21.0006 0Z" fill="#FB6A82"/>
<path d="M37.1645 12.9203C36.9594 18.3154 34.656 22.5203 30.0142 25.3619C28.1547 26.4996 26.2127 26.5485 24.2695 25.5311C24.1859 25.4811 24.09 25.4556 23.9927 25.4576C23.8954 25.4596 23.8007 25.489 23.7192 25.5424C21.8248 26.5121 19.939 26.4783 18.092 25.4258C12.8925 22.4689 10.0527 16.4623 11.0355 10.5623C11.2322 9.37782 11.568 8.22084 12.0359 7.11543C12.4111 6.23837 12.9625 5.89381 13.9117 6.01159C17.4364 6.44928 20.4234 7.95364 22.8727 10.5247C23.181 10.8354 23.4636 11.1706 23.718 11.527C23.9581 11.8841 24.0744 11.7776 24.2907 11.5057C25.8337 9.50245 27.8801 7.94584 30.2205 6.99515C31.4496 6.49692 32.74 6.16693 34.057 6.0141C35.0399 5.8888 35.5889 6.22334 35.9715 7.13046C36.757 8.95937 37.1628 10.9293 37.1645 12.9203ZM21.4396 20.2587C21.4971 20.0796 21.5346 19.9781 21.5647 19.8741C21.791 19.0309 22.0123 18.1864 22.2412 17.3444C22.3024 17.1189 22.4312 16.951 22.6926 16.9397C22.779 16.931 22.866 16.9485 22.9425 16.9898C23.0189 17.0311 23.0813 17.0944 23.1215 17.1715C23.2153 17.3482 23.1678 17.5361 23.1215 17.719C22.8151 18.863 22.5138 20.0094 22.1999 21.1508C22.1689 21.2292 22.1557 21.3135 22.1613 21.3976C22.1669 21.4817 22.1912 21.5635 22.2324 21.637C22.7164 22.4564 23.1953 23.2783 23.658 24.109C23.8005 24.3684 23.9081 24.337 24.1056 24.1717C24.8943 23.521 25.4512 22.6316 25.6925 21.637C25.9426 20.6158 25.8426 19.5884 25.7075 18.5648C24.9047 12.4943 19.9778 7.65294 13.8917 6.95129C13.2764 6.87988 13.1239 6.96633 12.8913 7.53266C11.7658 10.2014 11.4807 12.9629 12.1172 15.7845C13.0076 19.725 15.2322 22.7132 18.7448 24.7079C19.9753 25.4058 21.2945 25.4684 22.6376 25.0124C22.9039 24.9222 23.0302 24.8445 22.8364 24.5338C22.36 23.7644 21.9185 22.9738 21.4759 22.1857C21.4262 22.0901 21.3553 22.0071 21.2686 21.9432C21.1818 21.8794 21.0816 21.8363 20.9757 21.8174C20.3104 21.6558 19.6514 21.4628 18.9899 21.2849C18.4634 21.1421 17.9345 21.0092 17.4105 20.8589C17.3482 20.8473 17.289 20.8224 17.2371 20.786C17.1851 20.7495 17.1416 20.7023 17.1093 20.6476C17.0771 20.5929 17.0569 20.5319 17.0502 20.4687C17.0435 20.4055 17.0504 20.3416 17.0704 20.2813C17.1379 20.0056 17.3493 19.9229 17.6119 19.958C17.7192 19.9763 17.8253 20.0014 17.9295 20.0332L20.633 20.7486C20.2216 20.032 19.8515 19.4042 19.4988 18.7665C19.4468 18.6634 19.3723 18.5735 19.2807 18.5034C19.1891 18.4333 19.0828 18.3849 18.9699 18.3618C17.9432 18.0999 16.9228 17.8117 15.8987 17.5386C15.5998 17.4584 15.4135 17.2793 15.4885 16.966C15.5686 16.634 15.8237 16.5438 16.1463 16.6327C16.8524 16.8249 17.561 17.0149 18.2721 17.2028C18.3647 17.2279 18.4684 17.3081 18.5785 17.1753C18.2371 16.5864 17.8832 16 17.5581 15.3986C17.5031 15.2882 17.4232 15.1922 17.3246 15.1182C17.226 15.0442 17.1116 14.9944 16.9904 14.9726C16.3539 14.8222 15.7261 14.6356 15.0959 14.4626C14.8008 14.3825 14.6119 14.2121 14.6957 13.8888C14.7795 13.5655 15.0258 13.4728 15.3522 13.5655C15.7636 13.6821 16.18 13.7798 16.689 13.9089C16.3489 13.3175 16.0638 12.8188 15.7761 12.3214C15.6136 12.042 15.526 11.7488 15.8499 11.5433C16.2126 11.3165 16.4239 11.5571 16.594 11.8553C16.8866 12.3652 17.1829 12.8714 17.5131 13.4403C17.6381 12.9591 17.7557 12.5544 17.8657 12.1485C17.952 11.8252 18.1158 11.5884 18.4909 11.7024C18.8323 11.8064 18.8586 12.0708 18.7723 12.3828C18.5922 13.028 18.4297 13.6783 18.2571 14.3261C18.2246 14.4514 18.1596 14.5654 18.2283 14.6869C18.6248 15.3798 19.0249 16.0714 19.4663 16.8357C19.6952 15.9774 19.894 15.2244 20.0916 14.4714C20.1754 14.1557 20.2892 13.8224 20.6981 13.9151C21.107 14.0078 21.1107 14.3386 21.0107 14.6982C20.7331 15.6893 20.4805 16.6866 20.2079 17.6777C20.1755 17.7647 20.1629 17.8579 20.1709 17.9504C20.1789 18.0429 20.2073 18.1325 20.2541 18.2127C20.6405 18.8692 21.0194 19.532 21.4396 20.2587ZM29.3589 17.3018C30.2731 17.0512 31.0509 16.8445 31.8324 16.6428C32.2551 16.5325 32.5827 16.7681 32.5264 17.1264C32.4839 17.4008 32.2763 17.496 32.0375 17.5599C31.0434 17.823 30.0517 18.0949 29.0576 18.3605C28.9213 18.3969 28.75 18.3994 28.6824 18.5197C28.2548 19.2238 27.8446 19.9392 27.3669 20.7561C28.3973 20.4792 29.2827 20.2374 30.1693 20.0044C30.4856 19.9217 30.827 19.8678 30.9358 20.285C31.0446 20.7023 30.7582 20.8288 30.4206 20.9115C29.3202 21.1984 28.2248 21.5117 27.1206 21.7823C26.9603 21.8124 26.8117 21.8871 26.6918 21.9979C26.5719 22.1087 26.4856 22.2511 26.4428 22.4088C26.1798 23.1972 25.7311 23.9106 25.1348 24.4886C24.8347 24.7756 24.9597 24.8495 25.2598 24.9635C26.7867 25.5424 28.226 25.3394 29.6103 24.5225C32.4376 22.8337 34.5542 20.1709 35.5643 17.032C36.5744 13.8931 36.4089 10.493 35.0987 7.4675C34.8974 7.00266 34.5985 6.88363 34.1396 6.94628C30.2818 7.46625 27.1631 9.25294 24.8084 12.3627C24.6283 12.6008 24.5896 12.78 24.7609 13.0606C25.5674 14.3987 26.1415 15.8641 26.4591 17.3945C26.6229 18.1463 26.7004 18.9218 26.8192 19.7074C27.1393 19.2551 27.3994 18.784 27.682 18.3292C27.7511 18.2274 27.7959 18.1111 27.8128 17.9892C27.8297 17.8673 27.8183 17.7431 27.7796 17.6263C27.4932 16.624 27.2456 15.6066 26.9668 14.6005C26.8742 14.2709 26.9468 14.0216 27.2681 13.9251C27.5895 13.8287 27.7871 14.0392 27.8696 14.3499C27.8934 14.4401 27.9196 14.5303 27.9434 14.6205C28.136 15.3259 28.3273 16.0326 28.5449 16.8282C28.9788 16.0764 29.3552 15.4136 29.7441 14.7571C29.8379 14.598 29.7829 14.4614 29.7441 14.3098C29.5715 13.6633 29.4115 13.0117 29.2301 12.3665C29.1401 12.0445 29.1951 11.7914 29.534 11.6987C29.8729 11.606 30.0505 11.824 30.1355 12.1259C30.2493 12.5381 30.3643 12.9504 30.4994 13.4377C30.862 12.8113 31.1759 12.2587 31.5073 11.715C31.6548 11.4644 31.8824 11.3804 32.1463 11.5333C32.4101 11.6861 32.4164 11.9092 32.3239 12.1447C32.2496 12.3 32.1661 12.4506 32.0738 12.5958C31.8537 13.0105 31.5648 13.3901 31.3785 13.8976C31.8162 13.7848 32.1938 13.6984 32.5639 13.5881C32.9053 13.4879 33.208 13.4929 33.3142 13.8938C33.4205 14.2948 33.1279 14.415 32.8228 14.4977C32.2063 14.6669 31.5886 14.8335 30.9696 14.9989C30.7995 15.0428 30.6432 15.0816 30.5457 15.2495C30.1755 15.8922 29.8004 16.5388 29.3589 17.3018Z" fill="#040503"/>
<path d="M13.0664 46.4088C13.0664 44.1936 13.0664 41.9772 13.0476 39.7682C13.0476 39.465 13.1539 39.3635 13.459 39.3623C16.2993 39.3464 19.1392 39.3222 21.9786 39.2896C22.2562 39.2896 22.4125 39.3385 22.4113 39.6655C22.3963 41.9133 22.3975 44.1598 22.3925 46.4075L13.0664 46.4088Z" fill="#B1E06C"/>
<path d="M25.6076 46.4064C25.6076 44.1586 25.6076 41.9121 25.5913 39.6643C25.5913 39.3786 25.6951 39.2809 25.9752 39.2884C28.8463 39.3185 31.7175 39.3427 34.5886 39.3611C34.8949 39.3611 34.9525 39.5089 34.9512 39.767C34.942 41.9831 34.9362 44.1991 34.9337 46.4151L25.6076 46.4064Z" fill="#B1E06C"/>
<path d="M6.39746 43.4969C5.9973 43.5119 5.7372 43.2626 5.73345 42.8315C5.73345 42.5446 5.65592 42.4469 5.35831 42.4632C4.98316 42.4845 4.73306 42.2928 4.6943 41.8969C4.66553 41.5523 4.94439 41.2704 5.35455 41.2704C5.63841 41.2704 5.7297 41.194 5.7297 40.902C5.7297 40.4923 6.01731 40.2041 6.35494 40.2392C6.7426 40.2793 6.94768 40.5236 6.92517 40.9058C6.90641 41.2052 7.01895 41.2754 7.30031 41.2679C7.38279 41.2587 7.46627 41.2671 7.5453 41.2924C7.62433 41.3178 7.69714 41.3596 7.75898 41.415C7.82081 41.4705 7.87028 41.5383 7.90415 41.6143C7.93803 41.6902 7.95555 41.7724 7.95557 41.8555C7.98808 42.2051 7.71923 42.4657 7.28531 42.4619C6.98519 42.4619 6.91016 42.5609 6.92642 42.8378C6.93631 42.9161 6.93036 42.9956 6.90892 43.0716C6.88748 43.1475 6.85098 43.2184 6.80161 43.2799C6.75224 43.3414 6.69101 43.3923 6.62158 43.4296C6.55214 43.4669 6.47592 43.4897 6.39746 43.4969Z" fill="#89D14B"/>
<path d="M25.9289 2.61865C26.2303 3.57214 26.7517 4.12217 27.7509 4.38153C26.7792 4.64841 26.1952 5.16838 25.9589 6.11434C25.7663 5.6683 25.6238 5.30119 25.3337 5.01051C25.0435 4.71983 24.6834 4.55569 24.1995 4.38404C25.1061 4.10714 25.6725 3.60471 25.9289 2.61865Z" fill="#F4C951"/>
<path d="M39.9644 37.7134C39.7568 37.0055 39.3704 36.6459 38.7277 36.4467C39.3842 36.2349 39.7656 35.8753 39.9531 35.2225C40.167 35.8741 40.5259 36.2499 41.1586 36.4254C40.5909 36.6622 40.1407 36.9616 39.9644 37.7134Z" fill="#8CD24F"/>
<path d="M9.75383 47.3609C9.75791 47.5252 9.69741 47.6845 9.58537 47.8045C9.47332 47.9245 9.31871 47.9956 9.15485 48.0024C8.98342 48.0075 8.81693 47.9445 8.69163 47.8272C8.56632 47.7099 8.49236 47.5477 8.48584 47.376C8.49212 47.2043 8.56332 47.0415 8.685 46.9205C8.80668 46.7995 8.96974 46.7294 9.1411 46.7244C9.30322 46.7371 9.45508 46.8089 9.56798 46.9262C9.68088 47.0435 9.74699 47.1981 9.75383 47.3609Z" fill="#F4C952"/>
<path d="M17.4818 36.0031C16.7165 36.0031 15.95 36.0031 15.1847 36.0031C15.0209 36.0031 14.8633 36.0444 14.8033 35.7863C14.2256 33.2992 12.4349 32.2355 10.1002 31.8909C7.81305 31.5539 6.10988 30.4137 4.92317 28.4391C3.68644 26.3805 2.41344 24.3432 1.1592 22.2997C0.810313 21.7308 0.916605 21.172 1.4193 20.9453C1.82321 20.7648 2.20586 20.8375 2.46096 21.1958C3.52762 22.7232 4.65807 24.1929 5.99359 25.4984C6.0509 25.5498 6.09106 25.6176 6.10863 25.6926C6.23368 26.6411 6.89019 27.2275 7.56295 27.7951C8.07004 28.2103 8.60901 28.5848 9.17483 28.9152C9.46994 29.0919 9.74755 29.1294 9.93638 28.7962C10.1252 28.4629 9.92762 28.2662 9.66127 28.1058C8.91438 27.6833 8.22614 27.1643 7.61422 26.5622C7.46359 26.406 7.32521 26.2385 7.20031 26.061C6.99023 25.7653 7.07526 25.5523 7.39538 25.3944C7.82022 25.185 8.30438 25.1296 8.76542 25.2376C9.22645 25.3457 9.63585 25.6105 9.92387 25.9871C10.3916 26.5772 10.9793 26.9243 11.6933 26.8641C14.4782 26.6499 16.2488 28.2737 17.8207 30.2157C19.0712 31.7606 19.7665 33.5761 20.1454 35.5182C20.2179 35.894 20.1116 36.0068 19.7315 35.993C18.9812 35.968 18.2309 35.9855 17.4806 35.9855L17.4818 36.0031Z" fill="#F6CEB2"/>
<path d="M17.7145 38.4139C16.6228 38.4139 15.5311 38.4051 14.4395 38.4201C14.1468 38.4201 14.038 38.3625 14.0355 38.0442C14.0355 36.9492 14.0155 36.9517 15.1022 36.9467C17.0205 36.9379 18.94 36.9367 20.8545 36.9041C21.2859 36.8966 21.4159 37.0168 21.4034 37.4504C21.3784 38.36 21.4034 38.36 20.4718 38.36H17.7145V38.4139Z" fill="#D7E3EE"/>
<path d="M30.4931 35.9819C29.7591 35.9819 29.0238 35.9631 28.291 35.9907C27.8896 36.0057 27.7796 35.8905 27.8596 35.4895C28.4723 32.4361 29.9042 29.8952 32.4301 28.002C33.4043 27.2715 34.4472 26.8405 35.6814 26.8919C35.9625 26.8918 36.2435 26.8768 36.523 26.8468C36.8192 26.8287 37.1079 26.7461 37.369 26.6048C37.6301 26.4635 37.8573 26.2669 38.0348 26.0286C38.6951 25.2067 39.6605 24.9699 40.5471 25.3595C40.9722 25.545 41.0398 25.7354 40.7672 26.1113C40.2057 26.8844 39.4291 27.4131 38.6413 27.9268C38.4787 28.0193 38.3217 28.1214 38.1711 28.2325C38.1258 28.2641 38.0873 28.3045 38.0578 28.3512C38.0284 28.398 38.0086 28.4503 37.9998 28.5049C37.9909 28.5595 37.9931 28.6153 38.0062 28.669C38.0193 28.7228 38.0431 28.7733 38.0761 28.8176C38.2012 29.0181 38.4112 29.1346 38.6388 29.0031C39.793 28.3378 41.0473 27.6913 41.6012 26.4433C42.0051 25.5337 42.6441 24.8922 43.2506 24.188C44.0216 23.2858 44.7445 22.3436 45.4165 21.3652C45.7766 20.8427 46.2543 20.7124 46.687 21.0006C47.1196 21.2887 47.1797 21.7523 46.8558 22.2786C45.5365 24.4336 44.2298 26.5924 42.8867 28.7349C41.7613 30.5367 40.1157 31.5628 38.0173 31.8673C37.5089 31.9476 37.0072 32.0665 36.5167 32.2231C34.8111 32.7456 33.7094 33.8519 33.2655 35.5848C33.1792 35.9205 33.0379 36.022 32.699 36.0082C31.9662 35.9807 31.2309 36.0007 30.4969 36.0007L30.4931 35.9819Z" fill="#F6CEB2"/>
<path d="M30.2343 38.3511C29.1426 38.3511 28.0509 38.3424 26.9593 38.3574C26.6791 38.3574 26.5841 38.2998 26.5841 38.0016C26.5904 36.9153 26.5841 36.9128 27.6558 36.9165C29.5903 36.924 31.5248 36.9441 33.458 36.9366C33.8419 36.9366 33.972 37.0406 33.9582 37.4377C33.9332 38.41 33.952 38.4088 32.9841 38.4075H30.2343V38.3511Z" fill="#D7E3EE"/>
<path d="M21.4396 20.2588C21.0195 19.5321 20.6406 18.8693 20.2529 18.2127C20.2061 18.1326 20.1777 18.043 20.1697 17.9505C20.1617 17.8579 20.1743 17.7648 20.2066 17.6777C20.4792 16.6867 20.7318 15.6893 21.0095 14.6982C21.1095 14.3387 21.1195 14.0116 20.6968 13.9152C20.2742 13.8187 20.1741 14.1557 20.0903 14.4715C19.889 15.2232 19.6902 15.975 19.4651 16.8358C19.0237 16.0715 18.6235 15.3798 18.2271 14.687C18.1583 14.5617 18.2271 14.4464 18.2559 14.3261C18.4284 13.6784 18.591 13.0281 18.7711 12.3828C18.8574 12.0708 18.8311 11.8065 18.4897 11.7025C18.1146 11.5885 17.9483 11.8278 17.8645 12.1485C17.7544 12.5545 17.6431 12.9592 17.5118 13.4403C17.1817 12.8715 16.8866 12.3653 16.5927 11.8553C16.4227 11.5571 16.2176 11.3166 15.8487 11.5433C15.5186 11.7488 15.6123 12.0445 15.7749 12.3214C16.0625 12.8226 16.3476 13.3238 16.6878 13.9089C16.1788 13.7836 15.7624 13.6821 15.351 13.5656C15.0246 13.4729 14.7808 13.5518 14.6945 13.8888C14.6082 14.2259 14.7995 14.3825 15.0946 14.4627C15.7199 14.6356 16.3526 14.8223 16.9891 14.9726C17.1103 14.9944 17.2248 15.0443 17.3234 15.1182C17.4219 15.1922 17.5019 15.2882 17.5569 15.3986C17.882 16 18.2359 16.5864 18.5773 17.1753C18.4672 17.3081 18.3634 17.2279 18.2709 17.2029C17.5631 17.0149 16.8545 16.8249 16.1451 16.6328C15.8224 16.5438 15.5673 16.6328 15.4873 16.9661C15.4123 17.2793 15.5986 17.4585 15.8975 17.5387C16.9216 17.8118 17.942 18.1 18.9687 18.3618C19.0816 18.385 19.1878 18.4334 19.2794 18.5034C19.371 18.5735 19.4456 18.6635 19.4976 18.7665C19.8503 19.4043 20.2204 20.032 20.6318 20.7487L17.9258 20.0333C17.8216 20.0014 17.7155 19.9763 17.6081 19.9581C17.3455 19.923 17.1342 20.0057 17.0667 20.2813C17.0467 20.3416 17.0398 20.4055 17.0465 20.4687C17.0532 20.5319 17.0734 20.5929 17.1056 20.6477C17.1378 20.7024 17.1814 20.7496 17.2333 20.786C17.2853 20.8225 17.3444 20.8473 17.4068 20.8589C17.9308 21.0093 18.4597 21.1421 18.9862 21.2849C19.6477 21.4629 20.3067 21.6608 20.9719 21.8174C21.0779 21.8364 21.1781 21.8794 21.2648 21.9433C21.3516 22.0072 21.4225 22.0901 21.4721 22.1858C21.9148 22.9739 22.3562 23.7645 22.8327 24.5338C23.0265 24.8445 22.9002 24.9222 22.6338 25.0124C21.2908 25.4685 19.9716 25.4059 18.7411 24.708C15.2234 22.7133 12.9988 19.725 12.1135 15.7845C11.4695 12.9629 11.7546 10.2015 12.88 7.5327C13.1189 6.96637 13.2714 6.87992 13.8804 6.95133C19.9665 7.65298 24.8935 12.4943 25.6963 18.5648C25.8313 19.5885 25.9314 20.6159 25.6813 21.637C25.4399 22.6317 24.8831 23.5211 24.0944 24.1717C23.8993 24.3371 23.7893 24.3684 23.6467 24.1091C23.1841 23.2784 22.7051 22.4564 22.2212 21.637C22.18 21.5635 22.1557 21.4817 22.1501 21.3976C22.1445 21.3135 22.1576 21.2292 22.1887 21.1509C22.5025 20.0094 22.8039 18.863 23.1103 17.7191C23.159 17.5362 23.2066 17.3432 23.1103 17.1715C23.07 17.0944 23.0077 17.0312 22.9312 16.9899C22.8548 16.9485 22.7678 16.9311 22.6814 16.9398C22.42 16.951 22.2912 17.1189 22.2299 17.3445C22.0011 18.1864 21.7798 19.0309 21.5534 19.8741C21.5347 19.9781 21.4971 20.0796 21.4396 20.2588Z" fill="#B0DF6C"/>
<path d="M29.3589 17.3018C29.8004 16.5375 30.1755 15.8923 30.5444 15.2432C30.6419 15.0728 30.7945 15.034 30.9683 14.9927C31.5873 14.8335 32.205 14.6669 32.8215 14.4915C33.1267 14.4088 33.4118 14.2722 33.313 13.8876C33.2142 13.5029 32.9078 13.4816 32.5627 13.5818C32.1875 13.6921 31.8124 13.7786 31.3772 13.8913C31.5635 13.3839 31.8524 13.0042 32.0725 12.5895C32.1648 12.4443 32.2484 12.2937 32.3226 12.1385C32.4151 11.9004 32.3951 11.6699 32.145 11.527C31.8949 11.3842 31.6536 11.4644 31.506 11.7087C31.1746 12.2525 30.8608 12.8075 30.4981 13.4315C30.3631 12.9441 30.248 12.5319 30.1342 12.1197C30.0492 11.8114 29.8841 11.5972 29.5328 11.6924C29.1814 11.7876 29.1389 12.0382 29.2289 12.3602C29.4102 13.0055 29.5703 13.657 29.7428 14.3035C29.7829 14.4551 29.8379 14.5917 29.7428 14.7508C29.3539 15.4074 28.9775 16.0702 28.5436 16.8219C28.326 16.0263 28.1347 15.3184 27.9421 14.6143C27.9184 14.5241 27.8921 14.4338 27.8684 14.3436C27.7858 14.0329 27.6058 13.8161 27.2669 13.9189C26.928 14.0216 26.873 14.2647 26.9655 14.5942C27.2444 15.5966 27.492 16.6152 27.7783 17.6201C27.8171 17.7369 27.8284 17.861 27.8115 17.9829C27.7946 18.1048 27.7499 18.2212 27.6808 18.323C27.3982 18.7803 27.1381 19.2514 26.8179 19.7012C26.6991 18.9156 26.6216 18.1463 26.4578 17.3883C26.1396 15.86 25.5654 14.3968 24.7596 13.0606C24.5883 12.78 24.6271 12.6008 24.8072 12.3627C27.1631 9.25295 30.2818 7.46626 34.1383 6.94629C34.596 6.88365 34.8961 7.00268 35.0974 7.46751C36.4072 10.4936 36.572 13.8941 35.5609 17.0331C34.5498 20.172 32.4322 22.8345 29.604 24.5225C28.2197 25.3457 26.7804 25.5424 25.2536 24.9635C24.9535 24.8495 24.8284 24.7756 25.1285 24.4887C25.725 23.9103 26.1737 23.1964 26.4365 22.4075C26.4794 22.2499 26.5656 22.1075 26.6855 21.9966C26.8054 21.8858 26.954 21.8111 27.1143 21.7811C28.2185 21.5104 29.3139 21.1972 30.4143 20.9103C30.752 20.8226 31.0396 20.6797 30.9295 20.2838C30.8195 19.8879 30.4794 19.9205 30.163 20.0032C29.2764 20.2375 28.3911 20.4793 27.3607 20.7549C27.8383 19.938 28.2485 19.2226 28.6762 18.5184C28.7487 18.3931 28.92 18.3931 29.0513 18.3593C30.0455 18.0937 31.0371 17.8218 32.0312 17.5587C32.2738 17.4948 32.4777 17.3995 32.5202 17.1252C32.5739 16.7631 32.2488 16.5313 31.8261 16.6415C31.0508 16.8445 30.273 17.0575 29.3589 17.3018Z" fill="#85CE46"/>
</g>
<defs>
<clipPath id="clip0_93_542">
<rect width="48" height="48" fill="white"/>
</clipPath>
</defs>
</svg>
