<svg width="48" height="49" viewBox="0 0 48 49" fill="none" xmlns="http://www.w3.org/2000/svg">
<g clip-path="url(#clip0_209_3045)">
<path d="M-0.0163574 14.2439C0.215497 13.9406 0.323277 13.5534 0.637847 13.3015C0.99776 12.9963 1.45434 12.8289 1.9262 12.829C2.81727 12.829 3.70709 12.8177 4.59691 12.839C4.89143 12.8453 4.97289 12.7601 4.95534 12.4731C4.9378 12.1445 4.9378 11.8153 4.95534 11.4867C4.98041 10.4704 5.73237 9.65072 6.75127 9.62565C7.99952 9.59056 9.24861 9.59056 10.4985 9.62565C11.4886 9.65573 12.2343 10.4691 12.2732 11.4604C12.2732 11.5231 12.2732 11.5858 12.2732 11.6484C12.3057 12.0332 12.109 12.651 12.3484 12.7525C12.7882 12.9368 13.351 12.8252 13.8661 12.8252C14.0967 12.8252 14.0265 12.6335 14.0277 12.5094C14.0277 11.5544 14.0277 10.6007 14.0277 9.6457C14.0277 8.60424 14.613 8.03025 15.657 8.02398C16.3124 8.02398 16.9679 8.01521 17.6246 8.02398C18.5583 8.03777 19.1736 8.65061 19.1862 9.58555C19.2004 10.5556 19.2004 11.526 19.1862 12.4969C19.1862 12.7626 19.2563 12.839 19.5233 12.834C20.4131 12.819 21.3029 12.8265 22.1927 12.834C22.763 12.834 22.9447 13.0007 23.07 13.586C22.9447 14.1086 22.5913 14.2477 22.0937 14.2477C17.1158 14.2385 12.1374 14.2385 7.15858 14.2477C6.39409 14.2477 5.6296 14.259 4.86511 14.2652C3.89759 14.2577 2.92881 14.2489 1.96129 14.2464C1.57404 14.2464 1.39357 14.4607 1.39357 14.8367C1.39357 16.6377 1.39357 18.4386 1.39357 20.2383C1.39357 20.4664 1.46751 20.5316 1.68934 20.5278C2.75085 20.5115 3.81237 20.509 4.87388 20.5015C4.93654 20.5015 4.99921 20.5203 5.05936 20.5203C9.65467 20.5203 14.25 20.5203 18.8453 20.5203C19.0631 20.5116 19.2767 20.4569 19.4719 20.3599C22.499 19.0556 25.526 19.0556 28.5531 20.3599C28.7638 20.4592 28.9932 20.5126 29.2261 20.5165C34.8816 20.5165 40.5376 20.5165 46.194 20.5165C46.57 20.5165 46.6151 20.3837 46.6126 20.0616C46.5976 18.4023 46.6051 16.7429 46.6051 15.0836C46.6051 14.3317 46.5086 14.2326 45.7278 14.2326C39.1356 14.2326 32.5426 14.2326 25.9488 14.2326C25.4475 14.2326 25.0502 14.1274 24.9236 13.5709C25.0414 12.9706 25.2244 12.819 25.8423 12.819C28.5756 12.819 31.3102 12.8114 34.0436 12.8265C34.3858 12.8265 34.5224 12.7588 34.486 12.3941C34.4609 12.0662 34.4609 11.7369 34.486 11.409C34.5349 10.4315 35.2731 9.63192 36.2406 9.61688C38.3185 9.58429 40.396 9.58429 42.4731 9.61688C43.4857 9.63317 44.2276 10.4591 44.2577 11.4842C44.2765 11.8123 44.2765 12.1412 44.2577 12.4693C44.2314 12.7764 44.353 12.8378 44.6337 12.8252C45.0861 12.8039 45.5398 12.8177 45.9935 12.8252C47.2066 12.8252 48.0087 13.6323 48.01 14.8605C48.01 18.8985 48.01 22.9366 48.01 26.9746C48.01 27.2879 47.9987 27.6012 48.01 27.9133C48.0326 28.4146 47.8245 28.7216 47.3257 28.8156C46.7517 28.6765 46.6013 28.4948 46.6013 27.9083C46.6013 26.076 46.5838 24.2437 46.6126 22.4127C46.6126 21.9816 46.4873 21.9114 46.0938 21.9114C41.28 21.9252 36.4662 21.9202 31.6524 21.9227C31.5058 21.9227 31.3478 21.875 31.2401 21.9427C35.7831 26.5698 36.3784 31.643 33.0235 37.2213C33.0974 37.2213 33.1701 37.2338 33.2428 37.2338C37.5728 37.2338 41.9016 37.2338 46.2304 37.2426C46.5625 37.2426 46.6063 37.1172 46.6063 36.8353C46.5963 35.0807 46.6001 33.3261 46.6063 31.5716C46.6063 30.9863 46.7567 30.8033 47.3307 30.6654C47.832 30.7594 48.0188 31.069 48.0163 31.5678C48.0075 34.2598 48.0163 36.9568 48.0163 39.6463C48.0163 40.8996 47.2229 41.6854 45.9584 41.6891C43.7025 41.6954 41.4579 41.6891 39.2071 41.6891C27.0028 41.6891 14.7981 41.695 2.59294 41.7067C1.39482 41.7067 0.491215 41.4222 0.00369481 40.2617L-0.0163574 14.2439ZM10.8482 12.74C10.8482 12.3528 10.8632 11.9667 10.862 11.5807C10.862 11.2248 10.6765 11.0268 10.3231 11.023C9.78292 11.023 9.24401 11.0356 8.70386 11.0431C8.09602 11.0368 7.48819 11.0205 6.8791 11.0255C6.54323 11.0255 6.36652 11.2248 6.36025 11.5619C6.35399 11.8991 6.37028 12.2199 6.35273 12.547C6.3402 12.7776 6.42542 12.8403 6.646 12.834C7.30145 12.8165 7.95691 12.819 8.61362 12.8127H10.768C10.8332 12.8328 10.862 12.8089 10.8482 12.7413V12.74ZM16.5844 12.8114C16.8802 12.8177 17.1772 12.8114 17.4717 12.8328C17.7148 12.8516 17.7963 12.7701 17.7913 12.5194C17.775 11.8326 17.785 11.1408 17.785 10.4566C17.785 9.38126 17.785 9.38126 16.6759 9.45395C16.3651 9.45395 16.0492 9.45395 15.7434 9.43014C15.4928 9.41134 15.4276 9.51912 15.4326 9.75474C15.4452 10.4265 15.4326 11.097 15.4326 11.7687C15.4364 12.8829 15.4364 12.8829 16.5844 12.8127V12.8114ZM42.8302 12.74C42.8365 12.3502 42.8453 11.9617 42.8453 11.5732C42.8453 11.211 42.651 11.0205 42.2964 11.0218C40.9178 11.0218 39.5329 11.0381 38.1506 11.0469C37.8711 11.0368 37.5916 11.0218 37.3109 11.0193C35.7242 11.0005 35.8796 10.9529 35.8759 12.5232C35.8771 12.5386 35.8771 12.5541 35.8759 12.5696C35.8508 12.7726 35.9373 12.8415 36.1403 12.8365C36.8108 12.8215 37.4826 12.8227 38.1531 12.8177H42.745C42.8102 12.8315 42.8453 12.814 42.8302 12.7413V12.74ZM4.85634 38.6725C4.03294 38.665 3.20955 38.6537 2.3874 38.6512C1.28077 38.6512 1.28202 38.6512 1.38479 39.7579C1.41612 40.0875 1.58406 40.2817 1.91868 40.2817C2.89748 40.2817 3.87628 40.2705 4.85383 40.2629C4.91518 40.2737 4.97712 40.2808 5.03931 40.2842C9.42824 40.2842 13.8168 40.2842 18.2049 40.2842C18.2713 40.2842 18.364 40.3206 18.3878 40.1978C17.7662 39.84 17.1854 39.4156 16.6558 38.932C16.5505 38.8316 16.4255 38.7542 16.2887 38.7046C16.152 38.655 16.0064 38.6343 15.8613 38.6437C13.1128 38.6537 10.3644 38.6437 7.61602 38.6512C6.70114 38.6525 5.77999 38.6663 4.8601 38.6738L4.85634 38.6725ZM23.5237 20.8373C23.0036 20.791 22.4985 20.9075 21.9972 21.0116C17.196 22.0066 13.8335 26.5422 14.3135 31.4136C14.603 34.3588 15.9427 36.6974 18.3051 38.4419C19.8104 39.581 21.6365 40.2165 23.5237 40.2579C24.4141 40.3331 25.3107 40.2594 26.1769 40.0399C31.2538 38.8229 34.3983 34.0806 33.5711 28.8921C32.8066 24.0983 28.3074 20.4864 23.5237 20.8373ZM4.86135 37.2225C4.92227 37.2333 4.9838 37.2404 5.04558 37.2438C8.26396 37.2438 11.4807 37.2438 14.6957 37.2438C14.7797 37.2401 14.8634 37.2313 14.9464 37.2175C11.6135 31.6455 12.2155 26.5564 16.7523 21.9502C16.6408 21.8826 16.4841 21.9289 16.3362 21.9289C13.7119 21.9289 11.088 21.9289 8.46448 21.9289C7.2626 21.9289 6.05947 21.9427 4.85759 21.9502C3.85498 21.9427 2.86114 21.9502 1.86354 21.9177C1.46876 21.9039 1.37978 22.0204 1.38103 22.4064C1.39732 26.0196 1.39106 29.6315 1.39106 33.2434C1.39106 34.4474 1.39106 35.6518 1.39106 36.8566C1.39106 37.0608 1.35095 37.2564 1.68056 37.2488C2.74082 37.2225 3.79983 37.2225 4.86135 37.2225ZM29.4554 40.293H45.3719C46.6101 40.293 46.6013 40.293 46.6026 39.0397C46.6026 38.7502 46.5499 38.645 46.2266 38.645C41.4792 38.6575 36.7314 38.6608 31.9832 38.655C31.8316 38.655 31.6775 38.6262 31.5434 38.7515C30.9006 39.3324 30.2011 39.8471 29.4554 40.288V40.293Z" fill="#030302"/>
<path d="M4.86133 14.259C5.62582 14.2527 6.39031 14.2414 7.1548 14.2414C12.1328 14.2414 17.1111 14.2414 22.0899 14.2414C22.5912 14.2414 22.9447 14.1023 23.0662 13.5797H24.9135C25.0389 14.1362 25.4324 14.2414 25.9387 14.2414C32.5317 14.2339 39.1247 14.2339 45.7177 14.2414C46.4935 14.2414 46.595 14.3354 46.595 15.0924C46.595 16.7517 46.5875 18.411 46.6025 20.0704C46.6025 20.3924 46.5649 20.5265 46.1839 20.5253C40.5284 20.5111 34.8724 20.5111 29.216 20.5253C28.9831 20.5213 28.7537 20.4679 28.543 20.3686C25.5176 19.0652 22.4906 19.0652 19.4618 20.3686C19.2666 20.4657 19.0531 20.5204 18.8352 20.5291C14.2399 20.524 9.64462 20.524 5.04932 20.5291C4.98791 20.5291 4.92399 20.5165 4.86383 20.5103V19.5653C5.17464 19.5653 5.4842 19.5528 5.79501 19.544C6.62968 19.5202 7.16357 19.0088 7.1924 18.1779C7.20994 17.6491 7.20994 17.1198 7.1924 16.59C7.16483 15.7692 6.62216 15.2428 5.79376 15.2115C5.4842 15.2002 5.16712 15.1989 4.86383 15.1927L4.86133 14.259ZM40.9867 19.5227C42.0331 19.5227 43.0809 19.5352 44.1273 19.5227C44.9131 19.5089 45.442 18.9712 45.4633 18.1867C45.4771 17.6553 45.4746 17.1227 45.4633 16.59C45.4483 15.7817 44.9269 15.2115 44.1211 15.2027C42.0273 15.1826 39.9331 15.1826 37.8385 15.2027C37.0715 15.2102 36.5626 15.7566 36.5338 16.5224C36.515 17.0387 36.52 17.5563 36.5338 18.0727C36.5488 19.0114 37.0552 19.5177 37.9901 19.5239C38.9864 19.5352 39.9865 19.5289 40.9867 19.5289V19.5227ZM12.1741 16.6753C11.253 16.6753 10.3318 16.6753 9.41694 16.6753C8.92692 16.6753 8.63365 16.9259 8.61611 17.337C8.59731 17.7669 8.89809 18.0764 9.39564 18.0789C11.2688 18.089 13.1429 18.089 15.0178 18.0789C15.484 18.0789 15.7973 17.7769 15.8036 17.3809C15.8111 16.9585 15.4965 16.679 14.9915 16.6753C14.0478 16.669 13.1116 16.6753 12.1741 16.6753Z" fill="#E6F6F9"/>
<path d="M47.3156 30.6729C46.7416 30.8107 46.5912 30.9937 46.5912 31.579C46.5912 33.3335 46.585 35.0881 46.5912 36.8427C46.5912 37.1272 46.5486 37.25 46.2153 37.25C41.8865 37.2375 37.5577 37.2425 33.2277 37.2412C33.155 37.2412 33.0823 37.2337 33.0084 37.2287C36.3646 31.6504 35.7655 26.5759 31.225 21.9501C31.3328 21.8825 31.4907 21.9301 31.6373 21.9301C36.4511 21.9301 41.2649 21.9301 46.0787 21.9188C46.4722 21.9188 46.6038 21.989 46.5975 22.4201C46.5687 24.2511 46.5837 26.0834 46.5862 27.9157C46.5862 28.5022 46.7366 28.6839 47.3106 28.823L47.3156 30.6729Z" fill="#FDB540"/>
<path d="M4.85754 21.949C6.05942 21.9415 7.26256 21.929 8.46444 21.9277C11.0871 21.9277 13.711 21.9277 16.3362 21.9277C16.4841 21.9277 16.6407 21.8814 16.7523 21.949C12.2029 26.5694 11.603 31.656 14.9526 37.2088C14.8696 37.2226 14.7859 37.2314 14.7019 37.2351C11.4852 37.2351 8.26851 37.2351 5.0518 37.2351C4.99002 37.2317 4.9285 37.2246 4.86757 37.2138L4.85754 21.949Z" fill="#FEB540"/>
<path d="M4.85754 21.9491V37.2176C3.79603 37.2251 2.73577 37.2176 1.67551 37.2477C1.3459 37.2552 1.386 37.0597 1.386 36.8554C1.386 35.6514 1.386 34.447 1.386 33.2422C1.386 29.6303 1.386 26.0184 1.37598 22.4053C1.37598 22.0193 1.46371 21.904 1.85848 21.9165C2.86611 21.9541 3.85995 21.9416 4.85754 21.9491Z" fill="#FCA710"/>
<path d="M23.5236 20.8374C28.3023 20.4865 32.8065 24.0959 33.5685 28.8921C34.3919 34.0806 31.2475 38.823 26.1743 40.0399C25.3099 40.2575 24.4155 40.3299 23.5274 40.2542C23.5231 40.2161 23.5081 40.18 23.4842 40.15C23.4602 40.1201 23.4283 40.0976 23.392 40.085C22.7035 39.7977 22.0585 39.4155 21.4758 38.9496C21.0434 38.6225 20.5083 38.3718 20.3265 37.7853C21.8906 38.5285 23.5236 38.8318 25.2443 38.5623C28.8024 38.0071 31.547 35.2161 32.0195 31.5077C32.4744 27.9346 30.5494 24.6962 27.4714 23.2362C25.0902 22.1082 22.699 22.1947 20.3278 23.3063C20.3278 23.0707 20.4995 22.9441 20.6511 22.8188C21.4257 22.1734 22.234 21.5793 23.1577 21.147C23.2943 21.0755 23.491 21.0555 23.5236 20.8374Z" fill="#796A77"/>
<path d="M23.5236 20.8373C23.4911 21.0516 23.2943 21.0754 23.1477 21.1443C22.2303 21.5767 21.4219 22.1707 20.6411 22.8162C20.4895 22.9415 20.3153 23.0668 20.3178 23.3024C20.1712 23.3914 20.027 23.4842 19.8779 23.5694C16.4089 25.5307 14.9225 30.1152 16.553 33.7547C17.316 35.4836 18.6409 36.904 20.3128 37.7852C20.4945 38.3717 21.0296 38.6223 21.462 38.9494C22.0447 39.4154 22.6897 39.7976 23.3783 40.0849C23.4145 40.0974 23.4464 40.12 23.4704 40.1499C23.4943 40.1799 23.5093 40.216 23.5136 40.2541C21.6264 40.2126 19.8003 39.5772 18.295 38.4381C15.9389 36.6936 14.5929 34.355 14.3034 31.4098C13.8234 26.5421 17.1859 22.0103 21.9871 21.0077C22.4985 20.9075 23.0035 20.7909 23.5236 20.8373Z" fill="#645C66"/>
<path d="M29.4555 40.2881C30.1996 39.8461 30.8974 39.3305 31.5384 38.749C31.6725 38.6237 31.8266 38.6525 31.9783 38.6525C36.7273 38.6525 41.4751 38.6492 46.2216 38.6425C46.5437 38.6425 46.5976 38.7478 46.5976 39.0373C46.5976 40.2906 46.6051 40.2906 45.3669 40.2906H29.4504L29.4555 40.2881Z" fill="#E7F8FB"/>
<path d="M4.86011 38.6739C5.78 38.6664 6.70115 38.6526 7.61729 38.6526C10.3657 38.6526 13.1141 38.6526 15.8625 38.6451C16.0077 38.6356 16.1532 38.6563 16.29 38.7059C16.4267 38.7555 16.5517 38.833 16.6571 38.9333C17.1867 39.4169 17.7675 39.8414 18.3891 40.1991C18.3653 40.3244 18.2725 40.2856 18.2061 40.2856C13.8172 40.2856 9.43076 40.2856 5.04684 40.2856C4.98465 40.2821 4.92272 40.275 4.86136 40.2643L4.86011 38.6739Z" fill="#E7F8FB"/>
<path d="M4.86131 14.259V15.1776C4.6282 15.1776 4.39384 15.1876 4.16199 15.1989C3.32606 15.2353 2.8022 15.7641 2.7834 16.5976C2.77337 17.1427 2.76961 17.6904 2.7834 18.2356C2.78406 18.5765 2.9197 18.9033 3.16067 19.1445C3.40163 19.3857 3.72831 19.5217 4.06925 19.5227C4.33368 19.5364 4.59812 19.5415 4.86131 19.5502V20.4952C3.79979 20.5027 2.73828 20.5052 1.67677 20.5215C1.45494 20.5215 1.37974 20.4601 1.381 20.232C1.38852 18.4323 1.381 16.6314 1.381 14.8305C1.381 14.4545 1.56147 14.2402 1.94872 14.2402C2.92502 14.2427 3.89379 14.2515 4.86131 14.259Z" fill="#CFDDE1"/>
<path d="M42.7449 12.8176H38.153V11.0505C39.5315 11.0417 40.9177 11.0292 42.2987 11.0255C42.6534 11.0255 42.8489 11.2147 42.8477 11.5769C42.8477 11.9654 42.8389 12.3539 42.8326 12.7437L42.7449 12.8176Z" fill="#D8E6EB"/>
<path d="M4.86013 38.6739V40.2643C3.88258 40.2718 2.90378 40.2831 1.92498 40.2831C1.59036 40.2831 1.42368 40.0888 1.39109 39.7592C1.28582 38.6514 1.28457 38.6488 2.3937 38.6526C3.21334 38.6551 4.03673 38.6664 4.86013 38.6739Z" fill="#D8E6EB"/>
<path d="M16.6759 9.45531C17.785 9.38262 17.785 9.38262 17.785 10.4579C17.785 11.146 17.775 11.8365 17.7913 12.5208C17.7913 12.7714 17.7149 12.8529 17.4717 12.8341C17.1772 12.8128 16.8802 12.8191 16.5844 12.8128C16.5844 12.3917 16.5694 11.9694 16.5844 11.5495C16.6145 10.8514 16.4904 10.1521 16.6759 9.45531Z" fill="#D8E6EB"/>
<path d="M8.61364 12.8138C7.95693 12.8138 7.30148 12.8138 6.64602 12.8351C6.42545 12.8414 6.34023 12.7787 6.35276 12.5481C6.3703 12.221 6.35276 11.8914 6.36028 11.5631C6.3678 11.2347 6.54325 11.0292 6.87662 11.0292C7.48571 11.0292 8.09354 11.0405 8.70137 11.0467C8.53093 11.627 8.63996 12.2248 8.61364 12.8138Z" fill="#C3D0DB"/>
<path d="M38.1506 11.0481V12.8152C37.4801 12.8152 36.8083 12.8152 36.1378 12.834C35.9348 12.834 35.8483 12.7701 35.8734 12.567C35.8746 12.5516 35.8746 12.5361 35.8734 12.5207C35.8734 10.9541 35.7217 11.0017 37.3084 11.0167C37.5916 11.0293 37.8711 11.038 38.1506 11.0481Z" fill="#C3D0DB"/>
<path d="M8.6136 12.8138C8.63992 12.2248 8.53088 11.627 8.70383 11.0442C9.24399 11.0367 9.7829 11.0204 10.3231 11.0242C10.6765 11.0242 10.862 11.226 10.862 11.5819C10.862 11.9679 10.8532 12.3539 10.8482 12.7411L10.768 12.8176L8.6136 12.8138Z" fill="#D8E6EB"/>
<path d="M16.6759 9.45523C16.4905 10.1458 16.6145 10.8514 16.587 11.5494C16.5694 11.9693 16.587 12.3916 16.587 12.8127C15.439 12.8829 15.439 12.8829 15.439 11.77C15.439 11.0983 15.4477 10.4278 15.439 9.75601C15.439 9.5204 15.4941 9.41262 15.7498 9.43141C16.0531 9.45523 16.3651 9.44896 16.6759 9.45523Z" fill="#C3D0DB"/>
<path d="M42.745 12.8177L42.8302 12.7412C42.8453 12.8139 42.8102 12.8314 42.745 12.8177Z" fill="#C3D0DB"/>
<path d="M10.7679 12.8177L10.8482 12.7412C10.8619 12.8089 10.8331 12.8327 10.7679 12.8177Z" fill="#C3D0DB"/>
<path d="M40.9867 19.529C39.984 19.529 38.9814 19.5352 37.9863 19.529C37.0514 19.529 36.5451 19.0164 36.53 18.0777C36.5213 17.5613 36.5163 17.0437 36.53 16.5274C36.5589 15.7617 37.0677 15.2152 37.8347 15.2077C39.9293 15.1852 42.0235 15.1852 44.1173 15.2077C44.9232 15.2152 45.4445 15.7867 45.4596 16.5951C45.4696 17.1277 45.4721 17.6604 45.4596 18.1917C45.4383 18.9763 44.9094 19.5139 44.1236 19.5277C43.0771 19.544 42.0294 19.5277 40.9829 19.5277L40.9867 19.529ZM40.3074 18.0965C41.4479 18.0965 42.5871 18.0965 43.7275 18.1153C44.2815 18.1228 44.0772 17.6854 44.0346 17.4824C43.9744 17.1891 44.4018 16.6352 43.7326 16.6151C42.5933 16.58 41.4529 16.6151 40.3124 16.6239C39.8938 16.6164 39.474 16.6038 39.0591 16.6026C37.8861 16.6026 37.8949 16.6026 37.945 17.7744C37.9563 18.0451 38.0528 18.1203 38.3059 18.114C38.9702 18.0977 39.6381 18.1015 40.3074 18.0965Z" fill="#030302"/>
<path d="M4.86133 19.5515C4.59814 19.5427 4.3337 19.5377 4.06926 19.5239C3.72963 19.5206 3.40501 19.3835 3.1659 19.1423C2.92679 18.901 2.7925 18.5752 2.79219 18.2356C2.77464 17.6904 2.7784 17.1427 2.79219 16.5976C2.80597 15.7641 3.32984 15.2353 4.17078 15.1989C4.40263 15.1876 4.63699 15.1839 4.8701 15.1776C5.17965 15.1776 5.49046 15.1851 5.80002 15.1964C6.62843 15.2277 7.17109 15.7541 7.19866 16.575C7.21621 17.1039 7.21621 17.6332 7.19866 18.1629C7.16984 18.9938 6.63595 19.5051 5.80127 19.5289C5.48169 19.5377 5.17213 19.544 4.86133 19.5515ZM4.98665 18.1203C5.78498 18.1203 5.78498 18.1203 5.78498 17.3608C5.78498 16.6013 5.78498 16.6088 4.98164 16.6088C4.1783 16.6088 4.18832 16.6088 4.18832 17.3232C4.19083 18.119 4.19083 18.119 4.98916 18.119L4.98665 18.1203Z" fill="#030302"/>
<path d="M12.1741 16.6753C13.1116 16.6753 14.054 16.6753 14.9852 16.6753C15.4865 16.6753 15.8048 16.9586 15.7973 17.3809C15.7911 17.7769 15.4777 18.0777 15.0115 18.079C13.1366 18.089 11.2626 18.089 9.38938 18.079C8.88808 18.079 8.59105 17.7669 8.60985 17.3371C8.6274 16.9285 8.92066 16.6791 9.41069 16.6753C10.3318 16.6691 11.253 16.6753 12.1741 16.6753Z" fill="#030302"/>
<path d="M20.3228 37.7852C18.651 36.904 17.326 35.4837 16.563 33.7547C14.9338 30.1202 16.4189 25.5308 19.888 23.5694C20.0371 23.4842 20.1812 23.3914 20.3279 23.3025C22.6978 22.1921 25.0903 22.1018 27.4715 23.2335C30.5495 24.6961 32.4745 27.9345 32.0196 31.5051C31.5471 35.2135 28.8024 38.0045 25.2444 38.5597C23.5199 38.8316 21.8869 38.5284 20.3228 37.7852ZM24.4812 37.1974C24.5275 37.2005 24.574 37.2005 24.6203 37.1974C28.434 36.8841 31.2287 33.2484 30.5771 29.4522C30.0507 26.3867 27.4639 24.003 24.5488 23.894C24.428 23.8691 24.3058 23.8515 24.1829 23.8414C22.8601 23.8058 21.5564 24.1631 20.4365 24.8682C19.3167 25.5733 18.431 26.5945 17.8913 27.8027C17.3516 29.011 17.1821 30.3521 17.4044 31.6567C17.6266 32.9612 18.2305 34.1706 19.1398 35.132C20.5935 36.6434 22.3682 37.3779 24.4812 37.1974Z" fill="#010303"/>
<path d="M40.3124 16.6239C41.4529 16.6164 42.5933 16.58 43.7325 16.6151C44.4018 16.6352 43.9744 17.1891 44.0346 17.4824C44.0772 17.6854 44.2852 18.1228 43.7275 18.1153C42.5871 18.1027 41.4478 18.1015 40.3074 18.0965C40.3099 17.6052 40.3116 17.1143 40.3124 16.6239Z" fill="#796A77"/>
<path d="M40.3125 16.6238C40.3125 17.1134 40.3125 17.6043 40.3125 18.0964C39.6433 18.0964 38.9753 18.0964 38.3073 18.1139C38.0566 18.1139 37.9576 18.045 37.9463 17.7743C37.8962 16.6013 37.8874 16.6 39.0605 16.6025C39.4741 16.6038 39.8939 16.6163 40.3125 16.6238Z" fill="#645C66"/>
<path d="M4.98925 18.1189C4.19092 18.1189 4.19092 18.1189 4.19092 17.3193C4.19092 16.605 4.19092 16.605 4.98423 16.605C5.77755 16.605 5.78758 16.605 5.78758 17.3569C5.78758 18.1089 5.78758 18.1189 4.98925 18.1189Z" fill="#60DAF9"/>
<path d="M24.5476 23.9003C27.464 24.0093 30.0507 26.393 30.5771 29.4585C31.2288 33.2546 28.434 36.8903 24.6203 37.2037C24.574 37.2068 24.5275 37.2068 24.4812 37.2037C23.7518 36.8862 23.0928 36.427 22.5424 35.8526C22.0185 35.3275 21.4921 34.7961 21.2753 34.0517C21.3819 34.1131 21.4909 34.177 21.5937 34.2372C22.2569 34.6673 23.0237 34.9108 23.8136 34.942C24.6035 34.9733 25.3872 34.7911 26.0823 34.4146C26.7773 34.0382 27.3582 33.4814 27.7636 32.8028C28.1691 32.1242 28.3842 31.3489 28.3863 30.5585C28.3885 29.768 28.1776 28.9915 27.7758 28.3107C27.374 27.63 26.7962 27.07 26.1032 26.6898C25.4102 26.3096 24.6275 26.1232 23.8374 26.1501C23.0474 26.1771 22.2792 26.4164 21.6137 26.8429C21.5022 26.9131 21.4232 27.0623 21.254 27.0209C21.9696 25.5671 23.0963 24.5645 24.5476 23.9003Z" fill="#60DAF9"/>
<path d="M21.2766 34.0518C21.4934 34.7963 22.0198 35.3276 22.5436 35.8528C23.0942 36.4247 23.7528 36.8818 24.4812 37.1975C22.3682 37.378 20.5961 36.6436 19.1398 35.1384C18.2305 34.177 17.6266 32.9676 17.4044 31.663C17.1822 30.3585 17.3516 29.0174 17.8913 27.8091C18.431 26.6009 19.3167 25.5797 20.4365 24.8746C21.5564 24.1695 22.8601 23.8122 24.1829 23.8478C24.3054 23.8578 24.4272 23.8754 24.5476 23.9004C23.0963 24.5646 21.9696 25.5722 21.2553 27.0173C21.13 27.1539 21.0184 27.2955 20.8918 27.4283C19.8817 28.4873 19.4493 29.7306 19.6499 31.1944C19.804 32.3223 20.3805 33.1996 21.1763 33.9591L21.2804 34.0669L21.2766 34.0518Z" fill="#00CFF8"/>
<path d="M21.1763 33.9641C20.3805 33.2022 19.804 32.3224 19.6498 31.1994C19.4493 29.7356 19.8817 28.4924 20.8918 27.4334C21.0171 27.3005 21.1349 27.1589 21.2552 27.0223C21.4244 27.0637 21.5059 26.9145 21.6149 26.8444C22.2804 26.4178 23.0486 26.1785 23.8386 26.1515C24.6287 26.1246 25.4114 26.311 26.1044 26.6912C26.7974 27.0715 27.3752 27.6314 27.777 28.3122C28.1788 28.9929 28.3897 29.7694 28.3875 30.5599C28.3854 31.3503 28.1703 32.1256 27.7648 32.8042C27.3594 33.4828 26.7785 34.0396 26.0834 34.416C25.3884 34.7925 24.6047 34.9747 23.8148 34.9435C23.0249 34.9122 22.2581 34.6687 21.5949 34.2386C21.4921 34.1734 21.3831 34.1133 21.2765 34.0531V34.0682C21.2815 33.9967 21.2314 33.9754 21.1763 33.9641ZM25.2331 33.2423C26.2708 32.8174 26.9877 31.722 26.9877 30.5515C26.9877 29.381 26.2746 28.2843 25.2331 27.8595C24.0387 27.2492 22.5223 27.5988 21.655 28.6829C21.2321 29.2137 21.0019 29.8722 21.0019 30.5509C21.0019 31.2295 21.2321 31.8881 21.655 32.4189C22.5173 33.4954 24.0375 33.8451 25.2331 33.2372V33.2423Z" fill="#010303"/>
<path d="M21.1764 33.9639C21.2315 33.9802 21.2817 34.0015 21.2804 34.0717L21.1764 33.9639Z" fill="#60DAF9"/>
<path d="M25.2332 33.2371C24.0375 33.845 22.5173 33.4953 21.6551 32.4137C21.2322 31.883 21.002 31.2244 21.002 30.5458C21.002 29.8671 21.2322 29.2086 21.6551 28.6778C22.5224 27.5937 24.0363 27.244 25.2332 27.8544C23.5889 29.0939 23.5876 32.0014 25.2332 33.2371Z" fill="#00C0F8"/>
<path d="M25.2332 33.2371C23.5877 32.0014 23.5889 29.0938 25.2332 27.8543C26.2709 28.2792 26.9878 29.3745 26.9878 30.5463C26.9878 31.7181 26.2709 32.8122 25.2332 33.2371Z" fill="#00CFF8"/>
</g>
<defs>
<clipPath id="clip0_209_3045">
<rect width="48" height="48" fill="white" transform="translate(0 0.863281)"/>
</clipPath>
</defs>
</svg>
