<svg width="48" height="49" viewBox="0 0 48 49" fill="none" xmlns="http://www.w3.org/2000/svg">
<path d="M0.0136108 34.8554C0.0286108 34.8554 0.0539233 34.8508 0.0567358 34.8423C0.590173 33.4361 1.65705 33.0123 3.09049 33.0545C5.21205 33.1183 7.33736 33.0714 9.4608 33.0704C9.65486 33.0704 9.84142 33.1173 9.95299 32.8492C10.882 30.6123 12.7186 29.5258 14.9517 28.9642C15.8916 28.734 16.8532 28.6036 17.8205 28.5751C18.1413 28.5736 18.4582 28.504 18.7501 28.3708C19.0419 28.2376 19.3022 28.044 19.5136 27.8026C19.7199 27.5701 19.6945 27.4464 19.4592 27.2579C18.4355 26.4581 17.5827 25.4609 16.9514 24.3255C16.4134 23.3525 16.1327 22.2582 16.1358 21.1464C16.1358 18.0704 16.1358 14.9936 16.1414 11.9176C16.1414 11.6551 16.0955 11.4705 15.8724 11.2792C14.1417 9.80264 14.1314 7.5067 15.8349 5.9767C16.6786 5.21733 17.6911 4.8517 18.8142 4.78326C18.923 4.77576 19.0327 4.7767 19.1424 4.7767C19.673 4.7767 20.2102 4.82826 20.7361 4.7617C21.3164 4.68764 21.4552 4.0567 21.8358 3.71545C23.5899 2.13576 26.2777 1.77389 28.178 2.89889C28.8099 3.27389 29.332 3.7642 29.6564 4.42326C29.8074 4.73076 30.0005 4.7842 30.3061 4.78514C31.2708 4.78514 32.2411 4.69889 33.1927 4.96232C34.9383 5.44701 36.2199 6.90108 36.2752 8.49295C36.3155 9.63858 35.8158 10.5433 34.9627 11.267C34.8661 11.3397 34.7889 11.4352 34.7382 11.545C34.6875 11.6548 34.6648 11.7754 34.6721 11.8961C34.6833 14.7536 34.6477 17.6148 34.688 20.4686C34.7283 23.2811 33.5133 25.4533 31.4274 27.2064C31.0664 27.5101 31.1067 27.6751 31.4002 27.9517C31.8586 28.3858 32.4014 28.5489 33.0155 28.5808C34.6092 28.6642 36.1739 28.9173 37.642 29.5998C39.6108 30.5139 40.778 32.0476 41.2402 34.1505C41.407 34.9108 41.6152 35.6626 41.7689 36.4258C41.8252 36.707 41.9264 36.7595 42.1983 36.7389C43.0261 36.6789 43.028 36.693 43.028 35.8539C43.028 32.9964 43.0205 30.1351 43.0364 27.2814C43.0364 26.9158 42.9858 26.7826 42.5677 26.7864C40.5774 26.8079 39.4739 25.6886 39.4739 23.6926C39.4739 21.8345 39.4739 19.9761 39.4739 18.1173C39.4739 16.2798 40.6045 15.1454 42.4486 15.1258C43.2924 15.1173 44.1361 15.1258 44.9799 15.1258C46.5483 15.1351 47.4296 15.7876 47.9142 17.2876C47.9208 17.3083 47.9611 17.3186 47.9864 17.3336V24.6461C47.4164 26.1705 46.3439 26.9298 44.6949 26.8023C44.3321 26.7733 44.4399 27.0339 44.4389 27.2092C44.4389 30.2683 44.4389 33.3283 44.4286 36.3873C44.4286 36.6911 44.5167 36.7989 44.8036 36.8945C46.2474 37.3736 47.1567 38.3683 47.3405 39.8851C47.4967 41.1725 47.4936 42.4742 47.3311 43.7608C47.1436 45.2364 45.9464 46.4711 44.4849 46.7439C43.6845 46.8922 42.8648 46.904 42.0605 46.7786C41.0489 46.6239 40.373 46.0051 40.1602 45.0264C40.0589 44.568 39.8695 44.5511 39.5105 44.552C34.4686 44.5595 29.427 44.5614 24.3858 44.5576C23.6086 44.5576 23.6086 44.5576 23.602 45.3367C23.5908 46.743 22.7255 47.6064 21.3174 47.6083C18.9911 47.6083 16.6655 47.6083 14.3405 47.6083C13.7245 47.6083 13.5708 47.4864 13.387 46.8733C13.5117 46.3717 13.8277 46.1842 14.3452 46.188C16.1845 46.2011 18.0239 46.1814 19.8633 46.1748C20.3611 46.1823 20.8599 46.1992 21.3577 46.1936C21.8836 46.188 22.147 45.9601 22.1827 45.4436C22.2136 44.9929 22.2136 44.5405 22.1827 44.0898C22.1517 43.6295 21.8799 43.4008 21.4064 43.3961C20.8936 43.3905 20.3752 43.4045 19.8661 43.4101C19.7105 43.4045 19.5549 43.3942 19.3974 43.3942H7.05705C6.96336 43.3895 6.86949 43.3895 6.7758 43.3942C6.36236 43.4355 6.11017 43.6473 6.09799 44.0795C6.08767 44.4845 6.09236 44.8905 6.09799 45.2983C6.09799 45.9723 6.32205 46.1964 6.99236 46.1973C8.22424 46.1973 9.45705 46.2133 10.6889 46.1917C11.2045 46.1823 11.5224 46.3792 11.6527 46.8751C11.5589 47.3167 11.3386 47.6139 10.838 47.612C9.44955 47.612 8.06017 47.6298 6.67267 47.6026C6.15199 47.5897 5.65607 47.3777 5.28691 47.0103C4.91775 46.6429 4.70341 46.1479 4.68799 45.6273C4.66549 45.0648 4.66549 44.5023 4.68799 43.9398C4.70929 43.4194 4.92798 42.9266 5.29959 42.5616C5.67121 42.1966 6.16786 41.9868 6.68861 41.9748C6.90517 41.9673 7.12174 41.9748 7.45455 41.9748C6.25549 41.0176 5.29361 40.0239 4.72174 38.7573C4.37392 37.9886 3.92111 37.757 3.13267 37.8489C1.69549 38.0148 0.597673 37.5217 0.0567358 36.0864C0.0567358 36.078 0.0286108 36.077 0.0136108 36.0733V34.8554ZM31.9758 17.6992C32.1024 17.9579 32.3217 18.1361 32.543 18.2992C32.7361 18.4426 32.9517 18.7089 33.1786 18.6067C33.4055 18.5045 33.2649 18.1858 33.2667 17.9664C33.2789 16.7767 33.2724 16.7767 32.0583 16.5995C31.8924 16.5761 31.6917 16.4233 31.5727 16.5311C31.4189 16.6698 31.5811 16.8826 31.628 17.0495C31.681 17.2951 31.8014 17.5211 31.9758 17.702V17.6992ZM34.1799 31.4805C34.1864 31.293 34.1995 31.1055 34.2005 30.918C34.2005 30.0864 34.2005 30.0545 33.3867 30.0161C32.1905 29.9617 32.3555 29.6851 32.3986 31.0173C32.3892 31.7158 32.3658 32.4151 32.377 33.1136C32.3836 33.572 32.167 34.2011 32.4708 34.4467C32.8092 34.7205 33.4261 34.502 33.9202 34.5311C34.1508 34.5442 34.2089 34.443 34.2014 34.2273C34.1883 33.3161 34.1864 32.3992 34.1799 31.4823V31.4805ZM28.9627 30.332C29.3148 30.2118 29.6474 30.0406 29.9499 29.8239C30.6999 29.3176 30.6999 29.3167 30.142 28.6558C30.1 28.6102 30.0618 28.5613 30.0277 28.5095C29.9395 28.3595 29.8345 28.3351 29.6827 28.428C29.0733 28.803 28.4002 29.042 27.7505 29.3317C27.5705 29.3776 27.3895 29.4208 27.2095 29.4705C26.0845 29.7789 24.9455 29.9111 23.7942 29.5811C23.0746 29.3755 22.3774 29.0985 21.713 28.7542C20.9039 28.3351 20.9105 28.3436 20.288 29.0214C20.1417 29.1798 20.1558 29.2651 20.2927 29.3964C20.5911 29.697 20.9402 29.9426 21.3239 30.122C23.8374 31.2545 26.3874 31.2864 28.9627 30.3339V30.332ZM25.5192 28.3098L25.5099 28.3145C25.572 28.3228 25.6348 28.3253 25.6974 28.322C27.9117 28.0201 29.7549 26.9898 31.2952 25.4055C32.482 24.1867 33.1927 22.7336 33.2799 20.9992C33.307 20.4798 33.2489 20.1039 32.6517 19.982C32.4174 19.9342 32.2064 19.7711 31.9852 19.6604C30.8827 18.8898 30.1599 17.8876 30.0914 16.5011C30.0783 16.2526 29.9245 16.2358 29.7492 16.2198C28.973 16.1504 28.1967 16.0736 27.4195 16.0164C26.8411 15.9742 26.662 15.8364 26.5242 15.2664C26.7117 14.6861 26.857 14.582 27.4711 14.6026C29.0142 14.6551 30.5349 14.9111 32.0649 15.1089L33.2255 15.3676C33.2431 15.3263 33.2563 15.2833 33.2649 15.2392C33.2649 14.0205 33.292 12.8064 33.2592 11.5914C33.2442 11.0289 33.4008 10.6445 33.8836 10.2995C35.0367 9.47733 35.1764 8.23701 34.2924 7.23295C33.8667 6.72931 33.2734 6.39638 32.6217 6.29545C31.6017 6.0817 30.5686 6.2167 29.542 6.2017C29.0733 6.19326 28.7827 6.03201 28.6289 5.57826C28.3149 4.6492 27.6455 4.09045 26.7192 3.8167C25.8581 3.57246 24.9405 3.61913 24.1085 3.94948C23.2766 4.27984 22.577 4.87542 22.118 5.64389C21.8845 6.03951 21.5958 6.20639 21.1355 6.20639C20.2167 6.20639 19.2905 6.10233 18.3802 6.2767C17.2655 6.48951 16.3889 7.0642 16.0627 8.1967C15.7533 9.27295 16.3795 9.96858 17.2111 10.5245C17.4877 10.712 17.5552 10.9792 17.5533 11.2961C17.5449 12.5289 17.5533 13.7617 17.5439 14.9945C17.5439 15.3001 17.5861 15.3789 17.9189 15.3095C19.8117 14.9121 21.7343 14.6728 23.6667 14.5942C24.2658 14.5726 24.442 14.6983 24.5986 15.272C24.5405 15.7839 24.2236 15.9986 23.7408 16.0089C22.8502 16.0276 21.968 16.1401 21.083 16.2151C20.8195 16.2376 20.7183 16.3183 20.6967 16.6023C20.6498 17.276 20.4204 17.9242 20.033 18.4773C19.4883 19.2583 18.742 19.773 17.8692 20.1198C17.6911 20.1901 17.5467 20.2314 17.5374 20.4873C17.497 21.663 17.6592 22.7833 18.2733 23.8136C18.998 25.0323 19.9805 25.9998 21.1467 26.778C22.357 27.5861 23.6292 28.2705 25.1302 28.3623C25.1944 28.3854 25.2632 28.3929 25.3308 28.3841C25.3985 28.3752 25.4631 28.3504 25.5192 28.3117V28.3098ZM43.3008 38.1489C43.1302 38.1433 42.9586 38.132 42.788 38.132C41.7952 38.132 41.5017 38.4189 41.5008 39.4005C41.5008 40.9905 41.5008 42.5801 41.5008 44.1695C41.5008 45.0873 41.8158 45.3986 42.7402 45.4014C42.9277 45.4014 43.1105 45.3789 43.2961 45.3667C44.813 45.5626 45.967 44.5914 45.9989 43.0736C46.0158 42.2805 46.0036 41.4864 45.9989 40.6923C46.0008 38.9711 45.0136 38.0439 43.3008 38.1489ZM35.632 32.1367C35.6264 32.8998 35.6236 33.663 35.6142 34.4261C35.6059 34.495 35.6195 34.5649 35.6532 34.6257C35.6869 34.6864 35.7388 34.735 35.8017 34.7645C36.518 35.162 36.8095 35.8286 36.9399 36.5973C37.258 38.4686 37.5789 40.3395 37.9027 42.2101C38.0724 43.1851 38.0789 43.1842 39.0989 43.1073C39.2555 43.1053 39.412 43.1128 39.5677 43.1298C40.012 43.2039 40.1124 43.0061 40.102 42.588C40.0749 41.463 40.0974 40.338 40.0917 39.213C40.0917 38.702 40.1742 38.2183 40.4724 37.7908C40.5191 37.7301 40.5507 37.6592 40.5647 37.5839C40.5787 37.5086 40.5747 37.4311 40.553 37.3576C40.2774 36.2383 40.0486 35.1076 39.742 33.9958C39.203 32.0392 37.7874 30.9958 35.9227 30.4445C35.7005 30.3798 35.6124 30.4445 35.6199 30.6826C35.6302 31.1711 35.6264 31.6548 35.632 32.1386V32.1367ZM44.153 16.5864C43.5905 16.5761 43.0327 16.5564 42.473 16.5573C41.4033 16.5573 40.9074 17.0589 40.9036 18.1351C40.8989 19.7289 40.9036 21.3142 40.9036 22.9033C40.9036 23.3083 40.8849 23.7161 40.9214 24.122C40.988 24.872 41.4942 25.3605 42.2339 25.3839C42.8714 25.4036 43.5108 25.3755 44.1492 25.368C44.5242 25.3755 44.8992 25.4026 45.2742 25.3839C46.0102 25.3464 46.567 24.8355 46.5755 24.107C46.5999 22.0176 46.5999 19.9276 46.5755 17.837C46.567 17.1198 46.0317 16.6126 45.323 16.5742C44.9311 16.5442 44.5449 16.5751 44.153 16.5864ZM34.4077 43.1176C35.0002 43.1261 35.5936 43.1101 36.1833 43.1505C36.5752 43.1776 36.6183 43.0286 36.5583 42.6967C36.3483 41.5623 36.1589 40.4251 35.963 39.2889C35.8167 38.4451 35.6742 37.6014 35.5242 36.7576C35.4127 36.1295 35.2195 35.9673 34.5867 35.9701C34.118 35.9701 33.6492 35.9851 33.1852 35.9936C31.4236 35.9851 29.6611 35.9823 27.8995 35.9636C27.6436 35.9636 27.6436 36.138 27.5855 36.2842C27.1852 37.2929 26.3667 37.8592 25.2792 37.8686C24.8105 37.8733 24.3417 37.8873 23.873 37.863C23.5833 37.848 23.4427 37.9417 23.3152 38.2117C22.6788 39.5721 21.7475 40.7736 20.5889 41.7292C20.5177 41.7892 20.3808 41.823 20.4239 41.9842C20.7989 41.9842 21.1739 41.9786 21.5433 41.9842C22.2286 41.9964 22.7949 42.2786 23.1755 42.8373C23.3564 43.1017 23.5505 43.1486 23.8317 43.1476C26.8102 43.1411 29.7895 43.1476 32.7689 43.142C33.3183 43.1317 33.863 43.1176 34.4077 43.1083V43.1176ZM20.618 34.502C20.4305 34.4964 20.243 34.4851 20.0555 34.4851H5.8608C4.91299 34.4851 4.82955 34.5864 4.98892 35.5351C4.98892 35.5661 4.9983 35.597 5.0058 35.6289C5.70424 38.4855 7.32799 40.5976 10.0195 41.8426C10.155 41.9198 10.3064 41.9648 10.462 41.9739C12.3833 41.9645 14.3039 41.958 16.2239 41.9542C17.1474 42.0976 17.9583 41.8501 18.7364 41.3355C20.2364 40.3455 21.3811 39.0658 22.1217 37.4317C22.4752 36.6498 22.7827 35.8501 22.7986 34.9708C22.8052 34.6201 22.6777 34.4598 22.3017 34.4804C21.742 34.5076 21.1795 34.4926 20.618 34.502ZM30.9511 30.9555C27.2395 32.9111 23.5711 32.9101 19.8764 31.0089C19.8764 31.5714 19.8952 32.1339 19.8689 32.6964C19.8539 33.0133 19.9627 33.0817 20.2627 33.0789C21.9174 33.0658 23.572 33.0789 25.2314 33.0714C26.1849 33.0714 26.9189 33.4623 27.4092 34.2789C27.503 34.4373 27.5902 34.5442 27.8002 34.5423C28.7514 34.5323 29.7033 34.5323 30.6558 34.5423C30.8724 34.5423 30.9614 34.4814 30.9595 34.2508C30.9511 33.1567 30.9511 32.0645 30.9511 30.9555ZM11.4145 33.0714C12.6333 33.0714 13.7733 33.0648 14.9095 33.077C15.1599 33.077 15.2283 32.9936 15.2236 32.7555C15.2114 32.0542 15.2133 31.3492 15.2236 30.6526C15.2236 30.4183 15.172 30.3648 14.9311 30.4333C14.2681 30.6091 13.6358 30.8851 13.0561 31.2517C12.3493 31.6926 11.7806 32.3231 11.4145 33.0714ZM18.4664 31.5405C18.4664 31.4936 18.4664 31.4467 18.4664 31.3998C18.4364 30.9236 18.6755 30.2326 18.3727 30.0273C18.0502 29.807 17.4211 30.047 16.9242 30.0639C16.6983 30.0714 16.6364 30.1576 16.643 30.3733C16.653 31.167 16.653 31.9611 16.643 32.7555C16.643 32.9917 16.7002 33.0892 16.9542 33.077C17.3583 33.0573 17.7652 33.0564 18.1683 33.077C18.4261 33.0901 18.4852 32.9908 18.4758 32.7545C18.4542 32.3505 18.4664 31.9455 18.4664 31.5405ZM23.9883 36.4426C24.4908 36.4426 24.9417 36.4633 25.3946 36.438C25.6438 36.4276 25.8796 36.322 26.0533 36.1429C26.227 35.9639 26.3254 35.725 26.3281 35.4755C26.3309 35.2261 26.2378 34.9851 26.0682 34.8022C25.8985 34.6193 25.6651 34.5085 25.4161 34.4926C25.0908 34.4673 24.7599 34.4926 24.4355 34.4814C24.2583 34.4767 24.1833 34.5292 24.203 34.7205C24.2574 35.2839 24.1655 35.8351 23.9883 36.4426ZM3.72517 36.4426C3.66049 36.062 3.63799 35.7133 3.53767 35.3917C3.44392 35.0889 3.74767 34.6689 3.42799 34.5151C3.14674 34.3811 2.75486 34.472 2.41267 34.4861C1.84549 34.5095 1.42549 34.9398 1.43017 35.4705C1.43486 36.0011 1.8558 36.4201 2.42767 36.4398C2.84486 36.4614 3.2658 36.4445 3.72517 36.4445V36.4426ZM19.1002 16.5114C18.6183 16.6051 18.1917 16.6933 17.7642 16.7748C17.7332 16.7769 17.7029 16.7853 17.6751 16.7994C17.6474 16.8136 17.6228 16.8332 17.6029 16.8572C17.583 16.8811 17.5682 16.9088 17.5593 16.9387C17.5505 16.9685 17.5478 16.9998 17.5514 17.0308C17.5514 17.4989 17.5514 17.9676 17.5514 18.437C17.5514 18.588 17.5805 18.6705 17.768 18.6142C18.3652 18.4323 19.2249 17.3392 19.2417 16.7345C19.2436 16.5864 19.2324 16.4767 19.0992 16.5133L19.1002 16.5114Z" fill="#030303"/>
<path d="M8.67622 27.2681C8.66216 27.9244 8.27216 28.5103 7.71435 28.9931C7.4331 29.2378 7.10122 29.2153 6.82279 28.966C6.52654 28.7006 6.49747 28.3763 6.70935 28.0406C6.77199 27.9517 6.84431 27.8699 6.92497 27.7969C7.29997 27.4266 7.33091 27.0216 7.08997 26.5641C6.92916 26.2636 6.78884 25.9526 6.66997 25.6331C6.31279 24.646 6.72529 23.4403 7.60747 22.876C7.91966 22.6763 8.23841 22.6988 8.50091 22.9697C8.76341 23.2406 8.84216 23.6156 8.56747 23.8491C7.74622 24.5456 7.93091 25.2553 8.4006 26.0335C8.59747 26.3644 8.67997 26.7525 8.67622 27.2681Z" fill="#050505"/>
<path d="M12.6191 19.6529C12.6257 19.9098 12.4757 20.1001 12.2985 20.2857C11.7744 20.8398 11.75 21.0498 12.0801 21.7398C12.235 22.0435 12.3709 22.3566 12.4869 22.6773C12.7813 23.5801 12.4026 24.6742 11.6291 25.2086C11.3207 25.4214 11.0038 25.4129 10.7329 25.1598C10.445 24.8907 10.4207 24.5626 10.6391 24.2326C10.7126 24.1318 10.7947 24.0377 10.8847 23.9514C11.2054 23.6185 11.2457 23.2501 11.0441 22.8395C10.872 22.5089 10.7177 22.1694 10.5819 21.8223C10.2266 20.8445 10.655 19.6248 11.5288 19.0707C11.6317 18.9989 11.7526 18.9574 11.8779 18.951C12.0032 18.9445 12.1278 18.9733 12.2376 19.0342C12.3518 19.0924 12.4477 19.181 12.515 19.2901C12.5823 19.3992 12.6183 19.5247 12.6191 19.6529Z" fill="#050505"/>
<path d="M24.6032 15.2654C24.4467 14.6916 24.2704 14.566 23.6714 14.5876C21.7376 14.666 19.8138 14.9052 17.9198 15.3029C17.5823 15.3723 17.5364 15.2935 17.5448 14.9879C17.5589 13.7551 17.5448 12.5223 17.5542 11.2894C17.5542 10.9726 17.4885 10.7026 17.212 10.5179C16.3804 9.96195 15.7542 9.26632 16.0635 8.19007C16.3889 7.05757 17.2635 6.48288 18.3801 6.27382C19.2904 6.09944 20.2167 6.20444 21.1354 6.20351C21.5957 6.20351 21.8854 6.04038 22.1179 5.64101C22.5769 4.87254 23.2766 4.27696 24.1085 3.9466C24.9404 3.61625 25.858 3.56957 26.7192 3.81382C27.6454 4.08757 28.3129 4.64632 28.6289 5.57538C28.7826 6.02913 29.0732 6.19038 29.542 6.19882C30.5686 6.21851 31.6045 6.08351 32.6217 6.29257C32.6283 6.45288 32.7567 6.53069 32.8504 6.63101C34.0486 7.91163 33.8067 9.5082 32.4398 10.5338C32.1782 10.7298 32.0526 10.9388 32.0564 11.2726C32.0695 12.5504 32.0564 13.8282 32.0564 15.106C30.5292 14.9082 29.0086 14.6523 27.4626 14.5998C26.8486 14.5791 26.7023 14.6832 26.5157 15.2635L24.6032 15.2654ZM26.0095 9.1257C26.0095 8.59601 26.0207 8.06632 26.0095 7.53195C25.9964 7.06319 25.702 6.76132 25.3036 6.76507C24.9051 6.76882 24.6032 7.07632 24.5967 7.53945C24.5836 8.58288 24.5817 9.62632 24.5967 10.6698C24.6042 11.1441 24.8967 11.4282 25.3101 11.4273C25.7236 11.4263 25.9964 11.146 26.0095 10.6623C26.0217 10.1541 26.0104 9.63945 26.0095 9.1257ZM21.2011 10.5713C21.2011 10.0416 21.2104 9.51101 21.2011 8.97757C21.1917 8.54257 20.9076 8.25007 20.5204 8.23882C20.1145 8.22757 19.8014 8.53038 19.7967 8.98882C19.7854 10.0482 19.7854 11.1073 19.7967 12.166C19.8023 12.5973 20.0995 12.8982 20.4811 12.9094C20.8823 12.9226 21.1907 12.6132 21.2011 12.1594C21.2086 11.6307 21.2011 11.1001 21.2011 10.5713ZM29.4145 10.5638C29.4145 11.0935 29.4051 11.6232 29.4145 12.1529C29.4248 12.5944 29.6957 12.8898 30.0792 12.9104C30.1772 12.9139 30.2748 12.8973 30.3661 12.8615C30.4574 12.8258 30.5404 12.7718 30.61 12.7027C30.6796 12.6337 30.7342 12.5511 30.7707 12.46C30.8071 12.369 30.8244 12.2715 30.8217 12.1735C30.8392 11.111 30.8392 10.0519 30.8217 8.99632C30.8151 8.52757 30.5048 8.23695 30.0979 8.24632C29.6911 8.2557 29.4211 8.54913 29.4117 9.02538C29.4042 9.53632 29.4126 10.0501 29.4136 10.5638H29.4145Z" fill="#E3E3E3"/>
<path d="M24.6033 15.2654H26.5214C26.6592 15.8364 26.8383 15.9742 27.4167 16.0154C28.1939 16.0726 28.9702 16.1495 29.7464 16.2189C29.9217 16.2339 30.0755 16.2508 30.0886 16.5001C30.1571 17.8867 30.8799 18.8889 31.9824 19.6595C32.0189 20.6851 32.0143 21.707 31.6318 22.6811C30.788 24.8373 29.2702 26.3786 27.2574 27.4623C26.6864 27.7689 26.093 28.0323 25.5099 28.3154L25.5192 28.3108C25.3871 28.2826 25.2558 28.2601 25.1349 28.3501C23.6349 28.2564 22.3617 27.5739 21.1514 26.7658C19.9824 25.9886 19.0027 25.0239 18.278 23.8051C17.6639 22.7739 17.5017 21.6545 17.542 20.4789C17.5514 20.2229 17.6958 20.1817 17.8739 20.1114C18.7467 19.7645 19.493 19.2498 20.0377 18.4689C20.4251 17.9157 20.6545 17.2675 20.7014 16.5939C20.723 16.3126 20.8242 16.2292 21.0877 16.2067C21.9727 16.1317 22.8549 16.0192 23.7455 16.0004C24.2302 15.992 24.5452 15.7773 24.6033 15.2654ZM28.1067 18.3517C27.5517 18.3423 27.0202 18.4351 26.5542 18.7567C26.1399 19.0379 26.0349 19.4448 26.2646 19.8001C26.4942 20.1554 26.8758 20.1976 27.3239 19.9529C27.5607 19.8168 27.829 19.7452 28.1021 19.7452C28.3751 19.7452 28.6434 19.8168 28.8802 19.9529C29.3396 20.1958 29.7117 20.1554 29.9405 19.8067C30.1796 19.442 30.0605 19.0239 29.6208 18.737C29.1614 18.4323 28.6449 18.3442 28.1067 18.3517ZM22.3674 18.3517C21.7955 18.3442 21.2499 18.4454 20.7736 18.7858C20.3986 19.0576 20.3096 19.4673 20.5289 19.802C20.7483 20.1367 21.1327 20.2089 21.548 19.9745C21.7942 19.8244 22.0771 19.7449 22.3655 19.7449C22.6539 19.7449 22.9367 19.8244 23.183 19.9745C23.5974 20.2061 23.9761 20.1433 24.2011 19.7983C24.4177 19.4673 24.323 19.0529 23.9527 18.7839C23.483 18.4398 22.9374 18.3461 22.3674 18.3517Z" fill="#FDDBA5"/>
<path d="M16.224 41.9523C14.3028 41.958 12.3821 41.9645 10.4621 41.972C10.3065 41.9629 10.1551 41.918 10.0196 41.8408C7.32619 40.593 5.70432 38.4836 5.00588 35.627C4.99838 35.597 4.99369 35.5661 4.989 35.5333C4.82869 34.5845 4.91307 34.4833 5.86088 34.4833H20.0574C20.2449 34.4833 20.4324 34.4945 20.6199 34.5011C20.6874 36.1605 20.0499 37.5948 19.1987 38.9617C18.4365 40.1852 17.3865 41.1264 16.224 41.9523Z" fill="#F58311"/>
<path d="M34.4077 43.1082C33.863 43.1166 33.3184 43.1316 32.7727 43.1316C29.7934 43.1316 26.814 43.1316 23.8355 43.1373C23.5543 43.1373 23.3668 43.0913 23.1793 42.8269C22.7987 42.2644 22.2324 41.9832 21.5471 41.9738C21.1721 41.9673 20.7971 41.9738 20.4277 41.9738C20.3846 41.8107 20.5215 41.7788 20.5927 41.7188C21.7513 40.7633 22.6826 39.5617 23.319 38.2013C23.4465 37.9313 23.5871 37.8376 23.8768 37.8526C24.3455 37.8769 24.8143 37.8629 25.283 37.8582C26.3696 37.8488 27.189 37.2826 27.5893 36.2738C27.6474 36.1276 27.6474 35.9494 27.9034 35.9532C29.6649 35.9719 31.4274 35.9747 33.189 35.9832C33.3934 37.2019 33.594 38.4207 33.8021 39.6394C33.9999 40.7954 34.2052 41.9513 34.4077 43.1082Z" fill="#E5E5E5"/>
<path d="M13.3974 46.8677H11.6508C11.5205 46.3698 11.2027 46.1748 10.687 46.1842C9.45517 46.2058 8.22236 46.1927 6.99048 46.1898C6.32017 46.1898 6.09986 45.9648 6.09611 45.2908C6.09611 44.8858 6.08861 44.4798 6.09611 44.072C6.10829 43.6398 6.36048 43.428 6.77392 43.3867C6.86761 43.382 6.96148 43.382 7.05517 43.3867H19.4095C19.5652 43.3867 19.7208 43.397 19.8783 43.4027C20.0386 44.3176 20.0386 45.2534 19.8783 46.1683C18.0389 46.1748 16.1995 46.1945 14.3602 46.1814C13.838 46.1767 13.522 46.3642 13.3974 46.8677Z" fill="#7F7F7F"/>
<path d="M44.1484 25.3596C43.5099 25.3671 42.8706 25.3952 42.2331 25.3755C41.4943 25.3521 40.9881 24.8618 40.9206 24.1136C40.884 23.7115 40.9028 23.3036 40.9028 22.8949C40.9028 21.3011 40.8981 19.7168 40.9028 18.1268C40.9028 17.0505 41.4024 16.5508 42.4721 16.549C43.0346 16.549 43.5915 16.5677 44.1521 16.578C44.5403 17.2736 44.5459 18.0283 44.5328 18.7971C44.5121 20.0158 44.5328 21.229 44.5253 22.4458C44.5178 23.4302 44.6715 24.4418 44.1484 25.3596Z" fill="#E3E3E3"/>
<path d="M35.632 32.1386C35.6264 31.6549 35.632 31.1711 35.6133 30.6883C35.6058 30.4474 35.6939 30.3855 35.9161 30.4502C37.7808 30.9986 39.1974 32.0439 39.7355 34.0014C40.0421 35.1124 40.2708 36.2439 40.5464 37.3633C40.5682 37.4368 40.5722 37.5143 40.5582 37.5896C40.5442 37.6649 40.5125 37.7358 40.4658 37.7965C40.1677 38.224 40.0824 38.7077 40.0852 39.2186C40.0908 40.3436 40.0683 41.4686 40.0955 42.5936C40.1058 43.0118 40.0017 43.2096 39.5611 43.1355C39.4055 43.1185 39.2489 43.111 39.0924 43.113C39.1271 41.7143 38.9986 40.3258 38.8111 38.9411C38.6105 37.4524 38.4183 35.9552 37.8436 34.5555C37.4086 33.4924 36.6905 32.6486 35.632 32.1386Z" fill="#4981C5"/>
<path d="M30.9512 30.9553C30.9512 32.0644 30.9456 33.1566 30.9512 34.2488C30.9512 34.4794 30.864 34.5422 30.6475 34.5403C29.6962 34.5322 28.7443 34.5322 27.7918 34.5403C27.5818 34.5403 27.4965 34.4353 27.4009 34.2769C26.9078 33.4603 26.1765 33.0675 25.2231 33.0694C23.5684 33.0741 21.9137 33.0638 20.2543 33.0769C19.9571 33.0769 19.8456 33.0113 19.8606 32.6944C19.8868 32.1319 19.8681 31.5694 19.8681 31.0069C23.574 32.91 27.2425 32.9109 30.9512 30.9553Z" fill="#63ADD6"/>
<path d="M43.297 45.3676C43.1095 45.3798 42.922 45.4023 42.7411 45.4023C41.8167 45.4023 41.5026 45.0883 41.5017 44.1705C41.5017 42.5817 41.5017 40.992 41.5017 39.4014C41.5017 38.4198 41.7961 38.1311 42.7889 38.1329C42.9595 38.1329 43.1311 38.1442 43.3017 38.1498C43.8379 38.8276 44.2701 39.5439 44.2514 40.4551C44.2364 41.1386 44.2148 41.8248 44.2561 42.5073C44.3198 43.5995 44.0761 44.568 43.297 45.3676Z" fill="#FDDBA5"/>
<path d="M44.1483 25.3596C44.6714 24.4418 44.5176 23.434 44.5233 22.4534C44.5336 21.2346 44.5101 20.0205 44.5308 18.8046C44.5439 18.0359 44.5383 17.2812 44.1501 16.5855C44.5383 16.579 44.9283 16.548 45.3154 16.5696C46.0242 16.608 46.5595 17.1152 46.5679 17.8324C46.5904 19.9224 46.5904 22.0124 46.5679 24.1024C46.5595 24.8309 46.0054 25.3418 45.2667 25.3793C44.8964 25.399 44.5214 25.3671 44.1483 25.3596Z" fill="#C0C5CA"/>
<path d="M35.632 32.1386C36.6904 32.6486 37.4085 33.4924 37.8445 34.5517C38.4192 35.9514 38.6114 37.4486 38.812 38.9374C38.9995 40.322 39.1298 41.7105 39.0932 43.1092C38.0732 43.1861 38.0667 43.187 37.897 42.212C37.5714 40.3414 37.2504 38.4705 36.9342 36.5992C36.8038 35.8305 36.5123 35.1639 35.796 34.7664C35.7331 34.7369 35.6811 34.6883 35.6475 34.6276C35.6138 34.5668 35.6002 34.4969 35.6085 34.428C35.6235 33.6649 35.6263 32.8989 35.632 32.1386Z" fill="#63ADD6"/>
<path d="M34.4078 43.1083C34.2053 41.9514 34 40.7955 33.8012 39.6395C33.5931 38.4208 33.3925 37.202 33.1881 35.9833C33.6569 35.9748 34.1256 35.9617 34.5897 35.9598C35.2187 35.9598 35.4119 36.1192 35.5272 36.7473C35.6772 37.5911 35.8197 38.4348 35.9659 39.2786C36.1619 40.4148 36.3512 41.552 36.5612 42.6864C36.6222 43.0183 36.579 43.1673 36.1862 43.1402C35.5937 43.1008 35.0003 43.1177 34.4078 43.1083Z" fill="#C0C5CA"/>
<path d="M16.224 41.9524C17.3865 41.1265 18.4365 40.1852 19.1977 38.9636C20.049 37.5996 20.6865 36.1624 20.619 34.503C21.1815 34.4964 21.744 34.5077 22.3065 34.4786C22.6815 34.458 22.8099 34.6183 22.8034 34.9689C22.7874 35.8483 22.4799 36.648 22.1265 37.4299C21.3859 39.0639 20.2393 40.3436 18.7412 41.3336C17.9584 41.8483 17.1474 42.0958 16.224 41.9524Z" fill="#F44311"/>
<path d="M43.2971 45.3677C44.0743 44.567 44.3199 43.5986 44.2552 42.5074C44.214 41.8249 44.2356 41.1386 44.2506 40.4552C44.2693 39.5439 43.8371 38.8277 43.3009 38.1499C45.0156 38.043 46.0009 38.9702 46.0037 40.6933C46.0037 41.4874 46.0168 42.2814 46.0037 43.0745C45.9681 44.5933 44.814 45.5645 43.2971 45.3677Z" fill="#F6BF66"/>
<path d="M25.5136 28.3165C26.0967 28.0352 26.6902 27.7699 27.2611 27.4633C29.2739 26.3815 30.7908 24.8383 31.6355 22.6821C32.018 21.708 32.0227 20.6861 31.9861 19.6605C32.2074 19.7711 32.4183 19.9343 32.6527 19.9821C33.2499 20.104 33.3089 20.4799 33.2808 20.9993C33.1936 22.7336 32.483 24.1868 31.2961 25.4055C29.752 26.9927 27.9089 28.024 25.6945 28.324C25.6341 28.3268 25.5736 28.3243 25.5136 28.3165Z" fill="#F6BF66"/>
<path d="M28.9626 30.3338C26.3873 31.2863 23.8373 31.2544 21.321 30.1247C20.9373 29.9453 20.5882 29.6997 20.2898 29.3991C20.1529 29.2669 20.1388 29.1816 20.2851 29.0241C20.9076 28.3463 20.901 28.3379 21.7101 28.7569C22.3745 29.1013 23.0718 29.3783 23.7913 29.5838C24.9426 29.9138 26.077 29.7816 27.2067 29.4732C27.3867 29.4235 27.5676 29.3794 27.7476 29.3344C28.0617 29.7788 28.507 30.0629 28.9626 30.3338Z" fill="#F6BF66"/>
<path d="M32.0592 15.1107C32.0592 13.8329 32.0695 12.5551 32.0592 11.2772C32.0592 10.9435 32.1811 10.7344 32.4426 10.5385C33.8095 9.51287 34.0514 7.91349 32.8533 6.63568C32.7595 6.53537 32.6311 6.45755 32.6245 6.29724C33.2762 6.39817 33.8695 6.7311 34.2952 7.23474C35.1764 8.24255 35.0367 9.48099 33.8836 10.3051C33.4008 10.6501 33.2442 11.0307 33.2592 11.5969C33.292 12.8157 33.2676 14.0288 33.2648 15.2447C33.2562 15.2888 33.243 15.3319 33.2255 15.3732L32.0592 15.1107Z" fill="#C0C5CA"/>
<path d="M11.4144 33.0713C11.7812 32.3226 12.351 31.6921 13.0588 31.2516C13.6385 30.885 14.2708 30.609 14.9338 30.4332C15.1747 30.3647 15.2291 30.4182 15.2263 30.6525C15.216 31.3538 15.2141 32.0541 15.2263 32.7553C15.2263 32.9935 15.1626 33.0788 14.9122 33.0769C13.7732 33.0647 12.6369 33.0713 11.4144 33.0713Z" fill="#63ADD6"/>
<path d="M34.1799 31.4823C34.1865 32.3992 34.1884 33.316 34.2043 34.232C34.2043 34.4476 34.1499 34.5488 33.923 34.5357C33.429 34.5066 32.8121 34.7232 32.4737 34.4513C32.1709 34.2057 32.3874 33.5767 32.3799 33.1182C32.3687 32.4198 32.3921 31.7204 32.4015 31.022C33.0006 31.1438 33.6137 31.2226 34.1799 31.4823Z" fill="#E5E5E5"/>
<path d="M19.8735 46.1673C20.0338 45.2524 20.0338 44.3166 19.8735 43.4017C20.3873 43.3961 20.9048 43.382 21.4138 43.3877C21.8826 43.3923 22.1592 43.6211 22.1901 44.0814C22.221 44.5321 22.221 44.9844 22.1901 45.4351C22.1545 45.9526 21.891 46.1805 21.3651 46.1851C20.8701 46.1917 20.3713 46.1748 19.8735 46.1673Z" fill="#656565"/>
<path d="M18.4664 31.5404C18.4664 31.9454 18.4542 32.3504 18.4664 32.7545C18.4758 32.9907 18.4167 33.0901 18.1589 33.077C17.7558 33.0564 17.3489 33.0573 16.9448 33.077C16.6908 33.0892 16.6308 32.9917 16.6336 32.7554C16.6455 31.961 16.6455 31.167 16.6336 30.3732C16.6336 30.1585 16.6926 30.0714 16.9148 30.0639C17.4117 30.047 18.0398 29.807 18.3633 30.0273C18.6651 30.2326 18.4261 30.9235 18.457 31.3998C18.4683 31.4467 18.4664 31.4926 18.4664 31.5404Z" fill="#E3E3E3"/>
<path d="M23.9883 36.4426C24.1655 35.8351 24.2573 35.2839 24.1992 34.7204C24.1795 34.5329 24.2545 34.4767 24.4317 34.4814C24.7589 34.4917 25.088 34.4673 25.4124 34.4926C25.6613 34.5085 25.8947 34.6193 26.0644 34.8022C26.2341 34.985 26.3271 35.226 26.3244 35.4755C26.3216 35.725 26.2232 35.9638 26.0495 36.1429C25.8758 36.322 25.64 36.4276 25.3908 36.4379C24.9417 36.4614 24.4908 36.4426 23.9883 36.4426Z" fill="#F6BF66"/>
<path d="M3.72506 36.4446C3.26569 36.4446 2.84475 36.4568 2.42569 36.4446C1.85381 36.4249 1.43194 36.0049 1.42819 35.4752C1.42444 34.9455 1.8435 34.5114 2.41069 34.4927C2.75287 34.4786 3.14662 34.3877 3.426 34.5218C3.74569 34.6755 3.43912 35.0955 3.53569 35.3983C3.63787 35.7115 3.66037 36.064 3.72506 36.4446Z" fill="#F6BF66"/>
<path d="M28.9628 30.3339C28.5072 30.063 28.0619 29.7789 27.7506 29.3336C28.4003 29.0439 29.0734 28.8039 29.6828 28.4298C29.8347 28.3361 29.9397 28.3614 30.0278 28.5114C30.0619 28.5632 30.1001 28.6121 30.1422 28.6577C30.6972 29.3186 30.6981 29.3195 29.95 29.8258C29.6475 30.0425 29.3149 30.2137 28.9628 30.3339Z" fill="#E8A53A"/>
<path d="M19.0993 16.5133C19.2362 16.4767 19.2437 16.5864 19.24 16.7327C19.2231 17.3374 18.3634 18.4305 17.7662 18.6124C17.5787 18.6686 17.5497 18.5861 17.5497 18.4352C17.5497 17.9671 17.5497 17.4983 17.5497 17.0289C17.546 16.998 17.5487 16.9667 17.5576 16.9368C17.5664 16.907 17.5813 16.8793 17.6012 16.8553C17.6211 16.8314 17.6456 16.8117 17.6734 16.7976C17.7011 16.7834 17.7314 16.7751 17.7625 16.773C18.1909 16.6952 18.6175 16.6089 19.0993 16.5133Z" fill="#7F7F7F"/>
<path d="M34.1799 31.4823C33.6174 31.2226 33.0005 31.1438 32.3986 31.022C32.3574 29.6898 32.1905 29.9663 33.3868 30.0207C34.2024 30.0591 34.2024 30.091 34.2005 30.9226C34.1996 31.1092 34.1865 31.2957 34.1799 31.4823Z" fill="#C0C5CA"/>
<path d="M32.0583 16.6023C33.2724 16.7795 33.2771 16.7795 33.2668 17.9692C33.2668 18.1885 33.4009 18.5092 33.1787 18.6095C32.9565 18.7098 32.7324 18.4454 32.5449 18.302C32.3237 18.1389 32.1043 17.9607 31.9777 17.702C32.154 17.3467 32.0208 16.9679 32.0583 16.6023Z" fill="#656565"/>
<path d="M32.0584 16.6024C32.0209 16.968 32.1521 17.3468 31.9759 17.7021C31.802 17.5219 31.6815 17.297 31.6281 17.0524C31.5812 16.8855 31.419 16.6727 31.5727 16.534C31.6918 16.4261 31.8887 16.579 32.0584 16.6024Z" fill="#7F7F7F"/>
<path d="M25.1386 28.351C25.2595 28.2573 25.3908 28.2835 25.523 28.3117C25.4665 28.3478 25.4022 28.3702 25.3355 28.377C25.2687 28.3839 25.2013 28.375 25.1386 28.351Z" fill="#F6BF66"/>
<path d="M26.0105 9.12567C26.0105 9.63942 26.0217 10.1569 26.0105 10.6669C25.9973 11.1516 25.7292 11.431 25.3111 11.4319C24.893 11.4329 24.6052 11.1507 24.5977 10.6744C24.5827 9.63098 24.5845 8.58755 24.5977 7.54411C24.6042 7.08098 24.9089 6.77255 25.3045 6.76973C25.7002 6.76692 25.9973 7.07161 26.0105 7.53661C26.0208 8.0663 26.0095 8.59598 26.0105 9.12567Z" fill="#050505"/>
<path d="M21.2012 10.5713C21.2012 11.1001 21.2106 11.6307 21.2012 12.1595C21.1909 12.6142 20.8825 12.9235 20.4812 12.9095C20.0996 12.8982 19.8025 12.5973 19.7968 12.166C19.7856 11.1073 19.7856 10.0482 19.7968 8.98884C19.8015 8.53416 20.1146 8.23134 20.5206 8.23884C20.9078 8.25009 21.1918 8.54259 21.2012 8.97759C21.2096 9.51103 21.2012 10.0417 21.2012 10.5713Z" fill="#030303"/>
<path d="M29.4135 10.5639C29.4135 10.0501 29.4042 9.53264 29.4135 9.02264C29.4229 8.54639 29.6948 8.25014 30.0998 8.24358C30.5048 8.23701 30.817 8.53233 30.8235 8.99358C30.8385 10.0517 30.8385 11.1108 30.8235 12.1708C30.8263 12.2688 30.8089 12.3663 30.7725 12.4573C30.7361 12.5483 30.6814 12.6309 30.6118 12.7C30.5422 12.769 30.4592 12.8231 30.3679 12.8588C30.2766 12.8945 30.179 12.9111 30.081 12.9076C29.6995 12.887 29.4248 12.5917 29.4163 12.1501C29.4042 11.6233 29.4135 11.0936 29.4135 10.5639Z" fill="#050505"/>
<path d="M28.1067 18.3516C28.6448 18.3441 29.1614 18.4322 29.6207 18.7322C30.0604 19.0191 30.1832 19.4372 29.9404 19.8019C29.7117 20.1507 29.3395 20.191 28.8801 19.9482C28.6434 19.812 28.3751 19.7404 28.102 19.7404C27.8289 19.7404 27.5606 19.812 27.3239 19.9482C26.8757 20.1928 26.4914 20.146 26.2645 19.7953C26.0376 19.4447 26.1398 19.0378 26.5542 18.7519C27.0201 18.435 27.5517 18.3422 28.1067 18.3516Z" fill="#050505"/>
<path d="M22.3665 18.3508C22.9374 18.3508 23.483 18.4445 23.9602 18.7839C24.3305 19.053 24.429 19.4673 24.2086 19.7983C23.9836 20.1433 23.6049 20.2061 23.1905 19.9745C22.9443 19.8244 22.6614 19.7449 22.373 19.7449C22.0846 19.7449 21.8018 19.8244 21.5555 19.9745C21.1402 20.2089 20.7633 20.148 20.5364 19.802C20.3096 19.4561 20.4089 19.0576 20.7811 18.7858C21.2499 18.4417 21.7955 18.3442 22.3665 18.3508Z" fill="#050505"/>
</svg>
