<svg width="48" height="48" viewBox="0 0 48 48" fill="none" xmlns="http://www.w3.org/2000/svg">
<g clip-path="url(#clip0_93_543)">
<path d="M31.2121 32.9152C31.0375 32.3013 30.8966 31.8126 31.0246 31.2903C31.2832 30.2134 32.1716 29.4848 33.281 29.4655C34.2806 29.4526 35.2801 29.4577 36.2796 29.4655C38.1637 29.4758 39.2317 31.191 38.4184 32.8959C38.3912 32.9526 38.3692 33.0119 38.3382 33.0842C40.5205 33.7763 42.4478 35.0985 43.8764 36.8834C45.3003 38.6246 46.1679 40.7517 46.3669 42.9898C46.3966 43.3187 46.4884 43.5185 46.813 43.6862C47.2505 43.9182 47.5984 44.2885 47.8022 44.7389C48.006 45.1893 48.0542 45.6945 47.9393 46.1752C47.8291 46.6729 47.5572 47.1204 47.1657 47.4481C46.7743 47.7758 46.2852 47.9653 45.7747 47.9871C45.6298 47.9871 45.485 47.9871 45.3402 47.9871C30.4104 47.9871 15.4806 47.9901 0.550848 47.9961C0.129307 48 0 47.9123 0 47.4584C0.0271545 45.3846 0.00775842 43.3096 0.0129307 41.2359C0.0232752 37.0317 2.46976 33.4182 6.38647 31.8655C8.35581 31.0839 10.3381 30.3321 12.3126 29.5596C13.4337 29.1198 13.9458 28.3409 13.9509 27.1519C13.9569 27.0427 13.9339 26.9339 13.8845 26.8364C13.835 26.7388 13.7607 26.6559 13.669 26.596C12.665 25.8356 11.8143 24.8927 11.1618 23.8169C10.9032 23.381 10.6226 23.2559 10.1338 23.2675C8.88468 23.2972 7.84635 22.7981 7.05887 21.827C6.53594 21.1964 6.23481 20.4122 6.20165 19.5946C6.16848 18.7769 6.40511 17.971 6.87525 17.3004C7.04335 17.0554 7.04076 16.8838 6.93085 16.6156C4.73263 11.1991 7.39765 4.58464 13.8927 3.35046C15.3604 3.0719 16.8513 3.23698 18.3331 3.21376C19.0257 3.21745 19.716 3.13426 20.3878 2.96616C21.976 2.54588 23.3631 1.57703 24.3019 0.232141C24.4869 -0.0257849 24.6175 -0.067053 24.911 0.0851232C26.4627 0.893721 27.3678 2.74821 27.0601 4.6143C27.0316 4.7884 27.0433 4.98829 26.9618 5.13015C26.6165 5.73628 26.9036 6.12317 27.2876 6.61323C29.694 9.67352 30.0277 13.0511 28.6816 16.6414C28.6303 16.7439 28.6091 16.8588 28.6203 16.9729C28.6315 17.0869 28.6747 17.1955 28.7449 17.2862C29.579 18.5436 29.6747 19.8732 28.9673 21.208C28.26 22.5427 27.0833 23.2636 25.5575 23.261C25.0054 23.261 24.7028 23.4171 24.4222 23.8852C23.7707 24.943 22.927 25.8703 21.9343 26.6192C21.8497 26.6751 21.7813 26.7522 21.7359 26.8427C21.6905 26.9332 21.6697 27.0341 21.6757 27.1351C21.6757 28.3241 22.1826 29.1108 23.2998 29.5519C24.8683 30.1696 26.442 30.7757 28.0156 31.3831C29.0824 31.801 30.1557 32.1879 31.2121 32.9152ZM24.7804 16.9883C24.7804 16.3731 24.7675 15.9231 24.7804 15.4743C24.7884 15.3723 24.7696 15.27 24.7258 15.1775C24.682 15.085 24.6148 15.0055 24.5308 14.9468C23.349 13.9787 22.1757 13.0016 21.0111 12.0155C20.9404 11.9431 20.8492 11.8942 20.7498 11.8753C20.6503 11.8564 20.5474 11.8684 20.4551 11.9097C17.3715 13.0162 14.285 14.1154 11.1954 15.2073C10.9135 15.3066 10.8333 15.4394 10.8424 15.7232C10.8631 16.368 10.8424 17.0128 10.8501 17.6576C10.8626 19.7032 11.5041 21.6956 12.6881 23.366C13.872 25.0364 15.5413 26.3043 17.4707 26.9984C17.6936 27.0868 17.9421 27.0868 18.165 26.9984C19.8886 26.3831 21.407 25.3027 22.5511 23.8775C24.2088 21.8115 24.8903 19.4399 24.7804 16.9883ZM17.1125 4.76003C16.5164 4.76003 15.9203 4.74842 15.3242 4.76003C14.0761 4.77181 12.8517 5.10118 11.7669 5.71693C8.56012 7.55852 7.43903 10.5853 7.79204 14.0092C7.85023 14.5843 7.98818 15.1485 8.20194 15.6858C8.25108 15.8147 8.25883 15.9682 8.48512 15.9231C9.13166 15.7941 9.29458 15.6187 9.29458 14.9623C9.30305 14.8335 9.30305 14.7042 9.29458 14.5754C9.25967 14.3175 9.37475 14.2104 9.60621 14.1279C13.3216 12.8116 17.0336 11.4893 20.7421 10.161C20.8426 10.1167 20.9541 10.1039 21.062 10.1244C21.1699 10.1449 21.2689 10.1977 21.346 10.2758C22.7503 11.4571 24.1429 12.6526 25.5834 13.7874C26.1213 14.2117 26.4213 14.6347 26.3411 15.3466C26.2791 15.8934 26.8674 15.7335 27.1467 15.8973C27.4053 16.0494 27.4053 15.6961 27.4674 15.5504C27.8954 14.4297 27.929 13.2561 27.8618 12.0813C27.7759 10.3325 27.0913 8.66602 25.9222 7.35992C25.7321 7.14455 25.5769 7.09426 25.3118 7.24643C24.8026 7.52643 24.2418 7.7006 23.6632 7.75842C22.4244 7.91188 22.4244 7.91446 22.4567 6.67126C22.4593 6.63907 22.4593 6.60673 22.4567 6.57454C22.4322 6.36691 22.5253 6.29985 22.7322 6.29211C23.054 6.28557 23.3748 6.25366 23.6916 6.19668C24.4261 6.05353 25.114 5.80076 25.383 5.01538C25.7023 4.08684 25.5911 3.18281 25.1243 2.31747C24.9666 2.02086 24.8373 2.02086 24.5968 2.26202C23.478 3.38586 22.0654 4.17404 20.5197 4.53692C19.396 4.8129 18.2556 4.76003 17.1125 4.76003ZM34.8198 43.3586H44.1027C44.9135 43.3586 44.9135 43.3586 44.7725 42.5603C43.7678 36.8576 38.5865 33.2479 32.8957 34.2861C28.7294 35.0457 25.2433 38.7998 24.8618 42.8982C24.8256 43.2851 24.9187 43.3677 25.295 43.3664C28.4695 43.3522 31.6453 43.3573 34.8198 43.3586ZM6.98257 39.8392C6.98257 41.913 6.99033 43.9854 6.97482 46.0591C6.97482 46.3789 7.06404 46.4537 7.37567 46.4524C11.2437 46.4421 15.1108 46.4421 18.9771 46.4524C19.2965 46.4524 19.3766 46.366 19.3728 46.054C19.3573 44.6238 19.3598 43.1923 19.3728 41.7621C19.3784 41.6523 19.3559 41.5429 19.3072 41.4442C19.2586 41.3456 19.1854 41.261 19.0948 41.1985C15.9923 38.6987 13.715 35.3266 12.5583 31.5198C12.4678 31.231 12.3695 31.191 12.0954 31.2993C10.5256 31.9218 8.95063 32.5318 7.3705 33.1293C7.06662 33.2441 6.96318 33.3872 6.96576 33.7148C6.98257 35.7563 6.98257 37.7977 6.98257 39.8392ZM29.6333 33.7883C29.6011 33.7584 29.5665 33.7313 29.5298 33.707C27.5333 32.7772 25.4398 32.0873 23.4033 31.2568C23.1291 31.1458 23.1537 31.3483 23.1097 31.4876C22.2896 34.1501 20.9212 36.6125 19.0922 38.7173C18.9292 38.9043 18.9305 39.0203 19.1232 39.1764C19.621 39.5839 20.0956 40.0211 20.6038 40.4144C20.7085 40.4846 20.7927 40.5813 20.8477 40.6946C20.9026 40.8079 20.9265 40.9337 20.9167 41.0592C20.9038 42.6068 20.9167 44.1453 20.9167 45.6877C20.9167 46.4795 20.9167 46.4795 21.7042 46.4447C21.7313 46.4447 21.7572 46.4176 21.7843 46.4022C21.5762 45.0635 21.9279 44.1737 22.9326 43.6604C23.2313 43.5082 23.2959 43.3148 23.3205 43.0285C23.5895 40.1913 24.7778 37.8029 26.8027 35.8143C27.6439 35.0071 28.5972 34.3247 29.6333 33.7883ZM5.43089 34.081C3.31672 35.5383 2.03012 37.4341 1.68099 39.8573C1.381 41.9632 1.61375 44.0976 1.55168 46.2177C1.54263 46.5272 1.7547 46.4434 1.91116 46.4434C2.92751 46.4434 3.94386 46.4279 4.95892 46.455C5.33391 46.4653 5.43477 46.3686 5.43348 45.9869C5.43089 42.1709 5.43089 38.3639 5.43089 34.5518V34.081ZM34.8443 44.9023H24.2024C23.5895 44.9023 23.239 45.1886 23.2378 45.6761C23.2365 46.1636 23.5895 46.4499 24.1998 46.4499H45.2898C45.4506 46.4604 45.612 46.4561 45.7721 46.437C46.1871 46.3609 46.4419 46.1055 46.4419 45.6787C46.4419 45.2518 46.191 44.9965 45.7747 44.9178C45.6304 44.9014 45.485 44.898 45.3402 44.9075L34.8443 44.9023ZM19.7258 35.243C19.7555 35.1656 19.6973 35.1243 19.6508 35.0857C19.0831 34.6098 18.5129 34.1391 17.9465 33.6671C17.803 33.5458 17.7112 33.6464 17.6142 33.7264C17.097 34.1584 16.5797 34.5995 16.0535 35.016C15.8776 35.1566 15.9164 35.2623 16.0121 35.4132C16.4985 36.1707 17.0305 36.8981 17.6051 37.5914C17.7745 37.7977 17.8702 37.7926 18.0383 37.5914C18.6154 36.9004 19.1462 36.1724 19.6275 35.4119C19.6611 35.3539 19.6922 35.2984 19.7245 35.243H19.7258ZM34.8405 31.0066C34.3594 31.0066 33.8771 31.0001 33.3948 31.0066C32.8647 31.0156 32.531 31.3135 32.5246 31.7674C32.5181 32.2214 32.8556 32.5412 33.3767 32.5412C34.356 32.5498 35.3357 32.5498 36.3159 32.5412C36.8331 32.5412 37.1719 32.2098 37.1628 31.7571C37.1538 31.3045 36.8163 31.0091 36.2861 31.0014C35.8038 31.0001 35.3215 31.0066 34.8392 31.0066H34.8405ZM15.5168 27.8186C15.4444 27.985 15.5543 28.0598 15.6125 28.1423C16.2733 29.0708 16.9496 29.9878 17.5948 30.9253C17.8004 31.2245 17.887 31.1433 18.0525 30.906C18.6991 29.9865 19.3598 29.0786 20.0103 28.1629C20.0749 28.0714 20.1965 27.985 20.1176 27.8096C19.4853 28.1288 18.8295 28.3996 18.156 28.6195C17.9288 28.6944 17.6831 28.6917 17.4577 28.6117C16.7951 28.3873 16.1469 28.1224 15.5168 27.8186ZM25.5575 21.7109C26.1139 21.7187 26.6543 21.5246 27.0779 21.1647C27.5015 20.8048 27.7796 20.3037 27.8605 19.7545C28.026 18.6958 27.3523 17.597 26.3398 17.3171C26.3508 18.8175 26.0843 20.307 25.5536 21.7109H25.5575ZM10.0859 21.7212C9.55218 20.3063 9.28393 18.8056 9.29458 17.2939C8.21875 17.695 7.60195 18.7409 7.78169 19.7855C7.87335 20.3282 8.15537 20.8208 8.57743 21.1753C8.99948 21.5299 9.53412 21.7234 10.0859 21.7212ZM20.8495 29.6512C20.2391 30.501 19.6404 31.3522 19.0223 32.1879C18.8749 32.3865 18.9318 32.4806 19.0948 32.6096C19.4956 32.9294 19.8939 33.2544 20.2766 33.5948C20.4951 33.7896 20.5792 33.7122 20.6839 33.4865C21.0951 32.602 21.4383 31.6876 21.7106 30.7512C21.7533 30.6042 21.7856 30.4933 21.6382 30.3746C21.3628 30.1541 21.1158 29.9039 20.843 29.6512H20.8495ZM14.7888 29.6512C14.5095 29.9091 14.2587 30.167 13.9936 30.394C13.9491 30.426 13.9171 30.4724 13.9029 30.5253C13.8888 30.5782 13.8934 30.6343 13.916 30.6842C14.1979 31.6703 14.5603 32.6317 14.9996 33.5587C15.0862 33.7432 15.169 33.7548 15.3203 33.6258C15.7358 33.2716 16.1565 32.9225 16.5823 32.5786C16.7181 32.469 16.7543 32.38 16.6405 32.2253C16.016 31.3702 15.4017 30.5101 14.7824 29.6486L14.7888 29.6512Z" fill="#020202"/>
<path d="M43.3554 13.5205C43.3405 15.152 42.865 16.7463 41.9834 18.1207C41.5024 18.8802 41.0046 19.6295 40.5443 20.4007C39.8175 21.6168 39.5266 22.9619 39.5098 24.3599C39.5098 24.7777 39.3805 24.8976 38.9926 24.8332C38.9126 24.8261 38.8321 24.8261 38.7521 24.8332C37.8973 24.8332 37.9064 24.8332 37.9581 23.9536C38.0769 22.0045 38.7363 20.1266 39.8628 18.5295C40.5443 17.539 41.2296 16.546 41.5438 15.357C41.7257 14.6735 41.8127 13.9684 41.8024 13.2613C41.7969 12.8796 41.6501 12.5133 41.3903 12.233C41.1304 11.9526 40.7758 11.778 40.3946 11.7426C40.0134 11.7072 39.6326 11.8137 39.3253 12.0414C39.0181 12.2691 38.8061 12.6021 38.7301 12.9763C38.6594 13.3602 38.7392 13.7565 38.9528 14.0835C39.1664 14.4106 39.4977 14.6434 39.8783 14.7341C40.1822 14.8076 40.3244 14.903 40.2662 15.2229C40.2552 15.3352 40.2552 15.4484 40.2662 15.5607C40.2662 16.4635 40.2468 16.4738 39.3714 16.2056C37.8805 15.7555 36.9237 14.2066 37.2185 12.7171C37.5353 11.1115 38.9215 10.0424 40.5236 10.1662C41.2851 10.2338 41.9952 10.5784 42.5184 11.1344C43.0416 11.6905 43.3413 12.4191 43.3606 13.1814C43.358 13.2962 43.3554 13.4122 43.3554 13.5205Z" fill="#040404"/>
<path d="M33.294 18.6261C33.3004 18.514 33.3004 18.4016 33.294 18.2895C33.2642 18.0174 33.3315 17.8936 33.6483 17.8252C34.031 17.7427 34.3671 17.5163 34.5867 17.193C34.8063 16.8697 34.8926 16.4745 34.8275 16.0894C34.7591 15.706 34.5502 15.3618 34.2415 15.1234C33.9327 14.8851 33.5462 14.7697 33.1569 14.7998C32.7678 14.8364 32.4069 15.0181 32.1464 15.3086C31.8858 15.5991 31.7447 15.9769 31.7513 16.3667C31.7238 17.8209 32.1366 19.2497 32.9358 20.4664C33.6819 21.6271 34.5056 22.7387 34.984 24.0516C35.3777 25.1745 35.5923 26.352 35.6202 27.5413C35.6305 27.8121 35.5995 27.9565 35.2698 27.9282C34.9025 27.8946 34.45 28.0468 34.1797 27.8817C33.8823 27.6986 34.0646 27.206 34.0362 26.85C33.8978 25.1735 33.2539 23.6905 32.3035 22.3196C31.5069 21.1679 30.7518 19.9892 30.4544 18.5938C30.2436 17.6163 30.0742 16.631 30.2927 15.6277C30.4635 14.8877 30.9023 14.2367 31.5249 13.7996C32.1475 13.3625 32.91 13.1701 33.666 13.2593C34.4221 13.3485 35.1186 13.7131 35.6217 14.283C36.1248 14.8529 36.3992 15.588 36.3922 16.3473C36.3834 17.1013 36.1012 17.8267 35.5977 18.3892C35.0943 18.9518 34.4036 19.3136 33.6534 19.4076C33.3948 19.4373 33.25 19.4076 33.2927 19.102C33.3038 18.9435 33.3042 18.7846 33.294 18.6261Z" fill="#040404"/>
<path d="M24.7803 16.9882C24.8903 19.4385 24.2088 21.8115 22.5511 23.8671C21.407 25.2923 19.8885 26.3728 18.165 26.988C17.942 27.0764 17.6936 27.0764 17.4706 26.988C15.5413 26.2939 13.872 25.026 12.688 23.3556C11.5041 21.6853 10.8626 19.6928 10.8501 17.6472C10.8501 17.0024 10.863 16.3576 10.8423 15.7128C10.8333 15.4304 10.9135 15.2975 11.1954 15.1969C14.2858 14.1085 17.3724 13.0093 20.455 11.8994C20.5474 11.858 20.6503 11.846 20.7497 11.8649C20.8492 11.8838 20.9404 11.9328 21.011 12.0051C22.1757 12.9981 23.3506 13.9787 24.536 14.9468C24.62 15.0054 24.6872 15.085 24.7309 15.1775C24.7747 15.27 24.7935 15.3722 24.7855 15.4742C24.7674 15.923 24.7803 16.3782 24.7803 16.9882Z" fill="#EECFB3"/>
<path d="M17.1124 4.75995C18.2555 4.75995 19.4011 4.81282 20.5261 4.53684C22.0718 4.17396 23.4843 3.38578 24.6032 2.26194C24.8437 2.02078 24.973 2.02078 25.1307 2.31739C25.5924 3.18273 25.7036 4.08676 25.3893 5.0153C25.1178 5.80068 24.4325 6.047 23.698 6.1966C23.3812 6.25358 23.0604 6.28549 22.7386 6.29203C22.5317 6.29977 22.4386 6.36683 22.4631 6.57446C22.4657 6.60665 22.4657 6.63899 22.4631 6.67118C22.4308 7.91438 22.4308 7.9118 23.6696 7.75834C24.2479 7.70172 24.8087 7.52887 25.3182 7.25022C25.5833 7.09805 25.7385 7.14834 25.9285 7.36371C27.0977 8.66981 27.7823 10.3363 27.8682 12.085C27.9354 13.2599 27.9018 14.4335 27.4738 15.5541C27.4182 15.6999 27.413 16.0532 27.1531 15.901C26.8738 15.7373 26.2854 15.901 26.3475 15.3504C26.4277 14.6385 26.1277 14.2155 25.5898 13.7912C24.1454 12.6563 22.7579 11.4609 21.3485 10.2796C21.2715 10.2015 21.1724 10.1487 21.0645 10.1282C20.9566 10.1077 20.8451 10.1205 20.7446 10.1648C17.0378 11.4948 13.3259 12.8171 9.60874 14.1317C9.37728 14.2142 9.2622 14.3277 9.29711 14.5792C9.30558 14.708 9.30558 14.8372 9.29711 14.9661C9.29711 15.6225 9.13677 15.8017 8.48765 15.9268C8.26136 15.972 8.25361 15.8134 8.20447 15.6896C7.99071 15.1523 7.85276 14.5881 7.79457 14.013C7.44156 10.5891 8.56265 7.56489 11.7695 5.72072C12.8529 5.10672 14.0754 4.77827 15.3215 4.7664C15.9202 4.74834 16.5163 4.75995 17.1124 4.75995Z" fill="#B07845"/>
<path d="M34.8196 43.3586C31.6452 43.3586 28.4694 43.3586 25.2949 43.3664C24.9186 43.3664 24.8255 43.289 24.8617 42.8983C25.2432 38.7947 28.7293 35.0457 32.8956 34.2861C38.5851 33.248 43.7677 36.8576 44.7724 42.5604C44.9133 43.3574 44.9133 43.3586 44.1026 43.3586H34.8196ZM38.6058 36.6758C38.6142 36.6544 38.6179 36.6314 38.6168 36.6084C38.6156 36.5854 38.6096 36.563 38.5991 36.5425C38.5886 36.522 38.5738 36.504 38.5558 36.4896C38.5378 36.4752 38.5169 36.4649 38.4946 36.4591C38.0886 36.2697 37.6694 36.1098 37.2403 35.9807C37.0631 35.9252 37.0515 36.04 37.0243 36.1406C36.9118 36.5533 36.683 36.9917 36.7528 37.3748C36.7877 37.5669 37.3696 37.6611 37.7032 37.8003C37.7433 37.8252 37.7869 37.8439 37.8325 37.8558C37.8907 37.8558 37.9864 37.8558 38.0045 37.8248C38.2204 37.4328 38.4208 37.0356 38.6058 36.6758ZM42.966 41.5764C42.7565 40.9935 42.6608 40.4351 42.2897 40.1397C42.0686 39.9643 41.6949 40.3977 41.3846 40.5266C41.3121 40.5589 41.2475 40.613 41.1725 40.6414C40.9747 40.7175 40.976 40.8245 41.0561 41.0089C41.5074 42.06 41.5022 42.0626 42.5884 41.7066C42.6647 41.6808 42.7397 41.6525 42.816 41.628C42.8649 41.607 42.915 41.5889 42.966 41.5738V41.5764ZM41.3846 38.5019C41.1492 38.3201 40.9074 38.1563 40.6941 37.9615C40.1212 37.4367 40.1251 37.4315 39.6596 38.0183C39.5303 38.1821 39.401 38.351 39.2717 38.5109C39.185 38.6141 39.1889 38.6799 39.2833 38.7921C40.0411 39.7013 40.0863 39.709 40.9643 38.9494C41.0367 38.8862 41.1117 38.8204 41.1803 38.7573C41.2178 38.7134 41.2488 38.6618 41.3846 38.4993V38.5019Z" fill="#CACFD7"/>
<path d="M6.98268 39.8393C6.98268 37.7978 6.99174 35.7563 6.97363 33.7148C6.97363 33.3847 7.07449 33.2441 7.37836 33.1294C8.95591 32.5353 10.5283 31.9257 12.0955 31.3007C12.3696 31.1923 12.4679 31.2323 12.5584 31.5212C13.7151 35.328 15.9925 38.7001 19.0949 41.1999C19.1855 41.2624 19.2587 41.347 19.3073 41.4456C19.356 41.5442 19.3785 41.6536 19.3729 41.7634C19.3599 43.1936 19.3574 44.6251 19.3729 46.0553C19.3729 46.3674 19.2966 46.4538 18.9772 46.4538C15.1109 46.4426 11.2438 46.4426 7.37578 46.4538C7.06415 46.4538 6.97234 46.3803 6.97493 46.0605C6.98268 43.9854 6.98268 41.913 6.98268 39.8393ZM16.3186 43.3574H15.8842C14.6532 43.3574 14.6532 43.3574 14.7204 44.6122C14.7223 44.6281 14.7223 44.6441 14.7204 44.6599C14.6958 44.8495 14.7812 44.9075 14.9674 44.9062C15.8346 44.8985 16.7031 44.8985 17.5729 44.9062C17.7591 44.9062 17.807 44.843 17.8225 44.6599C17.9401 43.3574 17.9453 43.3574 16.6587 43.3574H16.3186Z" fill="#FBD66F"/>
<path d="M29.6333 33.7883C28.5961 34.3232 27.6415 35.0042 26.7989 35.8104C24.774 37.799 23.5856 40.1951 23.3167 43.0246C23.2895 43.3109 23.2249 43.5043 22.9287 43.6565C21.924 44.1723 21.5723 45.0596 21.7805 46.3982C21.7533 46.4137 21.7275 46.4395 21.7003 46.4408C20.9128 46.4756 20.9128 46.4756 20.9128 45.6838C20.9128 44.1362 20.9064 42.5977 20.9128 41.0553C20.9226 40.9298 20.8988 40.804 20.8438 40.6907C20.7888 40.5774 20.7047 40.4807 20.5999 40.4105C20.0917 40.0172 19.6172 39.58 19.1194 39.1725C18.9267 39.0164 18.9254 38.9003 19.0883 38.7133C20.9174 36.6086 22.2858 34.1462 23.1059 31.4837C23.1499 31.3444 23.1253 31.1419 23.3994 31.2528C25.436 32.0821 27.5295 32.772 29.526 33.7031C29.5641 33.7284 29.6 33.7569 29.6333 33.7883Z" fill="#F9D56F"/>
<path d="M5.43088 34.0811V34.5518C5.43088 38.3639 5.43088 42.1748 5.44123 45.9869C5.44123 46.3738 5.34166 46.4654 4.96667 46.455C3.95161 46.428 2.93526 46.4486 1.91891 46.4434C1.76245 46.4434 1.55039 46.5273 1.55944 46.2178C1.61633 44.0976 1.38358 41.962 1.68874 39.8573C2.02882 37.4276 3.31542 35.5383 5.43088 34.0811Z" fill="#CBD0D8"/>
<path d="M34.8429 44.9023H45.34C45.4849 44.8928 45.6303 44.8962 45.7745 44.9126C46.1909 44.9913 46.4417 45.2479 46.4417 45.6735C46.4417 46.099 46.1831 46.3557 45.7719 46.4318C45.6119 46.4509 45.4504 46.4552 45.2896 46.4447H24.1984C23.588 46.4447 23.235 46.1545 23.2363 45.6709C23.2376 45.1873 23.588 44.8971 24.201 44.8971L34.8429 44.9023Z" fill="#A9B1BC"/>
<path d="M19.7246 35.243C19.6922 35.2984 19.6612 35.3539 19.6263 35.4081C19.145 36.1685 18.6142 36.8966 18.0371 37.5875C17.869 37.7913 17.7785 37.7965 17.6039 37.5875C17.0293 36.8942 16.4973 36.1668 16.0109 35.4094C15.9152 35.2585 15.8816 35.1514 16.0522 35.0121C16.5811 34.593 17.0867 34.152 17.613 33.7225C17.71 33.6426 17.8018 33.542 17.9453 33.6632C18.5117 34.1391 19.0819 34.6098 19.6496 35.0818C19.6961 35.1243 19.7543 35.1656 19.7246 35.243Z" fill="#C8CDD5"/>
<path d="M34.839 31.0066C35.3213 31.0066 35.8036 31.0001 36.2847 31.0066C36.8148 31.0143 37.1523 31.3109 37.1614 31.7623C37.1704 32.2137 36.8329 32.5361 36.3144 32.5464C35.3343 32.555 34.3545 32.555 33.3753 32.5464C32.858 32.5464 32.518 32.2201 32.5231 31.7726C32.5283 31.3251 32.8632 31.0208 33.3934 31.0117C33.8783 31.0001 34.358 31.0066 34.839 31.0066Z" fill="#FB806C"/>
<path d="M15.517 27.8185C16.1466 28.1223 16.7944 28.3871 17.4566 28.6117C17.682 28.6916 17.9277 28.6943 18.1548 28.6194C18.8284 28.3995 19.4841 28.1288 20.1164 27.8095C20.1953 27.9849 20.0737 28.0674 20.0091 28.1629C19.3626 29.0785 18.6966 29.9864 18.0514 30.9059C17.8859 31.1432 17.7928 31.2244 17.5936 30.9253C16.9471 29.9877 16.2721 29.0708 15.6114 28.1422C15.5506 28.0597 15.4407 27.9849 15.517 27.8185Z" fill="#E8C9AE"/>
<path d="M25.5537 21.711C26.0809 20.3064 26.3439 18.8169 26.3296 17.3172C27.342 17.597 28.0105 18.6958 27.8502 19.7546C27.7695 20.3026 27.4923 20.8028 27.0701 21.1626C26.6478 21.5223 26.109 21.7172 25.5537 21.711Z" fill="#EACBB0"/>
<path d="M10.086 21.7213C9.53439 21.7235 8.9999 21.5302 8.57788 21.1759C8.15585 20.8216 7.87371 20.3293 7.78178 19.7869C7.60204 18.7423 8.21883 17.6964 9.29467 17.2953C9.28417 18.8065 9.55242 20.3068 10.086 21.7213Z" fill="#EACBB0"/>
<path d="M20.8429 29.6512C21.1157 29.9091 21.3601 30.1541 21.6317 30.3747C21.7791 30.4959 21.7467 30.6042 21.7041 30.7512C21.4317 31.6876 21.0885 32.602 20.6774 33.4865C20.5726 33.7122 20.4886 33.7896 20.2701 33.5949C19.8821 33.2531 19.4942 32.9294 19.0882 32.6096C18.9253 32.4806 18.8684 32.3865 19.0158 32.1879C19.6339 31.3522 20.2326 30.5011 20.8429 29.6512Z" fill="#F66B4F"/>
<path d="M14.7824 29.6487C15.4017 30.5102 16.016 31.3703 16.6379 32.2279C16.7517 32.3827 16.7155 32.4717 16.5797 32.5813C16.1547 32.9252 15.7341 33.2743 15.3177 33.6285C15.1664 33.7574 15.0837 33.7458 14.997 33.5614C14.5563 32.6336 14.1926 31.6714 13.9095 30.6843C13.8869 30.6344 13.8823 30.5783 13.8965 30.5254C13.9106 30.4725 13.9426 30.4261 13.9871 30.3941C14.2522 30.1594 14.5031 29.9118 14.7824 29.6487Z" fill="#F66B4F"/>
<path d="M38.6059 36.6758C38.421 37.0356 38.218 37.4328 38.0098 37.8249C37.9917 37.8584 37.896 37.8597 37.8378 37.8558C37.7922 37.8439 37.7486 37.8252 37.7085 37.8004C37.3749 37.6611 36.793 37.567 36.7581 37.3748C36.6883 36.9879 36.9172 36.5533 37.0297 36.1406C37.0568 36.04 37.0685 35.9253 37.2456 35.9807C37.6734 36.1101 38.0913 36.27 38.496 36.4592C38.5182 36.465 38.539 36.4755 38.5568 36.49C38.5747 36.5044 38.5893 36.5224 38.5997 36.5429C38.6101 36.5634 38.616 36.5858 38.6171 36.6087C38.6182 36.6316 38.6143 36.6545 38.6059 36.6758Z" fill="#060707"/>
<path d="M42.966 41.5737C42.9141 41.5896 42.8631 41.6085 42.8135 41.6305C42.7372 41.655 42.6622 41.6834 42.5859 41.7092C41.4997 42.0651 41.5049 42.0625 41.0536 41.0115C40.9734 40.8271 40.9721 40.72 41.17 40.6439C41.245 40.6156 41.3096 40.5614 41.382 40.5291C41.695 40.3912 42.0687 39.9617 42.2872 40.1423C42.6609 40.4324 42.7566 40.9908 42.966 41.5737Z" fill="#060707"/>
<path d="M41.3847 38.4993C41.2553 38.6617 41.2178 38.7133 41.1739 38.7572C41.1054 38.8242 41.0304 38.8861 40.9579 38.9493C40.0851 39.7089 40.0399 39.7012 39.277 38.792C39.1826 38.6798 39.1787 38.614 39.2653 38.5109C39.3946 38.3509 39.5239 38.182 39.6532 38.0182C40.1187 37.4314 40.1149 37.4366 40.6877 37.9615C40.9075 38.1536 41.1493 38.3174 41.3847 38.4993Z" fill="#060707"/>
<path d="M16.3145 43.3574H16.652C17.9451 43.3574 17.9373 43.3574 17.8158 44.6599C17.8003 44.843 17.7524 44.9075 17.5662 44.9062C16.6973 44.8985 15.8288 44.8985 14.9607 44.9062C14.7745 44.9062 14.6892 44.8495 14.7137 44.6599C14.7157 44.644 14.7157 44.628 14.7137 44.6122C14.6452 43.3574 14.6452 43.3574 15.8775 43.3574H16.3145Z" fill="#020202"/>
</g>
<defs>
<clipPath id="clip0_93_543">
<rect width="48" height="48" fill="white"/>
</clipPath>
</defs>
</svg>
