<svg width="48" height="48" viewBox="0 0 48 48" fill="none" xmlns="http://www.w3.org/2000/svg">
<g clip-path="url(#clip0_93_541)">
<path d="M11.5451 43.9444C11.3245 44.5786 11.2104 44.6613 10.5262 44.6613C8.74819 44.6613 6.97023 44.6613 5.19227 44.6613C2.66945 44.655 0.877284 43.3065 0.147885 40.8877C0.120313 40.7962 0.147885 40.6559 0 40.6245V8.833C0.162924 8.76658 0.136606 8.60115 0.17295 8.47833C0.438756 7.49909 1.02041 6.63499 1.82761 6.02019C2.63481 5.40538 3.62241 5.07426 4.63707 5.07822C7.59143 5.06402 10.5454 5.06402 13.4989 5.07822C13.6433 5.08407 13.7871 5.05789 13.9202 5.00155C14.0532 4.94521 14.1721 4.86012 14.2684 4.75238C15.7122 3.29984 17.1697 1.85483 18.6122 0.408564C19.1561 -0.135352 19.4406 -0.135352 19.9908 0.408564C20.5786 0.992585 21.1701 1.57285 21.7454 2.17065C21.9258 2.35864 22.0274 2.37117 22.2153 2.17065C22.7981 1.56031 23.4022 0.970026 24.0012 0.375979C24.5051 -0.125326 24.8146 -0.125326 25.3159 0.375979C26.7772 1.83227 28.241 3.28606 29.686 4.7624C29.7896 4.87429 29.9168 4.96178 30.0583 5.01857C30.1998 5.07535 30.3522 5.10001 30.5044 5.09076C33.709 5.07948 36.9124 5.09076 40.117 5.09076C40.8689 5.09076 41.0807 5.30381 41.0807 6.0683C41.0807 8.4282 41.0882 10.7893 41.0732 13.1492C41.0732 13.5002 41.1371 13.6305 41.5244 13.6192C42.5395 13.5879 43.5559 13.6054 44.571 13.6092C45.234 13.6092 45.4684 13.8486 45.4696 14.5191C45.4696 17.488 45.4797 20.4583 45.4609 23.4273C45.4609 23.8183 45.5649 23.9085 45.9446 23.921C47.1866 23.9624 48.015 24.8522 48.0188 26.1105C48.0255 28.0648 48.0255 30.0186 48.0188 31.972C48.0188 33.2691 47.154 34.159 45.8594 34.1715C45.5085 34.1715 45.4621 34.2968 45.4634 34.6026C45.4734 37.618 45.4634 40.6346 45.4634 43.6512C45.4634 44.4696 45.2553 44.6776 44.4407 44.6776H13.92C13.2307 44.6776 13.0615 44.5523 12.9074 43.967C13.0715 43.378 13.232 43.2664 13.9325 43.2664H43.3629C43.4881 43.2601 43.6136 43.2601 43.7389 43.2664C43.9833 43.2902 44.0635 43.19 44.0622 42.9456C44.0484 40.6496 44.0447 38.3524 44.0384 36.0526C44.0472 35.6002 44.0384 35.1465 44.071 34.6966C44.1036 34.2868 43.967 34.1577 43.5471 34.1615C41.5945 34.1815 39.642 34.1615 37.6881 34.169C37.2043 34.1594 36.7249 34.0748 36.2669 33.9183C35.0864 33.5424 34.2153 32.7691 33.491 31.8003C33.432 31.675 33.3744 31.5497 33.3142 31.4243C32.3567 29.4354 32.5247 27.5392 33.882 25.806C34.9685 24.4186 36.4762 23.8747 38.2095 23.8797C40.0054 23.886 41.8001 23.8709 43.5985 23.8897C43.9745 23.8897 44.071 23.7782 44.0685 23.4135C44.0547 20.7904 44.0497 18.1673 44.0685 15.5442C44.0685 15.0931 43.9256 15.0116 43.5158 15.0128C39.2058 15.0266 34.8971 15.0128 30.5884 15.0266C30.0796 15.0266 29.6998 14.9013 29.5632 14.3611C29.6948 13.7345 29.8327 13.6092 30.4681 13.6092C31.1035 13.6092 31.7527 13.6092 32.3906 13.6092C31.764 12.9412 31.1624 12.3033 30.5633 11.6654C29.3101 10.4004 28.0568 9.13587 26.8035 7.87175C26.7836 7.84387 26.7583 7.82036 26.7289 7.80268C26.6996 7.785 26.667 7.77351 26.633 7.76893C26.5991 7.76435 26.5646 7.76677 26.5316 7.77605C26.4986 7.78533 26.4679 7.80126 26.4413 7.82287C25.2883 8.4495 24.1203 8.46705 22.9535 7.85796C22.8852 7.80723 22.7998 7.78501 22.7154 7.796C22.631 7.80699 22.5542 7.85032 22.5011 7.91687C21.2403 9.1952 19.9766 10.4702 18.71 11.7418L16.9015 13.6092H17.4204C20.7022 13.6092 23.9845 13.6092 27.2672 13.6092C27.9014 13.6092 28.0668 13.7558 28.1621 14.3712C28.0593 14.8549 27.7322 15.0191 27.271 15.0191C19.7247 15.0191 12.1792 15.0166 4.63457 15.0116C3.57766 15.0093 2.55338 14.6453 1.73201 13.9802C1.64177 13.91 1.58663 13.7696 1.41619 13.8009C1.41619 13.8774 1.40616 13.9526 1.40616 14.0278C1.40616 22.5742 1.40616 31.1198 1.40616 39.6645C1.40616 41.6948 2.97775 43.2464 5.01055 43.2564C6.85284 43.2652 8.69639 43.2564 10.5399 43.2564C11.1904 43.2514 11.3295 43.3491 11.5451 43.9444ZM39.6545 11.7356C39.6545 10.1063 39.6545 8.48835 39.6758 6.86538C39.6758 6.4894 39.5016 6.47937 39.2196 6.47937C36.7519 6.48689 34.2855 6.47937 31.8191 6.47937C31.7351 6.47937 31.6299 6.43175 31.5948 6.49191L36.7419 11.7443C37.1893 12.2005 37.6656 12.6329 38.0741 13.1229C38.4263 13.544 38.8399 13.6455 39.35 13.6079C39.5931 13.5904 39.6783 13.5127 39.672 13.2733C39.6557 12.7657 39.6595 12.2507 39.6545 11.7368V11.7356ZM12.584 11.7531C15.3136 9.03352 18.0441 6.31478 20.7753 3.59687C20.942 3.43144 20.9132 3.32616 20.7603 3.17953C20.3843 2.81107 19.9895 2.44762 19.6386 2.05159C19.3817 1.76334 19.22 1.7646 18.9431 2.04533C16.5076 4.50674 14.062 6.95812 11.6065 9.39948C11.149 9.85817 10.9874 9.87822 10.4184 9.57493C10.1188 9.13629 10.2128 8.76783 10.5901 8.41817C11.0024 8.04219 11.3934 7.63238 11.7832 7.22757C12 7.00073 12.272 6.8165 12.4399 6.48564C9.85942 6.48564 7.33284 6.48564 4.80501 6.48564C2.66318 6.48564 1.23822 8.07979 1.43499 10.2342C1.57159 12.2732 3.17577 13.6004 5.19478 13.6067C5.2652 13.6087 5.33525 13.5956 5.40013 13.5681C5.46501 13.5407 5.52321 13.4995 5.57075 13.4475C6.11801 12.8794 6.67237 12.3129 7.23383 11.7481C7.57974 11.4135 7.94443 11.0951 8.26652 10.738C8.62245 10.3444 8.99718 10.2367 9.45712 10.5312C9.74663 10.9272 9.70778 11.2994 9.38318 11.6591L7.5459 13.5979H10.6314C10.6938 13.5926 10.7543 13.574 10.8089 13.5436C10.8636 13.5131 10.9112 13.4714 10.9485 13.4212L12.584 11.7531ZM34.6327 11.7343C34.6084 11.6947 34.5812 11.657 34.5512 11.6215C31.3378 8.40564 28.1261 5.18893 24.9161 1.97138C24.6329 1.68564 24.5126 1.85859 24.3296 2.04282C21.5925 4.78412 18.8537 7.52418 16.1132 10.263C15.6282 10.7492 15.1519 11.2443 14.672 11.7343L12.9011 13.5979C13.4939 13.5979 14.0629 13.5979 14.6318 13.5979C14.6939 13.5968 14.755 13.5827 14.8111 13.5563C14.8673 13.53 14.9172 13.492 14.9577 13.445L16.622 11.7531L21.9697 6.43802C22.4823 5.92794 22.7217 5.91916 23.2881 6.37661C23.656 6.68536 24.1168 6.8619 24.5969 6.87803C25.0769 6.89416 25.5485 6.74894 25.9363 6.46559C26.7522 5.87154 26.8136 5.87906 27.5317 6.59969C29.2587 8.31833 30.9848 10.0349 32.7102 11.7493C33.2566 12.3075 33.8034 12.8648 34.3507 13.4212C34.4259 13.4989 34.5011 13.5904 34.6201 13.5916C35.2179 13.5916 35.8145 13.5916 36.3897 13.5916C35.7932 12.9575 35.2167 12.3472 34.6389 11.7356L34.6327 11.7343ZM41.691 25.3159C40.3952 25.3159 39.098 25.2959 37.8059 25.3159C36.8319 25.3372 35.9051 25.74 35.2251 26.4378C34.545 27.1355 34.1661 28.0723 34.1699 29.0466C34.1737 30.0209 34.5598 30.9548 35.2453 31.6472C35.9307 32.3397 36.8606 32.7353 37.8348 32.749C40.4741 32.7666 43.1148 32.7553 45.7541 32.749C46.3569 32.749 46.6076 32.4984 46.6089 31.8943C46.6089 29.9893 46.6089 28.0835 46.6089 26.1769C46.6089 25.5503 46.367 25.3097 45.7253 25.3072C44.378 25.3072 43.0345 25.3159 41.691 25.3159Z" fill="#020201"/>
<path d="M44.0397 36.0425C44.046 38.3385 44.0498 40.6357 44.0635 42.9355C44.0635 43.1799 43.9846 43.2801 43.7402 43.2563C43.615 43.25 43.4895 43.25 43.3642 43.2563H13.9326C13.232 43.2563 13.0716 43.3678 12.9074 43.9569L11.5451 43.9494C11.3296 43.3553 11.1904 43.2576 10.5425 43.2576C8.69895 43.2576 6.8554 43.2638 5.0131 43.2576C2.98031 43.2475 1.40997 41.696 1.40872 39.6657C1.4012 31.121 1.4012 22.5754 1.40872 14.0289C1.40872 13.9537 1.41624 13.8785 1.41874 13.8021C1.58919 13.7708 1.64433 13.9111 1.73456 13.9813C2.55711 14.6433 3.58128 15.0041 4.63712 15.004C12.1834 15.0132 19.7289 15.0157 27.2736 15.0115C27.7348 15.0115 28.0619 14.8473 28.1646 14.3636L29.5658 14.3498C29.7024 14.8874 30.0821 15.0165 30.591 15.0153C34.8997 15.0065 39.2084 15.0153 43.5184 15.0015C43.9282 15.0015 44.0748 15.0817 44.0711 15.5329C44.0485 18.1559 44.0535 20.779 44.0711 23.4021C44.0711 23.7668 43.9758 23.8821 43.6011 23.8783C41.8052 23.8595 40.0105 23.8783 38.2121 23.8683C36.4788 23.8683 34.9711 24.4072 33.8845 25.7946C32.5273 27.5291 32.3593 29.429 33.3168 31.413C33.377 31.5383 33.4346 31.6636 33.4935 31.7889C33.4807 31.99 33.4861 32.1917 33.5098 32.3918C33.7085 33.4243 34.2639 34.354 35.0788 35.0185C35.8937 35.6829 36.9163 36.0396 37.9677 36.0262L44.0397 36.0425Z" fill="#A95D24"/>
<path d="M41.6911 25.3159C43.0346 25.3159 44.3781 25.3159 45.7216 25.3159C46.3632 25.3159 46.5989 25.554 46.6051 26.1857C46.6051 28.0923 46.6051 29.9981 46.6051 31.9031C46.6051 32.5071 46.3545 32.7565 45.7504 32.7578C43.111 32.7578 40.4704 32.7716 37.831 32.7578C36.8568 32.7441 35.9269 32.3484 35.2415 31.656C34.5561 30.9635 34.1699 30.0297 34.1662 29.0554C34.1624 28.0811 34.5413 27.1443 35.2213 26.4465C35.9013 25.7488 36.8281 25.3459 37.8022 25.3247C39.0981 25.3009 40.3952 25.3247 41.6873 25.3247L41.6911 25.3159ZM38.4752 26.7371C38.1745 26.733 37.876 26.7885 37.5969 26.9006C37.3179 27.0127 37.0638 27.1791 36.8496 27.3901C36.6353 27.6011 36.4651 27.8525 36.3487 28.1298C36.2323 28.4071 36.1722 28.7048 36.1717 29.0055C36.1682 29.31 36.2252 29.6122 36.3395 29.8945C36.4537 30.1768 36.6229 30.4337 36.8372 30.65C37.0515 30.8664 37.3067 31.0381 37.5878 31.1551C37.869 31.2721 38.1707 31.3321 38.4752 31.3316C39.0826 31.3225 39.6624 31.0766 40.0913 30.6464C40.5201 30.2161 40.7641 29.6355 40.7712 29.0281C40.7682 28.4205 40.5252 27.8388 40.0951 27.4096C39.665 26.9805 39.0828 26.7387 38.4752 26.7371Z" fill="#F79508"/>
<path d="M14.6782 11.7344C15.1582 11.2444 15.6345 10.7493 16.1195 10.2631C18.8574 7.52261 21.5962 4.78256 24.3359 2.04292C24.5188 1.85869 24.6392 1.68574 24.9224 1.97149C28.1257 5.19655 31.3374 8.41326 34.5575 11.6216C34.5874 11.6571 34.6147 11.6948 34.639 11.7344L32.7102 11.7494C30.9832 10.0341 29.2558 8.3176 27.5279 6.59979C26.8035 5.87916 26.7484 5.87164 25.9325 6.46569C25.5447 6.74905 25.0731 6.89426 24.5931 6.87813C24.1131 6.862 23.6523 6.68546 23.2844 6.37671C22.7179 5.91927 22.4785 5.92804 21.966 6.43812L16.622 11.7545L14.6782 11.7344Z" fill="#89CB19"/>
<path d="M9.45713 10.5274C8.99718 10.2341 8.62246 10.3407 8.26653 10.7342C7.94444 11.0914 7.57974 11.4097 7.23384 11.7443C6.44053 11.7443 5.6447 11.7143 4.85264 11.7443C3.64199 11.7869 2.64063 11.3583 1.80596 10.4986C1.69943 10.3883 1.60794 10.2479 1.42998 10.2329C1.23321 8.07853 2.65818 6.48813 4.8 6.48438C7.32784 6.48438 9.85442 6.48438 12.4349 6.48438C12.2669 6.81524 11.995 6.99947 11.7782 7.22631C11.3884 7.63111 10.9974 8.03466 10.5851 8.41691C10.2091 8.76657 10.1138 9.13503 10.4134 9.57367C10.129 9.92432 9.80852 10.244 9.45713 10.5274Z" fill="#7B3D1E"/>
<path d="M9.45712 10.5273C9.81039 10.2434 10.1326 9.92286 10.4184 9.57108C10.9874 9.87437 11.149 9.85432 11.6065 9.39562C14.062 6.95092 16.5096 4.50121 18.9493 2.04648C19.2263 1.76575 19.388 1.7645 19.6449 2.05275C19.9958 2.44878 20.3843 2.81223 20.7666 3.18069C20.9195 3.32732 20.9483 3.43134 20.7816 3.59802C18.0478 6.31426 15.3174 9.03301 12.5903 11.7543C11.6992 11.7543 10.8094 11.7543 9.91832 11.738C9.73911 11.738 9.54234 11.8082 9.38318 11.654C9.70527 11.2993 9.74662 10.9271 9.45712 10.5273Z" fill="#76A717"/>
<path d="M18.7151 11.7331C19.9792 10.4589 21.2429 9.18395 22.5062 7.90812C22.5593 7.84158 22.6361 7.79825 22.7205 7.78726C22.8049 7.77627 22.8903 7.79848 22.9586 7.84922C24.1254 8.45831 25.2935 8.44577 26.4465 7.81413C26.473 7.79252 26.5037 7.77658 26.5367 7.76731C26.5697 7.75803 26.6042 7.75561 26.6381 7.76019C26.6721 7.76477 26.7047 7.77625 26.734 7.79394C26.7634 7.81162 26.7888 7.83513 26.8087 7.86301C28.0619 9.12964 29.3152 10.3942 30.5684 11.6566C30.4719 11.7694 30.3403 11.7394 30.22 11.7394L18.7151 11.7331Z" fill="#779E17"/>
<path d="M36.742 11.7519L31.5948 6.4995C31.6299 6.43934 31.7352 6.48822 31.8192 6.48697C34.2856 6.48697 36.752 6.48697 39.2197 6.48697C39.5017 6.48697 39.6809 6.49825 39.6759 6.87297C39.6533 8.49595 39.6596 10.1202 39.6546 11.7432L36.742 11.7519Z" fill="#7B3D1E"/>
<path d="M18.715 11.7331H30.2174C30.3427 11.7331 30.4681 11.7632 30.5658 11.6504C31.1649 12.2883 31.7639 12.9262 32.3931 13.5942C31.7552 13.5942 31.1135 13.5942 30.4706 13.5942C29.8276 13.5942 29.6973 13.7195 29.5657 14.3462L28.1646 14.36C28.0693 13.7446 27.9039 13.598 27.2697 13.598C23.9879 13.598 20.7056 13.598 17.4228 13.598H16.9065L18.715 11.7331Z" fill="#6B8615"/>
<path d="M44.0397 36.0427L37.9664 36.0276C36.915 36.041 35.8924 35.6843 35.0775 35.0199C34.2626 34.3554 33.7072 33.4257 33.5085 32.3932C33.4849 32.1931 33.4794 31.9914 33.4922 31.7903C34.2166 32.7591 35.0876 33.5361 36.2682 33.9084C36.7262 34.0648 37.2056 34.1494 37.6894 34.159C39.6433 34.159 41.5958 34.1715 43.5484 34.1515C43.9683 34.1515 44.1049 34.2768 44.0723 34.6866C44.036 35.1366 44.0485 35.5927 44.0397 36.0427Z" fill="#7A3C1D"/>
<path d="M1.43506 10.2355C1.60801 10.2543 1.6995 10.3909 1.81104 10.5012C2.64571 11.3609 3.64707 11.7895 4.85772 11.7469C5.64979 11.7181 6.44561 11.7469 7.23893 11.7469C6.68248 12.3134 6.12603 12.8803 5.56958 13.4476C5.52204 13.4996 5.46384 13.5407 5.39895 13.5682C5.33407 13.5957 5.26403 13.6088 5.1936 13.6068C3.17584 13.6017 1.57166 12.2745 1.43506 10.2355Z" fill="#67311A"/>
<path d="M9.38318 11.6553C9.54109 11.8095 9.73911 11.7368 9.91833 11.7393C10.8094 11.7506 11.6992 11.7506 12.5903 11.7556L10.9485 13.4224C10.9112 13.4726 10.8636 13.5143 10.8089 13.5448C10.7543 13.5753 10.6938 13.5938 10.6314 13.5991H7.5459L9.38318 11.6553Z" fill="#6A8514"/>
<path d="M36.7419 11.7519L39.6545 11.7369C39.6545 12.2507 39.6545 12.7658 39.6721 13.2797C39.6784 13.519 39.5931 13.5967 39.35 13.6143C38.8399 13.6519 38.4263 13.5504 38.0742 13.1293C37.6656 12.6405 37.1894 12.2081 36.7419 11.7519Z" fill="#67311A"/>
<path d="M14.6783 11.7344L16.6221 11.7545L14.9577 13.4464C14.9173 13.4934 14.8673 13.5313 14.8112 13.5577C14.755 13.584 14.6939 13.5982 14.6319 13.5993C14.0629 13.5993 13.4939 13.5993 12.9011 13.5993L14.6783 11.7344Z" fill="#759D16"/>
<path d="M32.7102 11.7494L34.6352 11.7357C35.2117 12.3472 35.7895 12.9576 36.3898 13.593C35.8145 13.593 35.218 13.593 34.6202 13.593C34.5011 13.593 34.4259 13.5003 34.3507 13.4225C33.806 12.8653 33.2591 12.3076 32.7102 11.7494Z" fill="#759D16"/>
<path d="M38.4752 26.7371C39.0828 26.7394 39.6648 26.9817 40.0944 27.4114C40.524 27.841 40.7664 28.423 40.7687 29.0305C40.761 29.6371 40.5171 30.2167 40.0889 30.6464C39.6606 31.076 39.0818 31.3218 38.4752 31.3315C38.1707 31.3317 37.8691 31.2714 37.5881 31.1541C37.307 31.0368 37.0521 30.8649 36.838 30.6482C36.6239 30.4316 36.455 30.1746 36.3411 29.8922C36.2271 29.6098 36.1704 29.3075 36.1743 29.003C36.1751 28.7027 36.2354 28.4055 36.3517 28.1287C36.4681 27.8518 36.6382 27.6008 36.8521 27.3901C37.0661 27.1794 37.3197 27.0132 37.5983 26.9011C37.8769 26.789 38.175 26.7332 38.4752 26.7371ZM39.3525 29.033C39.3516 28.9159 39.3275 28.8 39.2817 28.6921C39.236 28.5843 39.1694 28.4864 39.0859 28.4043C39.0023 28.3221 38.9034 28.2572 38.7947 28.2133C38.6861 28.1693 38.5699 28.1473 38.4527 28.1482C38.2241 28.1469 38.0043 28.2363 37.8415 28.3967C37.6787 28.5572 37.5862 28.7756 37.5842 29.0042C37.5797 29.1212 37.5984 29.2379 37.6394 29.3476C37.6804 29.4572 37.7427 29.5576 37.8228 29.643C37.9029 29.7283 37.9992 29.7969 38.106 29.8448C38.2129 29.8926 38.3281 29.9187 38.4452 29.9216C38.6818 29.9191 38.9084 29.8253 39.0775 29.6597C39.2466 29.4941 39.3451 29.2696 39.3525 29.033Z" fill="#040300"/>
<path d="M39.3525 29.033C39.3451 29.2696 39.2465 29.4941 39.0774 29.6597C38.9084 29.8253 38.6818 29.9191 38.4452 29.9216C38.3281 29.9187 38.2128 29.8926 38.106 29.8447C37.9992 29.7969 37.9029 29.7283 37.8228 29.643C37.7427 29.5576 37.6803 29.4572 37.6394 29.3475C37.5984 29.2379 37.5796 29.1212 37.5842 29.0042C37.5861 28.7756 37.6787 28.5572 37.8415 28.3967C38.0043 28.2362 38.2241 28.1469 38.4527 28.1482C38.5699 28.1472 38.6861 28.1693 38.7947 28.2133C38.9034 28.2572 39.0023 28.3221 39.0859 28.4043C39.1694 28.4864 39.236 28.5842 39.2817 28.6921C39.3275 28.8 39.3515 28.9159 39.3525 29.033Z" fill="#F8CA37"/>
</g>
<defs>
<clipPath id="clip0_93_541">
<rect width="48" height="48" fill="white"/>
</clipPath>
</defs>
</svg>
