<svg width="48" height="49" viewBox="0 0 48 49" fill="none" xmlns="http://www.w3.org/2000/svg">
<g clip-path="url(#clip0_209_3118)">
<path d="M11.881 48.1591C11.2694 47.7531 11.2055 47.2079 11.4248 46.5525C11.6128 45.9935 11.7394 45.4157 11.9023 44.848C12.0853 44.2076 12.5665 43.8955 13.1167 44.0509C13.6406 44.2001 13.8925 44.7127 13.7308 45.3318C13.5529 46.0073 13.3548 46.6765 13.1819 47.3545C13.0879 47.7305 12.8222 47.9473 12.539 48.1591H11.881Z" fill="#040404"/>
<path d="M44.5887 22.6163C45.2755 22.8344 45.4911 23.1728 45.3996 23.8696C45.2855 24.7369 45.1815 25.6041 45.0599 26.4701C45.0215 26.8272 45.0644 27.1884 45.1853 27.5266C46.0208 30.2003 46.8488 32.8793 47.6692 35.5638C47.8886 36.2757 47.6216 36.8321 47.0125 36.97C46.7531 37.0289 46.5112 36.9361 46.2794 36.8647C44.2006 36.2439 42.1227 35.621 40.0456 34.9961C39.9391 34.9441 39.8187 34.9279 39.7022 34.9497C39.607 36.9207 39.5117 38.8979 39.4165 40.8814C39.399 41.2411 39.3952 41.6008 39.3588 41.958C39.2711 42.8252 38.5279 43.1812 37.8035 42.6874C36.049 41.4918 34.3007 40.2811 32.5486 39.0767C32.3832 38.9627 32.2127 38.8561 32.016 38.7258C31.4081 40.4804 30.8103 42.1986 30.215 43.9206C30.0509 44.3905 29.9005 44.8655 29.7288 45.3343C29.418 46.1815 28.6008 46.3369 28.0105 45.6401C26.6044 43.982 25.2133 42.3126 23.8146 40.6496C23.7156 40.5317 23.6417 40.3864 23.4725 40.3187C22.1766 42.1911 20.8816 44.0651 19.5874 45.9408C19.343 46.2955 19.056 46.5737 18.5973 46.5336C18.1173 46.491 17.8604 46.1677 17.7087 45.7403C17.6836 45.6676 17.6473 45.5974 17.616 45.526C16.7926 43.6461 15.9604 41.7599 15.1521 39.87C15.0004 39.5141 14.9014 39.4402 14.568 39.7071C12.8937 41.0168 11.1917 42.2938 9.50986 43.5922C9.14265 43.8767 8.77545 44.0835 8.31049 43.883C7.84552 43.6825 7.76156 43.2651 7.73273 42.8002C7.55727 39.9465 7.35675 37.094 7.1813 34.2404C7.15648 33.993 7.07731 33.7542 6.94944 33.541C4.81304 29.5724 2.68166 25.6033 0.55529 21.6338C0.503906 21.5385 0.451269 21.442 0.403645 21.3443C0.0439582 20.6161 0.352261 19.9945 1.1556 19.8529C1.92511 19.7163 2.69336 19.5646 3.46913 19.4769C3.88646 19.4293 3.87769 19.2814 3.76365 18.9531C2.9791 16.6696 2.21461 14.3786 1.43508 12.0939C1.30098 11.7029 1.32605 11.3508 1.61555 11.0512C1.74118 10.9089 1.90882 10.8102 2.09424 10.7694C2.27965 10.7286 2.47323 10.7479 2.64699 10.8244C2.71968 10.852 2.79738 10.8645 2.87257 10.887C4.99184 11.5212 7.11613 12.1516 9.2354 12.7995C9.57378 12.9036 9.68156 12.866 9.6966 12.485C9.77931 10.2542 9.90464 8.02209 9.99738 5.79003C10.0162 5.33885 10.1139 4.9541 10.5501 4.73854C10.9862 4.52298 11.3283 4.69217 11.678 4.9353C13.5036 6.19608 15.3354 7.45227 17.1736 8.70387C17.2989 8.79034 17.4242 8.87306 17.5784 8.96956C18.3754 6.67608 19.1562 4.41144 19.9508 2.1493C20.2566 1.26951 21.0587 1.12162 21.6853 1.82721C21.7467 1.89739 21.8106 1.97133 21.8658 2.04277C23.3438 3.80319 24.8218 5.56319 26.2998 7.32277C26.4628 7.28642 26.5054 7.13979 26.5818 7.02951C27.851 5.19473 29.1201 3.35828 30.3892 1.52016C30.6399 1.1517 30.9269 0.854675 31.4119 0.907312C31.8969 0.959949 32.1125 1.3046 32.2892 1.71567C33.1752 3.75974 34.0864 5.79253 34.9611 7.84162C35.1228 8.2176 35.2318 8.19379 35.5176 7.96695C37.2722 6.6059 39.0405 5.26491 40.8001 3.91013C41.1635 3.6294 41.5308 3.40883 42.0007 3.6294C42.4707 3.84998 42.5471 4.26731 42.5672 4.7235C42.67 7.06293 42.7752 9.40486 42.883 11.7493C42.8893 11.9034 42.8956 12.0576 42.9043 12.2393C43.744 12.0914 44.5599 11.9536 45.3733 11.8044C46.3508 11.624 46.8296 12.0338 46.7318 13.0101C46.6553 13.7708 46.5538 14.5303 46.4498 15.2873C46.3734 15.8387 46.055 16.0856 45.3582 16.1645C44.6414 15.8287 44.4947 15.5492 44.6125 14.7584C44.6426 14.5579 44.6514 14.3536 44.6877 14.1543C44.7328 13.9137 44.7015 13.8097 44.4095 13.8798C43.9989 13.9781 43.5824 14.0497 43.1625 14.0942C42.9118 14.1217 42.8279 14.2283 42.7865 14.4701C42.3917 16.7774 41.9769 19.0809 41.5821 21.3881C41.5069 21.8243 41.3315 22.1602 40.8953 22.3043C40.4592 22.4484 40.1208 22.2391 39.8113 21.9371C39.3664 21.5034 38.9002 21.0911 38.4389 20.6663C38.2109 21.2014 37.9615 21.8055 37.6958 22.402C37.4627 22.9272 37.0228 23.154 36.5252 23.0124C36.1956 22.9221 36.0239 22.669 35.8647 22.3857C34.7669 20.4165 33.6674 18.4442 32.5662 16.4691C32.4797 16.3149 32.4408 16.1107 32.1726 16.1633C31.6074 16.2723 31.0384 16.3601 30.4293 16.4628C30.5208 16.647 30.5885 16.7849 30.6587 16.9228C32.2829 20.0852 33.9084 23.2476 35.5351 26.41C35.7269 26.786 35.8134 27.3311 36.1555 27.469C36.4976 27.6068 36.9676 27.3675 37.385 27.3261C37.7058 27.2935 37.8223 27.1293 37.8863 26.8323C38.0316 26.1292 38.2071 25.4337 38.3775 24.7369C38.4185 24.5571 38.5113 24.3933 38.6446 24.2658C38.7778 24.1383 38.9455 24.0528 39.1269 24.0198C39.3084 23.9868 39.4955 24.0079 39.665 24.0803C39.8346 24.1528 39.9791 24.2734 40.0807 24.4273C40.3151 24.7582 40.5908 25.0727 40.7587 25.4362C41.1999 26.3937 41.8553 26.712 42.8667 26.3222C43.1074 26.2295 43.2289 26.1568 43.2565 25.8986C43.338 25.1379 43.4382 24.3784 43.5347 23.6202C43.6174 22.9184 43.8681 22.689 44.5887 22.6163ZM19.081 17.6497C21.7363 15.3353 24.7157 14.7876 28.0193 16.0066C28.1008 15.1895 28.3376 14.9 29.0094 14.7872C30.1975 14.5867 31.3852 14.3887 32.5724 14.1932C33.1815 14.0929 33.4723 14.227 33.7705 14.7584C34.4348 15.9427 35.0915 17.1308 35.7519 18.3177C36.0452 18.844 36.341 19.3679 36.6806 19.9732C36.8874 19.502 37.0566 19.1085 37.2321 18.7199C37.6193 17.8427 38.3199 17.7023 38.9866 18.3841C39.31 18.7124 39.6346 19.0395 40.013 19.4205C40.2286 18.181 40.4354 17.0193 40.6309 15.8562C40.7788 14.979 41.062 14.1117 41.0445 13.2244C41.0044 11.2192 40.8828 9.22773 40.7938 7.23003C40.7826 6.96308 40.755 6.69614 40.7287 6.36152C40.5607 6.48684 40.478 6.54825 40.3903 6.61217C38.7894 7.83535 37.1874 9.05937 35.584 10.2842C34.7656 10.9109 34.1904 10.7655 33.7818 9.83431C32.9622 7.96277 32.1434 6.09165 31.3254 4.22094C31.2665 4.0881 31.2565 3.9164 31.0835 3.83494C29.8177 5.66136 28.5532 7.48527 27.2899 9.30668C26.7886 10.0323 26.1344 10.0586 25.5604 9.37561C24.9137 8.61112 24.2733 7.84287 23.6291 7.07713L21.2191 4.21217C20.4809 6.34272 19.7653 8.40183 19.0497 10.4622C18.695 11.4824 18.1411 11.6591 17.2387 11.0387C15.5635 9.8882 13.8879 8.73812 12.2119 7.58846C12.0953 7.50951 11.9988 7.34783 11.8109 7.41802C11.7081 9.5611 11.5991 11.6992 11.5076 13.8372C11.4599 14.9288 11.0063 15.2797 9.96855 14.9652C8.33931 14.4802 6.71007 13.9826 5.08083 13.5039C4.67101 13.3785 4.27247 13.2018 3.79372 13.1705C4.05691 13.9488 4.30506 14.6844 4.55571 15.4264C5.08709 16.9904 5.48187 18.6209 6.18495 20.101C7.0096 21.8243 8.11122 23.4159 9.12009 25.1141C9.30182 24.6943 9.46474 24.3245 9.6214 23.9523C10.0989 22.8244 10.7493 22.7066 11.589 23.5763C11.8535 23.8471 12.0816 24.1579 12.4287 24.3872C12.7157 22.3682 12.9939 20.3905 13.2772 18.4129C13.3611 17.8276 13.578 17.5908 14.1545 17.4855C15.3551 17.2691 16.5565 17.0602 17.7588 16.8589C18.4795 16.7335 18.7928 16.9353 19.081 17.6497ZM32.8356 25.2946C31.8255 28.7147 29.7451 30.9242 26.2823 31.5684C22.8195 32.2126 20.0561 30.8703 17.9168 28.0893C17.7601 29.483 17.6084 30.8139 17.4606 32.1462C17.4017 32.67 17.0959 32.9583 16.5933 33.051C15.7022 33.2177 14.8062 33.3606 13.9188 33.541C13.3461 33.6589 12.9463 33.4684 12.653 32.9833C12.5277 32.7678 12.3711 32.566 12.1918 32.3041C12.1171 32.541 12.056 32.782 12.0089 33.026C11.9199 33.7052 11.5276 34.0286 10.8596 34.1063C10.426 34.1551 10.0024 34.3055 9.56876 34.3344C9.13513 34.3632 9.04365 34.5361 9.07748 34.946C9.19153 36.3007 9.26422 37.658 9.35571 39.014C9.40333 39.7209 9.45848 40.4265 9.51487 41.206C9.72793 41.0506 9.86453 40.9554 9.99863 40.8513C11.5393 39.6716 13.0792 38.4931 14.6182 37.3159C15.2949 36.802 15.894 36.9537 16.2474 37.7269C16.6234 38.5516 16.9743 39.3838 17.3377 40.2109C17.8391 41.3514 18.3404 42.4919 18.8592 43.6787C20.0937 41.8991 21.2918 40.1696 22.4937 38.4375C23.0764 37.5991 23.6868 37.574 24.341 38.3548C25.6268 39.888 26.9139 41.4207 28.2023 42.9531C28.2762 43.0395 28.3176 43.1849 28.4855 43.1611C29.1798 41.1559 29.875 39.1536 30.571 37.1542C30.8755 36.2769 31.4771 36.0777 32.2365 36.5952C33.8633 37.7056 35.4883 38.8194 37.1117 39.9365C37.2371 40.0217 37.3624 40.1019 37.5516 40.2234C37.5792 39.7309 37.6068 39.2998 37.6268 38.8687C37.707 37.1993 37.7722 35.5287 37.87 33.8556C37.9289 32.853 38.4051 32.5497 39.3739 32.8392C41.2438 33.3973 43.114 33.9546 44.9847 34.5111C45.0863 34.5411 45.2354 34.6013 45.2905 34.5587C45.4159 34.4697 45.3056 34.3344 45.2705 34.2216C44.6877 32.3128 44.0962 30.4066 43.5259 28.4942C43.4319 28.1796 43.2841 28.1182 42.9921 28.1859C42.4419 28.3011 41.8842 28.3851 41.3327 28.4942C40.8765 28.5844 40.5369 28.4215 40.28 28.0543C40.1033 27.8036 39.9303 27.5454 39.7235 27.2434C39.652 27.4731 39.593 27.7066 39.5468 27.9427C39.4516 28.637 39.0581 28.9629 38.3663 29.0468C37.6068 29.1408 36.8623 29.305 36.1104 29.4466C35.2419 29.6108 35.0175 29.5068 34.614 28.7248C34.03 27.6068 33.4522 26.4877 32.8394 25.2933L32.8356 25.2946ZM31.1011 23.555C31.1011 20.0935 28.2637 17.2474 24.8147 17.2536C21.3056 17.2612 18.4669 20.0822 18.4719 23.55C18.4953 25.2093 19.1709 26.7928 20.3526 27.9579C21.5342 29.1231 23.127 29.7763 24.7865 29.7763C26.446 29.7763 28.0388 29.1231 29.2205 27.9579C30.4021 26.7928 31.0777 25.2093 31.1011 23.55V23.555ZM2.64197 21.5135C2.73221 21.6914 2.79111 21.8168 2.85754 21.9396C4.55863 25.1145 6.25973 28.2895 7.96083 31.4644C8.61002 32.6775 8.61002 32.6713 9.96605 32.3504C10.1741 32.3003 10.2731 32.2251 10.3207 32.0045C10.4774 31.2726 10.6704 30.5495 10.8433 29.8214C10.8774 29.6275 10.9729 29.4497 11.1158 29.3143C11.2586 29.1789 11.4412 29.0931 11.6366 29.0694C12.0289 29.0067 12.3385 29.1759 12.5616 29.4955C12.831 29.879 13.1481 30.2412 13.3448 30.661C13.7371 31.4995 14.2973 31.6812 15.1709 31.413C15.5945 31.2877 15.7022 31.1235 15.7398 30.7387C15.8652 29.4341 16.0181 28.132 16.1609 26.8286C16.4442 24.2694 16.7236 21.709 17.0144 19.1498C17.042 18.9117 16.963 18.8804 16.7638 18.9192C16.32 19.0214 15.8711 19.1 15.419 19.1548C15.1069 19.1812 15.033 19.3353 14.9966 19.5922C14.6833 21.8644 14.3587 24.1353 14.0529 26.4087C13.9903 26.8649 13.8274 27.2171 13.3674 27.3725C12.9075 27.5279 12.5929 27.3086 12.2833 27.0078C11.8372 26.5754 11.3722 26.1606 10.911 25.7345C10.7055 26.2157 10.4636 26.7546 10.2418 27.301C10.0676 27.7284 9.84323 28.0806 9.32187 28.1107C8.80051 28.1407 8.54109 27.8199 8.30547 27.4214C7.14579 25.4613 5.97858 23.5045 4.80385 21.5511C4.71738 21.4057 4.68479 21.1751 4.4191 21.2165L2.64197 21.5135Z" fill="#020203"/>
<path d="M44.5886 22.6164C43.8655 22.6891 43.6211 22.9184 43.5334 23.619C43.4369 24.371 43.3366 25.1367 43.2551 25.8974C43.2276 26.1556 43.106 26.2283 42.8654 26.321C41.854 26.7108 41.1985 26.3925 40.7574 25.435C40.5894 25.0715 40.3137 24.757 40.0794 24.4261C39.9778 24.2722 39.8332 24.1516 39.6637 24.0791C39.4941 24.0067 39.307 23.9856 39.1256 24.0186C38.9442 24.0516 38.7764 24.1371 38.6432 24.2646C38.51 24.3921 38.4171 24.5559 38.3762 24.7357C38.2057 25.4325 38.0303 26.128 37.8849 26.8311C37.8222 27.1281 37.7057 27.2923 37.3836 27.3249C36.9663 27.3663 36.4888 27.6019 36.1542 27.4678C35.8195 27.3337 35.7255 26.781 35.5338 26.4088C33.9046 23.2489 32.2795 20.0869 30.6586 16.9228C30.5884 16.785 30.5207 16.6471 30.4293 16.4629C31.0383 16.3601 31.6073 16.2724 32.1725 16.1633C32.4432 16.1107 32.4796 16.315 32.5661 16.4691C33.6664 18.446 34.7664 20.4232 35.8659 22.4008C36.0213 22.6803 36.1968 22.9335 36.5264 23.0275C37.0277 23.1653 37.4638 22.9422 37.6969 22.4171C37.9626 21.8206 38.212 21.2165 38.4401 20.6814C38.9013 21.1062 39.3675 21.5185 39.8124 21.9522C40.122 22.2542 40.4466 22.4673 40.8965 22.3194C41.3464 22.1715 41.5081 21.8394 41.5833 21.4032C41.9781 19.096 42.3929 16.7925 42.7877 14.4852C42.829 14.2446 42.913 14.1381 43.1636 14.1092C43.5835 14.0648 44 13.9932 44.4106 13.8949C44.7026 13.8248 44.734 13.9288 44.6889 14.1694C44.6525 14.3687 44.6437 14.573 44.6137 14.7735C44.4959 15.5643 44.6425 15.8438 45.3594 16.1796L45.1338 18.428C44.4846 18.4668 44.1023 18.7589 44.0347 19.2677C43.9707 19.7439 44.2602 20.1086 44.8693 20.3229C44.7758 21.0874 44.6822 21.8519 44.5886 22.6164Z" fill="#FBEB7E"/>
<path d="M44.2203 42.2713C44.0716 42.2813 43.9227 42.2531 43.7879 42.1895C43.653 42.1259 43.5366 42.029 43.4496 41.9079C42.9746 41.2712 42.4971 40.6371 42.0484 39.9841C41.9753 39.8874 41.9224 39.777 41.8929 39.6594C41.8633 39.5417 41.8578 39.4194 41.8767 39.2996C41.8955 39.1798 41.9383 39.065 42.0025 38.9622C42.0666 38.8593 42.1509 38.7704 42.2502 38.7008C42.6751 38.3812 43.2165 38.4501 43.5699 38.9063C44.0449 39.5217 44.4961 40.1596 44.9485 40.7862C45.0616 40.9275 45.1288 41.0999 45.1412 41.2805C45.1535 41.461 45.1103 41.641 45.0174 41.7964C44.9431 41.9428 44.8287 42.0651 44.6876 42.1492C44.5465 42.2333 44.3845 42.2756 44.2203 42.2713Z" fill="#050505"/>
<path d="M4.71124 6.68731C4.72754 6.21358 4.92555 5.92157 5.31406 5.76742C5.70257 5.61326 6.08733 5.69598 6.33296 6.01807C6.85307 6.7011 7.34811 7.41045 7.81182 8.12731C8.06247 8.51457 7.90581 9.0234 7.54111 9.29661C7.17641 9.56982 6.63375 9.56606 6.34174 9.21515C5.77129 8.51185 5.25035 7.7698 4.78268 6.99436C4.73975 6.89742 4.71552 6.79325 4.71124 6.68731Z" fill="#050505"/>
<path d="M36.8046 1.21191C36.6091 2.00272 36.4512 2.90758 36.1278 3.76606C35.9649 4.19719 35.4561 4.3764 35.0287 4.23729C34.6014 4.09818 34.2868 3.65578 34.382 3.22465C34.5625 2.40585 34.7676 1.5929 34.9974 0.785801C35.0624 0.565486 35.2088 0.378148 35.4068 0.261781C35.6049 0.145415 35.8398 0.108731 36.0639 0.159169C36.5126 0.25943 36.8108 0.642929 36.8046 1.21191Z" fill="#050505"/>
<path d="M44.8708 20.3191C44.2617 20.1048 43.9722 19.7401 44.0361 19.2639C44.1038 18.7551 44.486 18.463 45.1352 18.4242C45.7443 18.6962 45.9812 19.0508 45.8872 19.5521C45.8132 20.0021 45.4748 20.2577 44.8708 20.3191Z" fill="#060605"/>
<path d="M19.0811 17.6498C18.7929 16.9354 18.4796 16.7337 17.7664 16.8502C16.5633 17.0491 15.3619 17.258 14.1621 17.4769C13.5805 17.5821 13.3637 17.819 13.2848 18.4043C13.0015 20.3819 12.7233 22.3596 12.4363 24.3786C12.0892 24.1492 11.8611 23.8384 11.5966 23.5677C10.7532 22.7017 10.1065 22.8245 9.62901 23.9437C9.4711 24.3197 9.30817 24.6856 9.1277 25.1055C8.12509 23.4111 7.01721 21.8194 6.19256 20.0924C5.48321 18.6123 5.08843 16.9818 4.56332 15.4177C4.31266 14.6821 4.06201 13.9464 3.80133 13.1619C4.28008 13.1932 4.67862 13.3749 5.08843 13.4952C6.71768 13.974 8.34692 14.4715 9.97616 14.9565C11.0114 15.2661 11.4675 14.9152 11.5152 13.8286C11.6067 11.6905 11.7157 9.55247 11.8185 7.40939C12.0064 7.33921 12.103 7.50088 12.2195 7.57983C13.893 8.732 15.5661 9.88709 17.2388 11.0451C18.1412 11.6717 18.6951 11.4888 19.0498 10.4686C19.7654 8.40824 20.481 6.34662 21.2192 4.21858L23.6292 7.08354C24.2734 7.84929 24.9138 8.61754 25.5605 9.38203C26.1345 10.0625 26.7849 10.0387 27.29 9.3131C28.5575 7.48835 29.8224 5.66234 31.0849 3.83508C31.2578 3.91655 31.2679 4.08574 31.3268 4.22109C32.1489 6.09096 32.9677 7.96208 33.7832 9.83446C34.1917 10.7656 34.767 10.9085 35.5854 10.2844C37.1895 9.05952 38.7925 7.83466 40.3941 6.60981C40.4781 6.54464 40.5646 6.48448 40.7325 6.35916C40.7588 6.69378 40.7864 6.96072 40.7977 7.22767C40.8892 9.22537 41.0107 11.2231 41.0483 13.222C41.0659 14.1081 40.7826 14.9766 40.6348 15.8539C40.4392 17.0169 40.2325 18.1787 40.0169 19.4182C39.6409 19.0422 39.3138 18.7101 38.9905 18.3817C38.3187 17.6999 37.6181 17.834 37.2359 18.7176C37.0642 19.1111 36.8913 19.5046 36.6845 19.9708C36.3448 19.3655 36.0491 18.8429 35.7558 18.3153C35.0953 17.1284 34.4386 15.9341 33.7744 14.756C33.4761 14.2246 33.1854 14.0905 32.5763 14.1908C31.3882 14.3863 30.2005 14.5843 29.0132 14.7848C28.3415 14.8976 28.1046 15.1871 28.0232 16.0043C24.7171 14.7869 21.7364 15.3354 19.0811 17.6498Z" fill="#7FB4FD"/>
<path d="M32.8393 25.2933C33.4559 26.4876 34.0337 27.6068 34.6102 28.726C35.0137 29.508 35.2368 29.612 36.1066 29.4478C36.8586 29.3062 37.6105 29.142 38.3625 29.0481C39.0543 28.9641 39.4478 28.6382 39.543 27.9439C39.5892 27.7078 39.6482 27.4743 39.7197 27.2446C39.9265 27.5466 40.0957 27.8023 40.2762 28.0555C40.5331 28.4227 40.8728 28.5856 41.3289 28.4954C41.8804 28.3863 42.4381 28.3024 42.9883 28.1871C43.2803 28.1244 43.4282 28.1808 43.5222 28.4954C44.0924 30.4078 44.6839 32.3141 45.2667 34.2228C45.3018 34.3356 45.4096 34.4734 45.2867 34.5599C45.2266 34.6025 45.0825 34.5424 44.981 34.5123C43.1102 33.9575 41.24 33.4002 39.3701 32.8404C38.3988 32.5509 37.9226 32.8555 37.8662 33.8568C37.7684 35.5262 37.7033 37.1968 37.623 38.8699C37.603 39.301 37.5754 39.7321 37.5478 40.2247C37.3611 40.0993 37.2333 40.0229 37.1079 39.9377C35.482 38.8239 33.857 37.7102 32.2328 36.5965C31.4733 36.0789 30.8717 36.2819 30.5672 37.1554C29.8695 39.1606 29.1744 41.1629 28.4817 43.1623C28.3138 43.1861 28.2724 43.037 28.1985 42.9543C26.9093 41.4228 25.6222 39.89 24.3372 38.356C23.683 37.5753 23.0726 37.6041 22.4899 38.4388C21.2867 40.1683 20.0886 41.9003 18.8554 43.6799C18.3341 42.4931 17.8328 41.3526 17.334 40.2121C16.9705 39.385 16.6158 38.5528 16.2436 37.7282C15.8952 36.9549 15.2961 36.8032 14.6144 37.3171C13.0712 38.4918 11.5313 39.6703 9.99484 40.8525C9.86074 40.9541 9.72414 41.0518 9.51108 41.2072C9.45469 40.4277 9.39954 39.7221 9.35192 39.0153C9.26043 37.6592 9.18774 36.3019 9.07369 34.9472C9.03986 34.5373 9.12884 34.3644 9.56497 34.3356C10.0011 34.3067 10.4222 34.1564 10.8558 34.1075C11.5238 34.031 11.9161 33.7064 12.0051 33.0272C12.0522 32.7832 12.1133 32.5422 12.1881 32.3053C12.3673 32.5672 12.5189 32.769 12.6493 32.9846C12.9425 33.4696 13.3423 33.6601 13.9151 33.5423C14.8024 33.3618 15.6984 33.2189 16.5895 33.0522C17.0908 32.9595 17.3979 32.6763 17.4568 32.1474C17.6047 30.8152 17.7563 29.4842 17.913 28.0906C20.0573 30.8741 22.8007 32.215 26.2785 31.5709C29.7563 30.9267 31.8254 28.7159 32.8393 25.2933Z" fill="#7FB4FD"/>
<path d="M31.1011 23.5538C31.0777 25.2131 30.4022 26.7966 29.2205 27.9617C28.0388 29.1268 26.446 29.78 24.7866 29.78C23.1271 29.78 21.5343 29.1268 20.3526 27.9617C19.1709 26.7966 18.4954 25.2131 18.472 23.5538C18.472 20.086 21.3094 17.2649 24.8148 17.2574C28.2637 17.2461 31.1024 20.0923 31.1011 23.5538ZM24.7684 27.355C25.5212 27.3584 26.2581 27.1386 26.8859 26.7232C27.5137 26.3079 28.0043 25.7157 28.2956 25.0216C28.5869 24.3274 28.6658 23.5625 28.5223 22.8235C28.3788 22.0845 28.0195 21.4047 27.4896 20.8699C26.9598 20.3352 26.2833 19.9695 25.5456 19.8193C24.808 19.669 24.0424 19.7409 23.3456 20.0257C22.6488 20.3106 22.0521 20.7957 21.631 21.4197C21.2099 22.0436 20.9832 22.7785 20.9798 23.5313C20.9766 24.0313 21.0722 24.5271 21.2611 24.9901C21.4499 25.4532 21.7283 25.8744 22.0803 26.2296C22.4323 26.5848 22.8509 26.8671 23.3122 27.0602C23.7735 27.2533 24.2683 27.3535 24.7684 27.355Z" fill="#DCEAFC"/>
<path d="M2.64209 21.5135L4.41922 21.2165C4.68491 21.1714 4.7175 21.4058 4.80397 21.5511C5.97368 23.5046 7.1434 25.4613 8.31311 27.4214C8.54872 27.82 8.81442 28.1421 9.32951 28.1107C9.8446 28.0794 10.0815 27.7347 10.2494 27.3011C10.4712 26.7547 10.7131 26.2158 10.9186 25.7345C11.3798 26.1606 11.8448 26.5755 12.291 27.0078C12.6005 27.3086 12.9176 27.5242 13.375 27.3725C13.8325 27.2209 14.0017 26.865 14.0606 26.4088C14.3664 24.1354 14.6872 21.8644 15.0043 19.5923C15.0406 19.3416 15.1146 19.1812 15.4266 19.1549C15.8765 19.1015 16.3233 19.0245 16.7651 18.9243C16.9644 18.8854 17.0433 18.9168 17.0158 19.1549C16.725 21.7141 16.4455 24.2745 16.1623 26.8336C16.0194 28.137 15.8665 29.4392 15.7412 30.7438C15.7036 31.1286 15.5958 31.2903 15.1722 31.4181C14.2949 31.6813 13.7385 31.4995 13.3462 30.6661C13.1495 30.2463 12.8324 29.8841 12.5629 29.5006C12.3398 29.181 12.0303 29.0118 11.638 29.0745C11.4426 29.0981 11.26 29.184 11.1171 29.3194C10.9743 29.4548 10.8788 29.6326 10.8447 29.8264C10.6718 30.5546 10.4788 31.2777 10.3221 32.0096C10.2745 32.2315 10.1755 32.3054 9.96742 32.3555C8.6164 32.6764 8.6164 32.6826 7.9622 31.4695C6.26026 28.2945 4.55917 25.1196 2.8589 21.9447C2.79123 21.8231 2.73232 21.6978 2.64209 21.5135Z" fill="#FB7B95"/>
<path d="M24.7684 27.355C24.0157 27.3488 23.2818 27.1196 22.6594 26.6963C22.0371 26.273 21.5541 25.6747 21.2717 24.9771C20.9893 24.2794 20.9201 23.5136 21.0728 22.7766C21.2256 22.0396 21.5934 21.3644 22.1298 20.8364C22.6662 20.3084 23.3471 19.9513 24.0864 19.8102C24.8258 19.6692 25.5903 19.7505 26.2835 20.0439C26.9766 20.3373 27.5672 20.8296 27.9806 21.4586C28.3939 22.0876 28.6115 22.825 28.6059 23.5777C28.6046 24.0784 28.504 24.574 28.31 25.0356C28.1159 25.4972 27.8322 25.9158 27.4753 26.2671C27.1185 26.6184 26.6955 26.8954 26.2308 27.0822C25.7662 27.2689 25.2691 27.3616 24.7684 27.355ZM24.7959 25.4751C25.1769 25.4739 25.5488 25.3598 25.865 25.1473C26.1811 24.9348 26.4272 24.6334 26.5721 24.2812C26.7171 23.9289 26.7545 23.5416 26.6795 23.1682C26.6045 22.7947 26.4206 22.4519 26.1509 22.1829C25.8812 21.9139 25.5378 21.7308 25.1642 21.6568C24.7905 21.5828 24.4033 21.6212 24.0515 21.767C23.6996 21.9129 23.3989 22.1598 23.1872 22.4765C22.9755 22.7931 22.8624 23.1654 22.8622 23.5463C22.8615 23.8002 22.9111 24.0517 23.0081 24.2864C23.1051 24.521 23.2476 24.7341 23.4274 24.9134C23.6071 25.0927 23.8206 25.2347 24.0555 25.3311C24.2904 25.4275 24.5421 25.4764 24.7959 25.4751Z" fill="#020203"/>
<path d="M24.7958 25.4751C24.5427 25.4744 24.2922 25.4239 24.0586 25.3264C23.825 25.2289 23.6128 25.0864 23.4343 24.9069C23.2558 24.7275 23.1144 24.5146 23.0181 24.2805C22.9218 24.0464 22.8726 23.7956 22.8733 23.5425C22.874 23.2894 22.9245 23.0389 23.0219 22.8053C23.1194 22.5717 23.2619 22.3595 23.4414 22.181C23.6209 22.0025 23.8337 21.8611 24.0678 21.7648C24.3019 21.6685 24.5527 21.6193 24.8058 21.62C25.317 21.6213 25.8068 21.8257 26.1673 22.1881C26.5279 22.5505 26.7297 23.0413 26.7283 23.5525C26.727 24.0638 26.5227 24.5535 26.1602 24.914C25.7978 25.2746 25.307 25.4764 24.7958 25.4751Z" fill="#7EB3FB"/>
</g>
<defs>
<clipPath id="clip0_209_3118">
<rect width="48" height="48" fill="white" transform="translate(0 0.148193)"/>
</clipPath>
</defs>
</svg>
